<svg xmlns="http://www.w3.org/2000/svg" width="1668.158" height="1745.707" viewBox="0 0 1668.158 1745.707"><g transform="translate(150.586 -18171.264)"><path d="M-.127,73.145s1023.642-357.077,1364.856,0,0,1428.307,0,1428.307-1023.642,357.076-1364.856,0S-.127,73.145-.127,73.145Z" transform="translate(1.191 18256.818)" fill="#21455e" opacity="0.05"/><g transform="translate(-57 18526)"><g transform="translate(-224.153 -1224.002) rotate(45)"><rect width="3" height="3" transform="translate(1064 667)" fill="#2a52c6"/><rect width="3" height="3" transform="translate(1077 667)" fill="#2a52c6"/><rect width="3" height="3" transform="translate(1090 667)" fill="#2a52c6"/><rect width="3" height="3" transform="translate(1103 667)" fill="#2a52c6"/><rect width="3" height="3" transform="translate(1116 667)" fill="#2a52c6"/><rect width="3" height="3" transform="translate(1129 667)" fill="#2a52c6"/><rect width="3" height="3" transform="translate(1142 667)" fill="#2a52c6"/><rect width="3" height="3" transform="translate(1064 680)" fill="#2a52c6"/><rect width="3" height="3" transform="translate(1077 680)" fill="#2a52c6"/><rect width="3" height="3" transform="translate(1090 680)" fill="#2a52c6"/><rect width="3" height="3" transform="translate(1103 680)" fill="#2a52c6"/><rect width="3" height="3" transform="translate(1116 680)" fill="#2a52c6"/><rect width="3" height="3" transform="translate(1129 680)" fill="#2a52c6"/><rect width="3" height="3" transform="translate(1142 680)" fill="#2a52c6"/><rect width="3" height="3" transform="translate(1064 693)" fill="#2a52c6"/><rect width="3" height="3" transform="translate(1077 693)" fill="#2a52c6"/><rect width="3" height="3" transform="translate(1090 693)" fill="#2a52c6"/><rect width="3" height="3" transform="translate(1103 693)" fill="#2a52c6"/><rect width="3" height="3" transform="translate(1116 693)" fill="#2a52c6"/><rect width="3" height="3" transform="translate(1129 693)" fill="#2a52c6"/><rect width="3" height="3" transform="translate(1142 693)" fill="#2a52c6"/><rect width="3" height="3" transform="translate(1064 706)" fill="#2a52c6"/><rect width="3" height="3" transform="translate(1077 706)" fill="#2a52c6"/><rect width="3" height="3" transform="translate(1090 706)" fill="#2a52c6"/><rect width="3" height="3" transform="translate(1103 706)" fill="#2a52c6"/><rect width="3" height="3" transform="translate(1116 706)" fill="#2a52c6"/><rect width="3" height="3" transform="translate(1129 706)" fill="#2a52c6"/><rect width="3" height="3" transform="translate(1142 706)" fill="#2a52c6"/><rect width="3" height="3" transform="translate(1064 719)" fill="#2a52c6"/><rect width="3" height="3" transform="translate(1077 719)" fill="#2a52c6"/><rect width="3" height="3" transform="translate(1090 719)" fill="#2a52c6"/><rect width="3" height="3" transform="translate(1103 719)" fill="#2a52c6"/><rect width="3" height="3" transform="translate(1116 719)" fill="#2a52c6"/><rect width="3" height="3" transform="translate(1129 719)" fill="#2a52c6"/><rect width="3" height="3" transform="translate(1142 719)" fill="#2a52c6"/><rect width="3" height="3" transform="translate(1064 731)" fill="#2a52c6"/><rect width="3" height="3" transform="translate(1077 731)" fill="#2a52c6"/><rect width="3" height="3" transform="translate(1090 731)" fill="#2a52c6"/><rect width="3" height="3" transform="translate(1103 731)" fill="#2a52c6"/><rect width="3" height="3" transform="translate(1116 731)" fill="#2a52c6"/><rect width="3" height="3" transform="translate(1129 731)" fill="#2a52c6"/><rect width="3" height="3" transform="translate(1142 731)" fill="#2a52c6"/><rect width="3" height="3" transform="translate(1064 744)" fill="#2a52c6"/><rect width="3" height="3" transform="translate(1077 744)" fill="#2a52c6"/><rect width="3" height="3" transform="translate(1090 744)" fill="#2a52c6"/><rect width="3" height="3" transform="translate(1103 744)" fill="#2a52c6"/><rect width="3" height="3" transform="translate(1116 744)" fill="#2a52c6"/><rect width="3" height="3" transform="translate(1129 744)" fill="#2a52c6"/><rect width="3" height="3" transform="translate(1142 744)" fill="#2a52c6"/></g></g><g transform="translate(-1807.222 18078.127)"><path d="M917.9,625.223c0,29.891,18.752,54.079,41.926,54.079" transform="translate(1714.266 1000.104)" fill="#46455b"/><path d="M1000.6,678.711c0-30.227,20.926-54.686,46.787-54.686" transform="translate(1673.493 1000.695)" fill="#38a2ff"/><path d="M947.86,630.568c0,28.393,11.958,51.369,26.736,51.369" transform="translate(1699.494 997.469)" fill="#38a2ff"/><path d="M1000.6,663.938c0-38.623,24.188-69.877,54.079-69.877" transform="translate(1673.493 1015.468)" fill="#46455b"/><path d="M983.2,729.521s5.946-.183,7.738-1.459,9.146-2.8,9.591-.753,8.936,10.178,2.223,10.232-15.6-1.046-17.386-2.135S983.2,729.521,983.2,729.521Z" transform="translate(1682.071 950.267)" fill="#a8a8a8"/><path d="M1002.869,739.945c-6.713.054-15.6-1.046-17.386-2.135-1.362-.83-1.9-3.807-2.086-5.18l-.2.008s.377,4.8,2.165,5.885,10.673,2.189,17.386,2.135c1.938-.016,2.607-.705,2.57-1.726C1005.051,739.548,1004.311,739.934,1002.869,739.945Z" transform="translate(1682.071 947.15)" opacity="0.2"/><line x2="37.516" transform="translate(2658.386 1687.324)" fill="none" stroke="#3f3d56" stroke-miterlimit="10" stroke-width="1"/></g><g transform="translate(737 19744)"><path d="M9.177,0l9.177,15.566H0Z" transform="matrix(0.891, 0.454, -0.454, 0.891, 159.205, 1.395)" fill="#2a52c6"/><circle cx="4.194" cy="4.194" r="4.194" transform="matrix(0.951, -0.309, 0.309, 0.951, 0, 35.739)" fill="#38a2ff"/><rect width="10.067" height="10.067" transform="matrix(0.951, -0.309, 0.309, 0.951, 35.266, 3.111)" fill="#f8ced7"/></g><g transform="translate(1309 19574)"><g transform="translate(-224.153 -1224.002) rotate(45)"><rect width="3" height="3" transform="translate(1064 667)" fill="#2a52c6"/><rect width="3" height="3" transform="translate(1077 667)" fill="#2a52c6"/><rect width="3" height="3" transform="translate(1090 667)" fill="#2a52c6"/><rect width="3" height="3" transform="translate(1103 667)" fill="#2a52c6"/><rect width="3" height="3" transform="translate(1116 667)" fill="#2a52c6"/><rect width="3" height="3" transform="translate(1129 667)" fill="#2a52c6"/><rect width="3" height="3" transform="translate(1142 667)" fill="#2a52c6"/><rect width="3" height="3" transform="translate(1064 680)" fill="#2a52c6"/><rect width="3" height="3" transform="translate(1077 680)" fill="#2a52c6"/><rect width="3" height="3" transform="translate(1090 680)" fill="#2a52c6"/><rect width="3" height="3" transform="translate(1103 680)" fill="#2a52c6"/><rect width="3" height="3" transform="translate(1116 680)" fill="#2a52c6"/><rect width="3" height="3" transform="translate(1129 680)" fill="#2a52c6"/><rect width="3" height="3" transform="translate(1142 680)" fill="#2a52c6"/><rect width="3" height="3" transform="translate(1064 693)" fill="#2a52c6"/><rect width="3" height="3" transform="translate(1077 693)" fill="#2a52c6"/><rect width="3" height="3" transform="translate(1090 693)" fill="#2a52c6"/><rect width="3" height="3" transform="translate(1103 693)" fill="#2a52c6"/><rect width="3" height="3" transform="translate(1116 693)" fill="#2a52c6"/><rect width="3" height="3" transform="translate(1129 693)" fill="#2a52c6"/><rect width="3" height="3" transform="translate(1142 693)" fill="#2a52c6"/><rect width="3" height="3" transform="translate(1064 706)" fill="#2a52c6"/><rect width="3" height="3" transform="translate(1077 706)" fill="#2a52c6"/><rect width="3" height="3" transform="translate(1090 706)" fill="#2a52c6"/><rect width="3" height="3" transform="translate(1103 706)" fill="#2a52c6"/><rect width="3" height="3" transform="translate(1116 706)" fill="#2a52c6"/><rect width="3" height="3" transform="translate(1129 706)" fill="#2a52c6"/><rect width="3" height="3" transform="translate(1142 706)" fill="#2a52c6"/><rect width="3" height="3" transform="translate(1064 719)" fill="#2a52c6"/><rect width="3" height="3" transform="translate(1077 719)" fill="#2a52c6"/><rect width="3" height="3" transform="translate(1090 719)" fill="#2a52c6"/><rect width="3" height="3" transform="translate(1103 719)" fill="#2a52c6"/><rect width="3" height="3" transform="translate(1116 719)" fill="#2a52c6"/><rect width="3" height="3" transform="translate(1129 719)" fill="#2a52c6"/><rect width="3" height="3" transform="translate(1142 719)" fill="#2a52c6"/><rect width="3" height="3" transform="translate(1064 731)" fill="#2a52c6"/><rect width="3" height="3" transform="translate(1077 731)" fill="#2a52c6"/><rect width="3" height="3" transform="translate(1090 731)" fill="#2a52c6"/><rect width="3" height="3" transform="translate(1103 731)" fill="#2a52c6"/><rect width="3" height="3" transform="translate(1116 731)" fill="#2a52c6"/><rect width="3" height="3" transform="translate(1129 731)" fill="#2a52c6"/><rect width="3" height="3" transform="translate(1142 731)" fill="#2a52c6"/><rect width="3" height="3" transform="translate(1064 744)" fill="#2a52c6"/><rect width="3" height="3" transform="translate(1077 744)" fill="#2a52c6"/><rect width="3" height="3" transform="translate(1090 744)" fill="#2a52c6"/><rect width="3" height="3" transform="translate(1103 744)" fill="#2a52c6"/><rect width="3" height="3" transform="translate(1116 744)" fill="#2a52c6"/><rect width="3" height="3" transform="translate(1129 744)" fill="#2a52c6"/><rect width="3" height="3" transform="translate(1142 744)" fill="#2a52c6"/></g></g></g></svg>