<svg xmlns="http://www.w3.org/2000/svg" width="240.252" height="235.924" viewBox="0 0 240.252 235.924">
  <g id="Group_23311" data-name="Group 23311" transform="translate(-155 -1209)">
    <path id="Path_18572" data-name="Path 18572" d="M95.611,197.459C141.183,197.441,209.589,72.7,186.82,31.141S27.337-10.365,4.534,31.214,50.04,197.477,95.611,197.459Z" transform="matrix(-0.259, -0.966, 0.966, -0.259, 204.522, 1444.924)" fill="#2a52c6"/>
    <path id="Icon_awesome-server" data-name="Icon awesome-server" d="M59.03,17.991H3.935A3.935,3.935,0,0,1,0,14.056V6.185A3.935,3.935,0,0,1,3.935,2.25H59.03a3.935,3.935,0,0,1,3.935,3.935v7.871A3.935,3.935,0,0,1,59.03,17.991Zm-5.9-10.822a2.952,2.952,0,1,0,2.952,2.952A2.951,2.951,0,0,0,53.127,7.169Zm-7.871,0a2.952,2.952,0,1,0,2.952,2.952A2.951,2.951,0,0,0,45.256,7.169Zm13.774,30.5H3.935A3.935,3.935,0,0,1,0,33.733V25.862a3.935,3.935,0,0,1,3.935-3.935H59.03a3.935,3.935,0,0,1,3.935,3.935v7.871A3.935,3.935,0,0,1,59.03,37.668Zm-5.9-10.822A2.952,2.952,0,1,0,56.079,29.8,2.951,2.951,0,0,0,53.127,26.846Zm-7.871,0A2.952,2.952,0,1,0,48.208,29.8,2.951,2.951,0,0,0,45.256,26.846Zm13.774,30.5H3.935A3.935,3.935,0,0,1,0,53.409V45.539A3.935,3.935,0,0,1,3.935,41.6H59.03a3.935,3.935,0,0,1,3.935,3.935v7.871A3.935,3.935,0,0,1,59.03,57.345Zm-5.9-10.822a2.952,2.952,0,1,0,2.952,2.952A2.951,2.951,0,0,0,53.127,46.523Zm-7.871,0a2.952,2.952,0,1,0,2.952,2.952A2.951,2.951,0,0,0,45.256,46.523Z" transform="translate(230 1297.75)" fill="#fff"/>
  </g>
</svg>
