<svg xmlns="http://www.w3.org/2000/svg" width="240.252" height="235.924" viewBox="0 0 240.252 235.924">
  <g id="Group_23312" data-name="Group 23312" transform="translate(-570 -1209)">
    <path id="Path_31390" data-name="Path 31390" d="M95.611,197.459C141.183,197.441,209.589,72.7,186.82,31.141S27.337-10.365,4.534,31.214,50.04,197.477,95.611,197.459Z" transform="matrix(-0.259, -0.966, 0.966, -0.259, 619.522, 1444.924)" fill="#f5bfcb"/>
    <path id="Icon_awesome-wrench" data-name="Icon awesome-wrench" d="M66.27,14.24a1.565,1.565,0,0,0-2.626-.719l-9.706,9.706-8.86-1.476L43.6,12.89l9.706-9.706A1.569,1.569,0,0,0,52.569.553,18.7,18.7,0,0,0,30.3,24.717L2.446,52.569A8.352,8.352,0,0,0,14.258,64.381L42.087,36.552A18.733,18.733,0,0,0,66.27,14.24ZM8.354,61.606a3.133,3.133,0,1,1,3.133-3.133A3.133,3.133,0,0,1,8.354,61.606Z" transform="translate(648.079 1300.095)" fill="#fff"/>
  </g>
</svg>
