<svg xmlns="http://www.w3.org/2000/svg" width="240.252" height="235.924" viewBox="0 0 240.252 235.924">
  <g id="Group_23313" data-name="Group 23313" transform="translate(-975 -1209)">
    <path id="Path_31391" data-name="Path 31391" d="M95.611,197.459C141.183,197.441,209.589,72.7,186.82,31.141S27.337-10.365,4.534,31.214,50.04,197.477,95.611,197.459Z" transform="matrix(-0.259, -0.966, 0.966, -0.259, 1024.522, 1444.924)" fill="#38a2ff"/>
    <path id="Icon_ionic-ios-lock" data-name="Icon ionic-ios-lock" d="M49.339,25.279H45.689v-7.1a14.6,14.6,0,1,0-29.2-.2v7.3H12.834A6.1,6.1,0,0,0,6.75,31.363v29.2a6.1,6.1,0,0,0,6.084,6.084H49.339a6.1,6.1,0,0,0,6.084-6.084v-29.2A6.1,6.1,0,0,0,49.339,25.279ZM33.216,44.261V54.726a2.181,2.181,0,0,1-2.023,2.19,2.132,2.132,0,0,1-2.236-2.129V44.261a4.867,4.867,0,1,1,4.259,0ZM41.43,25.279H20.744v-7.3a10.343,10.343,0,0,1,20.686,0Z" transform="translate(1052.25 1288.443)" fill="#fff"/>
  </g>
</svg>
