<svg xmlns="http://www.w3.org/2000/svg" width="432.92" height="322.573" viewBox="0 0 432.92 322.573"><g transform="translate(-340 -16106)"><rect width="263.714" height="1.12" transform="translate(388.371 16410.1)" fill="#3f3d56"/><path d="M538.905,425.02s-5.6,25.185,5.6,20.708,4.477-21.827,4.477-21.827Z" transform="translate(-10.682 15831.011)" fill="#ffb9b9"/><path d="M753.52,443.964s13.432,16.23,5.037,19.588-12.872-15.111-11.753-16.79S753.52,443.964,753.52,443.964Z" transform="translate(-120.638 15820.46)" fill="#ffb9b9"/><circle cx="16.79" cy="16.79" r="16.79" transform="translate(584.19 16116.112)" fill="#ffb9b9"/><path d="M521.307,70.3l-2.239,17.35,18.469,6.716,3.918-19.588Z" transform="translate(67.081 16069.035)" fill="#ffb9b9"/><path d="M627.408,206.763s-9.488-4.684-11.46-8.5l-4.211,4.021s-30.222-2.8-34.7,12.313-.56,69.959-.56,69.959-6.156,24.625-4.477,25.185,22.387,10.634,51.489,5.037c0,0,12.872-2.239,15.111-.56s-1.119-26.864-1.119-26.864,22.387-50.37,18.469-56.527S634.683,211.8,634.683,211.8l1.119-6.156S627.967,209,627.408,206.763Z" transform="translate(-28.666 15949.646)" fill="#cfcce0"/><path d="M561.84,224.447s-10.074,5.037-11.753,12.872-17.35,72.757-15.671,76.675,1.119,8.955,1.119,8.955l14.551-1.679s-2.8-3.918-1.119-5.6,3.358-7.276,2.239-9.514-2.239,1.679,3.918-5.6S575.272,226.686,561.84,224.447Z" transform="translate(-8.991 15935.879)" fill="#cfcce0"/><path d="M720.552,264.574s4.757.28,5.877,8.115,3.078,56.247,3.078,56.247,7.276,15.671,4.477,17.909-1.119,5.6-1.119,5.6l-10.074,2.8L700.964,321.1Z" transform="translate(-96.625 15914.782)" fill="#cfcce0"/><path d="M568.211,428.622s-3.358.56-3.358,12.872-6.156,50.37-2.239,56.527,4.477,61.564,4.477,61.564,10.634,4.477,19.588-10.074l1.119-7.835,2.239-38.058,8.955-47.572,12.313,52.609s-1.679,63.243,4.477,63.243,17.909-5.037,17.909-5.037,2.8-5.6,1.679-8.4-2.239-2.239-1.119-4.477,2.8-60.444,2.8-60.444-2.239-59.885-5.037-61.564S568.211,428.622,568.211,428.622Z" transform="translate(-23.197 15828.527)" fill="#2f2e41"/><path d="M557.147,690.139l-8.955,9.514s-16.23,15.111-2.239,15.671,21.827-8.955,21.827-10.074.56-5.037,4.477-5.037,13.432-9.514,11.193-13.432-8.955-5.6-8.955-5.6Z" transform="translate(-12.133 15695.734)" fill="#2f2e41"/><path d="M672.9,719.088s-6.716,13.432-2.8,16.23a47.114,47.114,0,0,1,5.037,3.918s3.358-.56,2.8,4.477,20.148,7.835,21.267,3.918.56-11.753-1.679-13.992-8.955-17.909-8.955-17.909S681.292,707.335,672.9,719.088Z" transform="translate(-79.751 15679.097)" fill="#2f2e41"/><path d="M688.563,123.307l3.163-.449s-4.4-8.1-12.925-9.576l2.992-2.019s-5.2-3.715-11.916,1.06c-3.532,2.51-7.632,5.473-10.648,9.2l-3.085-.754.595,3.15-5.2,1.734,4.75.621a16.311,16.311,0,0,0-1.275,4.672,6.264,6.264,0,0,0,1.255,4.525h0s5.38-6.523,5.662-7.676l-.7,2.883s3.515-1.891,3.938-3.621l1.078,2.4,1.561-2.98,8.915,5.54-.937-2.979,5.813,2.337-1.582-3.748s5.893,5.413,5.38,8.649a15.677,15.677,0,0,0,.745,6.728S695.1,129.488,688.563,123.307Z" transform="translate(-70.637 15996.114)" fill="#2f2e41"/><rect width="89.627" height="1.072" transform="translate(683.294 16309.651)" fill="#3f3d56"/><rect width="21.604" height="21.604" transform="translate(416.299 16392.287)" fill="#cfcce0"/><path d="M318.785,727.943H296.044V705.2h22.741Zm-21.6-1.137h20.467V706.339H297.181Z" transform="translate(116.276 15683.105)" fill="#3f3d56"/><rect width="14.659" height="14.152" transform="matrix(0.933, -0.361, 0.361, 0.933, 447.869, 16208.804)" fill="#f2f2f2"/><path d="M383.478,325.755l-14.392,5.566-5.373-13.894,14.392-5.566Zm-13.941,4.593,12.953-5.01-4.836-12.5L364.7,317.843Z" transform="translate(80.697 15889.918)" fill="#3f3d56"/><rect width="14.659" height="14.152" transform="translate(708.005 16350.556) rotate(71.027)" fill="#f2f2f2"/><path d="M898.227,637.858l-5.017-14.593,14.087-4.843,5.017,14.592Zm-4.062-14.1,4.515,13.133,12.679-4.359-4.515-13.133Z" transform="translate(-197.705 15728.733)" fill="#3f3d56"/><path d="M270.653,509.5c8.016.172,14.393,5.981,14.393,5.981s-6.62,5.53-14.636,5.358-14.393-5.981-14.393-5.981S262.637,509.332,270.653,509.5Z" transform="translate(137.321 15786.003)" fill="#27b206"/><path d="M190.057,438.364c7.242,3.441,15.546,1.108,15.546,1.108s-3.437-7.911-10.679-11.352-15.546-1.107-15.546-1.107S182.815,434.923,190.057,438.364Z" transform="translate(177.617 15829.781)" fill="#27b206"/><path d="M187.993,444.517c7.985-.73,14.973,4.326,14.973,4.326s-5.957,6.239-13.941,6.969-14.973-4.326-14.973-4.326S180.008,445.247,187.993,444.517Z" transform="translate(180.417 15820.208)" fill="#3f3d56"/><path d="M265.082,432.09c-.765,7.981,4.259,14.992,4.259,14.992s6.265-5.929,7.031-13.91-4.259-14.992-4.259-14.992S265.848,424.109,265.082,432.09Z" transform="translate(132.597 15834.019)" fill="#3f3d56"/><path d="M341.155,540.29c-4.188,6.837-2.747,15.342-2.747,15.342s8.231-2.581,12.419-9.418,2.747-15.342,2.747-15.342S345.342,533.453,341.155,540.29Z" transform="translate(94.127 15774.765)" fill="#3f3d56"/><path d="M272.83,573.876l.61-.412a19.12,19.12,0,0,1-3.375-10.6c.017-5.546,2.741-10.675,5.375-15.635.489-.921.976-1.839,1.445-2.756a60.152,60.152,0,0,0,4.679-11.745c4.086-15.184.063-33.1-10.761-47.922-8.587-11.759-21.387-22.041-39.131-31.435l-.345.651c17.644,9.34,30.362,19.552,38.881,31.218,10.694,14.644,14.673,32.325,10.644,47.3a59.436,59.436,0,0,1-4.623,11.6c-.467.914-.953,1.828-1.44,2.745-2.676,5.039-5.444,10.25-5.461,15.978a19.864,19.864,0,0,0,3.5,11.018Z" transform="translate(150.303 15815.517)" fill="#3f3d56"/><circle cx="6.997" cy="6.997" r="6.997" transform="translate(340 16255.857)" fill="#3f3d56"/><path d="M718.179,317.168l-90.07-32.349,16.08-44.772,56.082-13.754,33.988,46.1Z" transform="translate(9.749 15987.018)" fill="#2f2e41"/><path d="M863.945,407.579l-67.31-25.658c17.474-23.406,25.288-39.916,25.293-65.9l67.31,25.658C873.6,363.9,867.062,380.594,863.945,407.579Z" transform="translate(-146.928 15887.729)" fill="#f2f2f2"/><rect width="37.319" height="1.736" transform="translate(687.443 16219.629) rotate(20.866)" fill="#3f3d56"/><rect width="37.319" height="1.736" transform="translate(684.97 16226.116) rotate(20.866)" fill="#3f3d56"/><rect width="37.319" height="1.736" transform="translate(682.497 16232.604) rotate(20.866)" fill="#3f3d56"/><rect width="37.319" height="1.736" transform="translate(680.024 16239.092) rotate(20.866)" fill="#3f3d56"/><rect width="37.319" height="1.736" transform="translate(677.551 16245.579) rotate(20.866)" fill="#3f3d56"/><rect width="37.319" height="1.736" transform="translate(675.078 16252.066) rotate(20.866)" fill="#3f3d56"/><rect width="37.319" height="1.736" transform="translate(672.605 16258.555) rotate(20.866)" fill="#3f3d56"/><rect width="37.319" height="1.736" transform="translate(670.132 16265.043) rotate(20.866)" fill="#3f3d56"/><path d="M713.791,338.212l-90.07-32.35L641.882,255.3l38.036,35.664,52.035-3.314Z" transform="translate(12.057 15971.769)" fill="#3f3d56"/><path d="M667.353,344.877l-44.911-16.13,10.943-30.47.893.321-10.622,29.577,44.018,15.81Z" transform="translate(12.729 15949.17)" fill="#6c63ff"/><rect width="13.992" height="5.597" transform="translate(650.95 16256.914) rotate(19.756)" fill="#27b206"/></g></svg>