<svg xmlns="http://www.w3.org/2000/svg" xmlns:xlink="http://www.w3.org/1999/xlink" width="937.891" height="714.479" viewBox="0 0 937.891 714.479"><defs><filter id="a" x="63.406" y="83" width="695" height="477" filterUnits="userSpaceOnUse"><feOffset dy="3" input="SourceAlpha"/><feGaussianBlur stdDeviation="3" result="b"/><feFlood flood-opacity="0.102"/><feComposite operator="in" in2="b"/><feComposite in="SourceGraphic"/></filter><pattern id="c" preserveAspectRatio="xMidYMid slice" width="100%" height="100%" viewBox="0 0 500 334"><image width="500" height="334" xlink:href="Group%2024456-image.png"/></pattern><pattern id="d" width="1" height="1" viewBox="0 0 30.299 30.186"><image preserveAspectRatio="xMidYMid slice" width="45.279" height="30.186" xlink:href="Group%2024456-image2.png"/></pattern></defs><g transform="translate(-530 -15028)"><g transform="translate(1233 15072)"><g transform="translate(760.729 -1064) rotate(90)"><rect width="3.515" height="3.515" transform="translate(1064 667)" fill="#2a52c6"/><rect width="3.515" height="3.515" transform="translate(1079.231 667)" fill="#2a52c6"/><rect width="3.515" height="3.515" transform="translate(1094.462 667)" fill="#2a52c6"/><rect width="3.515" height="3.515" transform="translate(1109.693 667)" fill="#2a52c6"/><rect width="3.515" height="3.515" transform="translate(1124.924 667)" fill="#2a52c6"/><rect width="3.515" height="3.515" transform="translate(1140.155 667)" fill="#2a52c6"/><rect width="3.515" height="3.515" transform="translate(1155.386 667)" fill="#2a52c6"/><rect width="3.515" height="3.515" transform="translate(1064 682.231)" fill="#2a52c6"/><rect width="3.515" height="3.515" transform="translate(1079.231 682.231)" fill="#2a52c6"/><rect width="3.515" height="3.515" transform="translate(1094.462 682.231)" fill="#2a52c6"/><rect width="3.515" height="3.515" transform="translate(1109.693 682.231)" fill="#2a52c6"/><rect width="3.515" height="3.515" transform="translate(1124.924 682.231)" fill="#2a52c6"/><rect width="3.515" height="3.515" transform="translate(1140.155 682.231)" fill="#2a52c6"/><rect width="3.515" height="3.515" transform="translate(1155.386 682.231)" fill="#2a52c6"/><rect width="3.515" height="3.515" transform="translate(1064 697.462)" fill="#2a52c6"/><rect width="3.515" height="3.515" transform="translate(1079.231 697.462)" fill="#2a52c6"/><rect width="3.515" height="3.515" transform="translate(1094.462 697.462)" fill="#2a52c6"/><rect width="3.515" height="3.515" transform="translate(1109.693 697.462)" fill="#2a52c6"/><rect width="3.515" height="3.515" transform="translate(1124.924 697.462)" fill="#2a52c6"/><rect width="3.515" height="3.515" transform="translate(1140.155 697.462)" fill="#2a52c6"/><rect width="3.515" height="3.515" transform="translate(1155.386 697.462)" fill="#2a52c6"/><rect width="3.515" height="3.515" transform="translate(1064 712.693)" fill="#2a52c6"/><rect width="3.515" height="3.515" transform="translate(1079.231 712.693)" fill="#2a52c6"/><rect width="3.515" height="3.515" transform="translate(1094.462 712.693)" fill="#2a52c6"/><rect width="3.515" height="3.515" transform="translate(1109.693 712.693)" fill="#2a52c6"/><rect width="3.515" height="3.515" transform="translate(1124.924 712.693)" fill="#2a52c6"/><rect width="3.515" height="3.515" transform="translate(1140.155 712.693)" fill="#2a52c6"/><rect width="3.515" height="3.515" transform="translate(1155.386 712.693)" fill="#2a52c6"/><rect width="3.515" height="3.515" transform="translate(1064 727.924)" fill="#2a52c6"/><rect width="3.515" height="3.515" transform="translate(1079.231 727.924)" fill="#2a52c6"/><rect width="3.515" height="3.515" transform="translate(1094.462 727.924)" fill="#2a52c6"/><rect width="3.515" height="3.515" transform="translate(1109.693 727.924)" fill="#2a52c6"/><rect width="3.515" height="3.515" transform="translate(1124.924 727.924)" fill="#2a52c6"/><rect width="3.515" height="3.515" transform="translate(1140.155 727.924)" fill="#2a52c6"/><rect width="3.515" height="3.515" transform="translate(1155.386 727.924)" fill="#2a52c6"/><rect width="3.515" height="3.515" transform="translate(1064 741.983)" fill="#2a52c6"/><rect width="3.515" height="3.515" transform="translate(1079.231 741.983)" fill="#2a52c6"/><rect width="3.515" height="3.515" transform="translate(1094.462 741.983)" fill="#2a52c6"/><rect width="3.515" height="3.515" transform="translate(1109.693 741.983)" fill="#2a52c6"/><rect width="3.515" height="3.515" transform="translate(1124.924 741.983)" fill="#2a52c6"/><rect width="3.515" height="3.515" transform="translate(1140.155 741.983)" fill="#2a52c6"/><rect width="3.515" height="3.515" transform="translate(1155.386 741.983)" fill="#2a52c6"/><rect width="3.515" height="3.515" transform="translate(1064 757.214)" fill="#2a52c6"/><rect width="3.515" height="3.515" transform="translate(1079.231 757.214)" fill="#2a52c6"/><rect width="3.515" height="3.515" transform="translate(1094.462 757.214)" fill="#2a52c6"/><rect width="3.515" height="3.515" transform="translate(1109.693 757.214)" fill="#2a52c6"/><rect width="3.515" height="3.515" transform="translate(1124.924 757.214)" fill="#2a52c6"/><rect width="3.515" height="3.515" transform="translate(1140.155 757.214)" fill="#2a52c6"/><rect width="3.515" height="3.515" transform="translate(1155.386 757.214)" fill="#2a52c6"/></g></g><g transform="translate(650.005 15249.991)"><path d="M199.41,9.24C346.1-23.016,439.791,40.686,569.993,26.518s286.182,138.554,226.58,269.215S621.745,348.406,452.364,415.1s-268.3,95.153-398.585,12.772S52.719,41.5,199.41,9.24Z" transform="matrix(1, -0.017, 0.017, 1, 0, 14.123)" fill="#38a2ff" opacity="0.1"/></g><g transform="translate(-4 2975)"><g transform="translate(606 12142)"><g transform="matrix(1, 0, 0, 1, -72, -89)" filter="url(#a)"><g transform="translate(72.41 89)" fill="#fff"><path d="M 672 454 L 5 454 L 5 5 L 672 5 L 672 454 Z" stroke="none"/><path d="M 10 10 L 10 449 L 667 449 L 667 10 L 10 10 M 0 0 L 677 0 L 677 459 L 0 459 L 0 0 Z" stroke="none" fill="#edf2f7"/></g></g><g fill="#edf2f7"><path d="M 672.4063110351563 37.00255584716797 L 5.000033855438232 37.00255584716797 L 5.000033855438232 5.000009059906006 L 672.4063110351563 5.000009059906006 L 672.4063110351563 37.00255584716797 Z" stroke="none"/><path d="M 10 9.999980926513672 L 10 32.00258255004883 L 667.40625 32.00258255004883 L 667.40625 9.999980926513672 L 10 9.999980926513672 M 0 -1.9073486328125e-05 L 677.40625 -1.9073486328125e-05 L 677.40625 42.00258255004883 L 0 42.00258255004883 L 0 -1.9073486328125e-05 Z" stroke="none" fill="#edf2f7"/></g><g transform="translate(14.473 16)"><circle cx="5.432" cy="5.432" r="5.432" transform="translate(0 0)" fill="#c8d8e3"/><circle cx="5.432" cy="5.432" r="5.432" transform="translate(19.298 0)" fill="#c8d8e3"/><circle cx="5.432" cy="5.432" r="5.432" transform="translate(37.952 0)" fill="#c8d8e3"/></g></g><g transform="translate(1156.543 12226.5)"><rect width="78.652" height="18.179" rx="9.09" transform="translate(0)" fill="#00acdc" stroke="#0bacdb" stroke-width="1"/><text transform="translate(34.999 10.535)" fill="#fff" font-size="7" font-family="ArialMT, Arial"><tspan x="-24.9" y="0">Export Contacts</tspan></text></g><g transform="translate(645.853 12260.405)"><g transform="translate(0 0)"><rect width="589.813" height="251.155" rx="12" fill="#fff"/></g><g transform="translate(0.15 43.33)"><g transform="translate(0 0)"><rect width="589" height="22" transform="translate(-0.003 0.265)" fill="#fafdfe"/><text transform="translate(96.997 12.265)" fill="#21455e" font-size="5" font-family="ArialMT, Arial" letter-spacing="0.07em"><tspan x="0" y="0">SUBSCRIBER</tspan></text><text transform="translate(225.997 13.265)" fill="#21455e" font-size="6" font-family="ArialMT, Arial" letter-spacing="0.07em"><tspan x="0" y="0">LOCATION</tspan></text><text transform="translate(463.997 12.265)" fill="#21455e" font-size="5" font-family="ArialMT, Arial" letter-spacing="0.07em"><tspan x="0" y="0">SUBSCRIPTION SOURCE</tspan></text><text transform="translate(344.997 12.265)" fill="rgba(33,69,94,0.7)" font-size="5" font-family="ArialMT, Arial"><tspan x="0" y="0" letter-spacing="0.07em">WATCH TIME </tspan><tspan y="0">(Minutes)</tspan></text></g></g><g transform="translate(0.15 111.87)"><rect width="589" height="1" transform="translate(-0.003 45.725)" fill="#f1f1f3"/><rect width="589" height="46" transform="translate(-0.003 -0.275)" fill="#fff"/><path d="M24.772,68.5A2.272,2.272,0,0,0,22.5,70.772v5.05a2.272,2.272,0,0,0,2.272,2.272h5.05a2.272,2.272,0,0,0,2.272-2.272v-5.05A2.272,2.272,0,0,0,29.822,68.5Z" transform="translate(-1.946 -49.652)" fill="#fff" stroke="#a3bac6" stroke-width="1" fill-rule="evenodd"/><line x2="13.129" transform="translate(226.837 23.393)" fill="none" stroke="#21455e" stroke-linecap="round" stroke-width="2"/><g transform="translate(97.184 14.369)"><text transform="translate(-0.188 3.356)" fill="#21455e" font-size="6" font-family="ArialMT, Arial"><tspan x="0" y="0">Arnold Oksena</tspan></text><text transform="translate(-0.188 16.356)" fill="#21455e" font-size="6" font-family="ArialMT, Arial"><tspan x="0" y="0">inbox@litmox.com</tspan></text></g><text transform="translate(463.997 25.725)" fill="#21455e" font-size="6" font-family="ArialMT, Arial"><tspan x="0" y="0">Stage Sign up Form</tspan></text><g transform="translate(48.832 8.541)"><ellipse cx="13" cy="12.5" rx="13" ry="12.5" transform="translate(2.164 3.184)" fill="#21455e"/><g transform="translate(0 0)"><path d="M17.649,2.5A15.149,15.149,0,1,0,32.8,17.649,15.163,15.163,0,0,0,17.649,2.5Zm0,8.675A4.752,4.752,0,1,1,12.9,15.927,4.764,4.764,0,0,1,17.649,11.175ZM9.357,26.835v-.7a3.668,3.668,0,0,1,3.668-3.668h9.249a3.668,3.668,0,0,1,3.668,3.668v.7a12.375,12.375,0,0,1-16.584,0Z" transform="translate(-2.5 -2.5)" fill="#e8ecee"/></g></g></g><g transform="translate(0 158.239)"><path d="M0,0H589.813V45.448H0Z" transform="translate(0 0)" fill="#fff"/><text transform="translate(226.147 24.355)" fill="#21455e" font-size="6" font-family="ArialMT, Arial"><tspan x="0" y="0">Toronto, CA</tspan></text><path d="M24.772,68.5A2.272,2.272,0,0,0,22.5,70.772v5.05a2.272,2.272,0,0,0,2.272,2.272h5.05a2.272,2.272,0,0,0,2.272-2.272v-5.05A2.272,2.272,0,0,0,29.822,68.5Z" transform="translate(-1.796 -50.573)" fill="#fff" stroke="#a3bac6" stroke-width="1" fill-rule="evenodd"/><path d="M0,15.5A15.5,15.5,0,1,1,15.5,31,15.5,15.5,0,0,1,0,15.5Z" transform="translate(49.147 7.355)" fill="url(#c)"/><g transform="translate(97.335 12.965)"><text transform="translate(-0.188 6.391)" fill="#21455e" font-size="6" font-family="ArialMT, Arial"><tspan x="0" y="0">Arnold Oksena</tspan></text><text transform="translate(-0.188 19.391)" fill="#21455e" font-size="6" font-family="ArialMT, Arial"><tspan x="0" y="0">inbox@litmox.com</tspan></text></g></g><g transform="translate(0.15 204.962)"><path d="M0,0H589a0,0,0,0,1,0,0V34a12,12,0,0,1-12,12H12A12,12,0,0,1,0,34V0A0,0,0,0,1,0,0Z" transform="translate(-0.003 -0.367)" fill="#ebf9fa"/><text transform="translate(225.997 23.633)" fill="#21455e" font-size="6" font-family="ArialMT, Arial"><tspan x="0" y="0">Paris, FR</tspan></text><path d="M24.772,68.5A2.272,2.272,0,0,0,22.5,70.772v5.05a2.272,2.272,0,0,0,2.272,2.272h5.05a2.272,2.272,0,0,0,2.272-2.272v-5.05A2.272,2.272,0,0,0,29.822,68.5Z" transform="translate(-1.946 -50.838)" fill="#fff" stroke="#a3bac6" stroke-width="1" fill-rule="evenodd"/><text transform="translate(96.997 25.633)" fill="#21455e" font-size="6" font-family="ArialMT, Arial"><tspan x="0" y="0">inbox@litmox.com</tspan></text><g transform="translate(48.832 7.86)"><ellipse cx="12.5" cy="12" rx="12.5" ry="12" transform="translate(2.164 2.772)" fill="#21455e"/><g transform="translate(0 0)"><path d="M17.649,2.5A15.149,15.149,0,1,0,32.8,17.649,15.163,15.163,0,0,0,17.649,2.5Zm0,8.675A4.752,4.752,0,1,1,12.9,15.927,4.764,4.764,0,0,1,17.649,11.175ZM9.357,26.835v-.7a3.668,3.668,0,0,1,3.668-3.668h9.249a3.668,3.668,0,0,1,3.668,3.668v.7a12.375,12.375,0,0,1-16.584,0Z" transform="translate(-2.5 -2.5)" fill="#e8ecee"/></g></g></g><g transform="translate(0.15 65.836)"><rect width="589" transform="translate(-0.003 45.759)" fill="#f1f1f3"/><rect width="589" height="46" transform="translate(-0.003 -0.241)" fill="#fff"/><text transform="translate(225.997 24.759)" fill="#21455e" font-size="6" font-family="ArialMT, Arial"><tspan x="0" y="0">Chicago, US</tspan></text><path d="M24.772,68.5A2.272,2.272,0,0,0,22.5,70.772v5.05a2.272,2.272,0,0,0,2.272,2.272h5.05a2.272,2.272,0,0,0,2.272-2.272v-5.05A2.272,2.272,0,0,0,29.822,68.5Z" transform="translate(-1.946 -50.581)" fill="#fff" stroke="#a3bac6" stroke-width="1" fill-rule="evenodd"/><path d="M0,15.036A15.153,15.153,0,0,1,13.291,0h3.718A15.15,15.15,0,1,1,0,15.036Z" transform="translate(48.832 8.072)" fill="url(#d)"/><g transform="translate(97.184 13.299)"><text transform="translate(-0.188 6.46)" fill="#21455e" font-size="6" font-family="ArialMT, Arial"><tspan x="0" y="0">Arnold Oksena</tspan></text><text transform="translate(-0.188 19.46)" fill="#21455e" font-size="6" font-family="ArialMT, Arial"><tspan x="0" y="0">inbox@litmox.com</tspan></text></g></g><g transform="translate(20.704 14.068)"><path d="M125.772,224.5a2.272,2.272,0,0,0-2.272,2.272v5.05a2.272,2.272,0,0,0,2.272,2.272h5.05a2.272,2.272,0,0,0,2.272-2.272v-5.05a2.272,2.272,0,0,0-2.272-2.272Z" transform="translate(-123.5 -220.965)" fill="#fff" stroke="#a3bac6" stroke-width="1" fill-rule="evenodd"/><g transform="translate(413.906)"><rect width="131.722" height="16.159" rx="8.08" fill="#fff" stroke="#99d6e9" stroke-width="1"/><g transform="translate(5.302 4.292)"><path d="M6.413,5.671A3.422,3.422,0,0,0,7.12,3.563,3.545,3.545,0,0,0,3.585,0,3.588,3.588,0,0,0,0,3.563,3.588,3.588,0,0,0,3.585,7.126a3.367,3.367,0,0,0,2.121-.7L7.221,7.929a.49.49,0,0,0,.707,0,.483.483,0,0,0,0-.7Zm-2.828.4A2.536,2.536,0,0,1,1.01,3.563a2.575,2.575,0,0,1,5.151,0A2.536,2.536,0,0,1,3.585,6.072Z" fill="#00acdc" stroke="#fff" stroke-width="0.6"/></g></g><g transform="translate(25.481 2.272)"><g transform="translate(0 0.392)"><g transform="translate(-0.038 -0.138)" fill="#e2e5ed" stroke="#e2e5ed" stroke-linejoin="round" stroke-width="1" opacity="0.323"><rect width="61" height="11" rx="5.5" stroke="none"/><rect x="0.5" y="0.5" width="60" height="10" rx="5" fill="none"/></g><g transform="translate(8.605 3.9)"><line x2="7.884" fill="none" stroke="#778d9d" stroke-linecap="round" stroke-width="1.3"/><line x2="6.06" transform="translate(0 1.896)" fill="none" stroke="#778d9d" stroke-linecap="round" stroke-width="1.3"/><line x2="4.04" transform="translate(0 3.793)" fill="none" stroke="#778d9d" stroke-linecap="round" stroke-width="1.3"/></g></g><g transform="translate(71.609 0.392)"><rect width="54" height="11" rx="5.5" transform="translate(0.353 -0.138)" fill="#f5f6f9"/></g><g transform="translate(139.127 0)"><g transform="translate(16.679)"><rect width="46.15" height="12.119" rx="6.06" transform="translate(0)" fill="#f5f6f9"/></g></g></g></g><g transform="translate(464.588 79.135)"><text transform="translate(-0.44 5.46)" fill="#21455e" font-size="5" font-family="ArialMT, Arial" opacity="0.7"><tspan x="0" y="0">Video Sign up Form</tspan></text><text transform="translate(-0.44 19.46)" fill="#00acdc" font-size="6" font-family="ArialMT, Arial"><tspan x="0" y="0">How to make better videos</tspan></text></g><text transform="translate(464.147 182.595)" fill="#21455e" font-size="6" font-family="ArialMT, Arial"><tspan x="0" y="0">Stage Sign up Form</tspan></text><g transform="translate(464.588 217.239)"><text transform="translate(-0.441 5.356)" fill="#21455e" font-size="5" font-family="ArialMT, Arial" opacity="0.7"><tspan x="0" y="0">Video Sign up Form</tspan></text><text transform="translate(-0.441 19.356)" fill="#00acdc" font-size="6" font-family="ArialMT, Arial"><tspan x="0" y="0">How to make better videos</tspan></text></g></g><g transform="translate(646.004 12233.149)"><text transform="translate(0.996 6.851)" fill="#21455e" font-size="15" font-family="Arial-BoldMT, Arial" font-weight="700"><tspan x="0" y="0" xml:space="preserve">Contacts  </tspan></text></g><rect width="63" height="7" transform="translate(743 12340)" fill="#c8d8e3"/><rect width="50" height="7" transform="translate(743 12354)" fill="#edf2f7"/><rect width="63" height="7" transform="translate(743 12383)" fill="#c8d8e3"/><rect width="50" height="7" transform="translate(743 12398)" fill="#edf2f7"/><rect width="63" height="7" transform="translate(743 12432)" fill="#c8d8e3"/><rect width="50" height="7" transform="translate(743 12446)" fill="#edf2f7"/><rect width="60" height="9" transform="translate(743 12484)" fill="#c8d8e3"/><rect width="60" height="9" transform="translate(858 12484)" fill="#c8d8e3"/><rect width="50" height="7" transform="translate(868 12346)" fill="#edf2f7"/><rect width="50" height="7" transform="translate(988 12346)" fill="#edf2f7"/><rect width="50" height="7" transform="translate(868 12438)" fill="#edf2f7"/><rect width="50" height="7" transform="translate(988 12438)" fill="#edf2f7"/><rect width="72" height="8" transform="translate(1108 12438)" fill="#edf2f7"/><rect width="72" height="8" transform="translate(1108 12392)" fill="#edf2f7"/><rect width="72" height="8" transform="translate(1108 12339)" fill="#edf2f7"/><rect width="81" height="8" transform="translate(1108 12353)" fill="#00acdc"/><rect width="72" height="8" transform="translate(1108 12477)" fill="#c8d8e3"/><rect width="60" height="9" transform="translate(988 12484)" fill="#c8d8e3"/><rect width="78" height="7" transform="translate(1108 12492)" fill="#00acdc"/></g><g transform="translate(530 15028)"><path d="M9.177,0l9.177,15.566H0Z" transform="matrix(0.891, 0.454, -0.454, 0.891, 159.205, 1.395)" fill="#2a52c6"/><circle cx="4.194" cy="4.194" r="4.194" transform="matrix(0.951, -0.309, 0.309, 0.951, 0, 35.739)" fill="#38a2ff"/><rect width="10.067" height="10.067" transform="matrix(0.951, -0.309, 0.309, 0.951, 35.266, 3.111)" fill="#f8ced7"/></g></g></svg>