<svg xmlns="http://www.w3.org/2000/svg" xmlns:xlink="http://www.w3.org/1999/xlink" width="1454.117" height="1402.831" viewBox="0 0 1454.117 1402.831">
  <defs>
    <filter id="Path_18582" x="229" y="495" width="695" height="452.734" filterUnits="userSpaceOnUse">
      <feOffset dy="3" input="SourceAlpha"/>
      <feGaussianBlur stdDeviation="3" result="blur"/>
      <feFlood flood-opacity="0.102"/>
      <feComposite operator="in" in2="blur"/>
      <feComposite in="SourceGraphic"/>
    </filter>
    <pattern id="pattern" preserveAspectRatio="xMidYMid slice" width="100%" height="100%" viewBox="0 0 1661 1092">
      <image width="1661" height="1092" xlink:href="Group%2024472-image.png"/>
    </pattern>
    <pattern id="pattern-3" preserveAspectRatio="xMidYMid slice" width="100%" height="100%" viewBox="0 0 1651 1101">
      <image width="1651" height="1101" xlink:href="Group%2024472-image2.png"/>
    </pattern>
    <pattern id="pattern-4" preserveAspectRatio="xMidYMid slice" width="100%" height="100%" viewBox="0 0 1650 1100">
      <image width="1650" height="1100" xlink:href="Group%2024472-image3.png"/>
    </pattern>
    <pattern id="pattern-5" preserveAspectRatio="xMidYMid slice" width="100%" height="100%" viewBox="0 0 1650 1100">
      <image width="1650" height="1100" xlink:href="Group%2024472-image4.png"/>
    </pattern>
    <pattern id="pattern-6" preserveAspectRatio="xMidYMid slice" width="100%" height="100%" viewBox="0 0 1650 1100">
      <image width="1650" height="1100" xlink:href="Group%2024472-image5.png"/>
    </pattern>
    <linearGradient id="linear-gradient" x1="3.193" y1="1" x2="3.193" gradientUnits="objectBoundingBox">
      <stop offset="0" stop-color="gray" stop-opacity="0.251"/>
      <stop offset="0.54" stop-color="gray" stop-opacity="0.122"/>
      <stop offset="1" stop-color="gray" stop-opacity="0.102"/>
    </linearGradient>
  </defs>
  <g id="Group_24472" data-name="Group 24472" transform="translate(-391 -1533)">
    <g id="Component_16_1" data-name="Component 16 – 1" transform="translate(391 1533)">
      <g id="Group_13443" data-name="Group 13443" transform="matrix(0.899, -0.438, 0.438, 0.899, -1152.207, -1630.801)">
        <path id="Path_18568" data-name="Path 18568" d="M339.786,0C501.642,0,744.427,420.38,663.5,560.506s-566.5,140.127-647.424,0S177.93,0,339.786,0Z" transform="matrix(0.485, 0.875, -0.875, 0.485, 686.855, 2413.703)" fill="#f5bfcb" opacity="0.3"/>
        <path id="Path_18569" data-name="Path 18569" d="M254.162,497.874c121.069,0,302.673-314.446,242.139-419.262S72.559-26.2,12.024,78.612,133.093,497.874,254.162,497.874Z" transform="translate(839.575 2832.222) rotate(97)" fill="#38a2ff" opacity="0.2"/>
        <path id="Path_18570" data-name="Path 18570" d="M344.055,673.963c163.889,0,409.723-425.661,327.779-567.548s-573.612-141.887-655.557,0S180.166,673.963,344.055,673.963Z" transform="matrix(-0.545, -0.839, 0.839, -0.545, 663.454, 3426.293)" fill="#2a52c6" opacity="0.1"/>
      </g>
    </g>
    <g id="Browser" transform="translate(628.594 2034)">
      <g transform="matrix(1, 0, 0, 1, -237.59, -501)" filter="url(#Path_18582)">
        <g id="Path_18582-2" data-name="Path 18582" transform="translate(238 501)" fill="#fff">
          <path d="M 672 429.734375 L 5 429.734375 L 5 5.000005722045898 L 672 5.000005722045898 L 672 429.734375 Z" stroke="none"/>
          <path d="M 10 10 L 10 424.734375 L 667 424.734375 L 667 10 L 10 10 M 0 0 L 677 0 L 677 434.734375 L 0 434.734375 L 0 0 Z" stroke="none" fill="#edf2f7"/>
        </g>
      </g>
      <g id="Path_18507" data-name="Path 18507" fill="#edf2f7">
        <path d="M 672.4063110351563 37.00255584716797 L 5.000033855438232 37.00255584716797 L 5.000033855438232 5.000009059906006 L 672.4063110351563 5.000009059906006 L 672.4063110351563 37.00255584716797 Z" stroke="none"/>
        <path d="M 10 9.999980926513672 L 10 32.00258255004883 L 667.40625 32.00258255004883 L 667.40625 9.999980926513672 L 10 9.999980926513672 M 0 -1.9073486328125e-05 L 677.40625 -1.9073486328125e-05 L 677.40625 42.00258255004883 L 0 42.00258255004883 L 0 -1.9073486328125e-05 Z" stroke="none" fill="#edf2f7"/>
      </g>
      <g id="Group_13428" data-name="Group 13428" transform="translate(14.473 16)">
        <circle id="Ellipse_3" data-name="Ellipse 3" cx="5.432" cy="5.432" r="5.432" transform="translate(0 0)" fill="#c8d8e3"/>
        <circle id="Ellipse_4" data-name="Ellipse 4" cx="5.432" cy="5.432" r="5.432" transform="translate(19.298 0)" fill="#c8d8e3"/>
        <circle id="Ellipse_4308" data-name="Ellipse 4308" cx="5.432" cy="5.432" r="5.432" transform="translate(37.952 0)" fill="#c8d8e3"/>
      </g>
      <g id="Group_13435" data-name="Group 13435" transform="translate(-120.563 -86.071)">
        <g id="Group_12817" data-name="Group 12817" transform="translate(146.75 142.068)">
          <g id="Group_12301" data-name="Group 12301" transform="translate(0 0)">
            <rect id="Rectangle_3270" data-name="Rectangle 3270" width="629" height="356" transform="translate(0.219 0.002)" fill="url(#pattern)"/>
          </g>
        </g>
        <g id="Group_12845" data-name="Group 12845" transform="translate(468.663 142)">
          <path id="Path_19596" data-name="Path 19596" d="M0,0H308.042V356.788H0Z" transform="translate(0)" fill="#fff" opacity="0.85"/>
          <rect id="Rectangle_3284" data-name="Rectangle 3284" width="308.042" height="56.233" transform="translate(0 47.16)" fill="#e2e5ed" opacity="0.598"/>
          <g id="Group_12284" data-name="Group 12284" transform="translate(16.461 52.424)">
            <g id="Group_5132" data-name="Group 5132" transform="translate(96.956 8.726)">
              <text id="Welcome_to_Klyps" data-name="Welcome to Klyps" transform="translate(-0.112 8.921)" fill="#21455e" font-size="9" font-family="ArialMT, Arial"><tspan x="0" y="0">Welcome to Klyps</tspan></text>
              <text id="Skip_Ladd" data-name="Skip Ladd" transform="translate(-0.112 26.921)" fill="#21455e" font-size="9" font-family="ArialMT, Arial" opacity="0.7"><tspan x="0" y="0">Skip Ladd</tspan></text>
            </g>
            <g id="Group_12294" data-name="Group 12294" transform="translate(0 0)">
              <rect id="Rectangle_3290" data-name="Rectangle 3290" width="85" height="47" transform="translate(-0.156 -0.354)" fill="url(#pattern)"/>
              <g id="Group_12730" data-name="Group 12730" transform="translate(49.447 28.117)">
                <rect id="Rectangle_3148" data-name="Rectangle 3148" width="31" height="14" rx="2" transform="translate(0.397 -0.471)" fill="#011a22" opacity="0.9"/>
                <text id="Enter_a_Product_name" data-name="Enter a Product name" transform="translate(26.397 8.53)" fill="#fff" font-size="9" font-family="ArialMT, Arial"><tspan x="-22.522" y="0">00:14</tspan></text>
              </g>
            </g>
          </g>
          <g id="Group_12839" data-name="Group 12839" transform="translate(16.461 106.72)">
            <g id="Group_5132-2" data-name="Group 5132" transform="translate(96.956 4.848)">
              <text id="Building_and_online_Busines_Title_can_go_up_to_2_lines" data-name="Building and online Busines
Title can go up to 2 lines" transform="translate(-0.112 8.504)" fill="#21455e" font-size="9" font-family="ArialMT, Arial"><tspan x="0" y="0">Building and online Busines</tspan><tspan x="0" y="10">Title can go up to 2 lines</tspan></text>
              <text id="Skip_Ladd-2" data-name="Skip Ladd" transform="translate(-0.112 35.504)" fill="#21455e" font-size="9" font-family="ArialMT, Arial" opacity="0.7"><tspan x="0" y="0">Skip Ladd</tspan></text>
            </g>
            <g id="Group_12294-2" data-name="Group 12294" transform="translate(0 0)">
              <rect id="Rectangle_3389" data-name="Rectangle 3389" width="85" height="48" transform="translate(-0.156 0.352)" fill="url(#pattern-3)"/>
              <g id="Group_12730-2" data-name="Group 12730" transform="translate(49.447 30.056)">
                <rect id="Rectangle_3148-2" data-name="Rectangle 3148" width="31" height="13" rx="2" transform="translate(0.397 0.295)" fill="#011a22" opacity="0.9"/>
                <text id="Enter_a_Product_name-2" data-name="Enter a Product name" transform="translate(26.397 9.295)" fill="#fff" font-size="9" font-family="ArialMT, Arial"><tspan x="-22.522" y="0">00:14</tspan></text>
              </g>
            </g>
          </g>
          <g id="Group_12840" data-name="Group 12840" transform="translate(16.461 162.954)">
            <g id="Group_5132-3" data-name="Group 5132" transform="translate(96.956 9.695)">
              <text id="Welcome_to_Klyps-2" data-name="Welcome to Klyps" transform="translate(-0.112 9.422)" fill="#21455e" font-size="9" font-family="ArialMT, Arial"><tspan x="0" y="0">Welcome to Klyps</tspan></text>
              <text id="Skip_Ladd-3" data-name="Skip Ladd" transform="translate(-0.112 26.422)" fill="#21455e" font-size="9" font-family="ArialMT, Arial" opacity="0.7"><tspan x="0" y="0">Skip Ladd</tspan></text>
            </g>
            <g id="Group_12294-3" data-name="Group 12294" transform="translate(0 0)">
              <rect id="Rectangle_3287" data-name="Rectangle 3287" width="85" height="47" transform="translate(-0.156 0.117)" fill="url(#pattern-4)"/>
              <g id="Group_12730-3" data-name="Group 12730" transform="translate(49.447 29.087)">
                <rect id="Rectangle_3148-3" data-name="Rectangle 3148" width="31" height="14" rx="2" transform="translate(0.397 0.03)" fill="#011a22" opacity="0.9"/>
                <text id="Enter_a_Product_name-3" data-name="Enter a Product name" transform="translate(26.397 9.03)" fill="#fff" font-size="9" font-family="ArialMT, Arial"><tspan x="-22.522" y="0">00:14</tspan></text>
              </g>
            </g>
          </g>
          <g id="Group_12841" data-name="Group 12841" transform="translate(16.893 218.435)">
            <g id="Group_5132-4" data-name="Group 5132" transform="translate(96.524 9.479)">
              <text id="Welcome_to_Klyps-3" data-name="Welcome to Klyps" transform="translate(-0.112 9.157)" fill="#21455e" font-size="9" font-family="ArialMT, Arial"><tspan x="0" y="0">Welcome to Klyps</tspan></text>
              <text id="Skip_Ladd-4" data-name="Skip Ladd" transform="translate(-0.112 26.157)" fill="#21455e" font-size="9" font-family="ArialMT, Arial" opacity="0.7"><tspan x="0" y="0">Skip Ladd</tspan></text>
            </g>
            <g id="Group_12294-4" data-name="Group 12294" transform="translate(0 0)">
              <path id="Intersection_97" data-name="Intersection 97" d="M0,47.864V0H85.169V47.864Z" transform="translate(0 0)" fill="url(#pattern-5)"/>
              <g id="Group_12730-4" data-name="Group 12730" transform="translate(49.016 28.87)">
                <rect id="Rectangle_3148-4" data-name="Rectangle 3148" width="31" height="14" rx="2" transform="translate(0.397 -0.234)" fill="#011a22" opacity="0.9"/>
                <text id="Enter_a_Product_name-4" data-name="Enter a Product name" transform="translate(26.397 8.766)" fill="#fff" font-size="9" font-family="ArialMT, Arial"><tspan x="-22.522" y="0">00:14</tspan></text>
              </g>
            </g>
          </g>
          <g id="Group_12842" data-name="Group 12842" transform="translate(16.461 273.483)">
            <g id="Group_5132-5" data-name="Group 5132" transform="translate(96.956 9.695)">
              <text id="Welcome_to_Klyps-4" data-name="Welcome to Klyps" transform="translate(-0.112 8.892)" fill="#21455e" font-size="9" font-family="ArialMT, Arial"><tspan x="0" y="0">Welcome to Klyps</tspan></text>
              <text id="Skip_Ladd-5" data-name="Skip Ladd" transform="translate(-0.112 27.892)" fill="#21455e" font-size="9" font-family="ArialMT, Arial" opacity="0.7"><tspan x="0" y="0">Skip Ladd</tspan></text>
            </g>
            <g id="Group_12294-5" data-name="Group 12294" transform="translate(0 0)">
              <rect id="Rectangle_3289" data-name="Rectangle 3289" width="85" height="49" transform="translate(-0.156 -0.412)" fill="url(#pattern-6)"/>
              <g id="Group_12730-5" data-name="Group 12730" transform="translate(49.447 30.056)">
                <rect id="Rectangle_3148-5" data-name="Rectangle 3148" width="31" height="14" rx="2" transform="translate(0.397 -0.469)" fill="#011a22" opacity="0.9"/>
                <text id="Enter_a_Product_name-5" data-name="Enter a Product name" transform="translate(26.397 8.532)" fill="#fff" font-size="9" font-family="ArialMT, Arial"><tspan x="-22.522" y="0">00:14</tspan></text>
              </g>
            </g>
          </g>
          <text id="Enter_a_Product_name-6" data-name="Enter a Product name" transform="translate(11.305 134.071)" fill="#21455e" font-size="10" font-family="ArialMT, Arial" opacity="0.7"><tspan x="-5.562" y="0">6</tspan></text>
          <text id="Enter_a_Product_name-7" data-name="Enter a Product name" transform="translate(11.305 190.071)" fill="#21455e" font-size="10" font-family="ArialMT, Arial" opacity="0.7"><tspan x="-5.562" y="0">7</tspan></text>
          <text id="Enter_a_Product_name-8" data-name="Enter a Product name" transform="translate(11.305 246.071)" fill="#21455e" font-size="10" font-family="ArialMT, Arial" opacity="0.7"><tspan x="-5.562" y="0">8</tspan></text>
          <text id="Enter_a_Product_name-9" data-name="Enter a Product name" transform="translate(11.305 301.071)" fill="#21455e" font-size="10" font-family="ArialMT, Arial" opacity="0.7"><tspan x="-5.562" y="0">9</tspan></text>
          <rect id="Rectangle_3285" data-name="Rectangle 3285" width="308.042" height="42.859" transform="translate(0)" fill="#e2e5ed" opacity="0.598"/>
          <g id="Group_12843" data-name="Group 12843" transform="translate(16.893 8.279)">
            <text id="Anti-Slip_Shoe_Grips" data-name="Anti-Slip Shoe Grips" transform="translate(0 9)" fill="#21455e" font-size="9" font-family="ArialMT, Arial"><tspan x="0" y="0">This is the playlist title. Show only one line</tspan></text>
            <g id="Group_11693" data-name="Group 11693" transform="translate(0 16.059)">
              <text id="_3_43" data-name="3 / 43" transform="translate(66.164 8)" fill="#21455e" font-size="8" font-family="ArialMT, Arial" opacity="0.7"><tspan x="0" y="0">3 / 43</tspan></text>
              <text id="Skip_Ladd-6" data-name="Skip Ladd" transform="translate(0 8)" fill="#21455e" font-size="8" font-family="ArialMT, Arial" opacity="0.7"><tspan x="0" y="0">Skip Ladd</tspan></text>
              <g id="Ellipse_4310" data-name="Ellipse 4310" transform="translate(54.198 4.223)" fill="#21455e" stroke="#21455e" stroke-width="1" opacity="0.7">
                <circle cx="1.76" cy="1.76" r="1.76" stroke="none"/>
                <circle cx="1.76" cy="1.76" r="1.26" fill="none"/>
              </g>
            </g>
            <g id="Close_pop_up" data-name="Close pop up" transform="translate(262.546 2.279)">
              <g id="Combined-Shape" transform="translate(-277 -19)" fill="#21455e">
                <path d="M 286.1332092285156 28.75425720214844 C 285.9673156738281 28.75425720214844 285.8113708496094 28.68965721130371 285.6940612792969 28.57235717773438 L 281.9978332519531 24.87612724304199 L 281.9271240234375 24.80541801452637 L 281.8564147949219 24.87612724304199 L 278.1601867675781 28.57235717773438 C 278.0428771972656 28.68965721130371 277.8869323730469 28.75425720214844 277.7210388183594 28.75425720214844 C 277.5551452636719 28.75425720214844 277.3992004394531 28.68965721130371 277.2819213867188 28.57235717773438 C 277.1646118164063 28.45504760742188 277.1000061035156 28.29909706115723 277.1000061035156 28.13321876525879 C 277.1000061035156 27.96732711791992 277.1646118164063 27.81137847900391 277.2819213867188 27.69406700134277 L 280.9781188964844 23.99783706665039 L 281.048828125 23.92712783813477 L 280.9781188964844 23.85641860961914 L 277.2819213867188 20.16018867492676 C 277.1646118164063 20.04288864135742 277.1000061035156 19.88692855834961 277.1000061035156 19.72104835510254 C 277.1000061035156 19.5551586151123 277.1646118164063 19.39920806884766 277.2819213867188 19.28189849853516 C 277.3992004394531 19.16461181640625 277.5551452636719 19.10000801086426 277.7210083007813 19.10000801086426 C 277.7210388183594 19.10000801086426 277.7210388183594 19.10000801086426 277.7210388183594 19.10000801086426 C 277.8869323730469 19.10000801086426 278.0428771972656 19.16459846496582 278.1601867675781 19.28189849853516 L 281.8564147949219 22.97812843322754 L 281.9271240234375 23.04883766174316 L 281.9978332519531 22.97812843322754 L 285.6940612792969 19.28189849853516 C 285.8113708496094 19.16459846496582 285.9673156738281 19.10000801086426 286.1332092285156 19.10000801086426 C 286.2991027832031 19.10000801086426 286.4550476074219 19.16459846496582 286.5723571777344 19.28189849853516 C 286.6896667480469 19.39919853210449 286.7542419433594 19.5551586151123 286.7542419433594 19.72104835510254 C 286.7542419433594 19.88692855834961 286.6896667480469 20.04288864135742 286.5723571777344 20.16018867492676 L 282.8761291503906 23.85641860961914 L 282.805419921875 23.92712783813477 L 282.8761291503906 23.99783706665039 L 286.5723571777344 27.69406700134277 C 286.8144836425781 27.93621826171875 286.8144836425781 28.33020782470703 286.5723571777344 28.57235717773438 C 286.4550476074219 28.68965721130371 286.2991027832031 28.75425720214844 286.1332092285156 28.75425720214844 Z" stroke="none"/>
                <path d="M 277.7210388183594 19.19999694824219 C 277.5818786621094 19.19999694824219 277.4510192871094 19.25418853759766 277.3526306152344 19.35261726379395 C 277.2542114257813 19.45102691650391 277.1999816894531 19.58187866210938 277.1999816894531 19.72104835510254 C 277.1999816894531 19.8602180480957 277.2542114257813 19.99105834960938 277.3526306152344 20.0894775390625 L 281.048828125 23.78570747375488 L 281.1902465820313 23.92712783813477 L 281.048828125 24.06854820251465 L 277.3526306152344 27.7647876739502 C 277.2542114257813 27.86319732666016 277.1999816894531 27.99404716491699 277.1999816894531 28.13320732116699 C 277.1999816894531 28.27237701416016 277.2542114257813 28.40322875976563 277.3526306152344 28.50165748596191 C 277.4510192871094 28.60005760192871 277.5818786621094 28.65424728393555 277.7210388183594 28.65424728393555 C 277.8602294921875 28.65424728393555 277.9910583496094 28.60005760192871 278.0894775390625 28.50164794921875 L 281.7857055664063 24.80541801452637 L 281.9271240234375 24.66399765014648 L 282.0685424804688 24.80541801452637 L 285.7647705078125 28.50164794921875 C 285.8631896972656 28.60005760192871 285.9940185546875 28.65424728393555 286.1332092285156 28.65424728393555 C 286.2723693847656 28.65424728393555 286.4032287597656 28.60005760192871 286.5016479492188 28.50164794921875 C 286.7048034667969 28.29848861694336 286.7048034667969 27.96793746948242 286.5016479492188 27.76477813720703 L 282.805419921875 24.06854820251465 L 282.6640014648438 23.92712783813477 L 282.805419921875 23.78570747375488 L 286.5016479492188 20.0894775390625 C 286.6000671386719 19.99106788635254 286.6542663574219 19.8602180480957 286.6542663574219 19.72104835510254 C 286.6542663574219 19.58186721801758 286.6000671386719 19.45102691650391 286.5016479492188 19.35260772705078 C 286.4032287597656 19.25419807434082 286.2723693847656 19.19999694824219 286.1332092285156 19.19999694824219 C 285.9940490722656 19.19999694824219 285.8631896972656 19.25419807434082 285.7647705078125 19.35260772705078 L 282.0685424804688 23.04883766174316 L 281.9271240234375 23.19025802612305 L 281.7857055664063 23.04883766174316 L 278.0894775390625 19.35260772705078 C 277.9910583496094 19.25419807434082 277.8601989746094 19.19999694824219 277.7210388183594 19.19999694824219 M 277.7210388183594 19.00000190734863 C 277.9055786132813 19.00000190734863 278.0901184082031 19.07039833068848 278.2308959960938 19.2111873626709 L 281.9271240234375 22.90741729736328 L 285.6233520507813 19.2111873626709 C 285.7641296386719 19.07039833068848 285.9486694335938 19.00000190734863 286.1332092285156 19.00000190734863 C 286.3177490234375 19.00000190734863 286.5022888183594 19.07039833068848 286.64306640625 19.2111873626709 C 286.9246520996094 19.49277877807617 286.9246520996094 19.94931793212891 286.64306640625 20.23089790344238 L 282.9468383789063 23.92712783813477 L 286.64306640625 27.62335777282715 C 286.9246520996094 27.90494728088379 286.9246520996094 28.36147689819336 286.64306640625 28.64306831359863 C 286.5022888183594 28.78385734558105 286.3177490234375 28.8542537689209 286.1332092285156 28.8542537689209 C 285.9486694335938 28.8542537689209 285.7641296386719 28.78385734558105 285.6233520507813 28.64306831359863 L 281.9271240234375 24.94683837890625 L 278.2308959960938 28.64306831359863 C 278.0901184082031 28.78385734558105 277.9055786132813 28.8542537689209 277.7210388183594 28.8542537689209 C 277.5364990234375 28.8542537689209 277.3519897460938 28.78385734558105 277.2112121582031 28.64306831359863 C 276.9295959472656 28.36147689819336 276.9295959472656 27.90494728088379 277.2112121582031 27.62335777282715 L 280.9074096679688 23.92712783813477 L 277.2112121582031 20.23089790344238 C 276.9295959472656 19.94931793212891 276.9295959472656 19.49277877807617 277.2112121582031 19.2111873626709 C 277.3519897460938 19.07039833068848 277.5364990234375 19.00000190734863 277.7210388183594 19.00000190734863 Z" stroke="none" fill="#e4e7ec"/>
              </g>
            </g>
          </g>
          <g id="Group_12844" data-name="Group 12844" transform="translate(0.949 329.414)">
            <path id="Intersection_96" data-name="Intersection 96" d="M0,27.451V0H85.169V27.451Z" transform="translate(15.944)" fill="url(#pattern-3)"/>
            <text id="Welcome_to_Klyps-5" data-name="Welcome to Klyps" transform="translate(112.357 16.657)" fill="#21455e" font-size="9" font-family="ArialMT, Arial"><tspan x="0" y="0">Welcome to Klyps</tspan></text>
            <text id="Enter_a_Product_name-10" data-name="Enter a Product name" transform="translate(11.357 24.657)" fill="#21455e" font-size="10" font-family="ArialMT, Arial" opacity="0.7"><tspan x="-11.123" y="0">10</tspan></text>
          </g>
          <path id="Path_9542" data-name="Path 9542" d="M38.136,35.64V26.218l6.281,4.711Z" transform="translate(-32.738 44.296)" fill="#21455e"/>
        </g>
      </g>
      <path id="Path_19663" data-name="Path 19663" d="M0,0H9.6V189.415H0Z" transform="translate(553.982 66.735) rotate(90)" fill="#a6b6c1"/>
      <rect id="Rectangle_17225" data-name="Rectangle 17225" width="8.232" height="91.961" transform="translate(456.529 81.725) rotate(90)" fill="#c8d8e3"/>
      <path id="Path_19664" data-name="Path 19664" d="M0,0H9.7V77.126H0Z" transform="translate(538.693 118.735) rotate(90)" fill="#a6b6c1"/>
      <rect id="Rectangle_17226" data-name="Rectangle 17226" width="10.232" height="45.961" transform="translate(507.529 136.725) rotate(90)" fill="#c8d8e3"/>
      <path id="Path_19665" data-name="Path 19665" d="M0,0H9.7V120.05H0Z" transform="translate(581.617 168.735) rotate(90)" fill="#a6b6c1"/>
      <rect id="Rectangle_17227" data-name="Rectangle 17227" width="10.232" height="45.961" transform="translate(507.529 194.725) rotate(90)" fill="#c8d8e3"/>
      <path id="Path_19666" data-name="Path 19666" d="M0,0H9.7V120.05H0Z" transform="translate(581.617 180.735) rotate(90)" fill="#a6b6c1"/>
      <rect id="Rectangle_17228" data-name="Rectangle 17228" width="10.232" height="45.961" transform="translate(507.529 247.725) rotate(90)" fill="#c8d8e3"/>
      <path id="Path_19667" data-name="Path 19667" d="M0,0H9.7V120.05H0Z" transform="translate(581.617 230.735) rotate(90)" fill="#a6b6c1"/>
      <rect id="Rectangle_17229" data-name="Rectangle 17229" width="10.232" height="45.961" transform="translate(507.529 302.725) rotate(90)" fill="#c8d8e3"/>
      <path id="Path_19668" data-name="Path 19668" d="M0,0H9.7V120.05H0Z" transform="translate(581.617 285.735) rotate(90)" fill="#a6b6c1"/>
      <rect id="Rectangle_17230" data-name="Rectangle 17230" width="10.232" height="45.961" transform="translate(507.529 358.725) rotate(90)" fill="#c8d8e3"/>
      <path id="Path_19669" data-name="Path 19669" d="M0,0H9.7V120.05H0Z" transform="translate(581.617 340.735) rotate(90)" fill="#a6b6c1"/>
      <path id="Path_19670" data-name="Path 19670" d="M0,0H9.7V120.05H0Z" transform="translate(581.617 394.735) rotate(90)" fill="#a6b6c1"/>
    </g>
    <g id="Group_18158" data-name="Group 18158" transform="translate(-754 10208.93)">
      <path id="Path_19622" data-name="Path 19622" d="M185.269,331.985c-1.933,8.794-5.418,19.63-5.418,19.63,3.446,4.02,18.477,4.739,18.477,4.739l.025-.03h.235c.1.554.225,1.089.37,1.6q-.04.754-.075,1.528a4.17,4.17,0,0,0-.215,1.878,4.252,4.252,0,0,0,.11.419c-.36,7.96-.614,16.449-.395,21.353a20.549,20.549,0,0,0,.424,4.135,14.887,14.887,0,0,1,.439,3.171c.245,7.176-1.5,19.231-1.5,19.231s.045.165.07.25c-.03.2-.05.325-.05.325a5.687,5.687,0,0,1,.255,1.5c.13,6.052-3.341,19.221-3.341,19.221s-2.806,20.25-2.407,27.965a17.793,17.793,0,0,0,.135,1.843c.859,6.417,2,24.334,2,24.334a8.04,8.04,0,0,0,.654.844c-.1.4-.22.8-.35,1.2a33.757,33.757,0,0,0-1.673,12.544c.035.5.075,1.044.125,1.593.574,6.612,16.569,2.5,17.623,1.728.36-.265.1-2.662-.39-5.7l16.479,4.07s11.685,1.728,17.243,0,5.363-6.492-2.587-7.276c-5.568-.539-9.987-5.723-12.17-8.784.844-2.3,7.171-19.775,8.335-30.591a153.136,153.136,0,0,1,3.69-20.734l1.243-16.095,2.207-9.488,2.632-12.544c2.971-9.2,3.88-24.574,3.88-24.574l2.3-15.086a29.2,29.2,0,0,0,.534-4.974,55.761,55.761,0,0,1,6.367,1.7c3.6-2.8-1.5-29.743-1.5-29.743s-2.452-17.019-4.529-32.534a31.794,31.794,0,0,1,9.918.4l30.177.664a15.337,15.337,0,0,0,1.618-2.637h1.293a2.77,2.77,0,0,0,.375-.729l.534.1a44.629,44.629,0,0,1,5.773,1.753s9.518,1.149,8.08-8.834c-1.069-7.441-9.538-4.739-13.773-2.891l-.534.245c-.04-.28-.065-.439-.065-.439l-1.363.25a6.584,6.584,0,0,0-.285-.609s-14.8-.574-26.8-2.372c-8.534-1.278-14.981-6.157-18.012-8.864-2.1-10.672-8.21-13.913-8.21-13.913a18.275,18.275,0,0,1-8.325-2.816,17.593,17.593,0,0,1-1.948-1.348l-.33.19-.04-.035c2.032-1.888,4.14-3.62,5.992-5.074l.834-.644a18.512,18.512,0,0,0,15.121-25.922c-.08-.18-.175-.36-.26-.534a4.155,4.155,0,0,0,3.665-3.61c.185-2.092-1.258-4.32-.315-6.2a6.023,6.023,0,0,0,.449-.874,2.362,2.362,0,0,0,.07-.879,6.187,6.187,0,0,0-2.5-4.494c-2.142-1.553-4.045-.764-6.387-.9a77.109,77.109,0,0,1-8.055-1.248,27.854,27.854,0,0,0-9.253-.3,11.924,11.924,0,0,0-7.82,4.579c-.759,1.089-1.273,2.332-2,3.456-.814,1.3-1.868,2.422-2.8,3.63-1.573,2.032-2.846,4.469-2.722,7.036.07,1.453.584,2.851.684,4.3a26.211,26.211,0,0,1-.3,4.045,17.709,17.709,0,0,0,.295,5.159,3.2,3.2,0,0,0,.589,1.468,3.131,3.131,0,0,0,1.3.834,11.605,11.605,0,0,0,1.593.5,22.816,22.816,0,0,1-2.232,4.02l-.809-.839-2.187,3.416-.085-.23c-.1.215-.225.419-.35.624l-.225-.624a13.13,13.13,0,0,1-4.9,4.9c-5.723,3.6-13.708,5.084-13.708,5.084-12.864,1.868-10.487,15.156-10.487,15.156s-5.458,23.71-6.991,38.367,4.165,23.995,4.165,23.995Zm61.348-43.335c.5,1.633.939,3.181,1.313,4.534l-.24.095c-.275-1.253-.649-2.861-1.059-4.629Zm-14.152-39.785-.07.045.065-.065ZM210.278,496.618c-.629-3.76-1.568-8.3-2.147-11.011.409-1.333.954-3.371,1.593-6.4,1.438-6.8,2.3-30.846,2.3-30.846l3.356-20.2a66.641,66.641,0,0,0,3.735-16.979c1.233-3.256,4.085-23.186,4.539-26.387-.13,2.212-.439,7.815-.6,14.037V399c-.125,4.7-.16,9.738,0,13.917h0c.045,1.174.1,2.287.185,3.316.025.265.04.539.05.809.36,10.836-4.494,24.469-4.494,24.469s-2.162,10.107-1.843,15.755a10.4,10.4,0,0,0,.429,3,5.3,5.3,0,0,1,.245,1.388c.09,5.4-3.1,16.744-3.915,19.525C211.926,484.838,210.6,494.181,210.278,496.618Z" transform="translate(1068.553 -8155.106)" fill="url(#linear-gradient)"/>
      <path id="Path_19623" data-name="Path 19623" d="M260.123,763.4s5.6,10.157,13.483,10.916,8.07,5.493,2.562,7.216-17.089,0-17.089,0l-16.519-4.08s2-16.329,4.649-17.183S260.123,763.4,260.123,763.4Z" transform="translate(1036.511 -8436.636)" fill="#4c4c78"/>
      <path id="Path_19624" data-name="Path 19624" d="M222.867,765.825s4.18,18.8,3.136,19.56-16.9,4.839-17.478-1.713c-.05-.544-.09-1.074-.12-1.578a33.278,33.278,0,0,1,1.658-12.434,10.3,10.3,0,0,0,.644-3.835C210.433,763.188,222.867,765.825,222.867,765.825Z" transform="translate(1053.637 -8438.891)" fill="#4c4c78"/>
      <path id="Path_19625" data-name="Path 19625" d="M247.79,267.6s12.814,31.46,10.537,21.373c-1.5-6.7,8.245-15.6,14.981-20.824,3.431-2.667,6.087-4.379,6.087-4.379s-24.07-28.055-22.362-15.95a18.227,18.227,0,0,1-1.313,9.768,25.608,25.608,0,0,1-7.93,10.012Z" transform="translate(1033.893 -8178.632)" fill="#ffb9b9"/>
      <path id="Path_19626" data-name="Path 19626" d="M411.77,368.249a7.365,7.365,0,0,1,2.931.185,43.25,43.25,0,0,1,5.718,1.738s9.438,1.139,7.99-8.754c-1.059-7.381-9.448-4.7-13.648-2.866-1.428.624-2.377,1.154-2.377,1.154Z" transform="translate(951.8 -8234.57)" fill="#ffb9b9"/>
      <path id="Path_19627" data-name="Path 19627" d="M411.77,370.278a7.366,7.366,0,0,1,2.931.185c1.024-2.592.245-8.729.08-9.883-1.428.624-2.377,1.154-2.377,1.154Z" transform="translate(951.8 -8236.6)" opacity="0.1"/>
      <path id="Path_19628" data-name="Path 19628" d="M410.909,360.674l2.467-.454s1.268,8.489-.385,10.707H410.15Z" transform="translate(952.611 -8236.42)" fill="#cbcdda"/>
      <path id="Path_19629" data-name="Path 19629" d="M310.5,390.428s7.551-4.494,8.449,1.184,2.092,15.431,2.092,15.431l2.087,12.389,2.707,24.829-.38,4.225s-8.025-2.687-9.923-1.758-3.421-10.417-3.421-10.417l-3.131-11.775-.5-24.969Z" transform="translate(1003.51 -8250.697)" fill="#4c4c78"/>
      <path id="Path_19630" data-name="Path 19630" d="M310.5,390.428s7.551-4.494,8.449,1.184,2.092,15.431,2.092,15.431l2.087,12.389,2.707,24.829-.38,4.225s-8.025-2.687-9.923-1.758-3.421-10.417-3.421-10.417l-3.131-11.775-.5-24.969Z" transform="translate(1003.51 -8250.697)" opacity="0.1"/>
      <path id="Path_19631" data-name="Path 19631" d="M320.65,333.56s7.835,8.829,19.725,10.612,26.562,2.347,26.562,2.347a12.876,12.876,0,0,1-1.638,13.673l-29.907-.659s-6.622-1.438-11.75,0Z" transform="translate(997.417 -8223.073)" fill="#4c4c78"/>
      <path id="Path_19632" data-name="Path 19632" d="M320.65,333.56s7.835,8.829,19.725,10.612,26.562,2.347,26.562,2.347a12.876,12.876,0,0,1-1.638,13.673l-29.907-.659s-6.622-1.438-11.75,0Z" transform="translate(997.417 -8223.073)" opacity="0.05"/>
      <path id="Path_19633" data-name="Path 19633" d="M450.84,406.14" transform="translate(932.24 -8259.408)" fill="none" stroke="blue" stroke-miterlimit="10" stroke-width="1"/>
      <path id="Path_19634" data-name="Path 19634" d="M266.188,257.334c2.921,6.247,7.99,10.856,15.361,10.856h.959c3.431-2.667,6.087-4.379,6.087-4.379s-24.07-28.055-22.362-15.95C266.757,251.541,267.362,254.553,266.188,257.334Z" transform="translate(1024.703 -8178.652)" opacity="0.1"/>
      <path id="Path_19635" data-name="Path 19635" d="M260.25,235.342a18.307,18.307,0,1,0,5.366-12.984A18.347,18.347,0,0,0,260.25,235.342Z" transform="translate(1027.655 -8164.72)" fill="#ffb9b9"/>
      <path id="Path_19636" data-name="Path 19636" d="M237.8,384.262s40.919,3.61,42.447-1.613-4.175-19.366-4.175-19.366l1.828-19.75.07-.759s-5.114-21.363-4.944-23.051c.175-1.533-8.255-19.475-9.987-23.126l-.315-.659-.325.19-.14.085-2,1.169-7.925-1.868L242.8,290.52l-.9,54.631Z" transform="translate(1038.894 -8201.525)" fill="#cbcdda"/>
      <path id="Path_19637" data-name="Path 19637" d="M278.633,302.566a3.261,3.261,0,0,1,3.9,2.042,28.793,28.793,0,0,0,1.5,3.5l1.094,6.492,2,10.252,1.468,45.443-.659,8.09-3.655-6.492-.664-42.447v-5.293a38.307,38.307,0,0,0-3.046-13.263l-.5-1.194-3.181-4.08Z" transform="translate(1019.329 -8207.51)" opacity="0.1"/>
      <path id="Path_19638" data-name="Path 19638" d="M279.763,301.426a3.261,3.261,0,0,1,3.9,2.042,28.791,28.791,0,0,0,1.5,3.5l1.094,6.492,2,10.252,1.473,45.443-.669,8.07-3.655-6.492-.664-42.447v-5.293a38.3,38.3,0,0,0-3.041-13.263l-.5-1.193L278,304.467Z" transform="translate(1018.769 -8206.938)" fill="#4c4c78"/>
      <path id="Path_19639" data-name="Path 19639" d="M253.77,278s9.683,10.257,13.1,11.486c0,0-1.708,7.785-3.416,9.3,0,0-10.162-10.362-11.985-11.2l-1.5-3.69Z" transform="translate(1032.801 -8195.258)" opacity="0.1"/>
      <path id="Path_19640" data-name="Path 19640" d="M253.77,276.9s9.683,10.257,13.1,11.486c0,0-1.708,7.785-3.416,9.3,0,0-10.162-10.362-11.985-11.2l-1.5-3.69Z" transform="translate(1032.801 -8194.707)" fill="#cbcdda"/>
      <path id="Path_19641" data-name="Path 19641" d="M286.58,301.35l.1.265,3.106,8.32,5.543,15.71s.055.16.15.459c.919,2.856,5.863,18.362,6.836,22.871l.07-.759s-5.109-21.383-4.939-23.071c.175-1.533-8.255-19.476-9.987-23.126-.275-.19-.5-.35-.639-.469Z" transform="translate(1014.473 -8206.947)" opacity="0.1"/>
      <path id="Path_19642" data-name="Path 19642" d="M287.71,301.33l3.206,8.594,5.548,15.71s.055.16.15.459c.974,3.046,6.522,20.424,6.991,23.605.5,3.5,7.491,22.362,7.491,22.362l3.995,32.684c3.561-2.777-1.5-29.463-1.5-29.463s-5.7-39.59-7.046-52.759-8.654-17.064-8.654-17.064a18.13,18.13,0,0,1-8.25-2.791A17.616,17.616,0,0,1,287.71,301.33Z" transform="translate(1013.908 -8206.938)" fill="#4c4c78"/>
      <path id="Path_19643" data-name="Path 19643" d="M207.051,592.437c.854,6.362,2,24.12,2,24.12,3.995,5.992,12.819,2.752,12.819,2.752s.944-1.808,2.367-8.549,2.282-30.572,2.282-30.572l3.326-20.03a66.048,66.048,0,0,0,3.7-16.8c1.328-3.5,4.559-26.587,4.559-26.587s-1.333,20.7-.5,31.615-4.365,25.638-4.365,25.638-2.946,13.768-1.423,18.037-3.8,21.932-3.8,21.932c.474,5.129,15.57,3.036,15.57,3.036s7.121-19.081,8.355-30.572A151.737,151.737,0,0,1,255.6,565.9l1.228-15.95,2.187-9.4,2.612-12.434c2.941-9.119,3.845-24.354,3.845-24.354l2.277-14.951c1.5-7.4-.434-16.065-1.733-20.619-.559-1.963-1-3.166-1-3.166-1.308.929-8.8,2-12.674,2.9a22.052,22.052,0,0,1-6.492.5,144.239,144.239,0,0,1-28.914-5.288l-1-.3-.2,1.708-.469,4.075-.829,7.226s-2.567,38.547-1.049,43.77-1.044,22.766-1.044,22.766c1.423,4.165-3.036,21.093-3.036,21.093S206.2,586.08,207.051,592.437Z" transform="translate(1054.362 -8287.794)" opacity="0.1"/>
      <path id="Path_19644" data-name="Path 19644" d="M207.052,591.3c.854,6.362,2,24.12,2,24.12,3.995,5.992,12.819,2.752,12.819,2.752s.944-1.808,2.367-8.549,2.282-30.572,2.282-30.572l3.326-20.03a66.047,66.047,0,0,0,3.7-16.8c1.328-3.5,4.559-26.587,4.559-26.587s-1.333,20.7-.5,31.615-4.365,25.638-4.365,25.638-2.946,13.768-1.423,18.037-3.8,21.932-3.8,21.932c.474,5.129,15.57,3.036,15.57,3.036s7.121-19.081,8.355-30.572a151.736,151.736,0,0,1,3.66-20.554l1.228-15.95,2.187-9.4,2.612-12.434c2.941-9.119,3.845-24.354,3.845-24.354l2.277-14.956c1.5-7.391-.434-16.06-1.733-20.614-.559-1.963-1-3.166-1-3.166-1.308.929-8.8,2-12.674,2.9a22.05,22.05,0,0,1-6.492.5A144.237,144.237,0,0,1,216.94,462l-1-.3-.2,1.708-.469,4.075-.829,7.226s-2.567,38.547-1.049,43.77-1.029,22.771-1.029,22.771c1.423,4.165-3.036,21.094-3.036,21.094S206.2,584.94,207.052,591.3Z" transform="translate(1054.361 -8287.224)" fill="#474463"/>
      <path id="Path_19645" data-name="Path 19645" d="M260.25,235.317a18.307,18.307,0,0,0,2.432,9.124,9.674,9.674,0,0,0,8.06-1.943c1.463-1.288,2.407-3.051,3.665-4.544a26.713,26.713,0,0,1,2.622-2.587,8.12,8.12,0,0,1,2.067-1.5,2.806,2.806,0,0,1,2.5-.03c1,.564,1.358,1.818,1.928,2.821a3.765,3.765,0,0,0,2.1,1.833,2.227,2.227,0,0,0,2.5-.854c.619-1.069.165-2.737,1.208-3.386a6.288,6.288,0,0,1,.849-.345c1.343-.609,1.5-2.412,1.608-3.88a2.428,2.428,0,0,1,.824-1.933,3.713,3.713,0,0,1,2.127-.175,3,3,0,0,0,.639-.055,18.347,18.347,0,0,0-35.121,7.436Z" transform="translate(1027.655 -8164.695)" opacity="0.1"/>
      <path id="Path_19646" data-name="Path 19646" d="M294.013,203.255a6.092,6.092,0,0,1,2.472,4.434,2.331,2.331,0,0,1-.065.874,6.491,6.491,0,0,1-.444.869c-.939,1.858.5,4.065.31,6.142a4.085,4.085,0,0,1-3.995,3.585,3.908,3.908,0,0,0-2.127.175,2.368,2.368,0,0,0-.824,1.933c-.115,1.473-.265,3.276-1.608,3.88a7.049,7.049,0,0,0-.849.35c-1.044.649-.584,2.322-1.208,3.381a2.222,2.222,0,0,1-2.5.859,3.785,3.785,0,0,1-2.1-1.833c-.574-1-.919-2.257-1.928-2.821a2.821,2.821,0,0,0-2.5.025,8.14,8.14,0,0,0-2.067,1.5,27.28,27.28,0,0,0-2.622,2.587c-1.258,1.5-2.2,3.256-3.67,4.544-2.757,2.422-6.991,2.662-10.387,1.283a3.176,3.176,0,0,1-1.288-.824,3.226,3.226,0,0,1-.6-1.478,17.747,17.747,0,0,1-.295-5.114,25.811,25.811,0,0,0,.3-3.995c-.095-1.438-.609-2.826-.679-4.265-.125-2.542,1.139-4.959,2.7-6.991.929-1.2,1.973-2.312,2.777-3.6.7-1.114,1.208-2.347,1.963-3.426a12,12,0,0,1,7.75-4.539,27.123,27.123,0,0,1,9.173.3,75.469,75.469,0,0,0,7.99,1.238C290,202.471,291.89,201.687,294.013,203.255Z" transform="translate(1030.116 -8156.467)" fill="#472727"/>
      <path id="Path_19647" data-name="Path 19647" d="M287.71,301.33l3.206,8.594,5.548,15.71s.055.16.15.459h0l-6.991-23.426A17.625,17.625,0,0,1,287.71,301.33Z" transform="translate(1013.908 -8206.938)" opacity="0.1"/>
      <path id="Path_19648" data-name="Path 19648" d="M218.308,494.1s-.335,10.392,2.467,12.984l7.451-14.052L221.963,490Z" transform="translate(1048.659 -8301.392)" fill="#ffb9b9"/>
      <path id="Path_19649" data-name="Path 19649" d="M183.48,394.39c3.421,3.995,18.3,4.7,18.3,4.7l14.746-23.211s3.5-2.422,10.032-13.318,6.337-19.3,5.992-25.563-4.494-24.284-4.494-24.284c-.634-4.055-9.818-29.463-9.818-29.463a13.017,13.017,0,0,1-4.859,4.859c-5.668,3.551-13.593,5-13.593,5-12.749,1.853-10.4,15.026-10.4,15.026s-.155,51.221.644,57.343S183.48,394.39,183.48,394.39Z" transform="translate(1066.088 -8197.886)" opacity="0.1"/>
      <path id="Path_19650" data-name="Path 19650" d="M189.49,484l.424,3.8,5.178-1.9,3.8-5.743-2.846-2.232Z" transform="translate(1077.286 -8289.296)" fill="#cbcdda"/>
      <path id="Path_19651" data-name="Path 19651" d="M218.3,467.508l2.707.275,26.107,2.607a42.291,42.291,0,0,0,12.544-.614l12.1-2.422c-.559-1.963-1-3.166-1-3.166-1.308.929-8.8,2-12.674,2.9a22.05,22.05,0,0,1-6.492.5,144.232,144.232,0,0,1-28.949-5.288l-1.179,1.408Z" transform="translate(1048.656 -8287.523)" opacity="0.1"/>
      <g id="Group_18157" data-name="Group 18157" transform="translate(1261.215 -7825.523)" opacity="0.1">
        <path id="Path_19652" data-name="Path 19652" d="M322.75,466.225a2.721,2.721,0,0,0,.255-.145l.025.07Z" transform="translate(-264.85 -463.893)"/>
        <path id="Path_19653" data-name="Path 19653" d="M209.254,562.338s4.464-16.929,3.036-21.094c0,0,2.567-17.543,1.044-22.766s1.049-43.77,1.049-43.77l.844-7.226.5-4.075.2-1.708s.34.11,1,.3l.6.18-.14.669-.474,4.075-.844,7.226s-2.562,38.541-1.049,43.77-1.039,22.766-1.039,22.766c1.423,4.165-3.036,21.093-3.036,21.093s-3.136,22.6-2.282,28.964,2,24.115,2,24.115c2.911,4.375,8.409,3.825,11.156,3.211-.03.075-.05.115-.05.115s-8.829,3.226-12.819-2.752c0,0-1.139-17.758-2-24.12S209.254,562.338,209.254,562.338Z" transform="translate(-206.804 -461.7)"/>
        <path id="Path_19654" data-name="Path 19654" d="M252.945,644.41c-1.5-4.27,1.428-18.037,1.428-18.037s5.213-14.716,4.36-25.638c-.355-4.549-.33-10.791-.18-16.529,1.214-7.391,2.367-15.655,2.367-15.655s-1.333,20.694-.474,31.615-4.365,25.638-4.365,25.638-2.946,13.768-1.423,18.037-3.8,21.932-3.8,21.932c.38,4.11,10.137,3.586,13.982,3.211l-.145.395s-15.1,2.092-15.565-3.036C249.15,666.342,254.463,648.674,252.945,644.41Z" transform="translate(-227.993 -515.192)"/>
      </g>
      <path id="Path_19655" data-name="Path 19655" d="M182.34,394.39c3.421,3.995,18.3,4.7,18.3,4.7l14.741-23.211s3.5-2.422,10.037-13.318,6.337-19.3,5.992-25.563-4.494-24.284-4.494-24.284c-.634-4.055-9.818-29.463-9.818-29.463a13.017,13.017,0,0,1-4.859,4.859c-5.673,3.551-13.588,5-13.588,5-12.749,1.853-10.4,15.026-10.4,15.026s-.14,51.2.644,57.323S182.34,394.39,182.34,394.39Z" transform="translate(1066.659 -8197.886)" fill="#4c4c78"/>
      <path id="Path_19656" data-name="Path 19656" d="M244.332,295.839l3.206,1.208-2.137,1.5L261.341,337c-.37-6.267-4.494-24.284-4.494-24.284-.634-4.055-9.818-29.463-9.818-29.463a13.018,13.018,0,0,1-4.859,4.859Z" transform="translate(1036.706 -8197.886)" opacity="0.1"/>
      <path id="Path_19657" data-name="Path 19657" d="M191.867,429.31l-16.309-4.2-2.137,6.622,16.664,4.06Z" transform="translate(1085.332 -8262.858)" opacity="0.1"/>
      <path id="Path_19658" data-name="Path 19658" d="M200.548,312.93s7.406,6.991,4.629,22.5-7.261,32.4-7.261,32.4l12.06,33.4s-8.4,8.759-12.534,9.823l-12.035-26.7s-5.623-9.258-4.13-23.78,6.906-38.027,6.906-38.027S188.158,308.231,200.548,312.93Z" transform="translate(1067.317 -8212.271)" opacity="0.1"/>
      <path id="Path_19659" data-name="Path 19659" d="M199.393,312.93s7.406,6.991,4.629,22.5-7.261,32.4-7.261,32.4l12.02,33.4s-8.389,8.759-12.529,9.823l-12.035-26.7s-5.623-9.258-4.13-23.78,6.906-38.027,6.906-38.027S186.993,308.231,199.393,312.93Z" transform="translate(1067.913 -8212.271)" fill="#4c4c78"/>
      <path id="Path_19660" data-name="Path 19660" d="M228.255,492.067s-9.4,12.984-8.684,16.479,3.466,1.613,3.466,1.613l3.72-5.084,3.326-9.488S229.753,491.508,228.255,492.067Z" transform="translate(1048.039 -8302.399)" opacity="0.1"/>
      <path id="Path_19661" data-name="Path 19661" d="M230.58,492.067s-9.4,12.984-8.689,16.479,3.466,1.613,3.466,1.613l3.7-5.079,3.326-9.488S232.058,491.508,230.58,492.067Z" transform="translate(1046.878 -8302.399)" opacity="0.1"/>
      <path id="Path_19662" data-name="Path 19662" d="M229.435,492.067s-9.4,12.984-8.684,16.479,3.466,1.613,3.466,1.613l3.7-5.079,3.326-9.488S230.918,491.508,229.435,492.067Z" transform="translate(1047.448 -8302.399)" fill="#474463"/>
    </g>
    <ellipse id="Ellipse_4399" data-name="Ellipse 4399" cx="93.857" cy="23.464" rx="93.857" ry="23.464" transform="translate(437.873 2525.213)" fill="#21455e" opacity="0.1"/>
    <g id="small_particles" data-name="small particles" transform="translate(763 2537)">
      <path id="Polygon_8" data-name="Polygon 8" d="M9.177,0l9.177,15.566H0Z" transform="matrix(0.891, 0.454, -0.454, 0.891, 159.205, 1.395)" fill="#2a52c6"/>
      <circle id="Ellipse_9" data-name="Ellipse 9" cx="4.194" cy="4.194" r="4.194" transform="matrix(0.951, -0.309, 0.309, 0.951, 0, 35.739)" fill="#38a2ff"/>
      <rect id="Rectangle_2846" data-name="Rectangle 2846" width="10.067" height="10.067" transform="matrix(0.951, -0.309, 0.309, 0.951, 35.266, 3.111)" fill="#f8ced7"/>
    </g>
  </g>
</svg>
