<svg xmlns="http://www.w3.org/2000/svg" width="335.596" height="157.79" viewBox="0 0 335.596 157.79">
  <g id="Group_23306" data-name="Group 23306" transform="translate(-912.642 -3827.254)">
    <g id="Group_23193" data-name="Group 23193" transform="translate(912.642 3827.254)">
      <path id="Path_31392" data-name="Path 31392" d="M887.731,755.135c4.4,16.743,19.8,27.206,19.8,27.206s8.278-16.683,3.881-33.426-19.8-27.206-19.8-27.206S883.335,738.392,887.731,755.135Z" transform="translate(-845.462 -627.671)" fill="#3f3d56"/>
      <path id="Path_31393" data-name="Path 31393" d="M924.671,761.343c12.314,12.166,13.692,30.739,13.692,30.739s-18.588-1.153-30.9-13.319-13.692-30.739-13.692-30.739S912.357,749.177,924.671,761.343Z" transform="translate(-875.733 -637.421)" fill="#27b206"/>
      <path id="Path_31394" data-name="Path 31394" d="M234.721,645.564H222.729L193.179,634s-20.985-8.565-19.272,7.709,4.711,38.115,4.711,38.115,9.422-4.283,14.561-3,1.713-26.124,1.713-26.124,41.97,20.128,45.824,17.559,4.711-20.557,4.711-20.557Z" transform="translate(53.767 -537.71)" fill="#2f2e41"/>
      <path id="Path_31395" data-name="Path 31395" d="M234.721,645.564H222.729L193.179,634s-20.985-8.565-19.272,7.709,4.711,38.115,4.711,38.115,9.422-4.283,14.561-3,1.713-26.124,1.713-26.124,41.97,20.128,45.824,17.559,4.711-20.557,4.711-20.557Z" transform="translate(53.767 -537.71)" opacity="0.1"/>
      <path id="Path_31396" data-name="Path 31396" d="M307.43,558.82l-14.512,20.85-33.833,28.265s-31.263,7.281-26.981,12.42,30.407-5.139,30.407-5.139,38.972-28.265,40.257-30.407,15.417-22.27,15.417-22.27Z" transform="translate(-37.835 -488.519)" fill="#a0616a"/>
      <path id="Path_31397" data-name="Path 31397" d="M307.43,558.82l-14.512,20.85-33.833,28.265s-31.263,7.281-26.981,12.42,30.407-5.139,30.407-5.139,38.972-28.265,40.257-30.407,15.417-22.27,15.417-22.27Z" transform="translate(-37.835 -488.519)" opacity="0.1"/>
      <path id="Path_31398" data-name="Path 31398" d="M204.282,507.092l-9.422,18.415s2.141,8.993,5.567,9.85,17.987-11.135,17.987-11.135Z" transform="translate(73.927 -453.628)" fill="#d0cde1"/>
      <path id="Path_31399" data-name="Path 31399" d="M204.282,507.092l-9.422,18.415s2.141,8.993,5.567,9.85,17.987-11.135,17.987-11.135Z" transform="translate(73.927 -453.628)" opacity="0.1"/>
      <path id="Path_31400" data-name="Path 31400" d="M554.276,643.765l-2.783,11.48a.717.717,0,0,0,.014.387l12.625,39.453a.717.717,0,0,0,1.4-.138l1.746-15.369a.715.715,0,0,0-.031-.3l-11.588-35.564a.717.717,0,0,0-1.379.053Z" transform="translate(-391.008 -545.445)" fill="#2f2e41"/>
      <path id="Path_31401" data-name="Path 31401" d="M494.665,575.493l-2.569,9.85,11.135,35.974,2.569-11.135Z" transform="translate(-330.374 -476.205)" fill="#f2f2f2"/>
      <path id="Path_31402" data-name="Path 31402" d="M462.379,771.525c-.428,1.285-44.539-.428-44.968-.857a9.3,9.3,0,0,1-.942-1.713c-.4-.857-.771-1.713-.771-1.713l1.713-13.867,43.683-1.55s1.092,11.752,1.315,17.13A12.855,12.855,0,0,1,462.379,771.525Z" transform="translate(-241.985 -618.703)" fill="#2f2e41"/>
      <path id="Path_31403" data-name="Path 31403" d="M419.269,689.965l-.856,11.991h19.272V689.965Z" transform="translate(-238.276 -553.417)" opacity="0.1"/>
      <path id="Path_31404" data-name="Path 31404" d="M364.582,701.759l-.115-.023.543,5.162h10.707v-5.139Z" transform="translate(-158.749 -561.357)" opacity="0.1"/>
      <path id="Path_31405" data-name="Path 31405" d="M461.608,807.025c-.428,1.285-44.539-.428-44.968-.857a9.3,9.3,0,0,1-.942-1.713h45.94A12.856,12.856,0,0,1,461.608,807.025Z" transform="translate(-241.214 -654.203)" opacity="0.1"/>
      <ellipse id="Ellipse_4780" data-name="Ellipse 4780" cx="19.272" cy="19.272" rx="19.272" ry="19.272" transform="translate(252.514 8.925)" fill="#a0616a"/>
      <path id="Path_31406" data-name="Path 31406" d="M163.94,447.692s6.424,11.135,7.709,17.131,19.272-11.991,19.272-11.991l2.355-6.21s-16.916-7.923-15.632-14.347S163.94,447.692,163.94,447.692Z" transform="translate(109.13 -402.365)" fill="#a0616a"/>
      <path id="Path_31407" data-name="Path 31407" d="M285.528,584.722l-17.559,23.126L226,639.112s-30.407,6.424-23.554,11.135S229,645.964,229,645.964s42.4-22.7,51.392-32.12,25.7-25.268,25.7-25.268Z" transform="translate(-15.884 -505.991)" fill="#a0616a"/>
      <path id="Path_31408" data-name="Path 31408" d="M136.587,689.716l-5.139,8.137L100.777,688.2A24.116,24.116,0,0,0,80.7,690.626c-5.353,3.373-8.779,8.726-1.071,16.649,15.417,15.846,25.7,7.281,25.7,7.281s51.82,24.411,60.385,12.42,8.993-17.987,8.993-17.987S141.727,688.431,136.587,689.716Z" transform="translate(156.611 -575.01)" fill="#2f2e41"/>
      <path id="Path_31409" data-name="Path 31409" d="M256.833,774.1s-13.7,8.994,2.57,13.276,28.265-1.713,28.265-1.713,14.133,0,14.133-7.28-4.711-8.137-4.711-8.137l-14.561,2.141S264.971,767.676,256.833,774.1Z" transform="translate(-27.874 -631.128)" fill="#d0cde1"/>
      <path id="Path_31410" data-name="Path 31410" d="M187.884,366.182a14.369,14.369,0,0,1-4.039,1.447,3.686,3.686,0,0,1-3.725-1.6,5.01,5.01,0,0,1-.423-2.266c-.052-2.352.119-4.894,1.609-6.714.948-1.158,2.333-1.888,3.315-3.019A14.263,14.263,0,0,0,186.3,351.3c1.909-3.586,4.736-7.032,8.665-8.066a18.79,18.79,0,0,1,5.058-.387l9.894.14a17.228,17.228,0,0,1,4.76.512c3.185.963,5.5,3.641,7.627,6.2a38.787,38.787,0,0,1,4.374,6.037,21.183,21.183,0,0,1,2.511,10.379,9.71,9.71,0,0,1-.356,2.746,15.238,15.238,0,0,1-1.079,2.371c-1.855,3.644-2.957,8.2-.868,11.712-3.63-1.483-7.221-3.427-9.616-6.532-1.071-1.389-1.911-3.015-3.339-4.034s-3.753-1.108-4.669.388a4.185,4.185,0,0,0-.472,1.96,8.984,8.984,0,0,1-.541,3.308,2.479,2.479,0,0,1-2.693,1.537c-1.865-.525-1.686-3.387-3.122-4.687-1.091-.987-2.773-.8-4.175-1.247a6.2,6.2,0,0,1-3.556-3.5c-.531-1.19-.523-4.3-1.527-4.948C191.914,364.377,189.051,365.662,187.884,366.182Z" transform="translate(68.092 -342.833)" fill="#2f2e41"/>
      <path id="Path_31411" data-name="Path 31411" d="M89.217,472.206a5.082,5.082,0,0,0-2.646.007c-2.749.738-8.912,2.692-10.233,5.665-1.713,3.854-7.709,9.85-7.709,9.85s-8.137,8.137-6.424,13.7,8.137,11.991,8.137,11.991-1.713,26.552,6.852,33.4,11.991,2.141,11.991,8.565,26.552,26.552,31.691,14.133c0,0-2.57-23.126-1.713-31.263C120.008,530.243,118.772,480.208,89.217,472.206Z" transform="translate(214.719 -429.981)" fill="#d0cde1"/>
      <path id="Path_31412" data-name="Path 31412" d="M162,503.445s-26.124,19.272-21.413,27.409c0,0,15.846,7.709,19.272,7.28s16.7-15.417,20.128-16.7S185.124,497.021,162,503.445Z" transform="translate(128.203 -450.409)" fill="#d0cde1"/>
      <rect id="Rectangle_17745" data-name="Rectangle 17745" width="92.112" height="0.651" transform="translate(0 154.284)" fill="#3f3d56"/>
    </g>
  </g>
</svg>
