<svg xmlns="http://www.w3.org/2000/svg" xmlns:xlink="http://www.w3.org/1999/xlink" width="751.578" height="749.301" viewBox="0 0 751.578 749.301">
  <defs>
    <pattern id="pattern" preserveAspectRatio="none" width="100%" height="100%" viewBox="0 0 800 258">
      <image width="800" height="258" xlink:href="Group%2023309-image.png"/>
    </pattern>
    <linearGradient id="linear-gradient" x1="0.5" y1="0.905" x2="0.5" y2="-0.46" gradientUnits="objectBoundingBox">
      <stop offset="0" stop-color="#fff"/>
      <stop offset="1" stop-color="#1d9fdf"/>
    </linearGradient>
  </defs>
  <g id="Group_23309" data-name="Group 23309" transform="translate(-622.422 -2222)">
    <g id="Group_23278" data-name="Group 23278" transform="translate(630.007 2172.826)">
      <g id="Group_23248" data-name="Group 23248" transform="translate(63.718 49.174)">
        <g id="Group_23222" data-name="Group 23222" transform="translate(31.102 221.123)">
          <path id="Path_31437" data-name="Path 31437" d="M146.369,289.72H103.347a1.388,1.388,0,0,1,0-2.776h43.022a1.388,1.388,0,0,1,0,2.776Z" transform="translate(-101.959 -286.944)" fill="#dfdff4" opacity="0.67"/>
          <path id="Path_31438" data-name="Path 31438" d="M176.14,289.72H158.562a1.388,1.388,0,0,1,0-2.776H176.14a1.388,1.388,0,1,1,0,2.776Z" transform="translate(-105.825 -286.944)" fill="#dfdff4" opacity="0.67"/>
        </g>
        <g id="Group_23223" data-name="Group 23223" transform="translate(26.013 407.783)">
          <path id="Path_31439" data-name="Path 31439" d="M140.9,490.432H97.875a1.388,1.388,0,1,1,0-2.775H140.9a1.388,1.388,0,1,1,0,2.775Z" transform="translate(-96.487 -487.657)" fill="#dfdff4" opacity="0.67"/>
          <path id="Path_31440" data-name="Path 31440" d="M170.669,490.432H153.09a1.388,1.388,0,1,1,0-2.775h17.58a1.388,1.388,0,1,1,0,2.775Z" transform="translate(-100.353 -487.657)" fill="#dfdff4" opacity="0.67"/>
        </g>
        <g id="Group_23224" data-name="Group 23224" transform="translate(4.709 229.274)">
          <path id="Path_31441" data-name="Path 31441" d="M117.99,298.485H74.968a1.388,1.388,0,0,1,0-2.776H117.99a1.388,1.388,0,0,1,0,2.776Z" transform="translate(-73.58 -295.709)" fill="#dfdff4" opacity="0.67"/>
          <path id="Path_31442" data-name="Path 31442" d="M138.926,306.132H80.378a1.388,1.388,0,0,1,0-2.775h58.548a1.388,1.388,0,0,1,0,2.775Z" transform="translate(-73.959 -296.244)" fill="#dfdff4" opacity="0.67"/>
          <path id="Path_31443" data-name="Path 31443" d="M148.321,298.485H130.742a1.388,1.388,0,1,1,0-2.776h17.579a1.388,1.388,0,0,1,0,2.776Z" transform="translate(-77.485 -295.709)" fill="#dfdff4" opacity="0.67"/>
        </g>
        <g id="Group_23227" data-name="Group 23227" transform="translate(476.903 75.206)">
          <g id="Group_23225" data-name="Group 23225" transform="translate(0 0)">
            <path id="Path_31444" data-name="Path 31444" d="M640.088,247.574a58.766,58.766,0,1,1,58.766-58.766A58.832,58.832,0,0,1,640.088,247.574Zm0-107.937a49.172,49.172,0,1,0,49.172,49.171A49.227,49.227,0,0,0,640.088,139.637Z" transform="translate(-581.322 -130.042)" fill="#dfdff4"/>
          </g>
          <g id="Group_23226" data-name="Group 23226" transform="translate(39.564 27.52)">
            <path id="Path_31445" data-name="Path 31445" d="M635.269,221.83l39.279-24.164a7.483,7.483,0,0,0,0-12.747l-39.279-24.164a7.483,7.483,0,0,0-11.4,6.373v48.328A7.483,7.483,0,0,0,635.269,221.83Z" transform="translate(-623.865 -159.633)" fill="#dfdff4"/>
          </g>
        </g>
        <g id="Group_23230" data-name="Group 23230" transform="translate(0 54.958)">
          <g id="Group_23228" data-name="Group 23228">
            <path id="Path_31446" data-name="Path 31446" d="M133.937,239.111a65.421,65.421,0,1,1,65.421-65.421A65.495,65.495,0,0,1,133.937,239.111Zm0-120.161a54.74,54.74,0,1,0,54.74,54.74A54.8,54.8,0,0,0,133.937,118.95Z" transform="translate(-68.516 -108.269)" fill="#dfdff4"/>
          </g>
          <g id="Group_23229" data-name="Group 23229" transform="translate(44.044 30.635)">
            <path id="Path_31447" data-name="Path 31447" d="M128.572,210.45l43.727-26.9a8.331,8.331,0,0,0,0-14.192l-43.727-26.9a8.331,8.331,0,0,0-12.7,7.1v53.8A8.331,8.331,0,0,0,128.572,210.45Z" transform="translate(-115.876 -141.211)" fill="#dfdff4"/>
          </g>
        </g>
        <g id="Group_23233" data-name="Group 23233" transform="translate(525.127 230.649)">
          <g id="Group_23231" data-name="Group 23231">
            <path id="Path_31448" data-name="Path 31448" d="M675.423,381.676a42.245,42.245,0,1,1,42.245-42.245A42.293,42.293,0,0,1,675.423,381.676Zm0-77.592a35.348,35.348,0,1,0,35.348,35.348A35.388,35.388,0,0,0,675.423,304.084Z" transform="translate(-633.177 -297.187)" fill="#dfdff4"/>
          </g>
          <g id="Group_23232" data-name="Group 23232" transform="translate(28.442 19.782)">
            <path id="Path_31449" data-name="Path 31449" d="M671.958,363.17,700.194,345.8a5.379,5.379,0,0,0,0-9.164l-28.236-17.37a5.379,5.379,0,0,0-8.2,4.582v34.742A5.379,5.379,0,0,0,671.958,363.17Z" transform="translate(-663.76 -318.458)" fill="#dfdff4"/>
          </g>
        </g>
        <g id="Group_23236" data-name="Group 23236" transform="translate(1.925 316.188)">
          <g id="Group_23234" data-name="Group 23234">
            <path id="Path_31450" data-name="Path 31450" d="M112.831,473.655a42.245,42.245,0,1,1,42.245-42.245A42.292,42.292,0,0,1,112.831,473.655Zm0-77.592a35.348,35.348,0,1,0,35.348,35.348A35.388,35.388,0,0,0,112.831,396.063Z" transform="translate(-70.586 -389.166)" fill="#dfdff4"/>
          </g>
          <g id="Group_23235" data-name="Group 23235" transform="translate(28.441 19.782)">
            <path id="Path_31451" data-name="Path 31451" d="M109.366,455.149l28.237-17.37a5.38,5.38,0,0,0,0-9.164l-28.237-17.371a5.38,5.38,0,0,0-8.2,4.582v34.742A5.379,5.379,0,0,0,109.366,455.149Z" transform="translate(-101.168 -410.438)" fill="#dfdff4"/>
          </g>
        </g>
        <g id="Group_23239" data-name="Group 23239" transform="translate(311.757 53.893)">
          <g id="Group_23237" data-name="Group 23237">
            <path id="Path_31452" data-name="Path 31452" d="M431.922,163.479A28.178,28.178,0,1,1,460.1,135.3,28.209,28.209,0,0,1,431.922,163.479Zm0-51.756A23.578,23.578,0,1,0,455.5,135.3,23.6,23.6,0,0,0,431.922,111.724Z" transform="translate(-403.744 -107.124)" fill="#dfdff4"/>
          </g>
          <g id="Group_23238" data-name="Group 23238" transform="translate(18.971 13.195)">
            <path id="Path_31453" data-name="Path 31453" d="M429.611,151.135l18.834-11.586a3.588,3.588,0,0,0,0-6.113L429.611,121.85a3.588,3.588,0,0,0-5.468,3.056v23.172A3.588,3.588,0,0,0,429.611,151.135Z" transform="translate(-424.143 -121.313)" fill="#dfdff4"/>
          </g>
        </g>
        <g id="Group_23242" data-name="Group 23242" transform="translate(187.895 0.693)">
          <g id="Group_23240" data-name="Group 23240">
            <path id="Path_31454" data-name="Path 31454" d="M311.572,131.949a41.015,41.015,0,1,1,41.015-41.015A41.062,41.062,0,0,1,311.572,131.949Zm0-75.334a34.319,34.319,0,1,0,34.319,34.318A34.357,34.357,0,0,0,311.572,56.616Z" transform="translate(-270.557 -49.919)" fill="#dfdff4"/>
          </g>
          <g id="Group_23241" data-name="Group 23241" transform="translate(27.613 19.207)">
            <path id="Path_31455" data-name="Path 31455" d="M308.209,113.982l27.415-16.865a5.223,5.223,0,0,0,0-8.9L308.209,71.354a5.224,5.224,0,0,0-7.96,4.449v33.73A5.223,5.223,0,0,0,308.209,113.982Z" transform="translate(-300.249 -70.572)" fill="#dfdff4"/>
          </g>
        </g>
        <g id="Group_23243" data-name="Group 23243" transform="translate(29.151)">
          <path id="Path_31456" data-name="Path 31456" d="M144.272,51.949H101.25a1.388,1.388,0,1,1,0-2.775h43.021a1.388,1.388,0,1,1,0,2.775Z" transform="translate(-99.862 -49.174)" fill="#dfdff4" opacity="0.67"/>
          <path id="Path_31457" data-name="Path 31457" d="M174.043,51.949H156.465a1.388,1.388,0,1,1,0-2.775h17.579a1.388,1.388,0,1,1,0,2.775Z" transform="translate(-103.728 -49.174)" fill="#dfdff4" opacity="0.67"/>
        </g>
        <g id="Group_23244" data-name="Group 23244" transform="translate(358.855 20.585)">
          <path id="Path_31458" data-name="Path 31458" d="M498.8,74.084H455.775a1.388,1.388,0,1,1,0-2.775H498.8a1.388,1.388,0,1,1,0,2.775Z" transform="translate(-454.387 -71.309)" fill="#dfdff4" opacity="0.67"/>
          <path id="Path_31459" data-name="Path 31459" d="M528.568,74.084H510.99a1.388,1.388,0,1,1,0-2.775h17.579a1.388,1.388,0,1,1,0,2.775Z" transform="translate(-458.253 -71.309)" fill="#dfdff4" opacity="0.67"/>
        </g>
        <g id="Group_23245" data-name="Group 23245" transform="translate(551.702 35.504)">
          <path id="Path_31460" data-name="Path 31460" d="M706.163,90.127H663.141a1.388,1.388,0,0,1,0-2.776h43.022a1.388,1.388,0,0,1,0,2.776Z" transform="translate(-661.753 -87.351)" fill="#dfdff4" opacity="0.67"/>
          <path id="Path_31461" data-name="Path 31461" d="M727.1,97.775H668.55a1.388,1.388,0,1,1,0-2.776H727.1a1.388,1.388,0,1,1,0,2.776Z" transform="translate(-662.132 -87.886)" fill="#dfdff4" opacity="0.67"/>
          <path id="Path_31462" data-name="Path 31462" d="M736.494,90.127h-17.58a1.388,1.388,0,0,1,0-2.776h17.58a1.388,1.388,0,0,1,0,2.776Z" transform="translate(-665.658 -87.351)" fill="#dfdff4" opacity="0.67"/>
        </g>
        <g id="Group_23246" data-name="Group 23246" transform="translate(189.537 105.245)">
          <path id="Path_31463" data-name="Path 31463" d="M316.732,165.118H273.71a1.388,1.388,0,0,1,0-2.776h43.022a1.388,1.388,0,0,1,0,2.776Z" transform="translate(-272.322 -162.342)" fill="#dfdff4" opacity="0.67"/>
          <path id="Path_31464" data-name="Path 31464" d="M337.667,172.766H279.119a1.388,1.388,0,1,1,0-2.776h58.547a1.388,1.388,0,1,1,0,2.776Z" transform="translate(-272.701 -162.877)" fill="#dfdff4" opacity="0.67"/>
          <path id="Path_31465" data-name="Path 31465" d="M347.062,165.118H329.484a1.388,1.388,0,0,1,0-2.776h17.579a1.388,1.388,0,1,1,0,2.776Z" transform="translate(-276.227 -162.342)" fill="#dfdff4" opacity="0.67"/>
        </g>
        <g id="Group_23247" data-name="Group 23247" transform="translate(548.008 357.293)">
          <path id="Path_31466" data-name="Path 31466" d="M702.191,436.141H659.169a1.388,1.388,0,0,1,0-2.775h43.022a1.388,1.388,0,1,1,0,2.775Z" transform="translate(-657.781 -433.366)" fill="#dfdff4" opacity="0.67"/>
          <path id="Path_31467" data-name="Path 31467" d="M723.127,443.789H664.578a1.388,1.388,0,1,1,0-2.776h58.548a1.388,1.388,0,0,1,0,2.776Z" transform="translate(-658.16 -433.901)" fill="#dfdff4" opacity="0.67"/>
        </g>
      </g>
      <rect id="Rectangle_17780" data-name="Rectangle 17780" width="534.989" height="171.936" transform="translate(208.993 378.714)" opacity="0.658" fill="url(#pattern)"/>
      <path id="Path_31468" data-name="Path 31468" d="M668.912,611.48V431.889c-1.264.118-2.521.274-3.764.482C641.491,436.312,621.8,451.632,604.1,467.2s-35.3,32.377-57.748,40.566c-35.731,13.037-75.792,1.614-111.083-12.484s-71.224-31.225-109.4-29.466c-43.248,1.993-82.092,28.081-125.271,31.168a119.956,119.956,0,0,1-64.516-13.625c-15.994-8.537-29.782-20.681-46.341-28.159a94.474,94.474,0,0,0-76.928.271A123.853,123.853,0,0,0-7.508,467.612s-169.105,107.9,0,143.868S668.912,611.48,668.912,611.48Z" transform="translate(75.081 -26.795)" fill="url(#linear-gradient)"/>
      <g id="Group_23261" data-name="Group 23261" transform="translate(121.881 188.548)">
        <g id="Group_23251" data-name="Group 23251">
          <g id="Group_23249" data-name="Group 23249" transform="translate(0.314 270.859)">
            <path id="Path_31469" data-name="Path 31469" d="M131.4,528.83a9.222,9.222,0,0,0,9.222,9.222H608.882a9.222,9.222,0,0,0,9.222-9.222V490.292H131.4Z" transform="translate(-131.395 -490.292)" fill="#fff"/>
          </g>
          <g id="Group_23250" data-name="Group 23250">
            <path id="Path_31470" data-name="Path 31470" d="M608.544,199.041H140.28a9.222,9.222,0,0,0-9.223,9.222V469.9H617.766V208.263A9.222,9.222,0,0,0,608.544,199.041Z" transform="translate(-131.057 -199.041)" fill="#5e5e92"/>
          </g>
        </g>
        <g id="Group_23252" data-name="Group 23252" transform="translate(166.742 293.772)">
          <path id="Path_31471" data-name="Path 31471" d="M568.342,514.93H310.417l-.065,6.093h257.99a3.085,3.085,0,0,0,0-6.093Z" transform="translate(-310.352 -514.93)" fill="#5e5e92"/>
        </g>
        <g id="Group_23253" data-name="Group 23253" transform="translate(51.199 293.772)">
          <path id="Path_31472" data-name="Path 31472" d="M275.021,514.93H189.158a3.047,3.047,0,0,0,0,6.093h86.408Z" transform="translate(-186.111 -514.93)" fill="#fc619d"/>
        </g>
        <g id="Group_23254" data-name="Group 23254" transform="translate(143.207 293.772)">
          <path id="Path_31473" data-name="Path 31473" d="M308.656,514.93h-23.61l.068,6.093H308.58Z" transform="translate(-285.046 -514.93)" fill="#5e5e92"/>
        </g>
        <g id="Group_23257" data-name="Group 23257" transform="translate(22.393 289.73)">
          <g id="Group_23255" data-name="Group 23255">
            <rect id="Rectangle_17781" data-name="Rectangle 17781" width="3.351" height="13.861" rx="0.309" fill="#5e5e92"/>
          </g>
          <g id="Group_23256" data-name="Group 23256" transform="translate(7.311)">
            <rect id="Rectangle_17782" data-name="Rectangle 17782" width="3.351" height="13.861" rx="0.309" fill="#5e5e92"/>
          </g>
        </g>
        <g id="Group_23259" data-name="Group 23259" transform="translate(439.979 285.159)">
          <g id="Group_23258" data-name="Group 23258">
            <path id="Path_31474" data-name="Path 31474" d="M627.641,525.317H610.153a6,6,0,0,1-5.993-5.993v-7.663a6,6,0,0,1,5.993-5.993h17.488a6,6,0,0,1,5.993,5.993v7.663A6,6,0,0,1,627.641,525.317Zm-17.488-17.291a3.638,3.638,0,0,0-3.634,3.635v7.663a3.638,3.638,0,0,0,3.634,3.635h17.488a3.639,3.639,0,0,0,3.635-3.635v-7.663a3.639,3.639,0,0,0-3.635-3.635Z" transform="translate(-604.16 -505.668)" fill="#5e5e92"/>
          </g>
        </g>
        <g id="Group_23260" data-name="Group 23260" transform="translate(129.472 285.123)">
          <circle id="Ellipse_4782" data-name="Ellipse 4782" cx="9.596" cy="9.596" r="9.596" transform="translate(0 18.679) rotate(-76.717)" fill="#5e5e92"/>
        </g>
      </g>
      <g id="Group_23262" data-name="Group 23262" transform="translate(498.516 84.111)">
        <path id="Path_31475" data-name="Path 31475" d="M571.178,160.65q.021-.8.033-1.6,1.078,1.564,2.23,3.124a3.1,3.1,0,0,0,5.358.026l14.464-24.482c3.049-5.161-2.463-11.45-7.807-8.735a6.8,6.8,0,0,0-3.4,4.244c-1.7,5.534-4.072,12.411-6.908,17.129-2.53-3.539-4.972-7.7-7.34-11.827-1.484-2.59-2.94-5.171-4.368-7.581a2.722,2.722,0,0,0,.756-2.9c-.512-1.992-2.475-4.23-3.986-5.883a5.953,5.953,0,0,0-3.04-.234c-.442.162-.982.377-.173-.04a6.243,6.243,0,0,1-.634.271l.1.1a2.174,2.174,0,0,0-1.44,1.192,3.14,3.14,0,0,0-.313,1.65c.119,1.415,3.49,11.873,10.4,24.14-3.077,12.029-10.326,24.012-16.339,31.508a61.523,61.523,0,0,1,9.93-.736A91.721,91.721,0,0,0,571.178,160.65Z" transform="translate(-536.938 -89.199)" fill="#ff969b"/>
        <path id="Path_31476" data-name="Path 31476" d="M567.612,286.941l-4.836,6.22c-1.694,2.179.513,3.734,2.963,2.088l9.324-6.27c.448-.3.613-.786.345-1.012l-1.39-1.178C572.113,289.324,569.191,289.773,567.612,286.941Z" transform="translate(-537.877 -100.748)" fill="#fff"/>
        <path id="Path_31477" data-name="Path 31477" d="M549.394,252.7l-3.539,5.957c-1.41,2.372.974,3.641,3.2,1.7l8.472-7.38c.406-.354.51-.856.216-1.048l-1.759-1.148C556.643,254,551.774,255.356,549.394,252.7Z" transform="translate(-536.705 -98.227)" fill="#fff"/>
        <path id="Path_31478" data-name="Path 31478" d="M612.971,130.373c-2.294-2.094-5.519-2.73-3.486-5.843,1.654-2.531,6.781-7.385,2.815-10.872-1.815-1.6-5.121-2.245-7.078-3.771-4.136-3.224-.272-8.043-1.04-12.186-1.049-5.652-10.9-9.743-19.173-10.706-10.755-1.253-6.606,2.395-12.238,5.411a15.035,15.035,0,0,0-4.33,2.785c-3.359,3.63-4.077,8.216-1.908,12.2,1.33,2.445,3.671,4.647,4.667,7.156,1.579,3.981-.412,8.153-.474,12.262a13.039,13.039,0,0,0,.593,4.027,66.078,66.078,0,0,1,5.428-8.963c.075-.083.148-.167.224-.251a13.749,13.749,0,0,1,3.449-1.938l-1.23-5.205c-2.664-.05-5.2-2.308-5.965-5.53-1.231-5.212-2.416-8.043-.381-11.18l10.275,3.3.393,1.663a2.146,2.146,0,0,1,.949,4.119c.033.2.058.4.076.6a1.423,1.423,0,0,1,.179.446l2.725,11.536a16.092,16.092,0,0,1,4.786,2.363,11.268,11.268,0,0,0,1.5,1.473c.693,1.216,2.246,3.068,2.74,4.376l.2.5a12.434,12.434,0,0,1,.721,2.729c.007.6.023,1.209.011,1.813-.1,4.447-1.675,8.549-2.6,12.775.219-.016.438-.029.657-.051a29.711,29.711,0,0,0,8.782-2.636c3.276-1.424,6.529-3.011,8.527-5.2S615.245,132.448,612.971,130.373Z" transform="translate(-538.095 -86.742)" fill="#482c5b"/>
        <path id="Path_31479" data-name="Path 31479" d="M599.628,186.431c-3.833,2.772-15.391,9.457-28.095,5.223-1.037-.344-1.244-1.089-1.582-2.063a17.144,17.144,0,0,1-.531-5c-3.96-.09-7.9-.223-11.617-.193a61.523,61.523,0,0,0-9.93.736c-6.732,1.182-11.4,4.1-11.77,10.939-.315,5.729.775,12.15,1.8,18.1.248,1.435.494,2.844.714,4.208,1.472,9.1,6.3,19.26,9.17,28a4.606,4.606,0,0,0,.946,1.665c2.38,2.653,7.249,1.3,6.59-1.918a3.5,3.5,0,0,0-.124-.454c-9.254-26.348-7.323-46.581-7.47-47.632,1.431-.023,18.02.262,29.083-.012-6.181,10.514-12.2,23.438-12.25,23.6a29.256,29.256,0,0,0-1.436,7.344c-.122,9.228,1.407,21.306,1.53,41.716.023,3.753-.106,5.315.459,7.4a7.4,7.4,0,0,0,.663,1.671c1.579,2.833,4.5,2.384,6.406-.153a9.472,9.472,0,0,0,1.721-4.446c5.989-44.8-9.488-35.894,22.429-75.926a18.534,18.534,0,0,0,3.975-10.045l.352-4.335A2.645,2.645,0,0,1,599.628,186.431Z" transform="translate(-536.047 -93.579)" fill="#00acdc"/>
        <path id="Path_31480" data-name="Path 31480" d="M605.589,184.168l.007-.095A.162.162,0,0,0,605.589,184.168Z" transform="translate(-540.916 -93.556)" fill="#7d509b"/>
        <path id="Path_31481" data-name="Path 31481" d="M597.667,133.329a12.434,12.434,0,0,0-.721-2.729l-.2-.5c-.494-1.308-2.047-3.159-2.74-4.376a11.268,11.268,0,0,1-1.5-1.473,16.092,16.092,0,0,0-4.786-2.363,1.164,1.164,0,0,1-.844,1.422c-4.177,1-5.511,1.654-5.852.207l-.324-1.371a13.749,13.749,0,0,0-3.449,1.938c-.076.084-.149.168-.224.251A66.078,66.078,0,0,0,571.6,133.3c-.83,1.632-1.643,3.4-2.358,5.24,2.369,4.131,4.811,8.288,7.34,11.827,2.836-4.719,5.211-11.6,6.908-17.129a6.8,6.8,0,0,1,3.4-4.244c5.345-2.715,10.857,3.574,7.807,8.735l-14.464,24.482a3.1,3.1,0,0,1-5.358-.026q-1.152-1.557-2.23-3.124-.011.8-.033,1.6c-.184,7.126-.889,14.522-.868,19.564a17.144,17.144,0,0,0,.531,5c.338.974.545,1.719,1.582,2.063,12.7,4.234,24.262-2.451,28.095-5.223a2.645,2.645,0,0,0,1.037-1.563,2.431,2.431,0,0,0,.055-.677c0-.03-.01-.06-.013-.089a2.354,2.354,0,0,0-.043-.285c-1.663-7.194-6.156-13.615-7.658-20.988-.167-.455-.324-.913-.459-1.378a18.04,18.04,0,0,1-.435-4.323,25.994,25.994,0,0,1,.647-4.833c.921-4.226,2.5-8.328,2.6-12.775C597.69,134.538,597.674,133.933,597.667,133.329Z" transform="translate(-538.371 -89.202)" fill="#ff4d57"/>
        <path id="Path_31482" data-name="Path 31482" d="M556.632,121.669l-.1-.1a6.243,6.243,0,0,0,.634-.271c-.809.417-.269.2.173.04a5.953,5.953,0,0,1,3.04.234c1.511,1.654,3.473,3.891,3.986,5.883l.758-.15a1.714,1.714,0,0,0,1.1-2.783l-5.605-9.384a3.942,3.942,0,0,0-3.836-1.8l-4.042.8a1.713,1.713,0,0,0-1.1,2.782l3.548,5.941A2.174,2.174,0,0,1,556.632,121.669Z" transform="translate(-537.115 -88.6)" fill="#482c5b"/>
        <path id="Path_31483" data-name="Path 31483" d="M587.083,121.678a1.157,1.157,0,0,0,.853-1.388L585.2,108.72a1.423,1.423,0,0,0-.179-.446c-.019-.2-.043-.4-.076-.6a2.146,2.146,0,0,0-.949-4.119l-.393-1.663L573.33,98.6c-2.035,3.137-.85,5.969.381,11.18.762,3.221,3.3,5.479,5.965,5.53l1.23,5.205.324,1.371C581.572,123.332,582.906,122.673,587.083,121.678Z" transform="translate(-538.581 -87.572)" fill="#ff969b"/>
      </g>
      <g id="Group_23270" data-name="Group 23270" transform="translate(130.098 78.391)">
        <g id="Group_23265" data-name="Group 23265" transform="translate(39.697 95.312)">
          <g id="Group_23263" data-name="Group 23263" transform="translate(35.967 73.271)">
            <path id="Path_31484" data-name="Path 31484" d="M237.992,270.739l-10.63-8.53c-.525-.42-1.335-.463-1.613-.086l-4.409,6.016c-.257.35.08.885.7,1.118l12.987,4.848C238.443,275.38,240.649,272.87,237.992,270.739Z" transform="translate(-221.254 -261.865)" fill="#fff"/>
          </g>
          <g id="Group_23264" data-name="Group 23264">
            <path id="Path_31485" data-name="Path 31485" d="M245.469,197.317c-.578-10.545-10.518-14.286-19.406-14.217-15.692.122-16.139-.191-29.4.122-10.564.249-20.007,15.334-9.527,16.162,11.211.886,41.8.34,43.978.377-.142,1.016,2.2,26.358-9.216,58.95-1.775,5.07,7.161,6.952,9.145.875,3.535-10.821,9.5-23.4,11.313-34.659C243.763,216.239,245.951,206.117,245.469,197.317Z" transform="translate(-182.579 -183.078)" fill="#2f1c3d"/>
          </g>
        </g>
        <g id="Group_23266" data-name="Group 23266" transform="translate(27.466 0)">
          <path id="Path_31486" data-name="Path 31486" d="M189.234,81.1a16.448,16.448,0,0,1-.066,4.371l-.692,4.6a16.05,16.05,0,0,1-2.1,5.859l.511-3.4a9.127,9.127,0,0,0-1.7-6.951l-12.277,5.084-.309,2.052a2.126,2.126,0,0,0-2.027,1.038,16,16,0,0,1-.333-6.409l.691-4.6C176.691,80.208,182.975,80.281,189.234,81.1Z" transform="translate(-169.471 -80.591)" fill="#482c5b"/>
          <path id="Path_31487" data-name="Path 31487" d="M172.558,93.087l.309-2.052,12.277-5.084a9.127,9.127,0,0,1,1.7,6.951l-.511,3.4-.5,3.342c-.6,4.014-3.489,7.03-6.754,7.366l-1.232,8.2a1.418,1.418,0,0,1-1.61,1.187l-5.6-.838a1.419,1.419,0,0,1-1.189-1.607l2.167-14.416a1.4,1.4,0,0,1,.18-.5c0-.26.031-.527.052-.792a2.4,2.4,0,0,1-1.82-2.9,2.935,2.935,0,0,1,.51-1.225A2.126,2.126,0,0,1,172.558,93.087Z" transform="translate(-169.426 -80.966)" fill="#ff969b"/>
        </g>
        <path id="Path_31488" data-name="Path 31488" d="M148.716,132.774c-.936-4.041-1.756-8.649.639-12.037,2.1-2.977,6.014-3.989,9.619-4.56,1.475-.233,3.248-.465,5.214-.67.974-.1,2.012-.189,3.078-.269,2.249-.171,4.664-.295,7.172-.335a94.062,94.062,0,0,1,9.794.323,7.383,7.383,0,0,1,4.085,1.321c9.788,8,7.835,27.094,6.686,29.515-4.279,9.012-1.061,19.073,4.2,27.326a25.654,25.654,0,0,0,9.071,12.29c-.076.644-.15,1.295-.23,1.933a5.476,5.476,0,0,1-1.385,3.589,5.569,5.569,0,0,1-3.744.911l-4.271,0c-2.708,0-5.479,0-8.26,0-5.47,0-10.978,0-16.2,0-2.717.029-5.436.031-8.153.033l-2.434,0Q155.619,162.6,148.716,132.774Z" transform="translate(-140.446 -82.992)" fill="#2a52c6"/>
        <g id="Group_23269" data-name="Group 23269" transform="translate(22.456 95.408)">
          <g id="Group_23267" data-name="Group 23267" transform="translate(36.008 73.314)">
            <path id="Path_31489" data-name="Path 31489" d="M218.534,273.336l-8.4-10.733c-.414-.529-1.194-.756-1.55-.451L202.917,267c-.329.283-.124.881.43,1.25l11.536,7.687C217.913,277.957,220.634,276.019,218.534,273.336Z" transform="translate(-202.759 -262.014)" fill="#fff"/>
          </g>
          <g id="Group_23268" data-name="Group 23268">
            <path id="Path_31490" data-name="Path 31490" d="M226.93,197.42c-.577-10.545-10.518-14.286-19.405-14.217-15.693.122-16.14-.191-29.4.122-10.563.249-20.006,15.334-9.527,16.162,11.211.886,41.8.34,43.978.377-.141,1.016,2.2,26.358-9.216,58.951-1.775,5.069,7.161,6.951,9.145.874,3.535-10.821,9.5-23.4,11.313-34.659C225.225,216.342,227.412,206.221,226.93,197.42Z" transform="translate(-164.04 -183.181)" fill="#482c5b"/>
          </g>
        </g>
        <path id="Path_31491" data-name="Path 31491" d="M170.455,122.167h8.468a3.882,3.882,0,1,0,0-7.764h-8.468a3.882,3.882,0,1,0,0,7.764Z" transform="translate(-141.761 -82.958)" fill="#ff969b"/>
        <path id="Path_31492" data-name="Path 31492" d="M182.739,173.016c-4.065-.828-7.245.248-7.1,2.4s3.556,4.571,7.622,5.4,7.246-.248,7.1-2.4S186.8,173.843,182.739,173.016Z" transform="translate(-142.395 -87.042)" fill="#ff969b"/>
        <path id="Path_31493" data-name="Path 31493" d="M159.938,126.722c1.1-4.323-1.894-8.6-6.032-8.6-4.018,0-7.982,3.488-8.808,7.751l-2.361,12.173,13.58,2.848Z" transform="translate(-140.092 -83.219)" fill="#2a52c6"/>
        <path id="Path_31494" data-name="Path 31494" d="M173.333,166.049c-5.093-2.956-13.722-7.226-20.442-11.028l3.226-12.626-13.58-2.848-2.465,12.71a9.46,9.46,0,0,0,3.661,9.509c8.731,6.173,24.821,12.078,29.548,13.374C183.189,177.857,182.422,171.324,173.333,166.049Z" transform="translate(-139.893 -84.718)" fill="#ff969b"/>
        <path id="Path_31495" data-name="Path 31495" d="M187.85,181.193h37.61a2.323,2.323,0,0,0,2.118-1.365l10.75-23.747a2.32,2.32,0,0,0-2.118-3.275H198.6a2.324,2.324,0,0,0-2.118,1.365l-10.75,23.746A2.321,2.321,0,0,0,187.85,181.193Z" transform="translate(-143.088 -85.647)" fill="#32b1dc"/>
      </g>
      <g id="Group_23273" data-name="Group 23273" transform="translate(293.902 271.233)">
        <g id="Group_23271" data-name="Group 23271">
          <path id="Path_31496" data-name="Path 31496" d="M381.132,418.156a65.1,65.1,0,1,1,65.1-65.1A65.176,65.176,0,0,1,381.132,418.156Zm0-119.576A54.473,54.473,0,1,0,435.6,353.054,54.536,54.536,0,0,0,381.132,298.58Z" transform="translate(-316.029 -287.951)" fill="#fff"/>
        </g>
        <g id="Group_23272" data-name="Group 23272" transform="translate(43.83 30.486)">
          <path id="Path_31497" data-name="Path 31497" d="M375.793,389.636l43.514-26.77a8.29,8.29,0,0,0,0-14.122l-43.514-26.77a8.29,8.29,0,0,0-12.634,7.061v53.538A8.291,8.291,0,0,0,375.793,389.636Z" transform="translate(-363.159 -320.732)" fill="#fff"/>
        </g>
      </g>
      <path id="Path_31498" data-name="Path 31498" d="M188.939,568.869H115.848a8.327,8.327,0,1,1,0-16.653h73.091a8.327,8.327,0,0,1,0,16.653Z" transform="translate(-7.528 -35.22)" fill="#215593" opacity="0.71"/>
      <path id="Path_31499" data-name="Path 31499" d="M499.513,574.838h-55.86a8.327,8.327,0,0,1,0-16.653h55.86a8.327,8.327,0,1,1,0,16.653Z" transform="translate(-30.479 -35.638)" fill="#215593" opacity="0.71"/>
      <path id="Path_31500" data-name="Path 31500" d="M692.019,573.1H588.281a8.327,8.327,0,1,1,0-16.653H692.019a8.327,8.327,0,1,1,0,16.653Z" transform="translate(-40.605 -35.516)" fill="#215593" opacity="0.71"/>
      <g id="Group_23274" data-name="Group 23274" transform="translate(100.702 299.121)">
        <path id="Path_31501" data-name="Path 31501" d="M120.9,386.1a14.4,14.4,0,0,1-.1-2.218c-.972-1.9-1.875-3.8-2.629-5.675A20.992,20.992,0,0,0,116,374.114c.061-.193.109-.392.158-.589a4.929,4.929,0,0,1-2.9-2.822l-1.953-5.478a3.311,3.311,0,0,0-1.167.823,6.511,6.511,0,0,0-1.38,3.313,11.665,11.665,0,0,0-.168,2.87,10.774,10.774,0,0,0-.109,4.8c.448,2.915,1.712,10.456,3.586,18.071,1.836,7.462,4.258,14.993,7.074,18.312a3.764,3.764,0,0,0,3.549,1.2c.082-.9.154-1.792.206-2.69C123.5,403.255,122.27,395.7,120.9,386.1Z" transform="translate(-108.283 -321.249)" fill="#ff969b"/>
        <path id="Path_31502" data-name="Path 31502" d="M193.8,388.2c-1.359-2.306-3-5.86-4.909-9.262.235,1.126.426,2.266.557,3.426a23.685,23.685,0,0,1-.7,8.693q-1.366,5.18-2.765,10.349a67.9,67.9,0,0,1-9.427-9.47l-1.463,3.536A75.72,75.72,0,0,0,185.014,405q-2.858,10.525-5.843,21.013c6.043-1.68,11.07-6.445,14.487-11.819,3.224-5.072,5.388-11.207,4.127-17.084A30.622,30.622,0,0,0,193.8,388.2Z" transform="translate(-112.961 -322.21)" fill="#ff4d57"/>
        <path id="Path_31503" data-name="Path 31503" d="M174.865,555.859l-6.043,1.982c-3.434,1.127-2.172,4.42,1.7,4.42h14.719c.706,0,1.24-.406,1.114-.846l-2.152-7.572a.664.664,0,0,0-.265-.342C183.279,558.551,178.7,561.076,174.865,555.859Z" transform="translate(-112.382 -334.431)" fill="#681968"/>
        <path id="Path_31504" data-name="Path 31504" d="M133.809,556.032l-5.1,1.673c-3.434,1.127-2.172,4.42,1.7,4.42h14.719c.706,0,1.24-.406,1.115-.846l-2.153-7.572a.558.558,0,0,0-.1-.188C142.72,560.252,136.416,559.78,133.809,556.032Z" transform="translate(-109.573 -334.432)" fill="#681968"/>
        <path id="Path_31505" data-name="Path 31505" d="M145.876,484.95c1.1,12.963,9.237,23.482,21.867,51.406,1.214,2.683,2.466,5.516,3.76,8.537a17,17,0,0,0,1.877,3.377c3.831,5.216,8.414,2.691,9.068-2.358a10.8,10.8,0,0,0-.333-4.244c-.892-3.253-1.906-6.443-3-9.6-3.451-9.909-7.751-19.43-11.849-29.246-9.577-22.938-8.272-23.926,3.914-57.242l-20.475-.477C147.083,458.072,144.761,471.792,145.876,484.95Z" transform="translate(-110.896 -326.842)" fill="#482c5b"/>
        <path id="Path_31506" data-name="Path 31506" d="M123.745,442.912c-1.06-.971-1.917-4.855-2.06-6.445a5.244,5.244,0,0,0-.034.531c.047,13.952,1.258,35.105,3.784,58.67,1.343,12.523,3.062,25.726,5.172,38.893q.866,5.4,1.814,10.786a6.282,6.282,0,0,0,1.034,2.49c2.607,3.748,8.911,4.22,10.174-2.513a19.661,19.661,0,0,0-.311-7.4c-.373-1.843-.714-3.775-1.034-5.768a281.853,281.853,0,0,1-2.988-36.486,384.269,384.269,0,0,1,2.061-51.344l-13.515-.315C126.4,443.976,124.812,443.889,123.745,442.912Z" transform="translate(-109.219 -326.237)" fill="#482c5b"/>
        <path id="Path_31507" data-name="Path 31507" d="M171.354,393.548l1.463-3.536a67.9,67.9,0,0,0,9.427,9.47q1.394-5.171,2.765-10.349a23.685,23.685,0,0,0,.7-8.693c-.131-1.16-.322-2.3-.557-3.426a40,40,0,0,0-2.79-8.442,44.259,44.259,0,0,0-2.254-4.8,22.094,22.094,0,0,0-2.674-3.644,22.537,22.537,0,0,0-7.99-5.666,1.68,1.68,0,0,1-.277.487,24.086,24.086,0,0,0-4.547,12.819,12.809,12.809,0,0,0-1.609,2.759l-1.457,3.414c-.063-.4-.121-.8-.168-1.2a27.875,27.875,0,0,1,4.762-19.416,47.359,47.359,0,0,0-10.307-1.917l.016,1.019a11.871,11.871,0,0,1,1.815,1.135,2.882,2.882,0,0,1,.46,4.19q-2.536,2.955-4.975,5.991a2.124,2.124,0,0,1-3.511-.283,71.029,71.029,0,0,1-3.684-6.905c-.663-1.37.086-2.549,1.314-3.421l-.02-1.358a37.32,37.32,0,0,0-16.59,7.127,17.3,17.3,0,0,0-3.683,3.04,13.472,13.472,0,0,0-2.778,4.7l.242.678a8.822,8.822,0,0,1,1.161.047c.071.016.15.033.276.058,2.015.623,3.526,3.194,4.318,4.625a14.192,14.192,0,0,1,.844,1.742,23.309,23.309,0,0,1,4.776,2.005c6.765,3.719,14.848,6.263,22.6,10.012a12.841,12.841,0,0,1,5.274,1.08,8.338,8.338,0,0,1,5.4,8.461c-.4,5-2.919,9.753-6.844,9.041-9.162-1.66-28.885-16.545-35.734-22.727a11.889,11.889,0,0,1-3.278-4.232c-.286-.3-.55-.607-.794-.916-.251,1.923-.477,3.862-.667,5.819-.017.171-.027.368-.033.577a14.4,14.4,0,0,0,.1,2.218c1.371,9.6,2.6,17.155,2.005,25.818-.051.9-.124,1.795-.206,2.69-.033.36-.063.72-.1,1.08-.425,4.516-1.232,11.237-1.852,15.757.146,1.624,1,5.507,2.063,6.478s2.65,1.064,4.1,1.1l13.515.315,7.668.179,20.475.477,1.607.037q2.2-7.479,4.323-14.979,2.984-10.489,5.843-21.013A75.72,75.72,0,0,1,171.354,393.548Z" transform="translate(-109.222 -320.282)" fill="#fff"/>
        <path id="Path_31508" data-name="Path 31508" d="M147.357,354.593a71.029,71.029,0,0,0,3.684,6.905,2.124,2.124,0,0,0,3.511.283q2.438-3.037,4.975-5.991a2.882,2.882,0,0,0-.46-4.19,11.871,11.871,0,0,0-1.815-1.135l-.016-1.019-.176-11.627a1.419,1.419,0,0,0-.077-.419,10.053,10.053,0,0,0-.006-1.578,2.453,2.453,0,0,0,1.8-2.952,3.05,3.05,0,0,0-.478-1.242,2.169,2.169,0,0,0-2.094-1.043l-.317-2.079-12.433-5.121a9.263,9.263,0,0,0-1.7,7.047l.543,3.559.5,3.276a8.707,8.707,0,0,0,5.766,7.234l.081,5.313.02,1.358C147.443,352.044,146.694,353.224,147.357,354.593Z" transform="translate(-110.619 -318.32)" fill="#ff969b"/>
        <path id="Path_31509" data-name="Path 31509" d="M143.277,323l12.433,5.121.317,2.079a2.169,2.169,0,0,1,2.094,1.043,16.378,16.378,0,0,0,.281-6.493l-.711-4.663c-.006-.035-.014-.068-.02-.1-5.811-2.445-12.169-2.355-18.5-1.512a16.708,16.708,0,0,0,.078,4.43l.711,4.663a16.408,16.408,0,0,0,2.16,6.041l-.543-3.559A9.263,9.263,0,0,1,143.277,323Z" transform="translate(-110.438 -317.939)" fill="#482c5b"/>
        <path id="Path_31510" data-name="Path 31510" d="M116.188,372.768a3.706,3.706,0,0,0,1.243.23h2.153c-.756-2.921.484-5.366,3.948-5.464l-.242-.678-3.35-9.4a4.781,4.781,0,0,0-4.138-3.051h-5c-1.685,0-2.564,1.366-1.963,3.051l2.5,7.011,1.953,5.478A4.929,4.929,0,0,0,116.188,372.768Z" transform="translate(-108.309 -320.492)" fill="#482c5b"/>
        <path id="Path_31511" data-name="Path 31511" d="M164.356,372.8c.047.4.105.8.168,1.2l1.457-3.414a12.809,12.809,0,0,1,1.609-2.759,24.086,24.086,0,0,1,4.547-12.819,1.693,1.693,0,0,0-2.6-2.173c-.037.045-.192.233-.422.548A27.875,27.875,0,0,0,164.356,372.8Z" transform="translate(-112.195 -320.34)" fill="#ff4d57"/>
        <path id="Path_31512" data-name="Path 31512" d="M120.391,373.985a10.3,10.3,0,0,0,1.94,3.732c.245.309.509.616.794.916a11.889,11.889,0,0,0,3.278,4.232c6.848,6.182,26.572,21.067,35.734,22.727,3.925.711,6.442-4.037,6.844-9.041a8.338,8.338,0,0,0-5.4-8.461,12.841,12.841,0,0,0-5.274-1.08c-7.748-3.749-15.831-6.293-22.6-10.012a23.309,23.309,0,0,0-4.776-2.005,14.192,14.192,0,0,0-.844-1.742c-.792-1.43-2.3-4-4.318-4.625-.126-.025-.206-.042-.276-.058a8.822,8.822,0,0,0-1.161-.047C120.875,368.619,119.635,371.064,120.391,373.985Z" transform="translate(-109.116 -321.48)" fill="#ff969b"/>
      </g>
      <g id="Group_23276" data-name="Group 23276" transform="translate(422.27 304.734)">
        <path id="Path_31513" data-name="Path 31513" d="M502.643,343.311c.191-1.2,2.366-2.421,1.564-3.348-.494-.572-1.891-.47-2.107-1.16-.171-.546.562-1.1.807-1.673.983-2.3-4.46-2.267-4.4-4.4.016-.577.464-1.145.569-1.725.267-1.478-1.719-2.374-3.575-2.457a5.268,5.268,0,0,1-2.6-.436c-.825-.565-.663-1.642-1.042-2.467-.565-1.236-2.57-1.818-4.273-1.242-.169.057-.331.127-.494.2a4.781,4.781,0,0,0-2.583-.618A9.036,9.036,0,0,0,481,325.56a3.878,3.878,0,0,0-1.1.264,3.383,3.383,0,0,0-.793.486c-.873.161-1.763.078-2.643.221-1.916.313-3.532,1.884-3.447,3.348.058.978.757,1.924.257,2.88a5.693,5.693,0,0,1-2.257,1.733c-1.728,1.018-3.167,2.879-2.164,4.152.394.5,1.109.815,1.415,1.357,1.135,2-4.074,4.723-1.972,6.422.526.425,1.5.579,1.617,1.187.143.767-1.241,1.377-1.422,2.172-.294,1.29,2.4,1.35,3.187,2.4.428.567.219,1.346.463,1.989.445,1.174,2.3,1.6,3.947,1.411a41.693,41.693,0,0,0,4.841-1.236c1.622-.392,3.5-.482,4.629.33.736.528,1.1,1.4,2.065,1.658a3.825,3.825,0,0,0,3.234-1.12,5.347,5.347,0,0,0,1.867-4.344,6.51,6.51,0,0,1,3.3-1.771,38.648,38.648,0,0,0,4.5-1.092c1.433-.558,2.762-1.715,2.616-2.869C503.048,344.507,502.539,343.961,502.643,343.311Z" transform="translate(-455.022 -323.974)" fill="#482c5b"/>
        <g id="Group_23275" data-name="Group 23275" transform="translate(0 15.946)">
          <path id="Path_31514" data-name="Path 31514" d="M471.058,564.935l-6.89-2.26c-3.006,3.685-6.72,2.3-8.091-1.308l-2,7.031c-.121.427.4.819,1.08.819h14.258C473.161,569.217,474.385,566.027,471.058,564.935Z" transform="translate(-454.061 -356.54)" fill="#fff"/>
          <path id="Path_31515" data-name="Path 31515" d="M464.279,561.86a14.2,14.2,0,0,0,2.245-4.213c.942-2.634,1.863-5.125,2.761-7.5a18.316,18.316,0,0,1-12.131-.431c-.466,1.849-.9,3.711-1.286,5.592a9.448,9.448,0,0,0,.32,5.24C457.559,564.161,461.273,565.545,464.279,561.86Z" transform="translate(-454.172 -355.725)" fill="#00acdc"/>
          <path id="Path_31516" data-name="Path 31516" d="M481.292,561.857l-2,7.032c-.122.427.4.819,1.08.819H494.63c3.746,0,4.97-3.191,1.642-4.282l-6.889-2.261C486.376,566.851,482.662,565.466,481.292,561.857Z" transform="translate(-455.826 -356.575)" fill="#fff"/>
          <path id="Path_31517" data-name="Path 31517" d="M486.756,551.806c-.247-.056-.493-.121-.738-.193a11.646,11.646,0,0,1-2.871-1.3c-.232-.146-.463-.3-.692-.466-.5,1.96-.963,3.934-1.372,5.93a9.428,9.428,0,0,0,.32,5.24c1.37,3.609,5.084,4.994,8.091,1.308a14.166,14.166,0,0,0,2.244-4.213c.851-2.378,1.684-4.639,2.5-6.8a17.139,17.139,0,0,1-2.229.562A13.171,13.171,0,0,1,486.756,551.806Z" transform="translate(-455.937 -355.734)" fill="#00acdc"/>
          <path id="Path_31518" data-name="Path 31518" d="M468.246,458.985q-.812-.37-1.565-.762a32.263,32.263,0,0,1-7.887-5.735c-.1-.1-.193-.2-.282-.286l.059.188c4.26,13.58,16.2,36.969,11.107,52.718q-.191.591-.4,1.206c-.443,1.338-.925,2.756-1.455,4.282-3.758,10.828-7.793,21.318-10.558,32.3a18.316,18.316,0,0,0,12.131.431c6.222-16.43,11.335-26.878,14.537-35.233.392-1.021.759-2.016,1.091-2.981a40.513,40.513,0,0,0,2.547-12.945c.132-10.067-1.932-20.325-5.056-30.209A33.479,33.479,0,0,1,468.246,458.985Z" transform="translate(-454.286 -348.897)" fill="#00acdc"/>
          <path id="Path_31519" data-name="Path 31519" d="M504.735,455.662l-.119,1.172A48.867,48.867,0,0,1,486.991,462c5.083,13.472,12,31.075,7.908,43.735-.177.546-.364,1.111-.554,1.685-.4,1.2-.83,2.457-1.3,3.8-3.72,10.716-7.71,21.1-10.473,31.958.229.166.459.32.692.466a11.647,11.647,0,0,0,2.871,1.3c.246.072.491.137.738.193a13.172,13.172,0,0,0,5.252.065,17.14,17.14,0,0,0,2.229-.562c6.467-17.168,11.758-27.875,14.99-36.431.319-.843.624-1.672.9-2.477a40.531,40.531,0,0,0,2.547-12.944c.167-12.784-3.2-25.874-7.8-38.114-.023.314-.052.629-.074.943Z" transform="translate(-456.057 -349.071)" fill="#00acdc"/>
          <path id="Path_31520" data-name="Path 31520" d="M515.41,380.615a5.342,5.342,0,0,0,.69-1.676,3.218,3.218,0,0,0-1.321-3.473c-3.6-1.932-5.912-.034-7.276,1.46-.391.429-.7.824-.948,1.086a8.847,8.847,0,0,0-2.1,3.155,3.6,3.6,0,0,0,.538,3.409c-.491.64-.987,1.295-1.484,1.955-4.818,6.4-9.916,13.617-15.045,19.231a66.712,66.712,0,0,1-3.52-10.776c-3.435,2.864-7.233,5.061-11.131,4.454L478,408.983l.494,1.125,3.988,9.078a3.679,3.679,0,0,0,6.31.728,150.381,150.381,0,0,0,12.849-15.6c2.4-3.353,4.472-6.532,6.238-9.437-1.707,5.05-3.494,10.1-5.5,14.537-.168-.185-.337-.381-.506-.575a32.6,32.6,0,0,0,1.159,5.594c.069.546.141,1.091.221,1.635.074.91.165,1.82.276,2.721.049.4.092.8.136,1.205,4.669-7.375,5.567-18.385,6.3-27.4.041-.5.081-1,.122-1.482.245-.432.484-.858.712-1.272-.08.91-.156,1.845-.234,2.8-.762,9.367-1.7,20.854-6.793,28.339.142,1.407.258,2.817.361,4.229a3.644,3.644,0,0,0,2.956-2.449,143.973,143.973,0,0,0,13.077-45.528,5.412,5.412,0,0,0,.154-1.9,3.776,3.776,0,0,0-.745-1.852l-1.6,4.484A4.8,4.8,0,0,1,515.41,380.615Z" transform="translate(-455.444 -343.385)" fill="#ff969b"/>
          <path id="Path_31521" data-name="Path 31521" d="M488.532,430.544c7.564,0,12.365-3.305,15.484-8.232-.044-.4-.086-.8-.136-1.205-.112-.9-.2-1.811-.276-2.721-.08-.544-.153-1.089-.221-1.635a32.6,32.6,0,0,1-1.159-5.594,36.634,36.634,0,0,1-.235-4.524,150.381,150.381,0,0,1-12.849,15.6,3.679,3.679,0,0,1-6.31-.728l-3.988-9.078c-.06.734-.092,1.436-.092,2.1C478.75,422.27,481.319,430.544,488.532,430.544Z" transform="translate(-455.79 -345.707)" fill="#f5bfcb"/>
          <path id="Path_31522" data-name="Path 31522" d="M487.046,428.481c-7.656,0-10.384-8.585-10.384-16.619a29.3,29.3,0,0,1,.2-3.222l-4.191-9.542c3.9.607,7.7-1.589,11.131-4.454a66.712,66.712,0,0,0,3.52,10.776c5.13-5.614,10.227-12.835,15.045-19.231-.03-.511-.078-1.018-.157-1.522-.034-.212-.075-.422-.121-.63-.006-.022-.011-.044-.016-.065q-.067-.294-.149-.583a29.162,29.162,0,0,0-3.4-6.782,31.189,31.189,0,0,0-3.7-3.666,9.2,9.2,0,0,1,2.132,3.843,4.949,4.949,0,0,1,.087,2.4,4.335,4.335,0,0,1-2.748,2.885,7.123,7.123,0,0,1-4.085.121,16.41,16.41,0,0,1-5.783-2.919c-.651,2.77-1.394,5.624-2.153,8.473q-.135-.685-.263-1.355c.671-2.532,1.318-5.056,1.89-7.511a11.518,11.518,0,0,1-3.906-4.515c-.715-1.722-.719-4.558.967-5.786a20.854,20.854,0,0,0-7.773,2.946c-14.157,2.6-7.159,20.51-7.159,20.51,1.165,5.666,3.326,11.071,3.488,16.886a23.225,23.225,0,0,1-.561,5.58,25.006,25.006,0,0,1-.962,2.733c-2.663,6.255-7.716,11.388-9.647,17.906a20.283,20.283,0,0,0-.79,6.741,35.914,35.914,0,0,0,.975,4.473c.088.091.182.187.282.286a32.263,32.263,0,0,0,7.887,5.735q.753.391,1.565.762a33.479,33.479,0,0,0,14.272,2.969c.878-.007,1.78-.051,2.7-.126a48.867,48.867,0,0,0,17.625-5.168l.119-1.172.191-.04c.022-.314.051-.629.074-.943.181-2.382.4-4.762.59-7.147.055-.471.081-.945.115-1.417.015-.208.036-.416.05-.625.027-.487.068-.953.092-1.421-.131-1.109-.252-2.169-.353-3.23-.021-.14-.053-.278-.071-.419a.338.338,0,0,1-.019-.122c0-.1.008-.192.009-.288-.269-3.032-.44-6.078-.662-9.118-.1-1.412-.219-2.822-.361-4.229C499.426,425.353,494.563,428.481,487.046,428.481Z" transform="translate(-454.304 -343.042)" fill="#f5bfcb"/>
          <path id="Path_31523" data-name="Path 31523" d="M490.436,367.17l.276-6.835c3-.439,5.429-3.461,5.581-7.2l.244-6.048a8.1,8.1,0,0,0-2.16-5.966l-10.318,5.662-.074,1.84a2.149,2.149,0,0,0-2.016,2.238,2.224,2.224,0,0,0,1.521,2.343c-.007.047-.017.092-.019.139l-.53,13.108a2.293,2.293,0,0,0-.305.183c-1.706,1.244-1.7,4.08-.988,5.8a11.518,11.518,0,0,0,3.906,4.515,64.8,64.8,0,0,0,2.051-13.807c0-4.607-1.306-8.226-3.99-11.063-.383-.008-.692-.453-.692-1s.314-1,.7-1,.7.449.7,1a1.263,1.263,0,0,1-.19.684c2.736,2.94,4.07,6.664,4.07,11.382a66.193,66.193,0,0,1-2.126,14.2,16.41,16.41,0,0,0,5.783,2.919,7.123,7.123,0,0,0,4.085-.121,4.335,4.335,0,0,0,2.748-2.885,4.949,4.949,0,0,0-.087-2.4,9.2,9.2,0,0,0-2.131-3.843,11.362,11.362,0,0,0-1.446-1.352,15.006,15.006,0,0,0-3.693-2.06q-.453-.18-.915-.337A.883.883,0,0,0,490.436,367.17Z" transform="translate(-455.961 -341.12)" fill="#ff969b"/>
          <path id="Path_31524" data-name="Path 31524" d="M522.951,361.969h-4.884a4.672,4.672,0,0,0-4.044,2.982l-3.982,11.17c1.364-1.494,3.675-3.392,7.276-1.46a3.218,3.218,0,0,1,1.321,3.473,5.343,5.343,0,0,1-.69,1.676,4.8,4.8,0,0,0,2.571-2.653l1.6-4.484,2.753-7.721C525.456,363.3,524.6,361.969,522.951,361.969Z" transform="translate(-457.98 -342.58)" fill="#482c5b"/>
          <path id="Path_31525" data-name="Path 31525" d="M488.486,430.056c7.517,0,12.38-3.128,15.591-7.846,5.094-7.485,6.031-18.972,6.793-28.339.078-.958.154-1.893.234-2.8-.229.414-.468.84-.712,1.272-.041.486-.081.979-.122,1.482-.733,9.014-1.63,20.024-6.3,27.4-3.119,4.927-7.921,8.232-15.484,8.232-7.213,0-9.782-8.274-9.782-16.017,0-.661.033-1.363.092-2.1l-.494-1.125a29.3,29.3,0,0,0-.2,3.222C478.1,421.471,480.831,430.056,488.486,430.056Z" transform="translate(-455.744 -344.617)" fill="#fff"/>
          <path id="Path_31526" data-name="Path 31526" d="M488.389,363.944c0-4.718-1.334-8.442-4.07-11.382a.629.629,0,0,1-.512.321c2.674,2.836,3.979,6.454,3.979,11.061a64.8,64.8,0,0,1-2.051,13.807c-.572,2.454-1.219,4.978-1.89,7.511q.128.671.263,1.355c.759-2.849,1.5-5.7,2.153-8.473A66.194,66.194,0,0,0,488.389,363.944Z" transform="translate(-456.144 -341.921)" fill="#fff"/>
          <path id="Path_31527" data-name="Path 31527" d="M484.267,352.435a1.263,1.263,0,0,0,.19-.684c0-.555-.313-1-.7-1s-.7.449-.7,1,.309,1,.692,1A.625.625,0,0,0,484.267,352.435Z" transform="translate(-456.091 -341.794)" fill="#fff"/>
        </g>
      </g>
      <g id="Group_23277" data-name="Group 23277" transform="translate(501.976 417.472)">
        <path id="Path_31528" data-name="Path 31528" d="M623.56,484.912c-.163,2.942-1.435,5.588-3.153,8.371,2.049.014,4.007.139,5.828.322-2.83,1.809-5.872,3.784-8.638,5.466-.083-.031-.163-.066-.246-.091a5.791,5.791,0,0,0-2.086-.211l-3.864,8.553a7.774,7.774,0,0,0,2.488-.047,10.764,10.764,0,0,0,2.767-.8,6.969,6.969,0,0,0,1.494-.9c1.733-.651,3.957-1.542,6.47-2.565,4.307-1.752,9.442-3.884,14.365-5.84a6.676,6.676,0,0,0,2.258-2.357,5.935,5.935,0,0,0,.389-5.766,3.219,3.219,0,0,0-1.939-1.592c-4.713-2.6-10.474-3.532-16.279-4.721,0,.024,0,.048.008.073l.083.017A11.449,11.449,0,0,1,623.56,484.912Z" transform="translate(-544.783 -447.828)" fill="#ff969b"/>
        <path id="Path_31529" data-name="Path 31529" d="M700.563,562.655l-7.613-1.375c-.492,3.01-4.046,3.939-7.373,2.221l-.65,4.729c-.059.424.485.729,1.133.637l13.516-1.908C703.127,566.457,703.862,563.251,700.563,562.655Z" transform="translate(-549.93 -453.326)" fill="#ff4d57"/>
        <path id="Path_31530" data-name="Path 31530" d="M556.966,506.606c.511.033,1.023.06,1.535.077.035-.044.072-.092.107-.136.67-.854,1.3-1.654,1.925-2.436.97,1.588,2.019,3.121,3.092,4.637,4.375.655,8.575,1.252,11.459,1.632.723.095,1.377.213,2,.341a10.791,10.791,0,0,1,2.059-1.1c.338-.142.679-.278,1.02-.407l5.87-12.993a1.4,1.4,0,0,1,1.271-.821h21.41c-.217-.589-.44-1.176-.677-1.753a50.408,50.408,0,0,1,7.695-.528l.054-.087c1.718-2.783,2.99-5.428,3.153-8.371a11.449,11.449,0,0,0-.055-2.081l-.083-.017a201.773,201.773,0,0,0-24.756-3.291,44.48,44.48,0,0,0-5.827.021,2.388,2.388,0,0,1,.911,3.008,68.2,68.2,0,0,1-3.527,6.61,2.034,2.034,0,0,1-3.361.271q-2.334-2.907-4.763-5.736a2.754,2.754,0,0,1-.1-3.467,91.268,91.268,0,0,0-11.682,1.542,22.817,22.817,0,0,0-3.844,1.348,5.839,5.839,0,0,0-1.417.724,9.265,9.265,0,0,0-3.675,3.562,7.729,7.729,0,0,0-.575,1.4c-1.8,2.335-3.633,4.65-5.471,6.957q-.6.749-1.193,1.5c-.356.451-.712.9-1.071,1.353-1.155,1.445-2.146,2.745-3.008,3.929a12.459,12.459,0,0,0,3.456,2.446c.179.087.358.17.54.25A22.169,22.169,0,0,0,556.966,506.606Z" transform="translate(-540.165 -447.579)" fill="#38a2ff"/>
        <path id="Path_31531" data-name="Path 31531" d="M595.068,555.334c6.684-11.482,14.589-28.029,21.231-40.268-.886-2.225-1.673-4.479-2.371-6.7a10.726,10.726,0,0,1-2.767.8,7.611,7.611,0,0,1-2.61.028l-2.042,4.522a1.4,1.4,0,0,1-1.272.821H589.2a4.043,4.043,0,0,1-.711,2.36,6.667,6.667,0,0,1-3.015,2.179c-2.3.971-5.046,1.374-7.082-.114-1.253.183-3.373.468-5.991.749q-.612.066-1.26.131c1.708,3.169,3.477,6.741,4.942,9.432,5.852,10.746,4.619,6.967,10.066,17.666,1.825,3.585,5.6,12.873,9.178,14.981C593.836,560.327,593.463,558.092,595.068,555.334Z" transform="translate(-541.964 -449.621)" fill="#38a2ff"/>
        <path id="Path_31532" data-name="Path 31532" d="M626.989,563.429a3.074,3.074,0,0,1-.275-.933l-1.256,4.694c-.107.4.378.76,1.013.751l13.24-.183c3.479-.048,4.575-3.045,1.471-4.022l-5.022-1.58a5.76,5.76,0,0,1-1.056,1.626C632.655,566.434,628.193,565.933,626.989,563.429Z" transform="translate(-545.766 -453.388)" fill="#ff4d57"/>
        <path id="Path_31533" data-name="Path 31533" d="M690.17,557.853c.25-1.527-.285-3.587-2.042-6.111-11.783-16.919-16.093-28.806-21.317-36.557a2.382,2.382,0,0,0-.664-.644,10.5,10.5,0,0,0-6.951-2.207,35.574,35.574,0,0,0-9.782,2.437c-.153.063-.3.137-.453.2-.338,2.8-.734,5.054-.874,6.247a84.306,84.306,0,0,1-2.862,13.248c5.659-3.714,10.7-6.739,12.606-7.249.262.34.524.683.791,1.059,7.032,9.89,13.31,20.979,21.624,29.852a9.414,9.414,0,0,0,2.551,1.945C686.124,561.792,689.678,560.864,690.17,557.853Z" transform="translate(-547.151 -449.899)" fill="#513066"/>
        <path id="Path_31534" data-name="Path 31534" d="M634.282,521.214c-.34.713-.7,1.5-1.066,2.343-3.108,7.087-7.12,18.252-10.38,26.518,1.349-1.2,3.95-3.2,7.144-5.524,1.669-7.819,3.21-16.316,4.03-21.547C634.112,522.356,634.2,521.753,634.282,521.214Z" transform="translate(-545.583 -450.521)" fill="#513066"/>
        <path id="Path_31535" data-name="Path 31535" d="M645.5,513.818a71.369,71.369,0,0,0,.527-7.219,14.968,14.968,0,0,0-4.51-9.69c-.406-.379-.836-.739-1.277-1.085a6.688,6.688,0,0,1-2.258,2.357c-4.923,1.957-10.059,4.088-14.366,5.84-1.825,3.22-3.3,6.022-4.177,7.587-.464.833-.937,1.7-1.416,2.579-6.642,12.239-14.547,28.786-21.231,40.267-1.605,2.758-1.232,4.993.263,6.579,2.762,2.926,9.362,3.629,14.485,1.271a11.553,11.553,0,0,0,5.266-4.626,83.2,83.2,0,0,0,4.136-9.384c3.26-8.266,7.272-19.431,10.38-26.518.368-.84.725-1.629,1.066-2.343-.078.539-.17,1.142-.272,1.789-.819,5.231-2.36,13.727-4.03,21.547-.555,2.6-1.124,5.127-1.687,7.433-.55,2.26-1.093,4.311-1.608,6.01a3.864,3.864,0,0,0-.155,1.637,3.074,3.074,0,0,0,.275.933c1.2,2.5,5.666,3,8.114.352a5.76,5.76,0,0,0,1.056-1.626,6.008,6.008,0,0,0,.287-.8c2.025-7.226,5.024-15.226,7.313-23.118.027-.095.053-.19.08-.285a84.306,84.306,0,0,0,2.862-13.248C644.764,518.873,645.16,516.621,645.5,513.818Z" transform="translate(-543.687 -448.744)" fill="#683e7f"/>
        <path id="Path_31536" data-name="Path 31536" d="M579.843,481.434q2.429,2.829,4.763,5.736a2.034,2.034,0,0,0,3.361-.271,68.2,68.2,0,0,0,3.527-6.61,2.388,2.388,0,0,0-.911-3.008c-.11-.092-.226-.182-.347-.268l.1-6.386a8.337,8.337,0,0,0,5.52-6.926l.479-3.136.519-3.407a8.86,8.86,0,0,0-1.625-6.745l-11.9,4.9-.3,1.99a2.077,2.077,0,0,0-2.005,1,2.935,2.935,0,0,0-.458,1.189,2.35,2.35,0,0,0,1.7,2.823,14.856,14.856,0,0,0,.023,1.513,1.337,1.337,0,0,0-.074.4l-.183,12.106a11.432,11.432,0,0,0-1.738,1.086,2.833,2.833,0,0,0-.543.543A2.754,2.754,0,0,0,579.843,481.434Z" transform="translate(-542.527 -445.564)" fill="#ff969b"/>
        <path id="Path_31537" data-name="Path 31537" d="M583.125,456.94l.3-1.99,11.9-4.9a8.86,8.86,0,0,1,1.625,6.745l-.519,3.407a15.73,15.73,0,0,0,2.067-5.784l.681-4.463a16,16,0,0,0,.075-4.241c-6.059-.807-12.146-.893-17.708,1.448-.006.033-.014.065-.02.1l-.681,4.464a15.672,15.672,0,0,0,.269,6.215A2.077,2.077,0,0,1,583.125,456.94Z" transform="translate(-542.631 -445.199)" fill="#482c5b"/>
        <path id="Path_31538" data-name="Path 31538" d="M613.78,498.595a1.4,1.4,0,0,0-1.272-1.971H589.921a1.4,1.4,0,0,0-1.271.821l-5.87,12.993c1.055-.4,2.128-.738,3.208-1.044a.369.369,0,0,0,.078.035,4.628,4.628,0,0,1,3.548,2.843,2.839,2.839,0,0,1,.4,1.435h16.034a1.4,1.4,0,0,0,1.272-.821l2.042-4.522.032-.071,3.864-8.553Z" transform="translate(-542.779 -448.8)" fill="#482c5b"/>
        <path id="Path_31539" data-name="Path 31539" d="M576.163,518.658c2.072,1.481,4.818,1.079,7.118.108a6.667,6.667,0,0,0,3.015-2.179,4.043,4.043,0,0,0,.711-2.36,2.839,2.839,0,0,0-.4-1.435,4.628,4.628,0,0,0-3.548-2.843.369.369,0,0,1-.078-.035c-1.08.306-2.152.646-3.208,1.044-.341.129-.683.265-1.02.407a10.789,10.789,0,0,0-2.059,1.1c-.624-.128-1.279-.246-2-.341-2.884-.38-7.085-.977-11.459-1.632-2.007-.3-4.046-.612-6.018-.921.3-.386.6-.773.894-1.145-.512-.017-1.025-.045-1.535-.077a22.169,22.169,0,0,1-7.528-1.61c-.182-.08-.362-.163-.54-.25a12.478,12.478,0,0,1-3.457-2.446c-6.942,9.53-5.067,11.05-4.987,11.94,1.936,5.35,18.517,4.591,28.892,3.551q.647-.066,1.26-.131C572.826,519.119,574.947,518.834,576.163,518.658Z" transform="translate(-539.768 -449.319)" fill="#ff969b"/>
      </g>
    </g>
    <g id="Component_12_15" data-name="Component 12 – 15" transform="translate(895 2721)">
      <path id="Polygon_6" data-name="Polygon 6" d="M7.083,0l7.083,13.212H0Z" transform="translate(14.027 15.055) rotate(-172)" fill="#2a52c6"/>
      <circle id="Ellipse_2" data-name="Ellipse 2" cx="9" cy="9" r="9" transform="translate(252.028 157.77)" fill="#38a2ff"/>
      <rect id="Rectangle_2783" data-name="Rectangle 2783" width="9" height="9" transform="translate(84.028 26.77)" fill="#f8ced7"/>
      <path id="Polygon_7" data-name="Polygon 7" d="M7.51,0l7.51,12.437H0Z" transform="translate(295.6 230.886) rotate(45)" fill="#f8ced7"/>
    </g>
    <g id="Dots_Pattern_2" data-name="Dots Pattern 2" transform="translate(998.555 2874.865) rotate(135)">
      <g id="Group_13444" data-name="Group 13444" transform="translate(760.729 -1064) rotate(90)">
        <rect id="Rectangle_2784" data-name="Rectangle 2784" width="3.515" height="3.515" transform="translate(1064 667)" fill="#38a2ff"/>
        <rect id="Rectangle_2785" data-name="Rectangle 2785" width="3.515" height="3.515" transform="translate(1079.231 667)" fill="#38a2ff"/>
        <rect id="Rectangle_2786" data-name="Rectangle 2786" width="3.515" height="3.515" transform="translate(1094.462 667)" fill="#38a2ff"/>
        <rect id="Rectangle_2787" data-name="Rectangle 2787" width="3.515" height="3.515" transform="translate(1109.693 667)" fill="#38a2ff"/>
        <rect id="Rectangle_2788" data-name="Rectangle 2788" width="3.515" height="3.515" transform="translate(1124.924 667)" fill="#38a2ff"/>
        <rect id="Rectangle_2789" data-name="Rectangle 2789" width="3.515" height="3.515" transform="translate(1140.155 667)" fill="#38a2ff"/>
        <rect id="Rectangle_2790" data-name="Rectangle 2790" width="3.515" height="3.515" transform="translate(1155.386 667)" fill="#38a2ff"/>
        <rect id="Rectangle_2791" data-name="Rectangle 2791" width="3.515" height="3.515" transform="translate(1064 682.231)" fill="#38a2ff"/>
        <rect id="Rectangle_2792" data-name="Rectangle 2792" width="3.515" height="3.515" transform="translate(1079.231 682.231)" fill="#38a2ff"/>
        <rect id="Rectangle_2793" data-name="Rectangle 2793" width="3.515" height="3.515" transform="translate(1094.462 682.231)" fill="#38a2ff"/>
        <rect id="Rectangle_2794" data-name="Rectangle 2794" width="3.515" height="3.515" transform="translate(1109.693 682.231)" fill="#38a2ff"/>
        <rect id="Rectangle_2795" data-name="Rectangle 2795" width="3.515" height="3.515" transform="translate(1124.924 682.231)" fill="#38a2ff"/>
        <rect id="Rectangle_2796" data-name="Rectangle 2796" width="3.515" height="3.515" transform="translate(1140.155 682.231)" fill="#38a2ff"/>
        <rect id="Rectangle_2797" data-name="Rectangle 2797" width="3.515" height="3.515" transform="translate(1155.386 682.231)" fill="#38a2ff"/>
        <rect id="Rectangle_2798" data-name="Rectangle 2798" width="3.515" height="3.515" transform="translate(1064 697.462)" fill="#38a2ff"/>
        <rect id="Rectangle_2799" data-name="Rectangle 2799" width="3.515" height="3.515" transform="translate(1079.231 697.462)" fill="#38a2ff"/>
        <rect id="Rectangle_2800" data-name="Rectangle 2800" width="3.515" height="3.515" transform="translate(1094.462 697.462)" fill="#38a2ff"/>
        <rect id="Rectangle_2801" data-name="Rectangle 2801" width="3.515" height="3.515" transform="translate(1109.693 697.462)" fill="#38a2ff"/>
        <rect id="Rectangle_2802" data-name="Rectangle 2802" width="3.515" height="3.515" transform="translate(1124.924 697.462)" fill="#38a2ff"/>
        <rect id="Rectangle_2803" data-name="Rectangle 2803" width="3.515" height="3.515" transform="translate(1140.155 697.462)" fill="#38a2ff"/>
        <rect id="Rectangle_2804" data-name="Rectangle 2804" width="3.515" height="3.515" transform="translate(1155.386 697.462)" fill="#38a2ff"/>
        <rect id="Rectangle_2805" data-name="Rectangle 2805" width="3.515" height="3.515" transform="translate(1064 712.693)" fill="#38a2ff"/>
        <rect id="Rectangle_2806" data-name="Rectangle 2806" width="3.515" height="3.515" transform="translate(1079.231 712.693)" fill="#38a2ff"/>
        <rect id="Rectangle_2807" data-name="Rectangle 2807" width="3.515" height="3.515" transform="translate(1094.462 712.693)" fill="#38a2ff"/>
        <rect id="Rectangle_2808" data-name="Rectangle 2808" width="3.515" height="3.515" transform="translate(1109.693 712.693)" fill="#38a2ff"/>
        <rect id="Rectangle_2809" data-name="Rectangle 2809" width="3.515" height="3.515" transform="translate(1124.924 712.693)" fill="#38a2ff"/>
        <rect id="Rectangle_2810" data-name="Rectangle 2810" width="3.515" height="3.515" transform="translate(1140.155 712.693)" fill="#38a2ff"/>
        <rect id="Rectangle_2811" data-name="Rectangle 2811" width="3.515" height="3.515" transform="translate(1155.386 712.693)" fill="#38a2ff"/>
        <rect id="Rectangle_2812" data-name="Rectangle 2812" width="3.515" height="3.515" transform="translate(1064 727.924)" fill="#38a2ff"/>
        <rect id="Rectangle_2813" data-name="Rectangle 2813" width="3.515" height="3.515" transform="translate(1079.231 727.924)" fill="#38a2ff"/>
        <rect id="Rectangle_2814" data-name="Rectangle 2814" width="3.515" height="3.515" transform="translate(1094.462 727.924)" fill="#38a2ff"/>
        <rect id="Rectangle_2815" data-name="Rectangle 2815" width="3.515" height="3.515" transform="translate(1109.693 727.924)" fill="#38a2ff"/>
        <rect id="Rectangle_2816" data-name="Rectangle 2816" width="3.515" height="3.515" transform="translate(1124.924 727.924)" fill="#38a2ff"/>
        <rect id="Rectangle_2817" data-name="Rectangle 2817" width="3.515" height="3.515" transform="translate(1140.155 727.924)" fill="#38a2ff"/>
        <rect id="Rectangle_2818" data-name="Rectangle 2818" width="3.515" height="3.515" transform="translate(1155.386 727.924)" fill="#38a2ff"/>
        <rect id="Rectangle_2819" data-name="Rectangle 2819" width="3.515" height="3.515" transform="translate(1064 741.983)" fill="#38a2ff"/>
        <rect id="Rectangle_2820" data-name="Rectangle 2820" width="3.515" height="3.515" transform="translate(1079.231 741.983)" fill="#38a2ff"/>
        <rect id="Rectangle_2821" data-name="Rectangle 2821" width="3.515" height="3.515" transform="translate(1094.462 741.983)" fill="#38a2ff"/>
        <rect id="Rectangle_2822" data-name="Rectangle 2822" width="3.515" height="3.515" transform="translate(1109.693 741.983)" fill="#38a2ff"/>
        <rect id="Rectangle_2823" data-name="Rectangle 2823" width="3.515" height="3.515" transform="translate(1124.924 741.983)" fill="#38a2ff"/>
        <rect id="Rectangle_2824" data-name="Rectangle 2824" width="3.515" height="3.515" transform="translate(1140.155 741.983)" fill="#38a2ff"/>
        <rect id="Rectangle_2825" data-name="Rectangle 2825" width="3.515" height="3.515" transform="translate(1155.386 741.983)" fill="#38a2ff"/>
        <rect id="Rectangle_2826" data-name="Rectangle 2826" width="3.515" height="3.515" transform="translate(1064 757.214)" fill="#38a2ff"/>
        <rect id="Rectangle_2827" data-name="Rectangle 2827" width="3.515" height="3.515" transform="translate(1079.231 757.214)" fill="#38a2ff"/>
        <rect id="Rectangle_2828" data-name="Rectangle 2828" width="3.515" height="3.515" transform="translate(1094.462 757.214)" fill="#38a2ff"/>
        <rect id="Rectangle_2829" data-name="Rectangle 2829" width="3.515" height="3.515" transform="translate(1109.693 757.214)" fill="#38a2ff"/>
        <rect id="Rectangle_2830" data-name="Rectangle 2830" width="3.515" height="3.515" transform="translate(1124.924 757.214)" fill="#38a2ff"/>
        <rect id="Rectangle_2831" data-name="Rectangle 2831" width="3.515" height="3.515" transform="translate(1140.155 757.214)" fill="#38a2ff"/>
        <rect id="Rectangle_2832" data-name="Rectangle 2832" width="3.515" height="3.515" transform="translate(1155.386 757.214)" fill="#38a2ff"/>
      </g>
    </g>
    <g id="Group_23279" data-name="Group 23279" transform="translate(-604 -17)">
      <path id="Path_31540" data-name="Path 31540" d="M887.731,755.135c4.4,16.743,19.8,27.206,19.8,27.206s8.278-16.683,3.881-33.426-19.8-27.206-19.8-27.206S883.335,738.392,887.731,755.135Z" transform="translate(409.18 2205.582)" fill="#3f3d56"/>
      <path id="Path_31541" data-name="Path 31541" d="M924.671,761.343c12.314,12.166,13.692,30.739,13.692,30.739s-18.588-1.153-30.9-13.319-13.692-30.739-13.692-30.739S912.357,749.177,924.671,761.343Z" transform="translate(378.909 2195.833)" fill="#38a2ff"/>
      <rect id="Rectangle_17783" data-name="Rectangle 17783" width="92.112" height="0.651" transform="translate(1254.642 2987.538)" fill="#3f3d56"/>
    </g>
  </g>
</svg>
