<svg xmlns="http://www.w3.org/2000/svg" width="1668.158" height="2238.873" viewBox="0 0 1668.158 2238.873">
  <g id="Group_24471" data-name="Group 24471" transform="translate(150.587 -11227.444)">
    <path id="_7787" data-name="7787" d="M-.127,117.978s1023.642-457.951,1364.856,0,0,1831.8,0,1831.8-1023.642,457.951-1364.856,0S-.127,117.978-.127,117.978Z" transform="translate(1.191 11313)" fill="#2a52c6" opacity="0.05"/>
    <g id="Component_12_6" data-name="Component 12 – 6" transform="translate(910 11312)">
      <path id="Polygon_6" data-name="Polygon 6" d="M7.083,0l7.083,13.212H0Z" transform="translate(14.027 15.055) rotate(-172)" fill="#2a52c6"/>
      <circle id="Ellipse_2" data-name="Ellipse 2" cx="9" cy="9" r="9" transform="translate(252.028 157.77)" fill="#38a2ff"/>
      <rect id="Rectangle_2783" data-name="Rectangle 2783" width="9" height="9" transform="translate(84.028 26.77)" fill="#f8ced7"/>
      <path id="Polygon_7" data-name="Polygon 7" d="M7.51,0l7.51,12.437H0Z" transform="translate(295.6 230.886) rotate(45)" fill="#f8ced7"/>
    </g>
    <g id="Dots_Pattern_1" data-name="Dots Pattern 1" transform="translate(-57 11675)">
      <g id="Group_41" data-name="Group 41" transform="translate(-224.153 -1224.002) rotate(45)">
        <rect id="Rectangle_2784" data-name="Rectangle 2784" width="3" height="3" transform="translate(1064 667)" fill="#f5bfcb"/>
        <rect id="Rectangle_2785" data-name="Rectangle 2785" width="3" height="3" transform="translate(1077 667)" fill="#f5bfcb"/>
        <rect id="Rectangle_2786" data-name="Rectangle 2786" width="3" height="3" transform="translate(1090 667)" fill="#f5bfcb"/>
        <rect id="Rectangle_2787" data-name="Rectangle 2787" width="3" height="3" transform="translate(1103 667)" fill="#f5bfcb"/>
        <rect id="Rectangle_2788" data-name="Rectangle 2788" width="3" height="3" transform="translate(1116 667)" fill="#f5bfcb"/>
        <rect id="Rectangle_2789" data-name="Rectangle 2789" width="3" height="3" transform="translate(1129 667)" fill="#f5bfcb"/>
        <rect id="Rectangle_2790" data-name="Rectangle 2790" width="3" height="3" transform="translate(1142 667)" fill="#f5bfcb"/>
        <rect id="Rectangle_2791" data-name="Rectangle 2791" width="3" height="3" transform="translate(1064 680)" fill="#f5bfcb"/>
        <rect id="Rectangle_2792" data-name="Rectangle 2792" width="3" height="3" transform="translate(1077 680)" fill="#f5bfcb"/>
        <rect id="Rectangle_2793" data-name="Rectangle 2793" width="3" height="3" transform="translate(1090 680)" fill="#f5bfcb"/>
        <rect id="Rectangle_2794" data-name="Rectangle 2794" width="3" height="3" transform="translate(1103 680)" fill="#f5bfcb"/>
        <rect id="Rectangle_2795" data-name="Rectangle 2795" width="3" height="3" transform="translate(1116 680)" fill="#f5bfcb"/>
        <rect id="Rectangle_2796" data-name="Rectangle 2796" width="3" height="3" transform="translate(1129 680)" fill="#f5bfcb"/>
        <rect id="Rectangle_2797" data-name="Rectangle 2797" width="3" height="3" transform="translate(1142 680)" fill="#f5bfcb"/>
        <rect id="Rectangle_2798" data-name="Rectangle 2798" width="3" height="3" transform="translate(1064 693)" fill="#f5bfcb"/>
        <rect id="Rectangle_2799" data-name="Rectangle 2799" width="3" height="3" transform="translate(1077 693)" fill="#f5bfcb"/>
        <rect id="Rectangle_2800" data-name="Rectangle 2800" width="3" height="3" transform="translate(1090 693)" fill="#f5bfcb"/>
        <rect id="Rectangle_2801" data-name="Rectangle 2801" width="3" height="3" transform="translate(1103 693)" fill="#f5bfcb"/>
        <rect id="Rectangle_2802" data-name="Rectangle 2802" width="3" height="3" transform="translate(1116 693)" fill="#f5bfcb"/>
        <rect id="Rectangle_2803" data-name="Rectangle 2803" width="3" height="3" transform="translate(1129 693)" fill="#f5bfcb"/>
        <rect id="Rectangle_2804" data-name="Rectangle 2804" width="3" height="3" transform="translate(1142 693)" fill="#f5bfcb"/>
        <rect id="Rectangle_2805" data-name="Rectangle 2805" width="3" height="3" transform="translate(1064 706)" fill="#f5bfcb"/>
        <rect id="Rectangle_2806" data-name="Rectangle 2806" width="3" height="3" transform="translate(1077 706)" fill="#f5bfcb"/>
        <rect id="Rectangle_2807" data-name="Rectangle 2807" width="3" height="3" transform="translate(1090 706)" fill="#f5bfcb"/>
        <rect id="Rectangle_2808" data-name="Rectangle 2808" width="3" height="3" transform="translate(1103 706)" fill="#f5bfcb"/>
        <rect id="Rectangle_2809" data-name="Rectangle 2809" width="3" height="3" transform="translate(1116 706)" fill="#f5bfcb"/>
        <rect id="Rectangle_2810" data-name="Rectangle 2810" width="3" height="3" transform="translate(1129 706)" fill="#f5bfcb"/>
        <rect id="Rectangle_2811" data-name="Rectangle 2811" width="3" height="3" transform="translate(1142 706)" fill="#f5bfcb"/>
        <rect id="Rectangle_2812" data-name="Rectangle 2812" width="3" height="3" transform="translate(1064 719)" fill="#f5bfcb"/>
        <rect id="Rectangle_2813" data-name="Rectangle 2813" width="3" height="3" transform="translate(1077 719)" fill="#f5bfcb"/>
        <rect id="Rectangle_2814" data-name="Rectangle 2814" width="3" height="3" transform="translate(1090 719)" fill="#f5bfcb"/>
        <rect id="Rectangle_2815" data-name="Rectangle 2815" width="3" height="3" transform="translate(1103 719)" fill="#f5bfcb"/>
        <rect id="Rectangle_2816" data-name="Rectangle 2816" width="3" height="3" transform="translate(1116 719)" fill="#f5bfcb"/>
        <rect id="Rectangle_2817" data-name="Rectangle 2817" width="3" height="3" transform="translate(1129 719)" fill="#f5bfcb"/>
        <rect id="Rectangle_2818" data-name="Rectangle 2818" width="3" height="3" transform="translate(1142 719)" fill="#f5bfcb"/>
        <rect id="Rectangle_2819" data-name="Rectangle 2819" width="3" height="3" transform="translate(1064 731)" fill="#f5bfcb"/>
        <rect id="Rectangle_2820" data-name="Rectangle 2820" width="3" height="3" transform="translate(1077 731)" fill="#f5bfcb"/>
        <rect id="Rectangle_2821" data-name="Rectangle 2821" width="3" height="3" transform="translate(1090 731)" fill="#f5bfcb"/>
        <rect id="Rectangle_2822" data-name="Rectangle 2822" width="3" height="3" transform="translate(1103 731)" fill="#f5bfcb"/>
        <rect id="Rectangle_2823" data-name="Rectangle 2823" width="3" height="3" transform="translate(1116 731)" fill="#f5bfcb"/>
        <rect id="Rectangle_2824" data-name="Rectangle 2824" width="3" height="3" transform="translate(1129 731)" fill="#f5bfcb"/>
        <rect id="Rectangle_2825" data-name="Rectangle 2825" width="3" height="3" transform="translate(1142 731)" fill="#f5bfcb"/>
        <rect id="Rectangle_2826" data-name="Rectangle 2826" width="3" height="3" transform="translate(1064 744)" fill="#f5bfcb"/>
        <rect id="Rectangle_2827" data-name="Rectangle 2827" width="3" height="3" transform="translate(1077 744)" fill="#f5bfcb"/>
        <rect id="Rectangle_2828" data-name="Rectangle 2828" width="3" height="3" transform="translate(1090 744)" fill="#f5bfcb"/>
        <rect id="Rectangle_2829" data-name="Rectangle 2829" width="3" height="3" transform="translate(1103 744)" fill="#f5bfcb"/>
        <rect id="Rectangle_2830" data-name="Rectangle 2830" width="3" height="3" transform="translate(1116 744)" fill="#f5bfcb"/>
        <rect id="Rectangle_2831" data-name="Rectangle 2831" width="3" height="3" transform="translate(1129 744)" fill="#f5bfcb"/>
        <rect id="Rectangle_2832" data-name="Rectangle 2832" width="3" height="3" transform="translate(1142 744)" fill="#f5bfcb"/>
      </g>
    </g>
    <g id="Dots_Pattern_2" data-name="Dots Pattern 2" transform="translate(162 13061)">
      <g id="Group_13444" data-name="Group 13444" transform="translate(760.729 -1064) rotate(90)">
        <rect id="Rectangle_2784-2" data-name="Rectangle 2784" width="3.515" height="3.515" transform="translate(1064 667)" fill="#38a2ff"/>
        <rect id="Rectangle_2785-2" data-name="Rectangle 2785" width="3.515" height="3.515" transform="translate(1079.231 667)" fill="#38a2ff"/>
        <rect id="Rectangle_2786-2" data-name="Rectangle 2786" width="3.515" height="3.515" transform="translate(1094.462 667)" fill="#38a2ff"/>
        <rect id="Rectangle_2787-2" data-name="Rectangle 2787" width="3.515" height="3.515" transform="translate(1109.693 667)" fill="#38a2ff"/>
        <rect id="Rectangle_2788-2" data-name="Rectangle 2788" width="3.515" height="3.515" transform="translate(1124.924 667)" fill="#38a2ff"/>
        <rect id="Rectangle_2789-2" data-name="Rectangle 2789" width="3.515" height="3.515" transform="translate(1140.155 667)" fill="#38a2ff"/>
        <rect id="Rectangle_2790-2" data-name="Rectangle 2790" width="3.515" height="3.515" transform="translate(1155.386 667)" fill="#38a2ff"/>
        <rect id="Rectangle_2791-2" data-name="Rectangle 2791" width="3.515" height="3.515" transform="translate(1064 682.231)" fill="#38a2ff"/>
        <rect id="Rectangle_2792-2" data-name="Rectangle 2792" width="3.515" height="3.515" transform="translate(1079.231 682.231)" fill="#38a2ff"/>
        <rect id="Rectangle_2793-2" data-name="Rectangle 2793" width="3.515" height="3.515" transform="translate(1094.462 682.231)" fill="#38a2ff"/>
        <rect id="Rectangle_2794-2" data-name="Rectangle 2794" width="3.515" height="3.515" transform="translate(1109.693 682.231)" fill="#38a2ff"/>
        <rect id="Rectangle_2795-2" data-name="Rectangle 2795" width="3.515" height="3.515" transform="translate(1124.924 682.231)" fill="#38a2ff"/>
        <rect id="Rectangle_2796-2" data-name="Rectangle 2796" width="3.515" height="3.515" transform="translate(1140.155 682.231)" fill="#38a2ff"/>
        <rect id="Rectangle_2797-2" data-name="Rectangle 2797" width="3.515" height="3.515" transform="translate(1155.386 682.231)" fill="#38a2ff"/>
        <rect id="Rectangle_2798-2" data-name="Rectangle 2798" width="3.515" height="3.515" transform="translate(1064 697.462)" fill="#38a2ff"/>
        <rect id="Rectangle_2799-2" data-name="Rectangle 2799" width="3.515" height="3.515" transform="translate(1079.231 697.462)" fill="#38a2ff"/>
        <rect id="Rectangle_2800-2" data-name="Rectangle 2800" width="3.515" height="3.515" transform="translate(1094.462 697.462)" fill="#38a2ff"/>
        <rect id="Rectangle_2801-2" data-name="Rectangle 2801" width="3.515" height="3.515" transform="translate(1109.693 697.462)" fill="#38a2ff"/>
        <rect id="Rectangle_2802-2" data-name="Rectangle 2802" width="3.515" height="3.515" transform="translate(1124.924 697.462)" fill="#38a2ff"/>
        <rect id="Rectangle_2803-2" data-name="Rectangle 2803" width="3.515" height="3.515" transform="translate(1140.155 697.462)" fill="#38a2ff"/>
        <rect id="Rectangle_2804-2" data-name="Rectangle 2804" width="3.515" height="3.515" transform="translate(1155.386 697.462)" fill="#38a2ff"/>
        <rect id="Rectangle_2805-2" data-name="Rectangle 2805" width="3.515" height="3.515" transform="translate(1064 712.693)" fill="#38a2ff"/>
        <rect id="Rectangle_2806-2" data-name="Rectangle 2806" width="3.515" height="3.515" transform="translate(1079.231 712.693)" fill="#38a2ff"/>
        <rect id="Rectangle_2807-2" data-name="Rectangle 2807" width="3.515" height="3.515" transform="translate(1094.462 712.693)" fill="#38a2ff"/>
        <rect id="Rectangle_2808-2" data-name="Rectangle 2808" width="3.515" height="3.515" transform="translate(1109.693 712.693)" fill="#38a2ff"/>
        <rect id="Rectangle_2809-2" data-name="Rectangle 2809" width="3.515" height="3.515" transform="translate(1124.924 712.693)" fill="#38a2ff"/>
        <rect id="Rectangle_2810-2" data-name="Rectangle 2810" width="3.515" height="3.515" transform="translate(1140.155 712.693)" fill="#38a2ff"/>
        <rect id="Rectangle_2811-2" data-name="Rectangle 2811" width="3.515" height="3.515" transform="translate(1155.386 712.693)" fill="#38a2ff"/>
        <rect id="Rectangle_2812-2" data-name="Rectangle 2812" width="3.515" height="3.515" transform="translate(1064 727.924)" fill="#38a2ff"/>
        <rect id="Rectangle_2813-2" data-name="Rectangle 2813" width="3.515" height="3.515" transform="translate(1079.231 727.924)" fill="#38a2ff"/>
        <rect id="Rectangle_2814-2" data-name="Rectangle 2814" width="3.515" height="3.515" transform="translate(1094.462 727.924)" fill="#38a2ff"/>
        <rect id="Rectangle_2815-2" data-name="Rectangle 2815" width="3.515" height="3.515" transform="translate(1109.693 727.924)" fill="#38a2ff"/>
        <rect id="Rectangle_2816-2" data-name="Rectangle 2816" width="3.515" height="3.515" transform="translate(1124.924 727.924)" fill="#38a2ff"/>
        <rect id="Rectangle_2817-2" data-name="Rectangle 2817" width="3.515" height="3.515" transform="translate(1140.155 727.924)" fill="#38a2ff"/>
        <rect id="Rectangle_2818-2" data-name="Rectangle 2818" width="3.515" height="3.515" transform="translate(1155.386 727.924)" fill="#38a2ff"/>
        <rect id="Rectangle_2819-2" data-name="Rectangle 2819" width="3.515" height="3.515" transform="translate(1064 741.983)" fill="#38a2ff"/>
        <rect id="Rectangle_2820-2" data-name="Rectangle 2820" width="3.515" height="3.515" transform="translate(1079.231 741.983)" fill="#38a2ff"/>
        <rect id="Rectangle_2821-2" data-name="Rectangle 2821" width="3.515" height="3.515" transform="translate(1094.462 741.983)" fill="#38a2ff"/>
        <rect id="Rectangle_2822-2" data-name="Rectangle 2822" width="3.515" height="3.515" transform="translate(1109.693 741.983)" fill="#38a2ff"/>
        <rect id="Rectangle_2823-2" data-name="Rectangle 2823" width="3.515" height="3.515" transform="translate(1124.924 741.983)" fill="#38a2ff"/>
        <rect id="Rectangle_2824-2" data-name="Rectangle 2824" width="3.515" height="3.515" transform="translate(1140.155 741.983)" fill="#38a2ff"/>
        <rect id="Rectangle_2825-2" data-name="Rectangle 2825" width="3.515" height="3.515" transform="translate(1155.386 741.983)" fill="#38a2ff"/>
        <rect id="Rectangle_2826-2" data-name="Rectangle 2826" width="3.515" height="3.515" transform="translate(1064 757.214)" fill="#38a2ff"/>
        <rect id="Rectangle_2827-2" data-name="Rectangle 2827" width="3.515" height="3.515" transform="translate(1079.231 757.214)" fill="#38a2ff"/>
        <rect id="Rectangle_2828-2" data-name="Rectangle 2828" width="3.515" height="3.515" transform="translate(1094.462 757.214)" fill="#38a2ff"/>
        <rect id="Rectangle_2829-2" data-name="Rectangle 2829" width="3.515" height="3.515" transform="translate(1109.693 757.214)" fill="#38a2ff"/>
        <rect id="Rectangle_2830-2" data-name="Rectangle 2830" width="3.515" height="3.515" transform="translate(1124.924 757.214)" fill="#38a2ff"/>
        <rect id="Rectangle_2831-2" data-name="Rectangle 2831" width="3.515" height="3.515" transform="translate(1140.155 757.214)" fill="#38a2ff"/>
        <rect id="Rectangle_2832-2" data-name="Rectangle 2832" width="3.515" height="3.515" transform="translate(1155.386 757.214)" fill="#38a2ff"/>
      </g>
    </g>
    <g id="small_particles" data-name="small particles" transform="translate(278 13286)">
      <path id="Polygon_8" data-name="Polygon 8" d="M9.177,0l9.177,15.566H0Z" transform="matrix(0.891, 0.454, -0.454, 0.891, 159.205, 1.395)" fill="#2a52c6"/>
      <circle id="Ellipse_9" data-name="Ellipse 9" cx="4.194" cy="4.194" r="4.194" transform="matrix(0.951, -0.309, 0.309, 0.951, 0, 35.739)" fill="#38a2ff"/>
      <rect id="Rectangle_2846" data-name="Rectangle 2846" width="10.067" height="10.067" transform="matrix(0.951, -0.309, 0.309, 0.951, 35.266, 3.111)" fill="#f8ced7"/>
    </g>
  </g>
</svg>
