<svg xmlns="http://www.w3.org/2000/svg" width="1403.422" height="954.053" viewBox="0 0 1403.422 954.053">
  <g id="Group_24471" data-name="Group 24471" transform="translate(39 -16343.422)">
    <g id="Group_18251" data-name="Group 18251" transform="translate(-2 15118)">
      <g id="Dots_Pattern_1" data-name="Dots Pattern 1" transform="translate(1285.922 1225.422) rotate(45)">
        <g id="Group_41" data-name="Group 41" transform="translate(-224.153 -1224.002) rotate(45)">
          <rect id="Rectangle_2784" data-name="Rectangle 2784" width="3" height="3" transform="translate(1064 667)" fill="#38a2ff"/>
          <rect id="Rectangle_2785" data-name="Rectangle 2785" width="3" height="3" transform="translate(1077 667)" fill="#38a2ff"/>
          <rect id="Rectangle_2786" data-name="Rectangle 2786" width="3" height="3" transform="translate(1090 667)" fill="#38a2ff"/>
          <rect id="Rectangle_2787" data-name="Rectangle 2787" width="3" height="3" transform="translate(1103 667)" fill="#38a2ff"/>
          <rect id="Rectangle_2788" data-name="Rectangle 2788" width="3" height="3" transform="translate(1116 667)" fill="#38a2ff"/>
          <rect id="Rectangle_2789" data-name="Rectangle 2789" width="3" height="3" transform="translate(1129 667)" fill="#38a2ff"/>
          <rect id="Rectangle_2790" data-name="Rectangle 2790" width="3" height="3" transform="translate(1142 667)" fill="#38a2ff"/>
          <rect id="Rectangle_2791" data-name="Rectangle 2791" width="3" height="3" transform="translate(1064 680)" fill="#38a2ff"/>
          <rect id="Rectangle_2792" data-name="Rectangle 2792" width="3" height="3" transform="translate(1077 680)" fill="#38a2ff"/>
          <rect id="Rectangle_2793" data-name="Rectangle 2793" width="3" height="3" transform="translate(1090 680)" fill="#38a2ff"/>
          <rect id="Rectangle_2794" data-name="Rectangle 2794" width="3" height="3" transform="translate(1103 680)" fill="#38a2ff"/>
          <rect id="Rectangle_2795" data-name="Rectangle 2795" width="3" height="3" transform="translate(1116 680)" fill="#38a2ff"/>
          <rect id="Rectangle_2796" data-name="Rectangle 2796" width="3" height="3" transform="translate(1129 680)" fill="#38a2ff"/>
          <rect id="Rectangle_2797" data-name="Rectangle 2797" width="3" height="3" transform="translate(1142 680)" fill="#38a2ff"/>
          <rect id="Rectangle_2798" data-name="Rectangle 2798" width="3" height="3" transform="translate(1064 693)" fill="#38a2ff"/>
          <rect id="Rectangle_2799" data-name="Rectangle 2799" width="3" height="3" transform="translate(1077 693)" fill="#38a2ff"/>
          <rect id="Rectangle_2800" data-name="Rectangle 2800" width="3" height="3" transform="translate(1090 693)" fill="#38a2ff"/>
          <rect id="Rectangle_2801" data-name="Rectangle 2801" width="3" height="3" transform="translate(1103 693)" fill="#38a2ff"/>
          <rect id="Rectangle_2802" data-name="Rectangle 2802" width="3" height="3" transform="translate(1116 693)" fill="#38a2ff"/>
          <rect id="Rectangle_2803" data-name="Rectangle 2803" width="3" height="3" transform="translate(1129 693)" fill="#38a2ff"/>
          <rect id="Rectangle_2804" data-name="Rectangle 2804" width="3" height="3" transform="translate(1142 693)" fill="#38a2ff"/>
          <rect id="Rectangle_2805" data-name="Rectangle 2805" width="3" height="3" transform="translate(1064 706)" fill="#38a2ff"/>
          <rect id="Rectangle_2806" data-name="Rectangle 2806" width="3" height="3" transform="translate(1077 706)" fill="#38a2ff"/>
          <rect id="Rectangle_2807" data-name="Rectangle 2807" width="3" height="3" transform="translate(1090 706)" fill="#38a2ff"/>
          <rect id="Rectangle_2808" data-name="Rectangle 2808" width="3" height="3" transform="translate(1103 706)" fill="#38a2ff"/>
          <rect id="Rectangle_2809" data-name="Rectangle 2809" width="3" height="3" transform="translate(1116 706)" fill="#38a2ff"/>
          <rect id="Rectangle_2810" data-name="Rectangle 2810" width="3" height="3" transform="translate(1129 706)" fill="#38a2ff"/>
          <rect id="Rectangle_2811" data-name="Rectangle 2811" width="3" height="3" transform="translate(1142 706)" fill="#38a2ff"/>
          <rect id="Rectangle_2812" data-name="Rectangle 2812" width="3" height="3" transform="translate(1064 719)" fill="#38a2ff"/>
          <rect id="Rectangle_2813" data-name="Rectangle 2813" width="3" height="3" transform="translate(1077 719)" fill="#38a2ff"/>
          <rect id="Rectangle_2814" data-name="Rectangle 2814" width="3" height="3" transform="translate(1090 719)" fill="#38a2ff"/>
          <rect id="Rectangle_2815" data-name="Rectangle 2815" width="3" height="3" transform="translate(1103 719)" fill="#38a2ff"/>
          <rect id="Rectangle_2816" data-name="Rectangle 2816" width="3" height="3" transform="translate(1116 719)" fill="#38a2ff"/>
          <rect id="Rectangle_2817" data-name="Rectangle 2817" width="3" height="3" transform="translate(1129 719)" fill="#38a2ff"/>
          <rect id="Rectangle_2818" data-name="Rectangle 2818" width="3" height="3" transform="translate(1142 719)" fill="#38a2ff"/>
          <rect id="Rectangle_2819" data-name="Rectangle 2819" width="3" height="3" transform="translate(1064 731)" fill="#38a2ff"/>
          <rect id="Rectangle_2820" data-name="Rectangle 2820" width="3" height="3" transform="translate(1077 731)" fill="#38a2ff"/>
          <rect id="Rectangle_2821" data-name="Rectangle 2821" width="3" height="3" transform="translate(1090 731)" fill="#38a2ff"/>
          <rect id="Rectangle_2822" data-name="Rectangle 2822" width="3" height="3" transform="translate(1103 731)" fill="#38a2ff"/>
          <rect id="Rectangle_2823" data-name="Rectangle 2823" width="3" height="3" transform="translate(1116 731)" fill="#38a2ff"/>
          <rect id="Rectangle_2824" data-name="Rectangle 2824" width="3" height="3" transform="translate(1129 731)" fill="#38a2ff"/>
          <rect id="Rectangle_2825" data-name="Rectangle 2825" width="3" height="3" transform="translate(1142 731)" fill="#38a2ff"/>
          <rect id="Rectangle_2826" data-name="Rectangle 2826" width="3" height="3" transform="translate(1064 744)" fill="#38a2ff"/>
          <rect id="Rectangle_2827" data-name="Rectangle 2827" width="3" height="3" transform="translate(1077 744)" fill="#38a2ff"/>
          <rect id="Rectangle_2828" data-name="Rectangle 2828" width="3" height="3" transform="translate(1090 744)" fill="#38a2ff"/>
          <rect id="Rectangle_2829" data-name="Rectangle 2829" width="3" height="3" transform="translate(1103 744)" fill="#38a2ff"/>
          <rect id="Rectangle_2830" data-name="Rectangle 2830" width="3" height="3" transform="translate(1116 744)" fill="#38a2ff"/>
          <rect id="Rectangle_2831" data-name="Rectangle 2831" width="3" height="3" transform="translate(1129 744)" fill="#38a2ff"/>
          <rect id="Rectangle_2832" data-name="Rectangle 2832" width="3" height="3" transform="translate(1142 744)" fill="#38a2ff"/>
        </g>
      </g>
      <path id="Path_18574" data-name="Path 18574" d="M875.653,187.68c101.853-22.434,166.905,21.863,257.309,12.008s198.7,96.347,157.317,187.212-121.39,36.634-239,83.018-186.293,66.176-276.752,8.889S773.8,210.114,875.653,187.68Z" transform="matrix(1, -0.017, 0.017, 1, -777.243, 1678.451)" fill="#2a52c6" opacity="0.1"/>
      <g id="small_particles" data-name="small particles" transform="translate(567 2092)">
        <path id="Polygon_8" data-name="Polygon 8" d="M9.177,0l9.177,15.566H0Z" transform="matrix(0.891, 0.454, -0.454, 0.891, 159.205, 1.395)" fill="#2a52c6"/>
        <circle id="Ellipse_9" data-name="Ellipse 9" cx="4.194" cy="4.194" r="4.194" transform="matrix(0.951, -0.309, 0.309, 0.951, 0, 35.739)" fill="#38a2ff"/>
        <rect id="Rectangle_2846" data-name="Rectangle 2846" width="10.067" height="10.067" transform="matrix(0.951, -0.309, 0.309, 0.951, 35.266, 3.111)" fill="#f8ced7"/>
      </g>
      <g id="Group_18217" data-name="Group 18217" transform="translate(748 100)" style="isolation: isolate">
        <text id="Many_of_our_customers_tell_us_we_re_the_best_they_ever_had_but_I_think_they_re_wrong._Guaranteed_we_build_incredible_tools_for_our_amazing_users_and_do_things_exceptionally_but_the_most_important_fact_is_that_We_re_only_empowering_the_greatest_asset_" data-name="Many of our customers tell us “we’re the best they ever had” but I think they’re wrong.
Guaranteed, we build incredible tools for our amazing users and do things exceptionally, but the most important fact is that…
We’re only empowering the greatest asset," transform="translate(124 1405)" fill="#fff" font-size="18" font-family="Poppins-SemiBold, Poppins" font-weight="600" letter-spacing="0.03em"><tspan x="0" y="19">Many of our customers tell us “we’re </tspan><tspan x="0" y="43">the best they ever had” but I think </tspan><tspan x="0" y="67">they’re wrong.</tspan><tspan x="0" y="116">Guaranteed, we build incredible tools </tspan><tspan x="0" y="140">for our amazing users and do things </tspan><tspan x="0" y="164">exceptionally, but the most important </tspan><tspan x="0" y="188">fact is that…</tspan><tspan x="0" y="237">We’re only empowering the greatest </tspan><tspan x="0" y="261">asset,</tspan></text>
        <text id="YOU." transform="translate(124 1726)" fill="#fff" font-size="34" font-family="Poppins-SemiBold, Poppins" font-weight="600" letter-spacing="0.03em"><tspan x="0" y="0">YOU.</tspan></text>
      </g>
    </g>
  </g>
</svg>
