<svg xmlns="http://www.w3.org/2000/svg" width="1669.556" height="822.359" viewBox="0 0 1669.556 822.359"><g transform="translate(152 -4137.25)"><path d="M0-61.24s1024.5-168.21,1366,0,0,672.84,0,672.84S341.5,779.809,0,611.6,0-61.24,0-61.24Z" transform="translate(-0.222 4273.25)" fill="#27b206" opacity="0.1"/><g transform="translate(-52 4573)"><g transform="translate(-224.153 -1224.002) rotate(45)"><rect width="3" height="3" transform="translate(1064 667)" fill="#2a52c6"/><rect width="3" height="3" transform="translate(1077 667)" fill="#2a52c6"/><rect width="3" height="3" transform="translate(1090 667)" fill="#2a52c6"/><rect width="3" height="3" transform="translate(1103 667)" fill="#2a52c6"/><rect width="3" height="3" transform="translate(1116 667)" fill="#2a52c6"/><rect width="3" height="3" transform="translate(1129 667)" fill="#2a52c6"/><rect width="3" height="3" transform="translate(1142 667)" fill="#2a52c6"/><rect width="3" height="3" transform="translate(1064 680)" fill="#2a52c6"/><rect width="3" height="3" transform="translate(1077 680)" fill="#2a52c6"/><rect width="3" height="3" transform="translate(1090 680)" fill="#2a52c6"/><rect width="3" height="3" transform="translate(1103 680)" fill="#2a52c6"/><rect width="3" height="3" transform="translate(1116 680)" fill="#2a52c6"/><rect width="3" height="3" transform="translate(1129 680)" fill="#2a52c6"/><rect width="3" height="3" transform="translate(1142 680)" fill="#2a52c6"/><rect width="3" height="3" transform="translate(1064 693)" fill="#2a52c6"/><rect width="3" height="3" transform="translate(1077 693)" fill="#2a52c6"/><rect width="3" height="3" transform="translate(1090 693)" fill="#2a52c6"/><rect width="3" height="3" transform="translate(1103 693)" fill="#2a52c6"/><rect width="3" height="3" transform="translate(1116 693)" fill="#2a52c6"/><rect width="3" height="3" transform="translate(1129 693)" fill="#2a52c6"/><rect width="3" height="3" transform="translate(1142 693)" fill="#2a52c6"/><rect width="3" height="3" transform="translate(1064 706)" fill="#2a52c6"/><rect width="3" height="3" transform="translate(1077 706)" fill="#2a52c6"/><rect width="3" height="3" transform="translate(1090 706)" fill="#2a52c6"/><rect width="3" height="3" transform="translate(1103 706)" fill="#2a52c6"/><rect width="3" height="3" transform="translate(1116 706)" fill="#2a52c6"/><rect width="3" height="3" transform="translate(1129 706)" fill="#2a52c6"/><rect width="3" height="3" transform="translate(1142 706)" fill="#2a52c6"/><rect width="3" height="3" transform="translate(1064 719)" fill="#2a52c6"/><rect width="3" height="3" transform="translate(1077 719)" fill="#2a52c6"/><rect width="3" height="3" transform="translate(1090 719)" fill="#2a52c6"/><rect width="3" height="3" transform="translate(1103 719)" fill="#2a52c6"/><rect width="3" height="3" transform="translate(1116 719)" fill="#2a52c6"/><rect width="3" height="3" transform="translate(1129 719)" fill="#2a52c6"/><rect width="3" height="3" transform="translate(1142 719)" fill="#2a52c6"/><rect width="3" height="3" transform="translate(1064 731)" fill="#2a52c6"/><rect width="3" height="3" transform="translate(1077 731)" fill="#2a52c6"/><rect width="3" height="3" transform="translate(1090 731)" fill="#2a52c6"/><rect width="3" height="3" transform="translate(1103 731)" fill="#2a52c6"/><rect width="3" height="3" transform="translate(1116 731)" fill="#2a52c6"/><rect width="3" height="3" transform="translate(1129 731)" fill="#2a52c6"/><rect width="3" height="3" transform="translate(1142 731)" fill="#2a52c6"/><rect width="3" height="3" transform="translate(1064 744)" fill="#2a52c6"/><rect width="3" height="3" transform="translate(1077 744)" fill="#2a52c6"/><rect width="3" height="3" transform="translate(1090 744)" fill="#2a52c6"/><rect width="3" height="3" transform="translate(1103 744)" fill="#2a52c6"/><rect width="3" height="3" transform="translate(1116 744)" fill="#2a52c6"/><rect width="3" height="3" transform="translate(1129 744)" fill="#2a52c6"/><rect width="3" height="3" transform="translate(1142 744)" fill="#2a52c6"/></g></g><g transform="translate(1309 4234)"><g transform="translate(-224.153 -1224.002) rotate(45)"><rect width="3" height="3" transform="translate(1064 667)" fill="#38a2ff"/><rect width="3" height="3" transform="translate(1077 667)" fill="#38a2ff"/><rect width="3" height="3" transform="translate(1090 667)" fill="#38a2ff"/><rect width="3" height="3" transform="translate(1103 667)" fill="#38a2ff"/><rect width="3" height="3" transform="translate(1116 667)" fill="#38a2ff"/><rect width="3" height="3" transform="translate(1129 667)" fill="#38a2ff"/><rect width="3" height="3" transform="translate(1142 667)" fill="#38a2ff"/><rect width="3" height="3" transform="translate(1064 680)" fill="#38a2ff"/><rect width="3" height="3" transform="translate(1077 680)" fill="#38a2ff"/><rect width="3" height="3" transform="translate(1090 680)" fill="#38a2ff"/><rect width="3" height="3" transform="translate(1103 680)" fill="#38a2ff"/><rect width="3" height="3" transform="translate(1116 680)" fill="#38a2ff"/><rect width="3" height="3" transform="translate(1129 680)" fill="#38a2ff"/><rect width="3" height="3" transform="translate(1142 680)" fill="#38a2ff"/><rect width="3" height="3" transform="translate(1064 693)" fill="#38a2ff"/><rect width="3" height="3" transform="translate(1077 693)" fill="#38a2ff"/><rect width="3" height="3" transform="translate(1090 693)" fill="#38a2ff"/><rect width="3" height="3" transform="translate(1103 693)" fill="#38a2ff"/><rect width="3" height="3" transform="translate(1116 693)" fill="#38a2ff"/><rect width="3" height="3" transform="translate(1129 693)" fill="#38a2ff"/><rect width="3" height="3" transform="translate(1142 693)" fill="#38a2ff"/><rect width="3" height="3" transform="translate(1064 706)" fill="#38a2ff"/><rect width="3" height="3" transform="translate(1077 706)" fill="#38a2ff"/><rect width="3" height="3" transform="translate(1090 706)" fill="#38a2ff"/><rect width="3" height="3" transform="translate(1103 706)" fill="#38a2ff"/><rect width="3" height="3" transform="translate(1116 706)" fill="#38a2ff"/><rect width="3" height="3" transform="translate(1129 706)" fill="#38a2ff"/><rect width="3" height="3" transform="translate(1142 706)" fill="#38a2ff"/><rect width="3" height="3" transform="translate(1064 719)" fill="#38a2ff"/><rect width="3" height="3" transform="translate(1077 719)" fill="#38a2ff"/><rect width="3" height="3" transform="translate(1090 719)" fill="#38a2ff"/><rect width="3" height="3" transform="translate(1103 719)" fill="#38a2ff"/><rect width="3" height="3" transform="translate(1116 719)" fill="#38a2ff"/><rect width="3" height="3" transform="translate(1129 719)" fill="#38a2ff"/><rect width="3" height="3" transform="translate(1142 719)" fill="#38a2ff"/><rect width="3" height="3" transform="translate(1064 731)" fill="#38a2ff"/><rect width="3" height="3" transform="translate(1077 731)" fill="#38a2ff"/><rect width="3" height="3" transform="translate(1090 731)" fill="#38a2ff"/><rect width="3" height="3" transform="translate(1103 731)" fill="#38a2ff"/><rect width="3" height="3" transform="translate(1116 731)" fill="#38a2ff"/><rect width="3" height="3" transform="translate(1129 731)" fill="#38a2ff"/><rect width="3" height="3" transform="translate(1142 731)" fill="#38a2ff"/><rect width="3" height="3" transform="translate(1064 744)" fill="#38a2ff"/><rect width="3" height="3" transform="translate(1077 744)" fill="#38a2ff"/><rect width="3" height="3" transform="translate(1090 744)" fill="#38a2ff"/><rect width="3" height="3" transform="translate(1103 744)" fill="#38a2ff"/><rect width="3" height="3" transform="translate(1116 744)" fill="#38a2ff"/><rect width="3" height="3" transform="translate(1129 744)" fill="#38a2ff"/><rect width="3" height="3" transform="translate(1142 744)" fill="#38a2ff"/></g></g><g transform="translate(1092 4722)"><path d="M9.177,0l9.177,15.566H0Z" transform="matrix(0.891, 0.454, -0.454, 0.891, 159.205, 1.395)" fill="#2a52c6"/><circle cx="4.194" cy="4.194" r="4.194" transform="matrix(0.951, -0.309, 0.309, 0.951, 0, 35.739)" fill="#38a2ff"/><rect width="10.067" height="10.067" transform="matrix(0.951, -0.309, 0.309, 0.951, 35.266, 3.111)" fill="#f8ced7"/></g></g></svg>