<svg xmlns="http://www.w3.org/2000/svg" width="628.759" height="514.24" viewBox="0 0 628.759 514.24"><g transform="translate(-61.941 -4290.711)"><g transform="translate(49 40)"><g transform="translate(98.789 4206.662)"><g transform="translate(45.712 45.681)"><g transform="translate(382.009 286.012)"><path d="M456.939,299.568s-10.143-3.333-15,20.077-5.593,36.345-5.593,36.345-1.592,5.062-5.318,3.056-9.958-8.884-14.592-6.074c-4.807,2.914-4.935,9.2-1.605,17.48s9.958,26.685,10.55,28.352c.582,1.637.3,4.358-2.459,3.4s-20.178-12.188-25.012-3.6,8.232,30.125,9.614,32.507,1.181,3.616.134,4.585-6.546-3.357-11.632-6.348-11.507-5.567-13.88-.38,1.286,23.027,25.747,46.946l12.06,10.341,15.137-5.05c31.734-12.783,41.921-27.877,41.705-33.578s-7.134-5.767-12.975-4.942-12.576,2.726-13.174,1.432-.314-2.513,1.872-4.188S475,423.321,473.8,413.541s-21.579-6.044-24.495-6.208-2.14-2.789-.978-4.08c1.184-1.315,14.332-15.8,20.567-22.184s8.515-12.244,5.183-16.772c-3.213-4.366-11.6-.384-15.805.05s-3.752-4.853-3.752-4.853,4.258-12.237,8.693-35.731-6.485-24.248-6.485-24.248" transform="translate(-381.528 -299.405)" fill="#ebebeb"/><g transform="translate(38.339 21.122)"><path d="M415.564,480.539c3.32-17.242,8.11-41.025,13.489-67.278s10.227-50.01,13.644-67.232c1.7-8.595,3.072-15.558,4.028-20.4.474-2.389.845-4.253,1.1-5.545.127-.615.228-1.094.3-1.441.071-.323.121-.487.121-.487s-.014.17-.066.5c-.059.35-.141.831-.247,1.45-.233,1.3-.57,3.169-1,5.566-.875,4.831-2.194,11.813-3.857,20.434-3.321,17.244-8.112,41.023-13.488,67.268s-10.229,50.021-13.646,67.243" transform="translate(-415.564 -318.156)" fill="#e0e0e0"/></g><g transform="translate(43.23 63.538)"><path d="M419.909,355.811a4.652,4.652,0,0,1,.679.929c.41.615.973,1.522,1.66,2.649,1.366,2.26,3.172,5.428,5.1,8.962,1.879,3.484,3.579,6.634,4.893,9.069q.879,1.612,1.494,2.741a4.7,4.7,0,0,1,.5,1.033,4.6,4.6,0,0,1-.686-.924c-.408-.616-.973-1.524-1.648-2.66-1.345-2.273-3.109-5.464-5.035-9-1.9-3.468-3.624-6.6-4.955-9.03q-.889-1.608-1.509-2.735A4.688,4.688,0,0,1,419.909,355.811Z" transform="translate(-419.906 -355.81)" fill="#e0e0e0"/></g><g transform="translate(59.045 71.336)"><path d="M433.946,380.207c-.078-.128,6.288-4.144,14.218-8.969s14.424-8.631,14.5-8.5-6.287,4.143-14.219,8.968S434.024,380.336,433.946,380.207Z" transform="translate(-433.945 -362.733)" fill="#e0e0e0"/></g><g transform="translate(48.968 119.835)"><path d="M425,414.7a4.853,4.853,0,0,1,1.114-.371l3.076-.837c2.6-.708,6.178-1.7,10.091-2.932s7.424-2.455,9.958-3.362l3-1.071a4.857,4.857,0,0,1,1.125-.333,4.876,4.876,0,0,1-1.048.531c-.688.309-1.692.736-2.945,1.233-2.5,1-6,2.293-9.931,3.522s-7.535,2.172-10.159,2.786c-1.315.3-2.38.533-3.122.67A4.909,4.909,0,0,1,425,414.7Z" transform="translate(-425 -405.788)" fill="#e0e0e0"/></g><g transform="translate(29.633 109.035)"><path d="M407.837,396.2a4.189,4.189,0,0,1,.841.687c.517.467,1.251,1.156,2.151,2.016,1.8,1.718,4.259,4.119,6.952,6.8s5.111,5.122,6.841,6.911c.865.894,1.559,1.625,2.029,2.138a4.251,4.251,0,0,1,.693.837,4.1,4.1,0,0,1-.841-.686c-.517-.467-1.251-1.157-2.152-2.016-1.8-1.719-4.259-4.121-6.954-6.8s-5.11-5.121-6.84-6.91c-.865-.894-1.559-1.625-2.03-2.139A4.231,4.231,0,0,1,407.837,396.2Z" transform="translate(-407.835 -396.2)" fill="#e0e0e0"/></g><g transform="translate(16.258 143.162)"><path d="M395.963,426.5a6.858,6.858,0,0,1,1.066.892l2.765,2.574c2.317,2.191,5.494,5.245,8.978,8.642s6.619,6.5,8.868,8.757c1.058,1.079,1.943,1.985,2.644,2.7a6.786,6.786,0,0,1,.917,1.043,6.807,6.807,0,0,1-1.066-.891l-2.764-2.574c-2.318-2.191-5.494-5.246-8.979-8.643s-6.618-6.5-8.867-8.756l-2.644-2.7A6.779,6.779,0,0,1,395.963,426.5Z" transform="translate(-395.962 -426.497)" fill="#e0e0e0"/></g><g transform="translate(41.061 154.729)"><path d="M417.98,449.048a7.826,7.826,0,0,1,1.4-.5l3.863-1.2c3.26-1.015,7.759-2.43,12.682-4.128s9.347-3.339,12.54-4.551l3.783-1.43a7.843,7.843,0,0,1,1.413-.466,7.671,7.671,0,0,1-1.331.662c-.872.394-2.141.943-3.723,1.593-3.16,1.3-7.566,3.011-12.5,4.707s-9.458,3.062-12.75,3.983c-1.647.456-2.984.811-3.914,1.034A7.835,7.835,0,0,1,417.98,449.048Z" transform="translate(-417.98 -436.765)" fill="#e0e0e0"/></g></g><g transform="translate(149.029)"><path d="M220.178,135.08l-42.149-20.123a5.843,5.843,0,0,1-2.756-7.79l27.851-58.341a5.844,5.844,0,0,1,7.792-2.756l26.732,12.762,10.511,31.206-20.188,42.287A5.844,5.844,0,0,1,220.178,135.08Z" transform="translate(-174.701 -45.498)" fill="#ebebeb"/><g transform="translate(54.575 13.333)"><path d="M231.521,57.334l-7.839,16.419A5.435,5.435,0,0,0,226.244,81l15.787,7.54Z" transform="translate(-223.15 -57.334)" fill="#f5f5f5"/></g><g transform="translate(54.067 31.296)"><path d="M223.267,73.281s-2.109,3.883,1.8,7.356a5.552,5.552,0,0,0,.464.365c1.885,1.353,14.3,10.245,14.452,9.933l2.106-4.411L226.3,78.986S222.423,76.969,223.267,73.281Z" transform="translate(-222.699 -73.281)" fill="#e0e0e0"/></g><g transform="translate(32.391 18.069)"><path d="M222.957,70.864c-.1.212-4.547-1.7-9.932-4.271s-9.668-4.827-9.568-5.037,4.547,1.7,9.933,4.273S223.058,70.653,222.957,70.864Z" transform="translate(-203.455 -61.539)" fill="#fafafa"/></g><g transform="translate(13.784 57.054)"><path d="M221.923,112.858c-.1.211-8.015-3.358-17.674-7.968s-17.411-8.523-17.311-8.733,8.014,3.356,17.676,7.97S222.023,112.646,221.923,112.858Z" transform="translate(-186.937 -96.147)" fill="#fafafa"/></g><g transform="matrix(0.899, 0.438, -0.438, 0.899, 30.697, 21.029)"><path d="M31.687,10.8a1.2,1.2,0,0,0-.654.19l-6.085,3.841a.6.6,0,0,0-.281.507v5.347a.6.6,0,0,0,.281.507l6.085,3.841a1.264,1.264,0,0,0,.654.19H33.15a.6.6,0,0,0,.605-.6V11.4a.6.6,0,0,0-.605-.6Z" transform="translate(0.012 0.001)" fill="#ddd"/><path d="M19.239,27.01H5.873A3.634,3.634,0,0,1,2.25,23.394V12.616A3.628,3.628,0,0,1,5.866,9H19.232a3.628,3.628,0,0,1,3.616,3.616V23.387A3.619,3.619,0,0,1,19.239,27.01Z" fill="#ddd"/></g></g><g transform="translate(346.208 346.776)"><path d="M434.775,391.689H349.757s-1-20,16.67-21.337c0,0,2.93-16.916,22.671-17,23.671-.106,23.964,20.5,23.964,20.5s19.378-1.83,21.712,17.841" transform="translate(-349.747 -353.348)" fill="#fafafa"/></g><g transform="translate(10.731 354.979)"><path d="M68.266,360.631h0l-16.337,14.8h9.865v20.948H74.738V375.433H84.6Z" transform="translate(-51.928 -360.63)" fill="#ebebeb"/></g><g transform="translate(428.097 68.3)"><path d="M442.416,106.131h0l-19.972,18.1H434.5v25.61h15.825v-25.61h12.06Z" transform="translate(-422.443 -106.131)" fill="#ebebeb"/></g><g transform="translate(0 65.611)"><g transform="translate(0 0)"><rect width="60.332" height="75.465" transform="matrix(0.218, -0.976, 0.976, 0.218, 0, 58.877)" fill="#ebebeb"/><g transform="translate(3.368 4.274)"><g transform="translate(0 0)"><rect width="52.736" height="70.163" transform="translate(0 51.464) rotate(-77.393)" fill="#f5f5f5"/></g></g></g></g></g><g transform="translate(16.211 517.848)"><path d="M542.911,464.957c0,.162-117.915.293-263.337.293-145.473,0-263.363-.131-263.363-.293s117.89-.294,263.363-.294C425,464.663,542.911,464.795,542.911,464.957Z" transform="translate(-16.211 -464.663)" fill="#263238"/></g><g transform="translate(442.585 448.104)"><g transform="translate(0)"><g transform="translate(10.878)"><path d="M417.239,431.307c-1.925,2.75-5.667,1.838-7.4.16s-2.468-4.11-3.136-6.43c-1.525-5.3-3.063-10.861-1.928-16.258a9.035,9.035,0,0,1,2.076-4.42,4.719,4.719,0,0,1,4.472-1.488c1.887.5,3.059,2.346,3.907,4.1a38.747,38.747,0,0,1,3.83,16.632c.009,2.679-.306,5.488-1.818,7.7" transform="translate(-404.381 -402.749)" fill="#e8505b"/></g><g transform="translate(10.878)" opacity="0.2"><path d="M417.239,431.307c-1.925,2.75-5.667,1.838-7.4.16s-2.468-4.11-3.136-6.43c-1.525-5.3-3.063-10.861-1.928-16.258a9.035,9.035,0,0,1,2.076-4.42,4.719,4.719,0,0,1,4.472-1.488c1.887.5,3.059,2.346,3.907,4.1a38.747,38.747,0,0,1,3.83,16.632c.009,2.679-.306,5.488-1.818,7.7" transform="translate(-404.381 -402.749)"/></g><g transform="translate(0 40.933)"><path d="M411.248,440.636a16.686,16.686,0,0,0-10.352-1.257,8.6,8.6,0,0,0-5.113,2.282c-1.279,1.411-1.521,3.893-.053,5.105a4.9,4.9,0,0,0,3.224.819c2.737-.033,5.773-.515,7.958,1.132,1.248.94,2.078,2.5,3.57,2.963a3.526,3.526,0,0,0,3.878-1.726,6.019,6.019,0,0,0,.438-4.446A6.79,6.79,0,0,0,411.248,440.636Z" transform="translate(-394.724 -439.087)" fill="#e8505b"/></g><g transform="translate(26.993 8.847)"><path d="M420.718,434.258a10,10,0,0,1-1.557-9.208,17.735,17.735,0,0,1,5.453-7.91,29.358,29.358,0,0,1,9.765-5.762,10.414,10.414,0,0,1,4.392-.747,4.612,4.612,0,0,1,3.686,2.23c1.027,1.96.043,4.337-1.024,6.277a74.213,74.213,0,0,1-6.414,9.767c-1.922,2.478-4.124,4.924-7.054,6.043s-5.974.989-7.527-1.043" transform="translate(-418.687 -410.603)" fill="#e8505b"/></g><g transform="translate(9.497 44.751)"><path d="M417.525,467.762a5.969,5.969,0,0,1-.173-1.249c-.089-.91-.2-2.051-.332-3.41a49.243,49.243,0,0,0-.767-5,38.642,38.642,0,0,0-1.818-5.9,21.778,21.778,0,0,0-3.014-5.342,11.261,11.261,0,0,0-3.811-3.169,10.667,10.667,0,0,0-3.209-1,5.99,5.99,0,0,1-1.245-.18,5.888,5.888,0,0,1,1.266-.019,9.712,9.712,0,0,1,3.347.871,11.235,11.235,0,0,1,4.02,3.2A21.269,21.269,0,0,1,414.913,452a36.11,36.11,0,0,1,1.8,6,42.115,42.115,0,0,1,.665,5.064c.109,1.448.15,2.62.17,3.431A5.845,5.845,0,0,1,417.525,467.762Z" transform="translate(-403.155 -442.476)" fill="#263238"/></g><g transform="translate(17.246 11.048)"><path d="M416.42,468.922a2.567,2.567,0,0,1-.033-.58c0-.436,0-.985,0-1.658,0-1.439,0-3.521-.074-6.092-.127-5.142-.57-12.241-1.425-20.044s-2-14.825-3.044-19.862c-.247-1.263-.495-2.4-.728-3.394s-.412-1.856-.595-2.552c-.158-.654-.286-1.187-.387-1.611a2.475,2.475,0,0,1-.1-.572,2.466,2.466,0,0,1,.2.543c.126.418.285.944.481,1.589.213.688.433,1.543.682,2.536s.534,2.125.8,3.385a187.922,187.922,0,0,1,3.2,19.882c.857,7.819,1.242,14.938,1.277,20.094.03,2.577-.025,4.664-.09,6.1-.042.674-.074,1.222-.1,1.657A2.466,2.466,0,0,1,416.42,468.922Z" transform="translate(-410.033 -412.557)" fill="#263238"/></g><g transform="translate(23.575 15.246)"><path d="M415.676,454.72a11,11,0,0,1,.012-1.731c.063-1.113.216-2.723.531-4.693a62.029,62.029,0,0,1,1.525-6.836,60.493,60.493,0,0,1,2.859-8.089A43.088,43.088,0,0,1,429,420.3a21.461,21.461,0,0,1,1.975-1.836c.3-.257.571-.511.844-.714l.767-.528a11.185,11.185,0,0,1,1.458-.934,51.922,51.922,0,0,0-4.78,4.264,45.421,45.421,0,0,0-8.186,13.026,64.678,64.678,0,0,0-2.875,8.015c-.749,2.512-1.247,4.822-1.623,6.769-.358,1.95-.565,3.543-.691,4.646A11.049,11.049,0,0,1,415.676,454.72Z" transform="translate(-415.652 -416.283)" fill="#263238"/></g></g></g><g transform="translate(79.18 44.049)"><g transform="translate(228.297)"><g transform="translate(0.303 0.272)"><g transform="translate(0 0)"><rect width="72.048" height="90.119" transform="matrix(0.174, -0.985, 0.985, 0.174, 0, 70.948)" fill="#ebebeb"/></g></g><path d="M376.369,60.008s-.151-.018-.433-.063l-1.247-.207-4.826-.825-18.18-3.151-64.1-11.212.27-.19c-3.724,21.119-7.994,45.327-12.513,70.945v.008l-.212-.3,88.735,15.731-.251.177c3.822-21.355,6.991-39.057,9.206-51.437,1.119-6.19,2-11.046,2.6-14.372.3-1.65.535-2.917.7-3.789s.256-1.311.256-1.311-.059.426-.2,1.274c-.148.864-.36,2.121-.639,3.758-.575,3.318-1.411,8.166-2.479,14.343-2.168,12.421-5.268,30.183-9.008,51.61l-.038.214-.214-.038-88.75-15.644-.258-.045.046-.258v-.007C279.367,89.6,283.656,65.4,287.4,44.28l.042-.231.23.042,64.207,11.468,18.105,3.263,4.77.872,1.218.229C376.24,59.976,376.369,60.008,376.369,60.008Z" transform="translate(-274.782 -44.049)" fill="#263238"/><g transform="translate(4.152 5.279)"><g transform="translate(0)"><rect width="62.976" height="83.788" transform="translate(0 62.015) rotate(-79.975)" fill="#e8505b"/></g></g><g transform="translate(4.152 33.84)"><path d="M278.468,107.544,314.1,74.09l13.588,27.273,14.387-10.753,18.9,31.518Z" transform="translate(-278.468 -74.09)" fill="#e8505b"/></g><g transform="translate(52.954 25.866)"><path d="M334.886,74.759a6.6,6.6,0,1,1-5.348-7.645A6.6,6.6,0,0,1,334.886,74.759Z" transform="translate(-321.792 -67.012)" fill="#e8505b"/></g></g><g transform="translate(345.954 157.756)"><g transform="translate(1.612)"><path d="M436.771,283.27l-51.3-15.056a6.689,6.689,0,0,1-4.535-8.3L401.775,188.9a6.691,6.691,0,0,1,8.3-4.535l32.535,9.549,17.567,33.35-15.106,51.468A6.69,6.69,0,0,1,436.771,283.27Z" transform="translate(-380.663 -184.096)" fill="#e8505b"/></g><g transform="translate(57.443 9.821)"><path d="M436.346,192.815,430.48,212.8a6.223,6.223,0,0,0,4.217,7.723l19.215,5.642Z" transform="translate(-430.227 -192.815)" fill="#e8505b"/></g><g transform="translate(57.178 31.636)" opacity="0.2"><path d="M430.258,212.181s-1.675,4.773,3.375,7.986a6.413,6.413,0,0,0,.59.328c2.377,1.184,18.032,8.97,18.143,8.59l1.577-5.37-19.216-5.64S429.976,216.5,430.258,212.181Z" transform="translate(-429.991 -212.181)"/></g><path d="M18,3A15,15,0,1,0,33,18,15.005,15.005,0,0,0,18,3ZM15,24.75V11.25L24,18Z" transform="matrix(0.966, 0.259, -0.259, 0.966, 28.884, 28.955)" fill="#ba3842"/></g><g transform="translate(0 171.785)"><path d="M140.576,268.522,94.155,279.178a5.959,5.959,0,0,1-7.142-4.474L72.264,210.45a5.96,5.96,0,0,1,4.475-7.142l29.44-6.758,28.181,18.256,10.691,46.573A5.959,5.959,0,0,1,140.576,268.522Z" transform="translate(-72.112 -196.551)" fill="#e8505b"/><g transform="translate(34.067)"><path d="M102.355,196.551l4.151,18.083a5.542,5.542,0,0,0,6.642,4.162l17.389-3.989Z" transform="translate(-102.355 -196.551)" fill="#e8505b"/></g><g transform="translate(38.82 18.256)" opacity="0.2"><path d="M106.574,214.118s.778,4.438,6.1,4.733a5.617,5.617,0,0,0,.6,0c2.363-.115,17.919-.888,17.841-1.231L130,212.758l-17.388,3.992S108.24,217.6,106.574,214.118Z" transform="translate(-106.574 -212.758)"/></g><g transform="translate(34.067)" opacity="0.3"><path d="M102.355,196.551l4.151,18.083a5.542,5.542,0,0,0,6.642,4.162l17.389-3.989Z" transform="translate(-102.355 -196.551)" fill="#fff"/></g><g transform="translate(12.68 18.202)"><path d="M104.845,212.746c.054.233-4.711,1.525-10.64,2.886s-10.782,2.277-10.835,2.045,4.71-1.524,10.642-2.886S104.792,212.514,104.845,212.746Z" transform="translate(-83.369 -212.71)" fill="#fafafa"/></g><g transform="translate(22.535 57.231)"><path d="M130.647,247.378c.053.232-8.529,2.4-19.168,4.843s-19.31,4.234-19.362,4,8.527-2.4,19.169-4.844S130.593,247.145,130.647,247.378Z" transform="translate(-92.117 -247.358)" fill="#fafafa"/></g></g></g><g transform="translate(145.583 109.25)"><g transform="translate(0.294 0.293)"><rect width="307.088" height="270.441" fill="#f5f5f5"/></g><path d="M438.443,372.665c0-2.09-.1-107.692-.249-270.441l.249.248-307.061.045h-.027l.293-.293c-.012,98.3-.025,190.848-.035,270.441l-.258-.259,307.088.259-307.088.259H131.1v-.259c-.01-79.593-.023-172.146-.035-270.441v-.293h.321l307.061.045h.248v.248C438.541,264.975,438.444,370.577,438.443,372.665Z" transform="translate(-131.061 -101.931)" fill="#263238"/><g transform="translate(29.737 74.349)"><path d="M177.062,196.409H159.64a2.18,2.18,0,0,1-2.18-2.18V170.115a2.18,2.18,0,0,1,2.18-2.181h11.049l8.553,8.816v17.48A2.18,2.18,0,0,1,177.062,196.409Z" transform="translate(-157.46 -167.934)" fill="#e8505b"/><g transform="translate(13.229)"><path d="M169.2,167.934v6.787a2.028,2.028,0,0,0,2.028,2.028h6.525Z" transform="translate(-169.204 -167.934)" fill="#e8505b"/></g><g transform="translate(13.317 7.383)" opacity="0.2"><path d="M169.283,174.488a2.255,2.255,0,0,0,1.789,2.188c.07.02.142.035.214.048.852.152,6.461,1.15,6.461,1.021v-1.824h-6.525S169.592,175.866,169.283,174.488Z" transform="translate(-169.282 -174.488)"/></g><g transform="translate(13.229)" opacity="0.3"><path d="M169.2,167.934v6.787a2.028,2.028,0,0,0,2.028,2.028h6.525Z" transform="translate(-169.204 -167.934)" fill="#fff"/></g><g transform="translate(3.708 6.352)"><path d="M168.812,173.731a25.677,25.677,0,0,1-4.029.159,25.674,25.674,0,0,1-4.03-.159,25.932,25.932,0,0,1,4.03-.158A25.935,25.935,0,0,1,168.812,173.731Z" transform="translate(-160.752 -173.573)" fill="#fafafa"/></g><g transform="translate(3.708 22.464)"><path d="M175.212,188.034c0,.088-3.237.158-7.23.158s-7.231-.07-7.231-.158,3.236-.158,7.231-.158S175.212,187.947,175.212,188.034Z" transform="translate(-160.752 -187.876)" fill="#fafafa"/></g><g transform="translate(34.44 13.968)"><path d="M188.034,182.881a2.308,2.308,0,0,1,2.411-2.337,2.225,2.225,0,0,1,1.681.67l-.309.309a1.819,1.819,0,0,0-1.36-.545,1.9,1.9,0,1,0,0,3.809,1.8,1.8,0,0,0,1.36-.552l.309.309a2.238,2.238,0,0,1-1.687.676A2.306,2.306,0,0,1,188.034,182.881Z" transform="translate(-188.034 -180.307)" fill="#e0e0e0"/><path d="M192.052,183.323a1.756,1.756,0,1,1,1.76,1.76A1.7,1.7,0,0,1,192.052,183.323Zm3.039,0a1.285,1.285,0,1,0-1.28,1.346A1.259,1.259,0,0,0,195.091,183.323Z" transform="translate(-187.526 -180.178)" fill="#e0e0e0"/><path d="M201.711,183.047v2h-.466v-1.957c0-.729-.367-1.1-.991-1.1a1.11,1.11,0,0,0-1.156,1.247v1.812h-.466v-1.957c0-.729-.368-1.1-1-1.1a1.113,1.113,0,0,0-1.156,1.247v1.812h-.466V181.6h.447v.631a1.4,1.4,0,0,1,1.267-.657,1.242,1.242,0,0,1,1.228.729,1.5,1.5,0,0,1,1.365-.729A1.3,1.3,0,0,1,201.711,183.047Z" transform="translate(-187.025 -180.178)" fill="#e0e0e0"/><path d="M205.689,183.323a1.673,1.673,0,0,1-1.721,1.76,1.509,1.509,0,0,1-1.313-.683v1.924h-.465V181.6h.446v.683a1.506,1.506,0,0,1,1.333-.709A1.671,1.671,0,0,1,205.689,183.323Zm-.466,0a1.289,1.289,0,1,0-1.288,1.346A1.273,1.273,0,0,0,205.223,183.323Z" transform="translate(-186.244 -180.178)" fill="#e0e0e0"/><path d="M206.136,180.334h.466v4.872h-.466Z" transform="translate(-185.745 -180.334)" fill="#e0e0e0"/><path d="M210.749,183.467H207.86a1.277,1.277,0,0,0,1.359,1.2,1.364,1.364,0,0,0,1.058-.453l.262.3a1.826,1.826,0,0,1-3.145-1.2,1.663,1.663,0,0,1,1.687-1.753,1.645,1.645,0,0,1,1.674,1.753C210.755,183.362,210.749,183.415,210.749,183.467Zm-2.888-.348h2.449a1.227,1.227,0,0,0-2.449,0Z" transform="translate(-185.586 -180.178)" fill="#e0e0e0"/><path d="M213.1,184.922a1.114,1.114,0,0,1-.729.242.915.915,0,0,1-1.012-1v-2.087h-.617v-.394h.617v-.755h.466v.755h1.051v.394h-1.051v2.061a.554.554,0,0,0,.6.631.768.768,0,0,0,.511-.178Z" transform="translate(-185.163 -180.26)" fill="#e0e0e0"/><path d="M216.519,183.467h-2.889a1.279,1.279,0,0,0,1.36,1.2,1.361,1.361,0,0,0,1.057-.453l.262.3a1.826,1.826,0,0,1-3.145-1.2,1.664,1.664,0,0,1,1.687-1.753,1.646,1.646,0,0,1,1.675,1.753C216.525,183.362,216.519,183.415,216.519,183.467Zm-2.889-.348h2.449a1.227,1.227,0,0,0-2.449,0Z" transform="translate(-184.857 -180.178)" fill="#e0e0e0"/></g><g transform="translate(32.427 22.595)"><rect width="204.127" height="3.742" rx="1.661" fill="#e8505b"/></g><g transform="translate(240.931 21.106)"><g transform="translate(0.133)"><path d="M377.324,186.678a29.4,29.4,0,0,1-5.852,5.853,29.323,29.323,0,0,1,5.852-5.853Z" transform="translate(-371.464 -186.67)" fill="#263238"/></g><path d="M377.206,192.531a29.323,29.323,0,0,1-5.852-5.853,29.4,29.4,0,0,1,5.852,5.853Z" transform="translate(-371.346 -186.67)" fill="#263238"/></g><g transform="translate(214.893 14.245)"><path d="M351.553,183.857c0,.767-.558,1.358-1.668,1.358a2.386,2.386,0,0,1-1.654-.591l.23-.374a2.012,2.012,0,0,0,1.424.533c.762,0,1.182-.355,1.182-.926,0-.552-.386-.914-1.24-.914H349.5V182.6l1.274-1.6h-2.351v-.42h2.955v.335l-1.3,1.636C351.06,182.6,351.553,183.121,351.553,183.857Z" transform="translate(-348.231 -180.58)" fill="#e0e0e0"/><path d="M358.426,180.58v4.6h-.466V181.5l-1.806,3.093h-.23l-1.806-3.073v3.656h-.466v-4.6h.4l2,3.407,1.976-3.407Z" transform="translate(-347.546 -180.58)" fill="#e0e0e0"/><path d="M363.052,183.948c0,.782-.577,1.228-1.727,1.228h-2.114v-4.6h1.984c1.024,0,1.615.434,1.615,1.182a1.067,1.067,0,0,1-.7,1.044A1.1,1.1,0,0,1,363.052,183.948Zm-3.355-2.967v1.667h1.464c.736,0,1.162-.282,1.162-.834s-.427-.834-1.162-.834Zm2.869,2.928c0-.6-.439-.859-1.248-.859H359.7v1.727h1.621C362.127,184.776,362.567,184.512,362.567,183.909Z" transform="translate(-346.843 -180.58)" fill="#e0e0e0"/></g></g><g transform="translate(29.737 119.792)"><path d="M177.062,236.751H159.64a2.179,2.179,0,0,1-2.18-2.18V210.457a2.18,2.18,0,0,1,2.18-2.181h11.049l8.553,8.816v17.48A2.179,2.179,0,0,1,177.062,236.751Z" transform="translate(-157.46 -208.276)" fill="#e8505b"/><g transform="translate(13.229)"><path d="M169.2,208.276v6.788a2.028,2.028,0,0,0,2.028,2.028h6.525Z" transform="translate(-169.204 -208.276)" fill="#e8505b"/></g><g transform="translate(13.317 7.383)" opacity="0.2"><path d="M169.283,214.83a2.255,2.255,0,0,0,1.789,2.188,1.968,1.968,0,0,0,.214.048c.852.152,6.461,1.15,6.461,1.022v-1.825h-6.525S169.592,216.208,169.283,214.83Z" transform="translate(-169.282 -214.83)"/></g><g transform="translate(13.229)" opacity="0.3"><path d="M169.2,208.276v6.788a2.028,2.028,0,0,0,2.028,2.028h6.525Z" transform="translate(-169.204 -208.276)" fill="#fff"/></g><g transform="translate(3.708 6.353)"><path d="M168.812,214.074a25.934,25.934,0,0,1-4.029.158,25.932,25.932,0,0,1-4.03-.158,25.77,25.77,0,0,1,4.03-.158A25.772,25.772,0,0,1,168.812,214.074Z" transform="translate(-160.752 -213.916)" fill="#fafafa"/></g><g transform="translate(3.708 22.464)"><path d="M175.212,228.376c0,.088-3.237.159-7.23.159s-7.231-.071-7.231-.159,3.236-.158,7.231-.158S175.212,228.289,175.212,228.376Z" transform="translate(-160.752 -228.218)" fill="#fafafa"/></g><g transform="translate(2.778 3.114)"><path d="M27.148,10.8a.425.425,0,0,0-.231.067l-2.151,1.358a.213.213,0,0,0-.1.179v1.89a.213.213,0,0,0,.1.179l2.151,1.358a.447.447,0,0,0,.231.067h.517a.212.212,0,0,0,.214-.211V11.011a.213.213,0,0,0-.214-.211Z" transform="translate(-14.487 -1.163)" fill="#fff"/><path d="M8.256,15.367H3.531A1.285,1.285,0,0,1,2.25,14.088v-3.81A1.283,1.283,0,0,1,3.528,9H8.254a1.283,1.283,0,0,1,1.278,1.278v3.808A1.279,1.279,0,0,1,8.256,15.367Z" fill="#fff"/></g><g transform="translate(34.848 13.968)"><path d="M188.4,220.921h.485V225.1h2.574v.42H188.4Z" transform="translate(-188.396 -220.645)" fill="#e0e0e0"/><path d="M191.382,223.665a1.757,1.757,0,1,1,1.76,1.761A1.7,1.7,0,0,1,191.382,223.665Zm3.04,0a1.285,1.285,0,1,0-1.281,1.347A1.26,1.26,0,0,0,194.422,223.665Z" transform="translate(-188.018 -220.52)" fill="#e0e0e0"/><path d="M197.963,223.251v2.14h-.446v-.538a1.3,1.3,0,0,1-1.188.572c-.782,0-1.261-.408-1.261-1,0-.532.341-.978,1.333-.978h1.1v-.211c0-.591-.335-.914-.978-.914a1.764,1.764,0,0,0-1.149.408l-.21-.348a2.191,2.191,0,0,1,1.4-.466A1.226,1.226,0,0,1,197.963,223.251Zm-.466,1.1v-.565h-1.083c-.67,0-.887.264-.887.617,0,.4.321.65.873.65A1.1,1.1,0,0,0,197.5,224.355Z" transform="translate(-187.552 -220.52)" fill="#e0e0e0"/><path d="M201.962,220.676v4.872h-.446v-.683a1.5,1.5,0,0,1-1.334.716,1.757,1.757,0,0,1,0-3.513,1.507,1.507,0,0,1,1.313.684v-2.076Zm-.46,3.145a1.285,1.285,0,1,0-1.281,1.347A1.263,1.263,0,0,0,201.5,223.821Z" transform="translate(-187.123 -220.676)" fill="#e0e0e0"/><path d="M202.626,221a.337.337,0,0,1,.341-.329.332.332,0,1,1,0,.663A.338.338,0,0,1,202.626,221Zm.1,1.09h.466v3.453h-.466Z" transform="translate(-186.597 -220.676)" fill="#e0e0e0"/><path d="M207.463,223.39v2H207v-1.956a.965.965,0,0,0-1.037-1.1,1.133,1.133,0,0,0-1.209,1.247v1.812h-.465v-3.453h.446v.636a1.453,1.453,0,0,1,1.313-.664A1.322,1.322,0,0,1,207.463,223.39Z" transform="translate(-186.387 -220.52)" fill="#e0e0e0"/><path d="M211.475,221.939v3.032a1.516,1.516,0,0,1-1.727,1.728,2.406,2.406,0,0,1-1.609-.533l.237-.355a2.049,2.049,0,0,0,1.358.473c.874,0,1.274-.4,1.274-1.254v-.439a1.554,1.554,0,0,1-1.345.669,1.676,1.676,0,1,1,0-3.349,1.56,1.56,0,0,1,1.365.689v-.662Zm-.453,1.64a1.311,1.311,0,1,0-1.313,1.267A1.235,1.235,0,0,0,211.022,223.579Z" transform="translate(-185.926 -220.52)" fill="#e0e0e0"/><path d="M213.49,224.75a.348.348,0,0,1,.348-.355.353.353,0,0,1,.355.355.359.359,0,0,1-.355.362A.354.354,0,0,1,213.49,224.75Z" transform="translate(-185.223 -220.206)" fill="#e0e0e0"/><path d="M214.724,224.75a.347.347,0,0,1,.347-.355.353.353,0,0,1,.355.355.358.358,0,0,1-.355.362A.353.353,0,0,1,214.724,224.75Z" transform="translate(-185.067 -220.206)" fill="#e0e0e0"/><path d="M215.958,224.75a.348.348,0,0,1,.348-.355.353.353,0,0,1,.355.355.359.359,0,0,1-.355.362A.354.354,0,0,1,215.958,224.75Z" transform="translate(-184.911 -220.206)" fill="#e0e0e0"/></g><g transform="translate(32.427 22.595)"><path d="M388.5,232.077H188.118a1.872,1.872,0,0,1-1.871-1.871h0a1.872,1.872,0,0,1,1.871-1.871H388.5a1.872,1.872,0,0,1,1.872,1.871h0A1.872,1.872,0,0,1,388.5,232.077Z" transform="translate(-186.247 -228.335)" fill="#e0e0e0"/></g><g transform="translate(32.427 22.595)"><path d="M305.208,232.077H188.118a1.872,1.872,0,0,1-1.871-1.871h0a1.872,1.872,0,0,1,1.871-1.871H305.208a1.872,1.872,0,0,1,1.871,1.871h0A1.872,1.872,0,0,1,305.208,232.077Z" transform="translate(-186.247 -228.335)" fill="#e8505b"/></g><g transform="translate(240.931 21.107)"><g transform="translate(0.133)"><path d="M377.324,227.021a29.43,29.43,0,0,1-5.852,5.852,29.277,29.277,0,0,1,5.852-5.852Z" transform="translate(-371.464 -227.013)" fill="#263238"/></g><path d="M377.206,232.873a29.355,29.355,0,0,1-5.852-5.852,29.352,29.352,0,0,1,5.852,5.852Z" transform="translate(-371.346 -227.013)" fill="#263238"/></g><g transform="translate(214.951 13.968)"><path d="M351.644,225.1v.42h-3.223v-.335l1.91-1.871c.518-.513.617-.821.617-1.135,0-.532-.374-.861-1.077-.861a1.56,1.56,0,0,0-1.255.513l-.336-.289a2.07,2.07,0,0,1,1.63-.657c.932,0,1.522.473,1.522,1.241a1.893,1.893,0,0,1-.755,1.438l-1.562,1.535Z" transform="translate(-348.282 -220.649)" fill="#e0e0e0"/><path d="M351.765,223.223c0-1.463.769-2.337,1.833-2.337s1.838.874,1.838,2.337-.775,2.338-1.838,2.338S351.765,224.688,351.765,223.223Zm3.184,0c0-1.227-.551-1.9-1.352-1.9s-1.353.677-1.353,1.9.551,1.9,1.353,1.9S354.949,224.451,354.949,223.223Z" transform="translate(-347.842 -220.649)" fill="#e0e0e0"/><path d="M358.7,223.814l-.814.749v.985h-.466v-4.872h.466v3.3l2.061-1.883h.578l-1.478,1.41,1.615,2.042h-.571Z" transform="translate(-347.127 -220.676)" fill="#e0e0e0"/><path d="M364.418,223.821a1.677,1.677,0,0,1-1.721,1.761,1.493,1.493,0,0,1-1.331-.716v.683h-.447v-4.872h.466v2.076a1.506,1.506,0,0,1,1.312-.684A1.671,1.671,0,0,1,364.418,223.821Zm-.466,0a1.288,1.288,0,1,0-1.286,1.347A1.268,1.268,0,0,0,363.952,223.821Z" transform="translate(-346.684 -220.676)" fill="#e0e0e0"/></g></g><g transform="translate(29.737 165.856)"><path d="M177.062,277.644H159.64a2.18,2.18,0,0,1-2.18-2.181V251.349a2.18,2.18,0,0,1,2.18-2.18h11.049l8.553,8.816v17.479A2.18,2.18,0,0,1,177.062,277.644Z" transform="translate(-157.46 -249.169)" fill="#e8505b"/><g transform="translate(13.229)"><path d="M169.2,249.169v6.787a2.028,2.028,0,0,0,2.028,2.028h6.525Z" transform="translate(-169.204 -249.169)" fill="#e8505b"/></g><g transform="translate(13.317 7.383)" opacity="0.2"><path d="M169.283,255.723a2.255,2.255,0,0,0,1.789,2.188c.07.02.142.035.214.048.852.152,6.461,1.15,6.461,1.021v-1.824h-6.525S169.592,257.1,169.283,255.723Z" transform="translate(-169.282 -255.723)"/></g><g transform="translate(13.229)" opacity="0.3"><path d="M169.2,249.169v6.787a2.028,2.028,0,0,0,2.028,2.028h6.525Z" transform="translate(-169.204 -249.169)" fill="#fff"/></g><g transform="translate(3.708 6.352)"><path d="M168.812,254.966a25.675,25.675,0,0,1-4.029.159,25.672,25.672,0,0,1-4.03-.159,25.93,25.93,0,0,1,4.03-.158A25.932,25.932,0,0,1,168.812,254.966Z" transform="translate(-160.752 -254.808)" fill="#fafafa"/></g><g transform="translate(3.708 22.464)"><path d="M175.212,269.269c0,.087-3.237.158-7.23.158s-7.231-.071-7.231-.158,3.236-.158,7.231-.158S175.212,269.182,175.212,269.269Z" transform="translate(-160.752 -269.111)" fill="#fafafa"/></g><g transform="translate(2.778 3.05)"><path d="M27.148,10.8a.425.425,0,0,0-.231.067l-2.151,1.358a.213.213,0,0,0-.1.179v1.89a.213.213,0,0,0,.1.179l2.151,1.358a.447.447,0,0,0,.231.067h.517a.212.212,0,0,0,.214-.211V11.011a.213.213,0,0,0-.214-.211Z" transform="translate(-14.487 -1.163)" fill="#fff"/><path d="M8.256,15.367H3.531A1.285,1.285,0,0,1,2.25,14.088v-3.81A1.283,1.283,0,0,1,3.528,9H8.254a1.283,1.283,0,0,1,1.278,1.278v3.808A1.279,1.279,0,0,1,8.256,15.367Z" fill="#fff"/></g><g transform="translate(34.848 13.968)"><path d="M188.4,261.814h.485v4.177h2.574v.42H188.4Z" transform="translate(-188.396 -261.538)" fill="#e0e0e0"/><path d="M191.382,264.558a1.757,1.757,0,1,1,1.76,1.761A1.7,1.7,0,0,1,191.382,264.558Zm3.04,0a1.285,1.285,0,1,0-1.281,1.347A1.259,1.259,0,0,0,194.422,264.558Z" transform="translate(-188.018 -261.413)" fill="#e0e0e0"/><path d="M197.963,264.144v2.141h-.446v-.538a1.3,1.3,0,0,1-1.188.571c-.782,0-1.261-.407-1.261-1,0-.533.341-.979,1.333-.979h1.1v-.21c0-.591-.335-.912-.978-.912a1.764,1.764,0,0,0-1.149.407l-.21-.348a2.19,2.19,0,0,1,1.4-.465A1.225,1.225,0,0,1,197.963,264.144Zm-.466,1.1v-.564h-1.083c-.67,0-.887.261-.887.617,0,.4.321.65.873.65A1.1,1.1,0,0,0,197.5,265.248Z" transform="translate(-187.552 -261.413)" fill="#e0e0e0"/><path d="M201.962,261.569v4.873h-.446v-.684a1.5,1.5,0,0,1-1.334.716,1.756,1.756,0,0,1,0-3.512,1.508,1.508,0,0,1,1.313.681v-2.075Zm-.46,3.145a1.285,1.285,0,1,0-1.281,1.347A1.263,1.263,0,0,0,201.5,264.714Z" transform="translate(-187.123 -261.569)" fill="#e0e0e0"/><path d="M202.626,261.9a.336.336,0,0,1,.341-.329.331.331,0,0,1,.341.322.341.341,0,0,1-.683.007Zm.1,1.089h.466v3.455h-.466Z" transform="translate(-186.597 -261.569)" fill="#e0e0e0"/><path d="M207.463,264.283v2H207v-1.958a.964.964,0,0,0-1.037-1.1,1.132,1.132,0,0,0-1.209,1.247v1.812h-.465v-3.455h.446v.638a1.453,1.453,0,0,1,1.313-.662A1.321,1.321,0,0,1,207.463,264.283Z" transform="translate(-186.387 -261.413)" fill="#e0e0e0"/><path d="M211.475,262.831v3.035a1.516,1.516,0,0,1-1.727,1.727,2.406,2.406,0,0,1-1.609-.533l.237-.355a2.05,2.05,0,0,0,1.358.474c.874,0,1.274-.4,1.274-1.255v-.439a1.554,1.554,0,0,1-1.345.669,1.675,1.675,0,1,1,0-3.348,1.559,1.559,0,0,1,1.365.688v-.663Zm-.453,1.642a1.311,1.311,0,1,0-1.313,1.267A1.235,1.235,0,0,0,211.022,264.473Z" transform="translate(-185.926 -261.413)" fill="#e0e0e0"/><path d="M213.49,265.644a.349.349,0,0,1,.348-.356.354.354,0,0,1,.355.356.359.359,0,0,1-.355.36A.353.353,0,0,1,213.49,265.644Z" transform="translate(-185.223 -261.099)" fill="#e0e0e0"/><path d="M214.724,265.644a.348.348,0,0,1,.347-.356.354.354,0,0,1,.355.356.358.358,0,0,1-.355.36A.353.353,0,0,1,214.724,265.644Z" transform="translate(-185.067 -261.099)" fill="#e0e0e0"/><path d="M215.958,265.644a.349.349,0,0,1,.348-.356.354.354,0,0,1,.355.356.359.359,0,0,1-.355.36A.353.353,0,0,1,215.958,265.644Z" transform="translate(-184.911 -261.099)" fill="#e0e0e0"/></g><g transform="translate(32.427 22.595)"><path d="M388.5,272.97H188.118a1.872,1.872,0,0,1-1.871-1.871h0a1.871,1.871,0,0,1,1.871-1.871H388.5a1.871,1.871,0,0,1,1.872,1.871h0A1.872,1.872,0,0,1,388.5,272.97Z" transform="translate(-186.247 -269.228)" fill="#e0e0e0"/></g><g transform="translate(32.427 22.595)"><path d="M232.559,272.97H188.118a1.872,1.872,0,0,1-1.871-1.871h0a1.871,1.871,0,0,1,1.871-1.871h44.441a1.871,1.871,0,0,1,1.871,1.871h0A1.872,1.872,0,0,1,232.559,272.97Z" transform="translate(-186.247 -269.228)" fill="#e8505b"/></g><g transform="translate(240.931 21.105)"><g transform="translate(0.133)"><path d="M377.324,267.913a29.351,29.351,0,0,1-5.852,5.852,29.358,29.358,0,0,1,5.852-5.852Z" transform="translate(-371.464 -267.905)" fill="#263238"/></g><path d="M377.206,273.765a29.277,29.277,0,0,1-5.852-5.852,29.433,29.433,0,0,1,5.852,5.852Z" transform="translate(-371.346 -267.905)" fill="#263238"/></g><g transform="translate(214.893 14.204)"><path d="M351.553,265.091c0,.768-.558,1.36-1.668,1.36a2.386,2.386,0,0,1-1.654-.591l.23-.375a2.007,2.007,0,0,0,1.424.533c.762,0,1.182-.355,1.182-.926,0-.552-.386-.912-1.24-.912H349.5v-.348l1.274-1.6h-2.351v-.421h2.955v.335l-1.3,1.636C351.06,263.836,351.553,264.355,351.553,265.091Z" transform="translate(-348.231 -261.775)" fill="#e0e0e0"/><path d="M354.9,266v.42h-3.224v-.335l1.912-1.873c.518-.511.617-.82.617-1.134,0-.533-.374-.861-1.078-.861a1.556,1.556,0,0,0-1.254.512l-.336-.289a2.071,2.071,0,0,1,1.63-.657c.932,0,1.522.473,1.522,1.241a1.888,1.888,0,0,1-.755,1.437L352.372,266Z" transform="translate(-347.813 -261.779)" fill="#e0e0e0"/><path d="M361.7,261.814v4.6h-.466v-3.677l-1.8,3.092h-.23l-1.807-3.074v3.659h-.466v-4.6h.4l2,3.409,1.977-3.409Z" transform="translate(-347.131 -261.775)" fill="#e0e0e0"/><path d="M366.331,265.183c0,.781-.578,1.228-1.728,1.228h-2.114v-4.6h1.984c1.024,0,1.615.434,1.615,1.182a1.066,1.066,0,0,1-.7,1.044A1.1,1.1,0,0,1,366.331,265.183Zm-3.356-2.968v1.667h1.464c.736,0,1.163-.283,1.163-.834s-.427-.834-1.163-.834Zm2.869,2.929c0-.6-.439-.861-1.247-.861h-1.622v1.727H364.6C365.405,266.01,365.845,265.747,365.845,265.144Z" transform="translate(-346.428 -261.775)" fill="#e0e0e0"/></g></g><g transform="translate(29.737 211.919)"><path d="M177.062,318.536H159.64a2.179,2.179,0,0,1-2.18-2.18V292.242a2.179,2.179,0,0,1,2.18-2.18h11.049l8.553,8.816v17.479A2.179,2.179,0,0,1,177.062,318.536Z" transform="translate(-157.46 -290.062)" fill="#e8505b"/><g transform="translate(13.229)"><path d="M169.2,290.062v6.787a2.028,2.028,0,0,0,2.028,2.028h6.525Z" transform="translate(-169.204 -290.062)" fill="#e8505b"/></g><g transform="translate(13.317 7.383)" opacity="0.2"><path d="M169.283,296.616a2.254,2.254,0,0,0,1.789,2.186,1.957,1.957,0,0,0,.214.048c.852.153,6.461,1.15,6.461,1.022v-1.824h-6.525S169.592,297.993,169.283,296.616Z" transform="translate(-169.282 -296.616)"/></g><g transform="translate(13.229)" opacity="0.3"><path d="M169.2,290.062v6.787a2.028,2.028,0,0,0,2.028,2.028h6.525Z" transform="translate(-169.204 -290.062)" fill="#fff"/></g><g transform="translate(3.708 6.352)"><path d="M168.812,295.859a25.946,25.946,0,0,1-4.029.158,25.944,25.944,0,0,1-4.03-.158,25.932,25.932,0,0,1,4.03-.158A25.934,25.934,0,0,1,168.812,295.859Z" transform="translate(-160.752 -295.701)" fill="#fafafa"/></g><g transform="translate(3.708 22.464)"><path d="M175.212,310.162c0,.087-3.237.158-7.23.158s-7.231-.071-7.231-.158,3.236-.158,7.231-.158S175.212,310.074,175.212,310.162Z" transform="translate(-160.752 -310.004)" fill="#fafafa"/></g><g transform="translate(2.778 2.987)"><path d="M27.148,10.8a.425.425,0,0,0-.231.067l-2.151,1.358a.213.213,0,0,0-.1.179v1.89a.213.213,0,0,0,.1.179l2.151,1.358a.447.447,0,0,0,.231.067h.517a.212.212,0,0,0,.214-.211V11.011a.213.213,0,0,0-.214-.211Z" transform="translate(-14.487 -1.163)" fill="#fff"/><path d="M8.256,15.367H3.531A1.285,1.285,0,0,1,2.25,14.088v-3.81A1.283,1.283,0,0,1,3.528,9H8.254a1.283,1.283,0,0,1,1.278,1.278v3.808A1.279,1.279,0,0,1,8.256,15.367Z" fill="#fff"/></g><g transform="translate(34.848 13.968)"><path d="M188.4,302.707h.485v4.176h2.574v.42H188.4Z" transform="translate(-188.396 -302.431)" fill="#e0e0e0"/><path d="M191.382,305.451a1.757,1.757,0,1,1,1.76,1.76A1.7,1.7,0,0,1,191.382,305.451Zm3.04,0a1.285,1.285,0,1,0-1.281,1.346A1.26,1.26,0,0,0,194.422,305.451Z" transform="translate(-188.018 -302.306)" fill="#e0e0e0"/><path d="M197.963,305.037v2.14h-.446v-.538a1.3,1.3,0,0,1-1.188.571c-.782,0-1.261-.407-1.261-1,0-.533.341-.979,1.333-.979h1.1v-.211c0-.59-.335-.912-.978-.912a1.758,1.758,0,0,0-1.149.408l-.21-.349a2.2,2.2,0,0,1,1.4-.465A1.226,1.226,0,0,1,197.963,305.037Zm-.466,1.1v-.564h-1.083c-.67,0-.887.262-.887.617,0,.4.321.65.873.65A1.1,1.1,0,0,0,197.5,306.14Z" transform="translate(-187.552 -302.306)" fill="#e0e0e0"/><path d="M201.962,302.462v4.872h-.446v-.683a1.5,1.5,0,0,1-1.334.715,1.757,1.757,0,0,1,0-3.512,1.506,1.506,0,0,1,1.313.683v-2.075Zm-.46,3.145a1.285,1.285,0,1,0-1.281,1.346A1.263,1.263,0,0,0,201.5,305.607Z" transform="translate(-187.123 -302.462)" fill="#e0e0e0"/><path d="M202.626,302.791a.336.336,0,0,1,.341-.329.331.331,0,0,1,.341.322.341.341,0,0,1-.683.007Zm.1,1.089h.466v3.454h-.466Z" transform="translate(-186.597 -302.462)" fill="#e0e0e0"/><path d="M207.463,305.176v2H207v-1.957a.964.964,0,0,0-1.037-1.1,1.133,1.133,0,0,0-1.209,1.248v1.811h-.465v-3.454h.446v.636a1.453,1.453,0,0,1,1.313-.662A1.322,1.322,0,0,1,207.463,305.176Z" transform="translate(-186.387 -302.306)" fill="#e0e0e0"/><path d="M211.475,303.724v3.033a1.515,1.515,0,0,1-1.727,1.727,2.411,2.411,0,0,1-1.609-.532l.237-.355a2.049,2.049,0,0,0,1.358.473c.874,0,1.274-.4,1.274-1.254v-.44a1.553,1.553,0,0,1-1.345.67,1.676,1.676,0,1,1,0-3.349,1.559,1.559,0,0,1,1.365.688v-.662Zm-.453,1.642a1.311,1.311,0,1,0-1.313,1.267A1.236,1.236,0,0,0,211.022,305.366Z" transform="translate(-185.926 -302.306)" fill="#e0e0e0"/><path d="M213.49,306.536a.348.348,0,0,1,.348-.355.353.353,0,0,1,.355.355.358.358,0,0,1-.355.36A.353.353,0,0,1,213.49,306.536Z" transform="translate(-185.223 -301.992)" fill="#e0e0e0"/><path d="M214.724,306.536a.348.348,0,0,1,.347-.355.353.353,0,0,1,.355.355.357.357,0,0,1-.355.36A.352.352,0,0,1,214.724,306.536Z" transform="translate(-185.067 -301.992)" fill="#e0e0e0"/><path d="M215.958,306.536a.348.348,0,0,1,.348-.355.353.353,0,0,1,.355.355.358.358,0,0,1-.355.36A.353.353,0,0,1,215.958,306.536Z" transform="translate(-184.911 -301.992)" fill="#e0e0e0"/></g><g transform="translate(32.427 22.594)"><path d="M388.5,313.863H188.118a1.872,1.872,0,0,1-1.871-1.872h0a1.872,1.872,0,0,1,1.871-1.871H388.5a1.872,1.872,0,0,1,1.872,1.871h0A1.872,1.872,0,0,1,388.5,313.863Z" transform="translate(-186.247 -310.12)" fill="#e0e0e0"/></g><g transform="translate(32.427 22.594)"><path d="M360.029,313.863H188.118a1.872,1.872,0,0,1-1.871-1.872h0a1.872,1.872,0,0,1,1.871-1.871H360.029a1.871,1.871,0,0,1,1.871,1.871h0A1.871,1.871,0,0,1,360.029,313.863Z" transform="translate(-186.247 -310.12)" fill="#e8505b"/></g><g transform="translate(240.931 21.105)"><g transform="translate(0.133)"><path d="M377.324,308.806a29.349,29.349,0,0,1-5.852,5.852,29.279,29.279,0,0,1,5.852-5.852Z" transform="translate(-371.464 -308.798)" fill="#263238"/></g><path d="M377.206,314.658a29.274,29.274,0,0,1-5.852-5.852,29.431,29.431,0,0,1,5.852,5.852Z" transform="translate(-371.346 -308.798)" fill="#263238"/></g><g transform="translate(214.893 14.244)"><path d="M349.787,302.707v4.6h-.472v-4.176h-1.084v-.42Z" transform="translate(-348.231 -302.707)" fill="#e0e0e0"/><path d="M353.724,305.95c0,.782-.546,1.392-1.669,1.392a2.38,2.38,0,0,1-1.648-.59l.231-.375a1.99,1.99,0,0,0,1.411.533c.782,0,1.2-.381,1.2-.939,0-.591-.367-.959-1.536-.959h-.978l.236-2.3h2.514v.42h-2.1l-.159,1.464h.592C353.2,304.592,353.724,305.136,353.724,305.95Z" transform="translate(-347.956 -302.707)" fill="#e0e0e0"/><path d="M360.539,302.707v4.6h-.466v-3.677l-1.8,3.093h-.231l-1.806-3.074V307.3h-.466v-4.6h.4l2,3.408,1.977-3.408Z" transform="translate(-347.278 -302.707)" fill="#e0e0e0"/><path d="M365.167,306.075c0,.782-.578,1.228-1.728,1.228h-2.114v-4.6h1.984c1.024,0,1.615.434,1.615,1.182a1.067,1.067,0,0,1-.7,1.044A1.1,1.1,0,0,1,365.167,306.075Zm-3.356-2.967v1.667h1.464c.736,0,1.162-.283,1.162-.834s-.427-.834-1.162-.834Zm2.869,2.928c0-.6-.439-.861-1.247-.861h-1.622V306.9h1.622C364.241,306.9,364.681,306.639,364.681,306.036Z" transform="translate(-346.575 -302.707)" fill="#e0e0e0"/></g></g><g transform="translate(0.086 42.977)"><path d="M438.433,140.378c0,.162-68.8.293-153.641.293-84.874,0-153.655-.131-153.655-.293s68.781-.294,153.655-.294C369.637,140.084,438.433,140.216,438.433,140.378Z" transform="translate(-131.137 -140.084)" fill="#263238"/></g></g><g transform="translate(34.636 335.847)"><g transform="translate(0.043 60.849)"><path d="M301.5,478.364H32.639s-3.163-63.262,52.719-67.48c0,0,9.267-53.495,71.7-53.772,74.86-.333,75.785,64.829,75.785,64.829s61.282-5.785,68.662,56.422" transform="translate(-32.606 -357.111)" fill="#f5f5f5"/></g><g transform="translate(0 60.592)"><path d="M301.507,478.393s-.036-.152-.088-.453L301.2,476.6q-.144-.9-.35-2.2c-.128-.875-.287-1.888-.565-3.017q-.378-1.7-.843-3.789-.6-2.055-1.312-4.476c-.528-1.6-1.192-3.28-1.869-5.084l-1.241-2.711-.656-1.413-.773-1.4c-.542-.936-1.017-1.946-1.653-2.893l-1.917-2.929q-1.091-1.423-2.233-2.911c-.785-.971-1.672-1.894-2.529-2.875a53.614,53.614,0,0,0-13.312-10.256,66.038,66.038,0,0,0-17.931-6.675,79.274,79.274,0,0,0-10.274-1.579,69.113,69.113,0,0,0-10.872-.166l-.266.019-.01-.267a64.48,64.48,0,0,0-1.561-11.221,75.782,75.782,0,0,0-3.453-11.306,65.161,65.161,0,0,0-13.163-21,61.945,61.945,0,0,0-9.894-8.442c-.9-.635-1.864-1.176-2.8-1.771l-1.416-.874-1.478-.774c-.992-.506-1.965-1.061-2.982-1.531l-3.091-1.347c-1.021-.484-2.1-.818-3.168-1.206-1.075-.362-2.128-.8-3.226-1.1-2.2-.582-4.382-1.312-6.653-1.712l-3.389-.706-3.442-.5c-2.295-.385-4.626-.542-6.964-.728a124.112,124.112,0,0,0-14.493-.148l-3.569.309-1.778.156-1.761.251-3.507.517-3.45.714a72.458,72.458,0,0,0-13.2,4.23,67.642,67.642,0,0,0-11.779,6.581A65.491,65.491,0,0,0,94.766,389a71.378,71.378,0,0,0-5.627,10.83,60.87,60.87,0,0,0-3.531,11.126l-.039.191-.187.015a59.466,59.466,0,0,0-19.85,4.8,47.253,47.253,0,0,0-15.065,10.5,55.707,55.707,0,0,0-9.334,13.23,70.4,70.4,0,0,0-5.006,12.838,92.378,92.378,0,0,0-3.27,19.026c-.15,2.225-.2,3.935-.205,5.086s-.008,1.747-.008,1.747-.054-.594-.07-1.747,0-2.866.132-5.1a90.286,90.286,0,0,1,3.143-19.094,70.3,70.3,0,0,1,4.971-12.918,55.952,55.952,0,0,1,9.354-13.353,47.616,47.616,0,0,1,15.172-10.636,59.868,59.868,0,0,1,20-4.883l-.226.205a61.334,61.334,0,0,1,3.544-11.24,71.932,71.932,0,0,1,5.653-10.916,65.973,65.973,0,0,1,17.744-18.807,68.132,68.132,0,0,1,11.877-6.647,72.919,72.919,0,0,1,13.3-4.27l3.475-.72,3.529-.523,1.773-.253,1.788-.157,3.59-.311a124.18,124.18,0,0,1,14.569.146c2.351.186,4.694.344,7,.732l3.464.5q1.708.358,3.411.712c2.287.4,4.482,1.139,6.7,1.727,1.106.307,2.168.747,3.25,1.112,1.073.392,2.165.729,3.193,1.217l3.117,1.361c1.025.473,2.006,1.034,3.006,1.546l1.491.782,1.428.882c.942.6,1.916,1.148,2.822,1.789a62.422,62.422,0,0,1,9.981,8.529,65.614,65.614,0,0,1,13.253,21.186,76,76,0,0,1,3.462,11.39,64.893,64.893,0,0,1,1.556,11.328l-.276-.248a69.339,69.339,0,0,1,10.963.186,79.317,79.317,0,0,1,10.332,1.611,66.313,66.313,0,0,1,18.031,6.764,53.843,53.843,0,0,1,13.371,10.373c.861.99,1.748,1.923,2.535,2.9l2.234,2.938q.982,1.512,1.916,2.955c.634.954,1.107,1.971,1.647,2.915l.769,1.413q.331.721.651,1.423.635,1.406,1.232,2.729c.669,1.815,1.324,3.51,1.843,5.114q.693,2.433,1.282,4.5.444,2.1.809,3.806a30.523,30.523,0,0,1,.529,3.029q.184,1.31.312,2.21c.08.585.14,1.031.182,1.347S301.507,478.393,301.507,478.393Z" transform="translate(-32.568 -356.882)" fill="#263238"/></g><g transform="translate(70.923)"><path d="M145.825,303.093h0v0L95.53,348.662H125.9V413.15h39.85V348.662h30.369Z" transform="translate(-95.53 -303.092)" fill="#e8505b"/><g transform="translate(5.276 86.427)"><path d="M109.548,381.431c17.669-4.448,29.158.542,37.317,11.976,7-12.034,23.126-15.338,36.043-10.15l8.127,30.776-49.473,6.476-41.347-7.587Z" transform="translate(-100.214 -379.817)" fill="#f5f5f5"/></g><g transform="translate(16.536 86.111)"><path d="M177.726,382.309c-.023.061-.977-.335-2.763-.82a24.2,24.2,0,0,0-7.788-.692,26.133,26.133,0,0,0-11.11,3.294,24.278,24.278,0,0,0-9.927,10.076l-.239.465-.28-.456c-.328-.535-.68-1.108-1.035-1.686a26.638,26.638,0,0,0-5.184-5.783,29.115,29.115,0,0,0-6.129-3.88,29.7,29.7,0,0,0-11.9-2.875,27.627,27.627,0,0,0-8.238.985c-1.883.57-2.9.992-2.922.934a4.055,4.055,0,0,1,.721-.337,20.776,20.776,0,0,1,2.136-.816,26.313,26.313,0,0,1,8.313-1.18,29.565,29.565,0,0,1,12.119,2.8,29.221,29.221,0,0,1,6.265,3.926,26.906,26.906,0,0,1,5.309,5.9l1.059,1.727-.519.009a24.574,24.574,0,0,1,10.2-10.279,28.16,28.16,0,0,1,5.891-2.378,27.577,27.577,0,0,1,5.45-.854,23.173,23.173,0,0,1,7.872.881,16.621,16.621,0,0,1,2.024.727A3.642,3.642,0,0,1,177.726,382.309Z" transform="translate(-110.21 -379.536)" fill="#263238"/></g></g></g><g transform="translate(215.845 286.467)"><g transform="translate(30.759)"><g transform="translate(4.943)"><path d="M226.323,296.162c-2.32-7.445-1.353-19.943,3.776-26.1s14.012-9.725,21.965-10.7a6.639,6.639,0,0,1,3.932.4,2.649,2.649,0,0,1,1.33,3.357,16.807,16.807,0,0,1,5.188-1.939,5.688,5.688,0,0,1,5.089,1.61c1.209,1.407,1.2,3.86-.314,4.936a6,6,0,0,1,6.832,8.647,19.077,19.077,0,0,1-4.882,5.425c-1.771,1.352-2.181,2.884-2.11,5.11" transform="translate(-225.131 -259.255)" fill="#263238"/></g><g transform="translate(0 3.356)"><g transform="translate(3.046 1.534)"><path d="M229.593,282.617l-6.022,43.765a13.141,13.141,0,0,0,11.873,14.881h0a13.147,13.147,0,0,0,14.167-11.32c.451-3.295.832-6.042.9-6.377,0,0,11.286.484,13.607-10.432,1.122-5.275,2.548-16.329,3.723-26.343A20.787,20.787,0,0,0,251.26,264l-1.057-.212C238.686,262.176,230.884,271.059,229.593,282.617Z" transform="translate(-223.447 -263.596)" fill="#ffbe9d"/><g transform="translate(13.659 52.911)"><path d="M249.029,317.473a25.956,25.956,0,0,1-13.457-6.905s1.8,8.549,12.915,9.745Z" transform="translate(-235.572 -310.568)" fill="#eb996e"/></g><g transform="translate(18.215 16.558)"><g transform="translate(0 6.211)"><g transform="translate(16.594 2.989)"><g transform="translate(1.763 2.38)"><path d="M259.083,290.325a1.594,1.594,0,0,1-1.821,1.276,1.525,1.525,0,0,1-1.329-1.731,1.6,1.6,0,0,1,1.82-1.277A1.525,1.525,0,0,1,259.083,290.325Z" transform="translate(-255.913 -288.576)" fill="#263238"/></g><path d="M260.51,288.8c-.234.164-1.244-.948-2.926-1.28-1.675-.355-3.082.264-3.224.021-.071-.109.2-.438.816-.722a4.37,4.37,0,0,1,2.631-.268,4.2,4.2,0,0,1,2.278,1.272C260.522,288.325,260.623,288.729,260.51,288.8Z" transform="translate(-254.348 -286.463)" fill="#263238"/></g><g transform="translate(1.749 2.646)"><path d="M244.34,287.907a1.593,1.593,0,0,1-1.821,1.275,1.522,1.522,0,0,1-1.329-1.73,1.594,1.594,0,0,1,1.82-1.277A1.524,1.524,0,0,1,244.34,287.907Z" transform="translate(-241.17 -286.158)" fill="#263238"/></g><path d="M245.78,286.147c-.235.166-1.246-.947-2.926-1.28-1.676-.355-3.083.264-3.225.021-.071-.109.2-.438.816-.721a4.371,4.371,0,0,1,2.631-.269,4.2,4.2,0,0,1,2.279,1.273C245.79,285.671,245.892,286.075,245.78,286.147Z" transform="translate(-239.617 -283.809)" fill="#263238"/><g transform="translate(9.774 1.864)"><path d="M248.294,299.629a11.38,11.38,0,0,1,2.83.053c.438.042.862.037.992-.241a2.23,2.23,0,0,0-.033-1.33q-.294-1.68-.616-3.524c-.834-5.008-1.345-9.09-1.143-9.123s1.042,4,1.874,9.009c.195,1.233.383,2.408.56,3.532a2.546,2.546,0,0,1-.114,1.73,1.1,1.1,0,0,1-.832.487,2.978,2.978,0,0,1-.749-.044A11.123,11.123,0,0,1,248.294,299.629Z" transform="translate(-248.294 -285.464)" fill="#263238"/></g><g transform="translate(4.073 16.202)"><path d="M243.752,298.194c.276.038-.084,1.864,1.219,3.473s3.287,1.8,3.25,2.053c0,.119-.5.267-1.33.126a4.638,4.638,0,0,1-2.733-1.611,4.038,4.038,0,0,1-.906-2.888C243.335,298.571,243.63,298.158,243.752,298.194Z" transform="translate(-243.233 -298.192)" fill="#263238"/></g></g><g transform="translate(0.086)"><path d="M247.521,280.342c-.257.424-1.892-.128-3.913-.285-2.017-.2-3.724.063-3.9-.4-.078-.22.285-.594,1.017-.908a6.822,6.822,0,0,1,5.956.52C247.343,279.706,247.635,280.139,247.521,280.342Z" transform="translate(-239.694 -278.295)" fill="#263238"/></g><g transform="translate(17.439 4.136)"><path d="M260.768,284.379c-.372.323-1.451-.305-2.84-.6-1.379-.346-2.625-.258-2.816-.712-.08-.217.181-.563.769-.821a4.2,4.2,0,0,1,4.558,1.059C260.854,283.793,260.936,284.219,260.768,284.379Z" transform="translate(-255.098 -281.967)" fill="#263238"/></g></g></g><g transform="translate(0 27.87)"><path d="M229.209,287.943c-.17-.118-7.074-3.726-8.33,3.8s6.562,7.236,6.611,7.023S229.209,287.943,229.209,287.943Z" transform="translate(-220.743 -286.976)" fill="#ffbe9d"/><g transform="translate(1.969 2.345)"><path d="M225.446,295.269c-.029-.029-.146.07-.385.134a1.328,1.328,0,0,1-.984-.143c-.746-.425-1.205-1.8-1.016-3.162a4.412,4.412,0,0,1,.68-1.817,1.538,1.538,0,0,1,1.155-.843.677.677,0,0,1,.714.489c.066.228-.007.369.032.39.018.021.182-.1.173-.42a.856.856,0,0,0-.217-.522,1.01,1.01,0,0,0-.694-.313,1.87,1.87,0,0,0-1.565.939,4.5,4.5,0,0,0-.8,2.023c-.205,1.525.335,3.074,1.371,3.57a1.424,1.424,0,0,0,1.232,0C225.4,295.448,225.469,295.287,225.446,295.269Z" transform="translate(-222.491 -289.058)" fill="#eb996e"/></g></g><g transform="translate(7.596)"><path d="M274.514,273.56c-.757,9.909-13.461,11.967-17.822,5.625-2.016-2.932-3.616-6.443-6.747-8.137a9.062,9.062,0,0,0-6.983-.428l-.069.023c-3.37,1.092-5.8,4.376-6.866,7.757-1.479,4.714-1.42,9.1-3.415,13.32a3.034,3.034,0,0,1-1.217,1.552c-1.021.5-2.239-.293-2.85-1.254a9.425,9.425,0,0,1-1.054-5.284,31.4,31.4,0,0,1,2.5-12.121,21.368,21.368,0,0,1,7.872-9.425,20.243,20.243,0,0,1,14.974-2.48,24.857,24.857,0,0,1,13.128,7.881,14.548,14.548,0,0,1,3.537,6.21" transform="translate(-227.486 -262.235)" fill="#263238"/></g></g><g transform="translate(37.156 7.968)"><path d="M264.124,266.339a2.217,2.217,0,0,1,1.034.219,5.236,5.236,0,0,1,2.256,1.8,6.484,6.484,0,0,1,1.232,4.1,7.329,7.329,0,0,1-2.271,4.719,9.607,9.607,0,0,1-4.607,2.494,13,13,0,0,1-4.259.223,16.047,16.047,0,0,1-2.8-.559,3.2,3.2,0,0,1-.978-.377c.025-.106,1.453.353,3.816.523a13.572,13.572,0,0,0,4.1-.336,9.335,9.335,0,0,0,4.321-2.386,6.935,6.935,0,0,0,2.144-4.335,6.236,6.236,0,0,0-1.033-3.833,5.473,5.473,0,0,0-2.011-1.832A10.1,10.1,0,0,1,264.124,266.339Z" transform="translate(-253.728 -266.329)" fill="#455a64"/></g><g transform="translate(32.46 3.672)"><path d="M260.191,262.529c0-.029.291-.037.7.248a2.41,2.41,0,0,1,.9,1.8,4.448,4.448,0,0,1-1.058,2.786,12.757,12.757,0,0,1-2.544,2.534,13.211,13.211,0,0,1-5.957,2.51,6.264,6.264,0,0,1-2.676.006c0-.106,1.023-.066,2.6-.415a14.487,14.487,0,0,0,5.677-2.569,13.553,13.553,0,0,0,2.467-2.394,4.218,4.218,0,0,0,1.071-2.448,2.318,2.318,0,0,0-.636-1.64C260.429,262.649,260.176,262.576,260.191,262.529Z" transform="translate(-249.559 -262.515)" fill="#455a64"/></g></g><g transform="translate(0 60.745)"><g transform="translate(0 5.817)"><g transform="translate(7.888)"><path d="M317.218,393.424a17.282,17.282,0,0,1-25.761-.022l-19.914-22.3-.237,31.771,7.026,20.377-69.825,12.112-2.961-55.094-5.026-42.313a11.49,11.49,0,0,1,7.2-12.045l19.216-7.566L254,323.31l10.887,4.139A29.839,29.839,0,0,1,276.75,335.7l30.537,34.92" transform="translate(-200.438 -318.346)" fill="#e8505b"/><g transform="translate(70.951 34.019)"><path d="M263.983,397.7c.163,0,.206-11.008.095-24.58s-.333-24.579-.5-24.578-.205,11.005-.093,24.582S263.82,397.705,263.983,397.7Z" transform="translate(-263.425 -348.546)" fill="#263238"/></g></g><g transform="translate(0 7.566)"><path d="M270.275,408.749l-42.191-16.984a9.641,9.641,0,0,1-6.013-8.21L218.984,343.1s.365-17.2-10.38-18.041l-6.113,2.408c-7.9,4.195-9.858,15.7-8.783,24.579,1.529,12.62,2.165,30.478,3.875,41.431,1.4,8.96,6.531,16.84,15.3,19.148l51.965,11.25Z" transform="translate(-193.436 -325.063)" fill="#e8505b"/></g><g transform="translate(26.142 31.778)"><path d="M216.654,346.557a5.749,5.749,0,0,1,.133.927q.1.988.271,2.665c.215,2.37.519,5.708.892,9.809.357,4.16.781,9.088,1.25,14.555q.172,2.055.354,4.207a31.727,31.727,0,0,0,.538,4.328,7.193,7.193,0,0,0,2.1,3.79,14.268,14.268,0,0,0,3.893,2.423c11.634,5.034,22.357,9.191,30.139,12.106l9.24,3.4,2.513.926a5.9,5.9,0,0,1,.864.358,5.915,5.915,0,0,1-.9-.25q-.945-.308-2.548-.827c-2.208-.732-5.391-1.828-9.306-3.237-7.829-2.823-18.568-6.917-30.236-11.967a14.711,14.711,0,0,1-4.045-2.528,7.744,7.744,0,0,1-2.25-4.073,31.828,31.828,0,0,1-.537-4.405q-.171-2.153-.335-4.21c-.425-5.472-.808-10.4-1.13-14.567-.3-4.108-.542-7.451-.714-9.825q-.1-1.683-.166-2.674A5.814,5.814,0,0,1,216.654,346.557Z" transform="translate(-216.644 -346.557)" fill="#263238"/></g><g transform="translate(1.95 53.769)"><path d="M195.2,366.079a2.11,2.11,0,0,1,.083.543c.038.421.084.937.14,1.561.126,1.442.3,3.382.5,5.74.231,2.421.525,5.3.945,8.487a81.141,81.141,0,0,0,1.906,10.247,15.261,15.261,0,0,0,2.059,4.884,28,28,0,0,0,3.151,3.873,26.976,26.976,0,0,0,6.752,5.066,25.3,25.3,0,0,0,7.411,2.425,1.966,1.966,0,0,1-.55-.012,11.574,11.574,0,0,1-1.56-.2,20.65,20.65,0,0,1-5.482-1.856,26.449,26.449,0,0,1-6.94-5.057,27.835,27.835,0,0,1-3.24-3.928,15.651,15.651,0,0,1-2.145-5.044,76.5,76.5,0,0,1-1.878-10.331c-.393-3.2-.647-6.091-.827-8.519s-.271-4.4-.322-5.761l-.034-1.569A1.99,1.99,0,0,1,195.2,366.079Z" transform="translate(-195.167 -366.079)" fill="#263238"/></g><g transform="translate(20.011 72.086)"><path d="M211.211,392.328a6.189,6.189,0,0,1,.768-2.248,14.524,14.524,0,0,1,8.56-7.311,6.233,6.233,0,0,1,2.341-.407c.018.095-.868.27-2.209.784a16.414,16.414,0,0,0-8.34,7.123C211.614,391.513,211.3,392.361,211.211,392.328Z" transform="translate(-211.201 -382.341)" fill="#263238"/></g><g transform="translate(27.528 43.805)" opacity="0.3"><path d="M255.06,399.86c-4.511-2.548-8.925-4.507-13.642-6.651s-9.338-4.9-12.425-9.057c-5.823-7.848-5.16-19.174-11.119-26.919q.583,7.811,1.167,15.623c.357,4.773-.375,9.493,2.7,12.736,2.589,2.733,7.64,4.828,11.214,6.007,7.184,2.37,14.921,5.89,22.105,8.26" transform="translate(-217.874 -357.234)"/></g></g><g transform="translate(32.729)"><path d="M222.491,320.918l2.063-7.736,26.217,6.164a2.632,2.632,0,0,1,1.923,3.3l-2.011,6.83-9.462,12.142-10.736-1.916-7.993-6.136Z" transform="translate(-222.491 -313.182)" fill="#e8505b"/><g transform="translate(5.961 5.769)"><path d="M250.592,323.781a2.968,2.968,0,0,1-.925.214,21.082,21.082,0,0,1-2.571.25,30.907,30.907,0,0,1-16.409-3.935,21.354,21.354,0,0,1-2.177-1.389c-.491-.363-.75-.578-.727-.612.055-.081,1.177.657,3.1,1.635a35.583,35.583,0,0,0,16.2,3.886C249.244,323.832,250.58,323.682,250.592,323.781Z" transform="translate(-227.783 -318.304)" fill="#263238"/></g></g><g transform="translate(2.322 1.956)"><g transform="translate(38.715)"><path d="M230.809,320.721c-.053.043-.367-.213-.635-.8a4.02,4.02,0,0,1,1.066-4.559c.5-.4.893-.492.921-.431.044.082-.261.3-.632.729a4.621,4.621,0,0,0-.964,4.123C230.706,320.338,230.884,320.667,230.809,320.721Z" transform="translate(-229.867 -314.919)" fill="#f5f5f5"/></g><g transform="translate(50.1 2.216)"><path d="M240.8,324.308a10.152,10.152,0,0,0-.813-7.418c.056-.045.4.252.791.873a6.674,6.674,0,0,1,.606,5.521C241.14,323.975,240.865,324.34,240.8,324.308Z" transform="translate(-239.974 -316.886)" fill="#f5f5f5"/></g><g transform="translate(45.918 8.622)"><path d="M242.184,399.813a4,4,0,0,1,.037-.792c.029-.517.15-1.271.187-2.252a61.294,61.294,0,0,0-.016-8.3,114.893,114.893,0,0,0-1.56-12.219c-.79-4.576-1.819-9.583-2.652-14.893a160.094,160.094,0,0,1-1.89-27.422c.068-3.52.231-6.364.389-8.326.071-.981.157-1.74.208-2.256a3.99,3.99,0,0,1,.116-.783,4.019,4.019,0,0,1,0,.792c-.025.576-.057,1.327-.1,2.261-.088,1.963-.188,4.805-.2,8.316a174.008,174.008,0,0,0,2.055,27.328c.83,5.29,1.843,10.3,2.605,14.893a107.1,107.1,0,0,1,1.442,12.285,54.026,54.026,0,0,1-.171,8.341c-.072.982-.23,1.735-.3,2.248A4.038,4.038,0,0,1,242.184,399.813Z" transform="translate(-236.261 -322.573)" fill="#f5f5f5"/></g><g transform="translate(64.165 10.82)"><path d="M253.037,324.524c.01,0,.037.065.079.2a6.227,6.227,0,0,1,.162.608,14.291,14.291,0,0,1,.313,2.4c.126,2.108-.161,5.128-.328,8.857-.186,3.73-.374,8.177-.234,13.105a75.752,75.752,0,0,0,2.024,15.863c1.308,5.533,2.826,10.792,3.389,15.739a77.314,77.314,0,0,1,.436,13.15c-.186,3.742-.526,6.754-.8,8.828-.137,1.037-.253,1.841-.346,2.384a4.5,4.5,0,0,1-.166.826,4.558,4.558,0,0,1,.048-.84c.06-.6.139-1.4.237-2.395.2-2.078.477-5.09.609-8.819a80.63,80.63,0,0,0-.558-13.063c-.586-4.894-2.11-10.114-3.424-15.676a74.15,74.15,0,0,1-1.993-15.981c-.112-4.956.121-9.413.359-13.143.222-3.734.57-6.746.514-8.825a17.476,17.476,0,0,0-.2-2.385A6.867,6.867,0,0,1,253.037,324.524Z" transform="translate(-252.46 -324.524)" fill="#f5f5f5"/></g><g transform="translate(77.322 42.308)"><path d="M275.594,366.056a9.994,9.994,0,0,1-2.05-1.632,49.9,49.9,0,0,1-8.135-9.647,9.962,9.962,0,0,1-1.262-2.3c.15-.095,2.3,3.261,5.472,7C272.769,363.233,275.713,365.924,275.594,366.056Z" transform="translate(-264.141 -352.477)" fill="#f5f5f5"/></g><g transform="translate(76.356 17.638)"><path d="M290.134,365.4a9.8,9.8,0,0,1-1.229-1.222c-.764-.812-1.844-2.008-3.157-3.507-2.628-3-6.159-7.222-9.873-12.037s-6.9-9.309-9.131-12.613c-1.115-1.65-2-3-2.589-3.945a9.807,9.807,0,0,1-.87-1.5,9.754,9.754,0,0,1,1.059,1.371l2.74,3.836c2.313,3.238,5.549,7.682,9.255,12.491s7.181,9.066,9.725,12.126l3.014,3.625A9.8,9.8,0,0,1,290.134,365.4Z" transform="translate(-263.283 -330.576)" fill="#f5f5f5"/></g><g transform="translate(29.396 4.34)"><path d="M224.023,392.8a3.411,3.411,0,0,1-.439-.629,12.531,12.531,0,0,1-.943-1.984,19.515,19.515,0,0,1-1-7.983c.161-3.421,1.146-7.378,1.7-11.8a79.251,79.251,0,0,0,.158-14.52c-.332-5.159-.843-10.07-1.027-14.565a71.778,71.778,0,0,1,.347-11.939,40.337,40.337,0,0,1,1.713-7.869c.3-.9.564-1.593.771-2.05a3.667,3.667,0,0,1,.324-.692c.061.024-.35.992-.876,2.809a44.377,44.377,0,0,0-1.521,7.849,75.393,75.393,0,0,0-.219,11.866c.214,4.472.739,9.378,1.074,14.554a77,77,0,0,1-.207,14.622c-.59,4.473-1.611,8.391-1.821,11.763a20.14,20.14,0,0,0,.8,7.878A23.721,23.721,0,0,0,224.023,392.8Z" transform="translate(-221.594 -318.772)" fill="#f5f5f5"/></g><g transform="translate(10.7 8.461)"><path d="M213.739,396.189a9.452,9.452,0,0,1-2.765-1.6,15.847,15.847,0,0,1-4.809-7.209,21.822,21.822,0,0,1-1.126-5.935,37.3,37.3,0,0,1,.348-6.914c.641-4.832,1.931-10.013,2.351-15.58a83.139,83.139,0,0,0-.137-15.7c-.24-2.408-.483-4.714-.484-6.889a19.991,19.991,0,0,1,.782-5.993,12.15,12.15,0,0,1,5.126-6.924,8.426,8.426,0,0,1,2.206-.892,4.284,4.284,0,0,1,.82-.114,10.663,10.663,0,0,0-2.907,1.2,12.132,12.132,0,0,0-4.848,6.849,19.909,19.909,0,0,0-.693,5.869c.023,2.141.282,4.426.536,6.839A81.02,81.02,0,0,1,208.322,359c-.425,5.613-1.739,10.826-2.4,15.6a37.631,37.631,0,0,0-.4,6.818,21.768,21.768,0,0,0,1.034,5.827,16.039,16.039,0,0,0,4.562,7.165A20.964,20.964,0,0,0,213.739,396.189Z" transform="translate(-204.997 -322.43)" fill="#f5f5f5"/></g><g transform="translate(19.801 82.024)"><path d="M261.043,404.937a12.943,12.943,0,0,1-1.863-.75l-5.014-2.181c-4.239-1.824-10.14-4.235-16.766-6.613s-12.721-4.26-17.152-5.545l-5.256-1.5a13.2,13.2,0,0,1-1.916-.6,13.14,13.14,0,0,1,1.972.383c1.262.279,3.077.729,5.311,1.322,4.467,1.185,10.593,3.013,17.239,5.392s12.533,4.864,16.736,6.787c2.1.961,3.791,1.767,4.943,2.353A13.357,13.357,0,0,1,261.043,404.937Z" transform="translate(-213.076 -387.735)" fill="#f5f5f5"/></g><g transform="translate(0 19.486)"><path d="M208.8,409.66c0,.009-.069-.02-.19-.086s-.306-.161-.529-.313a13.787,13.787,0,0,1-1.819-1.5,22.06,22.06,0,0,1-4.879-7.145,9.348,9.348,0,0,1-.634-2.834q-.166-1.485-.344-3.084c-.233-2.135-.483-4.411-.745-6.8a147.963,147.963,0,0,0-2.44-15.459,85.277,85.277,0,0,1-1.687-15.628c-.116-4.832.082-9.182.305-12.823s.489-6.583.682-8.614c.1-.969.179-1.745.24-2.337a4.344,4.344,0,0,1,.124-.811,4.383,4.383,0,0,1-.006.821c-.034.594-.077,1.373-.131,2.345-.122,2.035-.319,4.979-.495,8.618s-.324,7.978-.179,12.787a87.48,87.48,0,0,0,1.721,15.521,140.689,140.689,0,0,1,2.4,15.52c.243,2.4.474,4.676.692,6.813q.159,1.6.309,3.086a9.015,9.015,0,0,0,.572,2.737,22.834,22.834,0,0,0,4.653,7.129,16.723,16.723,0,0,0,1.726,1.568A5.648,5.648,0,0,1,208.8,409.66Z" transform="translate(-195.498 -332.217)" fill="#f5f5f5"/></g></g></g><g transform="translate(129.892 210.56)"><g transform="translate(0 1.886)"><path d="M316.882,447.854s35.3,9.77,36.718,10.269c2.127.749,1.77,8.54-1.54,8.419-1.566-.057-27.116.952-30.344.749s-12.968-4.039-12.968-4.039Z" transform="translate(-308.748 -447.854)" fill="#e8505b"/></g><g transform="translate(22.769 8.304)"><path d="M329.032,460.6a32.991,32.991,0,0,1,1.556-3.791c1.112-1.964,2.607-3.108,2.5-3.25a7.841,7.841,0,0,0-4.052,7.04Z" transform="translate(-328.961 -453.551)" fill="#263238"/></g><g transform="translate(19.103 6.941)"><path d="M325.762,459.087c.173.03.531-1.639,1.471-3.483.921-1.854,2.049-3.135,1.922-3.255a8.853,8.853,0,0,0-3.393,6.738Z" transform="translate(-325.707 -452.341)" fill="#263238"/></g><g transform="translate(15.473 5.72)"><path d="M322.717,458.3a12.393,12.393,0,0,1,2.749-7.031,6.631,6.631,0,0,0-2.749,7.031Z" transform="translate(-322.484 -451.257)" fill="#263238"/></g><g transform="translate(13.533)"><path d="M323.562,454.382a6.265,6.265,0,0,0,.379-2.627,12.376,12.376,0,0,0-.358-2.878,12.019,12.019,0,0,0-.525-1.639,1.966,1.966,0,0,0-.565-.865.942.942,0,0,0-1.212.06,1.56,1.56,0,0,0-.471,1,6.968,6.968,0,0,0-.046.933,7.842,7.842,0,0,0,.219,1.729,10.486,10.486,0,0,0,1.086,2.7,7.141,7.141,0,0,0,1.586,2.126c.081-.056-.51-.879-1.215-2.318a11.65,11.65,0,0,1-.926-2.625,7.857,7.857,0,0,1-.17-1.613c.016-.543.008-1.221.326-1.481a.342.342,0,0,1,.466-.039,1.486,1.486,0,0,1,.387.617,13.033,13.033,0,0,1,.535,1.558,14.231,14.231,0,0,1,.466,2.756C323.627,453.369,323.465,454.368,323.562,454.382Z" transform="translate(-320.762 -446.179)" fill="#263238"/></g><g transform="translate(9.226 7.476)"><path d="M324,453.183a4.943,4.943,0,0,0-2.277-.367,10.24,10.24,0,0,0-2.5.307,5.5,5.5,0,0,0-1.443.531,1.491,1.491,0,0,0-.8,1.614,1.759,1.759,0,0,0,1.272,1.259,3.228,3.228,0,0,0,1.584,0,6.09,6.09,0,0,0,2.293-1.129,6.207,6.207,0,0,0,1.641-1.615,15.557,15.557,0,0,0-1.881,1.273,6.235,6.235,0,0,1-2.165.938,2.792,2.792,0,0,1-1.309-.019,1.193,1.193,0,0,1-.859-.839.909.909,0,0,1,.524-.985,5.354,5.354,0,0,1,1.281-.5,11.789,11.789,0,0,1,2.379-.416C323.12,453.137,323.986,453.279,324,453.183Z" transform="translate(-316.938 -452.816)" fill="#263238"/></g><g transform="translate(27.989 9.771)"><path d="M333.87,460.816a9.539,9.539,0,0,1,2.424-5.948,4.092,4.092,0,0,0-2.275,2.541C333.257,459.248,333.728,460.88,333.87,460.816Z" transform="translate(-333.595 -454.853)" fill="#263238"/></g><g transform="translate(3.631 17.354)"><path d="M311.972,461.6a7.394,7.394,0,0,0,1.365.642,30.336,30.336,0,0,0,3.929,1.218,56.031,56.031,0,0,0,13.477,1.277c5.291-.059,10.058-.3,13.515-.437l4.091-.217a7.374,7.374,0,0,0,1.5-.16,7.441,7.441,0,0,0-1.5-.07l-4.1.029-13.5.265a63.1,63.1,0,0,1-13.383-1.095C313.983,462.354,312.013,461.486,311.972,461.6Z" transform="translate(-311.972 -461.586)" fill="#263238"/></g><g transform="translate(2.586 15.167)"><path d="M311.045,462.645c.048.082,1.014-.483,2.645-1.2a12.291,12.291,0,0,1,6.68-1.111,10.576,10.576,0,0,1,5.774,3.435,20.873,20.873,0,0,0,2.034,2.078,10.89,10.89,0,0,0-1.727-2.362,14.058,14.058,0,0,0-2.341-2.189,8.378,8.378,0,0,0-3.647-1.546,11.676,11.676,0,0,0-6.949,1.315A9.392,9.392,0,0,0,311.045,462.645Z" transform="translate(-311.044 -459.644)" fill="#263238"/></g></g><g transform="translate(65.282 202.699)"><path d="M286.662,439.2s-33.4,21.872-34.6,22.778c-1.8,1.358.265,7.831,3.382,6.711,1.473-.531,29.5-8.329,32.519-9.5s11.129-7.787,11.129-7.787Z" transform="translate(-251.39 -439.201)" fill="#e8505b"/><g transform="translate(19.353 11.795)"><path d="M274.569,455.177a7.848,7.848,0,0,0-6-5.477c-.063.169,1.709.8,3.365,2.339A33.173,33.173,0,0,1,274.569,455.177Z" transform="translate(-268.571 -449.672)" fill="#263238"/></g><g transform="translate(23.069 9.185)"><path d="M277.153,452.762a8.852,8.852,0,0,0-5.28-5.389c-.084.153,1.38,1.031,2.821,2.518C276.149,451.362,277,452.843,277.153,452.762Z" transform="translate(-271.87 -447.355)" fill="#263238"/></g><g transform="translate(26.605 6.776)"><path d="M279.765,451.1a6.629,6.629,0,0,0-4.754-5.863,12.385,12.385,0,0,1,4.754,5.863Z" transform="translate(-275.008 -445.216)" fill="#263238"/></g><g transform="translate(27.658 0.151)"><path d="M277.664,447.693c.088-.043-.368-.946-.756-2.5a14.159,14.159,0,0,1-.392-2.768,12.935,12.935,0,0,1,.036-1.647,1.484,1.484,0,0,1,.181-.705.344.344,0,0,1,.457-.1c.381.152.579.8.759,1.313a7.731,7.731,0,0,1,.328,1.587,11.6,11.6,0,0,1-.084,2.782c-.234,1.586-.549,2.549-.454,2.578a7.147,7.147,0,0,0,.865-2.507,10.509,10.509,0,0,0,.215-2.9,7.808,7.808,0,0,0-.317-1.712,6.932,6.932,0,0,0-.328-.875,1.555,1.555,0,0,0-.751-.808.939.939,0,0,0-1.173.311,1.966,1.966,0,0,0-.276,1,12.2,12.2,0,0,0,0,1.721,12.344,12.344,0,0,0,.534,2.851A6.272,6.272,0,0,0,277.664,447.693Z" transform="translate(-275.943 -439.335)" fill="#263238"/></g><g transform="translate(29.311 6.622)"><path d="M277.412,446.611c.043.086.825-.312,2.171-.64a11.931,11.931,0,0,1,2.393-.327,5.4,5.4,0,0,1,1.372.087.912.912,0,0,1,.8.78,1.2,1.2,0,0,1-.564,1.06,2.781,2.781,0,0,1-1.241.416,6.243,6.243,0,0,1-2.348-.235,15.693,15.693,0,0,0-2.179-.642,6.174,6.174,0,0,0,2.055,1.041,6.1,6.1,0,0,0,2.528.378,3.227,3.227,0,0,0,1.509-.478,1.763,1.763,0,0,0,.829-1.586,1.491,1.491,0,0,0-1.25-1.3,5.493,5.493,0,0,0-1.535-.068,10.214,10.214,0,0,0-2.479.467A4.938,4.938,0,0,0,277.412,446.611Z" transform="translate(-277.411 -445.079)" fill="#263238"/></g><g transform="translate(4.76 20.016)"><path d="M259.162,465.222c.038.052.562-.338.818-1.294a4.936,4.936,0,0,0-.625-3.625,13.412,13.412,0,0,0-1.12-1.668,6.143,6.143,0,0,0-1.134-1.217,1.982,1.982,0,0,0-1.067-.447c-.28-.011-.422.057-.418.091a3.137,3.137,0,0,1,1.214.675,7.535,7.535,0,0,1,.964,1.219,18.621,18.621,0,0,1,1.041,1.631,5.158,5.158,0,0,1,.734,3.257A14.35,14.35,0,0,1,259.162,465.222Z" transform="translate(-255.616 -456.97)" fill="#263238"/></g><g transform="translate(16.18 14.344)"><path d="M269.872,456.9c.155.016.108-1.681-1.176-3.2-1.267-1.535-2.928-1.885-2.94-1.729a9.523,9.523,0,0,1,4.116,4.93Z" transform="translate(-265.754 -451.935)" fill="#263238"/></g><g transform="translate(2.069 13.378)"><path d="M295.42,451.079a11.89,11.89,0,0,0-1.468,1.007,42.023,42.023,0,0,1-4.118,2.524,54.265,54.265,0,0,1-6.542,2.912c-2.53.943-5.366,1.833-8.367,2.7-6.01,1.73-11.45,3.313-15.376,4.493l-4.642,1.425a10.29,10.29,0,0,0-1.68.6,10.287,10.287,0,0,0,1.743-.38l4.694-1.244c3.956-1.079,9.411-2.6,15.427-4.328,3.006-.872,5.856-1.782,8.394-2.761a49.32,49.32,0,0,0,6.551-3.056,32.815,32.815,0,0,0,4.054-2.7A9.157,9.157,0,0,0,295.42,451.079Z" transform="translate(-253.227 -451.077)" fill="#263238"/></g><g transform="translate(30.141 12.888)"><path d="M293.508,451.584a9.347,9.347,0,0,0-2.831-.754,11.675,11.675,0,0,0-7.02.858,8.366,8.366,0,0,0-3.005,2.581,13.957,13.957,0,0,0-1.566,2.8,10.978,10.978,0,0,0-.929,2.774,20.606,20.606,0,0,0,1.308-2.6,10.579,10.579,0,0,1,4.458-5.026,12.293,12.293,0,0,1,6.7-.971C292.4,451.43,293.488,451.676,293.508,451.584Z" transform="translate(-278.148 -450.642)" fill="#263238"/></g></g><g transform="translate(74.932 147.566)"><path d="M355,392.048s10.021,3.578,10.064,14.815c.08,21.525-43.491,45.25-43.491,45.25l-57.983-38.419-3.634-1.47S338.228,382.824,355,392.048Z" transform="translate(-259.957 -390.257)" fill="#263238"/><g transform="translate(33.005 12.662)"><path d="M289.258,431.679a10.906,10.906,0,0,0,1.509-1.025c.951-.688,2.307-1.711,3.966-2.994,3.32-2.566,7.837-6.2,12.7-10.372S316.566,409.2,319.6,406.3c1.52-1.446,2.735-2.633,3.56-3.467a10.828,10.828,0,0,0,1.241-1.338,10.866,10.866,0,0,0-1.4,1.172L319.321,406c-3.108,2.812-7.424,6.672-12.276,10.84s-9.32,7.848-12.571,10.5l-3.847,3.139A10.626,10.626,0,0,0,289.258,431.679Z" transform="translate(-289.257 -401.498)" fill="#455a64"/></g><g transform="translate(68.116 9.691)"><path d="M330.986,399.005a14.37,14.37,0,0,0-10.556,3.116c.1.153,2.21-1.194,5.135-2.042C328.482,399.2,330.989,399.187,330.986,399.005Z" transform="translate(-320.427 -398.859)" fill="#455a64"/></g><g transform="translate(68.411 6.429)"><path d="M325.959,395.98a8.808,8.808,0,0,0-5.241,6.49c.168.059.8-1.747,2.263-3.534C324.419,397.132,326.051,396.132,325.959,395.98Z" transform="translate(-320.689 -395.964)" fill="#455a64"/></g><g transform="translate(94.992 74.538)"><path d="M347.526,456.488c.032-.068-.692-.207-1.495.453a5.422,5.422,0,0,0-1.675,3.366,6.6,6.6,0,0,0,.528,3.711c.41.881.862,1.294.912,1.253.079-.054-.238-.544-.525-1.408a7.534,7.534,0,0,1-.331-3.472,5.821,5.821,0,0,1,1.371-3.139C346.926,456.607,347.538,456.581,347.526,456.488Z" transform="translate(-344.286 -456.427)" fill="#263238"/></g></g><g transform="translate(45.423 114.193)"><path d="M344.977,360.63l-20.651,52.349-88.92,1.449-1.646-4.81,31.163-1.13L279.9,362.049Z" transform="translate(-233.76 -360.63)" fill="#455a64"/><g transform="translate(68.052 22.225)"><path d="M295.812,380.8a3.955,3.955,0,0,1,4.276.456,3.457,3.457,0,0,1,.837,3.788,3.745,3.745,0,0,1-3.212,2.244,3.376,3.376,0,0,1-3.4-2.243c-.409-1.406.045-3.5,1.495-4.246" transform="translate(-294.173 -380.36)" fill="#ebebeb"/></g></g><g transform="translate(14.602 152.447)"><path d="M333.836,454.18s-81.922-53.735-85.276-54.853-11.462-6.429-19.567-4.193-15.375,9.5-19.009,20.126c-2.076,6.068-3.058,16.425-3.518,24.188a35.888,35.888,0,0,0,8.4,25.586,22.889,22.889,0,0,0,10.215,7.252c.854.266,1.738.5,2.647.692,15.49,3.359,31.408-3.594,40.109-16.84l1.912-2.91s53.591,19.689,54.429,19.41Z" transform="translate(-206.399 -394.59)" fill="#263238"/><g transform="translate(26.086 3.578)"><path d="M229.557,438.988s.149.075.449.2l1.34.533,5.194,2,19.3,7.271c8.2,3.058,18.02,6.7,29.039,10.706s23.232,8.4,36.273,12.818l.238.08.116-.222,6.4-12.223c1.117-2.135,2.226-4.255,3.262-6.233l.125-.241-.226-.143-62.491-39.669-18.77-11.84-5.1-3.182-1.331-.813c-.3-.18-.463-.26-.463-.26s.141.113.433.309l1.3.862,5.041,3.272L268.361,414.2l62.387,39.822-.1-.384c-1.036,1.978-2.146,4.1-3.263,6.233l-6.4,12.225.353-.142c-13.035-4.4-25.253-8.781-36.282-12.754l-29.08-10.583-19.362-7.1-5.23-1.9-1.36-.481C229.718,439.029,229.557,438.988,229.557,438.988Z" transform="translate(-229.557 -397.767)" fill="#455a64"/></g></g></g></g><text transform="translate(257 4342)" fill="#9d8f8f" font-size="15" font-family="Poppins-SemiBold, Poppins" font-weight="600" letter-spacing="0.03em"><tspan x="0" y="0" xml:space="preserve">Upload          Videos</tspan></text><g transform="matrix(0.966, 0.259, -0.259, 0.966, 174.619, 4332.168)"><path d="M32.807,10.8a1.394,1.394,0,0,0-.759.22l-7.057,4.454a.7.7,0,0,0-.326.587v6.2a.7.7,0,0,0,.326.587L32.049,27.3a1.466,1.466,0,0,0,.759.22h1.7a.7.7,0,0,0,.7-.693V11.493a.7.7,0,0,0-.7-.693Z" transform="translate(3.592 0.288)" fill="#ddd"/><path d="M21.951,29.884H6.451a4.215,4.215,0,0,1-4.2-4.193v-12.5A4.208,4.208,0,0,1,6.443,9h15.5a4.208,4.208,0,0,1,4.193,4.193v12.49A4.2,4.2,0,0,1,21.951,29.884Z" fill="#ddd"/></g><g transform="matrix(0.985, 0.174, -0.174, 0.985, 438.575, 4274.549)"><path d="M32.807,10.8a1.394,1.394,0,0,0-.759.22l-7.057,4.454a.7.7,0,0,0-.326.587v6.2a.7.7,0,0,0,.326.587L32.049,27.3a1.466,1.466,0,0,0,.759.22h1.7a.7.7,0,0,0,.7-.693V11.493a.7.7,0,0,0-.7-.693Z" transform="translate(3.592 0.288)" fill="#ba3842"/><path d="M21.951,29.884H6.451a4.215,4.215,0,0,1-4.2-4.193v-12.5A4.208,4.208,0,0,1,6.443,9h15.5a4.208,4.208,0,0,1,4.193,4.193v12.49A4.2,4.2,0,0,1,21.951,29.884Z" fill="#ba3842"/></g><g transform="translate(276.887 4392.818)"><path d="M27.148,10.8a.425.425,0,0,0-.231.067l-2.151,1.358a.213.213,0,0,0-.1.179v1.89a.213.213,0,0,0,.1.179l2.151,1.358a.447.447,0,0,0,.231.067h.517a.212.212,0,0,0,.214-.211V11.011a.213.213,0,0,0-.214-.211Z" transform="translate(-14.487 -1.163)" fill="#fff"/><path d="M8.256,15.367H3.531A1.285,1.285,0,0,1,2.25,14.088v-3.81A1.283,1.283,0,0,1,3.528,9H8.254a1.283,1.283,0,0,1,1.278,1.278v3.808A1.279,1.279,0,0,1,8.256,15.367Z" fill="#fff"/></g><g transform="translate(191.04 4447.933) rotate(-13)"><path d="M32.807,10.8a1.394,1.394,0,0,0-.759.22l-7.057,4.454a.7.7,0,0,0-.326.587v6.2a.7.7,0,0,0,.326.587L32.049,27.3a1.466,1.466,0,0,0,.759.22h1.7a.7.7,0,0,0,.7-.693V11.493a.7.7,0,0,0-.7-.693Z" transform="translate(3.592 0.288)" fill="#fff"/><path d="M21.951,29.884H6.451a4.215,4.215,0,0,1-4.2-4.193v-12.5A4.208,4.208,0,0,1,6.443,9h15.5a4.208,4.208,0,0,1,4.193,4.193v12.49A4.2,4.2,0,0,1,21.951,29.884Z" fill="#fff"/></g></g><g transform="translate(-2570.222 3117.127)"><path d="M917.9,625.223c0,29.891,18.752,54.079,41.926,54.079" transform="translate(1714.266 1000.104)" fill="#46455b"/><path d="M1000.6,678.711c0-30.227,20.926-54.686,46.787-54.686" transform="translate(1673.493 1000.695)" fill="#27b206"/><path d="M947.86,630.568c0,28.393,11.958,51.369,26.736,51.369" transform="translate(1699.494 997.469)" fill="#27b206"/><path d="M1000.6,663.938c0-38.623,24.188-69.877,54.079-69.877" transform="translate(1673.493 1015.468)" fill="#46455b"/><path d="M983.2,729.521s5.946-.183,7.738-1.459,9.146-2.8,9.591-.753,8.936,10.178,2.223,10.232-15.6-1.046-17.386-2.135S983.2,729.521,983.2,729.521Z" transform="translate(1682.071 950.267)" fill="#a8a8a8"/><path d="M1002.869,739.945c-6.713.054-15.6-1.046-17.386-2.135-1.362-.83-1.9-3.807-2.086-5.18l-.2.008s.377,4.8,2.165,5.885,10.673,2.189,17.386,2.135c1.938-.016,2.607-.705,2.57-1.726C1005.051,739.548,1004.311,739.934,1002.869,739.945Z" transform="translate(1682.071 947.15)" opacity="0.2"/><line x2="37.516" transform="translate(2658.386 1687.324)" fill="none" stroke="#3f3d56" stroke-miterlimit="10" stroke-width="1"/></g><path d="M30.565,13.219a7.225,7.225,0,0,0-9.907-.007L19.42,14.33l2.327,2.257,1.2-1.083.007-.007a3.868,3.868,0,0,1,5.3-.007,3.451,3.451,0,0,1,0,5.02,3.868,3.868,0,0,1-5.3.007l-7.608-7.3a7.216,7.216,0,0,0-9.907,0,6.578,6.578,0,0,0,0,9.563,7.216,7.216,0,0,0,9.907,0L18,20.243l2.651,2.538a7.217,7.217,0,0,0,9.9.007,6.586,6.586,0,0,0,.014-9.57ZM13.043,20.51a3.868,3.868,0,0,1-5.3.007,3.451,3.451,0,0,1,0-5.02,3.868,3.868,0,0,1,5.3-.007l2.63,2.517Z" transform="translate(363.625 4358.75)" fill="#e8505b"/></g></svg>