<svg xmlns="http://www.w3.org/2000/svg" width="1683.308" height="1203.672" viewBox="0 0 1683.308 1203.672">
  <g id="Group_24472" data-name="Group 24472" transform="translate(-575 8052.458)">
    <g id="Group_18258" data-name="Group 18258" transform="translate(734 -18574)">
      <path id="Path_20521" data-name="Path 20521" d="M.906-26.575s1032.939-246.206,1377.252,0,0,984.822,0,984.822S345.219,1204.453.906,958.247.906-26.575.906-26.575Z" transform="translate(-6.878 10657.542)" fill="#27b206" opacity="0.1"/>
    </g>
    <g id="Dots_Pattern_2" data-name="Dots Pattern 2" transform="translate(1800 -7734)">
      <g id="Group_13444" data-name="Group 13444" transform="translate(760.729 -1064) rotate(90)">
        <rect id="Rectangle_2784" data-name="Rectangle 2784" width="3.515" height="3.515" transform="translate(1064 667)" fill="#38a2ff"/>
        <rect id="Rectangle_2785" data-name="Rectangle 2785" width="3.515" height="3.515" transform="translate(1079.231 667)" fill="#38a2ff"/>
        <rect id="Rectangle_2786" data-name="Rectangle 2786" width="3.515" height="3.515" transform="translate(1094.462 667)" fill="#38a2ff"/>
        <rect id="Rectangle_2787" data-name="Rectangle 2787" width="3.515" height="3.515" transform="translate(1109.693 667)" fill="#38a2ff"/>
        <rect id="Rectangle_2788" data-name="Rectangle 2788" width="3.515" height="3.515" transform="translate(1124.924 667)" fill="#38a2ff"/>
        <rect id="Rectangle_2789" data-name="Rectangle 2789" width="3.515" height="3.515" transform="translate(1140.155 667)" fill="#38a2ff"/>
        <rect id="Rectangle_2790" data-name="Rectangle 2790" width="3.515" height="3.515" transform="translate(1155.386 667)" fill="#38a2ff"/>
        <rect id="Rectangle_2791" data-name="Rectangle 2791" width="3.515" height="3.515" transform="translate(1064 682.231)" fill="#38a2ff"/>
        <rect id="Rectangle_2792" data-name="Rectangle 2792" width="3.515" height="3.515" transform="translate(1079.231 682.231)" fill="#38a2ff"/>
        <rect id="Rectangle_2793" data-name="Rectangle 2793" width="3.515" height="3.515" transform="translate(1094.462 682.231)" fill="#38a2ff"/>
        <rect id="Rectangle_2794" data-name="Rectangle 2794" width="3.515" height="3.515" transform="translate(1109.693 682.231)" fill="#38a2ff"/>
        <rect id="Rectangle_2795" data-name="Rectangle 2795" width="3.515" height="3.515" transform="translate(1124.924 682.231)" fill="#38a2ff"/>
        <rect id="Rectangle_2796" data-name="Rectangle 2796" width="3.515" height="3.515" transform="translate(1140.155 682.231)" fill="#38a2ff"/>
        <rect id="Rectangle_2797" data-name="Rectangle 2797" width="3.515" height="3.515" transform="translate(1155.386 682.231)" fill="#38a2ff"/>
        <rect id="Rectangle_2798" data-name="Rectangle 2798" width="3.515" height="3.515" transform="translate(1064 697.462)" fill="#38a2ff"/>
        <rect id="Rectangle_2799" data-name="Rectangle 2799" width="3.515" height="3.515" transform="translate(1079.231 697.462)" fill="#38a2ff"/>
        <rect id="Rectangle_2800" data-name="Rectangle 2800" width="3.515" height="3.515" transform="translate(1094.462 697.462)" fill="#38a2ff"/>
        <rect id="Rectangle_2801" data-name="Rectangle 2801" width="3.515" height="3.515" transform="translate(1109.693 697.462)" fill="#38a2ff"/>
        <rect id="Rectangle_2802" data-name="Rectangle 2802" width="3.515" height="3.515" transform="translate(1124.924 697.462)" fill="#38a2ff"/>
        <rect id="Rectangle_2803" data-name="Rectangle 2803" width="3.515" height="3.515" transform="translate(1140.155 697.462)" fill="#38a2ff"/>
        <rect id="Rectangle_2804" data-name="Rectangle 2804" width="3.515" height="3.515" transform="translate(1155.386 697.462)" fill="#38a2ff"/>
        <rect id="Rectangle_2805" data-name="Rectangle 2805" width="3.515" height="3.515" transform="translate(1064 712.693)" fill="#38a2ff"/>
        <rect id="Rectangle_2806" data-name="Rectangle 2806" width="3.515" height="3.515" transform="translate(1079.231 712.693)" fill="#38a2ff"/>
        <rect id="Rectangle_2807" data-name="Rectangle 2807" width="3.515" height="3.515" transform="translate(1094.462 712.693)" fill="#38a2ff"/>
        <rect id="Rectangle_2808" data-name="Rectangle 2808" width="3.515" height="3.515" transform="translate(1109.693 712.693)" fill="#38a2ff"/>
        <rect id="Rectangle_2809" data-name="Rectangle 2809" width="3.515" height="3.515" transform="translate(1124.924 712.693)" fill="#38a2ff"/>
        <rect id="Rectangle_2810" data-name="Rectangle 2810" width="3.515" height="3.515" transform="translate(1140.155 712.693)" fill="#38a2ff"/>
        <rect id="Rectangle_2811" data-name="Rectangle 2811" width="3.515" height="3.515" transform="translate(1155.386 712.693)" fill="#38a2ff"/>
        <rect id="Rectangle_2812" data-name="Rectangle 2812" width="3.515" height="3.515" transform="translate(1064 727.924)" fill="#38a2ff"/>
        <rect id="Rectangle_2813" data-name="Rectangle 2813" width="3.515" height="3.515" transform="translate(1079.231 727.924)" fill="#38a2ff"/>
        <rect id="Rectangle_2814" data-name="Rectangle 2814" width="3.515" height="3.515" transform="translate(1094.462 727.924)" fill="#38a2ff"/>
        <rect id="Rectangle_2815" data-name="Rectangle 2815" width="3.515" height="3.515" transform="translate(1109.693 727.924)" fill="#38a2ff"/>
        <rect id="Rectangle_2816" data-name="Rectangle 2816" width="3.515" height="3.515" transform="translate(1124.924 727.924)" fill="#38a2ff"/>
        <rect id="Rectangle_2817" data-name="Rectangle 2817" width="3.515" height="3.515" transform="translate(1140.155 727.924)" fill="#38a2ff"/>
        <rect id="Rectangle_2818" data-name="Rectangle 2818" width="3.515" height="3.515" transform="translate(1155.386 727.924)" fill="#38a2ff"/>
        <rect id="Rectangle_2819" data-name="Rectangle 2819" width="3.515" height="3.515" transform="translate(1064 741.983)" fill="#38a2ff"/>
        <rect id="Rectangle_2820" data-name="Rectangle 2820" width="3.515" height="3.515" transform="translate(1079.231 741.983)" fill="#38a2ff"/>
        <rect id="Rectangle_2821" data-name="Rectangle 2821" width="3.515" height="3.515" transform="translate(1094.462 741.983)" fill="#38a2ff"/>
        <rect id="Rectangle_2822" data-name="Rectangle 2822" width="3.515" height="3.515" transform="translate(1109.693 741.983)" fill="#38a2ff"/>
        <rect id="Rectangle_2823" data-name="Rectangle 2823" width="3.515" height="3.515" transform="translate(1124.924 741.983)" fill="#38a2ff"/>
        <rect id="Rectangle_2824" data-name="Rectangle 2824" width="3.515" height="3.515" transform="translate(1140.155 741.983)" fill="#38a2ff"/>
        <rect id="Rectangle_2825" data-name="Rectangle 2825" width="3.515" height="3.515" transform="translate(1155.386 741.983)" fill="#38a2ff"/>
        <rect id="Rectangle_2826" data-name="Rectangle 2826" width="3.515" height="3.515" transform="translate(1064 757.214)" fill="#38a2ff"/>
        <rect id="Rectangle_2827" data-name="Rectangle 2827" width="3.515" height="3.515" transform="translate(1079.231 757.214)" fill="#38a2ff"/>
        <rect id="Rectangle_2828" data-name="Rectangle 2828" width="3.515" height="3.515" transform="translate(1094.462 757.214)" fill="#38a2ff"/>
        <rect id="Rectangle_2829" data-name="Rectangle 2829" width="3.515" height="3.515" transform="translate(1109.693 757.214)" fill="#38a2ff"/>
        <rect id="Rectangle_2830" data-name="Rectangle 2830" width="3.515" height="3.515" transform="translate(1124.924 757.214)" fill="#38a2ff"/>
        <rect id="Rectangle_2831" data-name="Rectangle 2831" width="3.515" height="3.515" transform="translate(1140.155 757.214)" fill="#38a2ff"/>
        <rect id="Rectangle_2832" data-name="Rectangle 2832" width="3.515" height="3.515" transform="translate(1155.386 757.214)" fill="#38a2ff"/>
      </g>
    </g>
  </g>
</svg>
