<svg xmlns="http://www.w3.org/2000/svg" xmlns:xlink="http://www.w3.org/1999/xlink" width="420.779" height="516.357" viewBox="0 0 420.779 516.357">
  <defs>
    <pattern id="pattern" width="1" height="1" viewBox="0 0 228.691 218.989">
      <image preserveAspectRatio="xMidYMid slice" width="237" height="158" xlink:href="Group%2016921-image.jpg"/>
    </pattern>
    <filter id="Path_19024" x="0" y="0" width="144" height="148" filterUnits="userSpaceOnUse">
      <feOffset dy="3" input="SourceAlpha"/>
      <feGaussianBlur stdDeviation="3" result="blur"/>
      <feFlood flood-opacity="0.161"/>
      <feComposite operator="in" in2="blur"/>
      <feComposite in="SourceGraphic"/>
    </filter>
  </defs>
  <g id="Group_16921" data-name="Group 16921" transform="translate(-859 -9767)">
    <g id="Group_14907" data-name="Group 14907" transform="translate(28 99)">
      <g id="undraw_home_screen_4n7s" transform="translate(884 9739)">
        <path id="Path_18878" data-name="Path 18878" d="M599.631,204.77v50.378a1.761,1.761,0,0,1-1.756,1.756h-1.25V519.342a27.384,27.384,0,0,1-27.381,27.383H405.26a27.377,27.377,0,0,1-27.375-27.378V266.109h-.905a1.241,1.241,0,0,1-1.243-1.235V236.2a1.242,1.242,0,0,1,1.242-1.243h.906v-10.8h-.913a1.3,1.3,0,0,1-1.3-1.3v-28.28a1.3,1.3,0,0,1,1.3-1.3h.913V178.537h-.928a1.149,1.149,0,0,1-1.151-1.147V161.954a1.156,1.156,0,0,1,1.151-1.158h.928V129.548a27.376,27.376,0,0,1,27.374-27.375H569.242a27.383,27.383,0,0,1,27.383,27.375v73.465h1.25A1.761,1.761,0,0,1,599.631,204.77Z" transform="translate(-335.399 -102.173)" fill="#edf2f7"/>
        <path id="Path_18879" data-name="Path 18879" d="M206.819,21.933h26.646a1.95,1.95,0,0,1,1.95,1.95v2.3a1.95,1.95,0,0,1-1.95,1.95H206.819a1.95,1.95,0,0,1-1.95-1.95v-2.3A1.95,1.95,0,0,1,206.819,21.933Z" transform="translate(-73.712 -7.892)" fill="#e6e8ec"/>
        <circle id="Ellipse_4424" data-name="Ellipse 4424" cx="3.518" cy="3.518" r="3.518" transform="translate(166.321 13.625)" fill="#e6e8ec"/>
        <path id="Path_18880" data-name="Path 18880" d="M592.572,143.616V530.281A17.376,17.376,0,0,1,575.2,547.647H418.227a17.346,17.346,0,0,1-17.373-17.319v-386.7a17.373,17.373,0,0,1,17.374-17.373h23.493v3.014a14.305,14.305,0,0,0,14.3,14.305h79.832a14.305,14.305,0,0,0,14.305-14.3v-3.015H575.2A17.359,17.359,0,0,1,592.572,143.616Z" transform="translate(-344.458 -110.839)" fill="#fff"/>
        <path id="Path_18895" data-name="Path 18895" d="M779.236,495.142l2.1,10.392a8.764,8.764,0,0,0,10.593,6.8h0a8.764,8.764,0,0,0,5.139-13.612l-6.076-8.542-15.03-41.219,2.744-35.306c-8.626-3.24-17.408-6.868-22.168-.47l5.914,38.632Z" transform="translate(-472.433 -212.803)" fill="#ffb9b9"/>
        <path id="Path_18896" data-name="Path 18896" d="M803.838,554.242a2.018,2.018,0,0,0-2.016,2.016v36.281a2.018,2.018,0,0,0,2.016,2.016h36.281a2.018,2.018,0,0,0,2.016-2.016V556.258a2.018,2.018,0,0,0-2.016-2.016Z" transform="translate(-488.726 -264.828)" fill="#38a2ff"/>
        <path id="Path_18897" data-name="Path 18897" d="M792.833,319.688c0-.214,0-.424-.007-.646A24.347,24.347,0,0,0,768.526,295a23.963,23.963,0,0,0-17.19,7.233,24.8,24.8,0,0,0-7.121,17.458v24.178h48.618Z" transform="translate(-467.999 -171.551)" fill="#2f2e41"/>
        <path id="Path_18898" data-name="Path 18898" d="M782.246,783.043h0a5.037,5.037,0,0,0-2.254-4.94l-14.458-7.1-10.9,1.376-2.574,9.229a4.911,4.911,0,0,0,4.3,5.683l20.34.044a5.037,5.037,0,0,0,5.55-4.3Z" transform="translate(-470.798 -342.82)" fill="#2f2e41"/>
        <path id="Path_18899" data-name="Path 18899" d="M408.248,457.583l1.677,10.711.151.981,6.444,41.167,1.991,12.724.611,3.9,1.694,12.315,7.9,57.351,13.728-3.112.656-66.117.113-11.35.106-9.6.1-8.44.382-33.944Z" transform="translate(-146.888 -164.639)" fill="#2f2e41"/>
        <circle id="Ellipse_4425" data-name="Ellipse 4425" cx="18.407" cy="18.407" r="18.407" transform="translate(287.214 128.355)" fill="#ffb9b9"/>
        <path id="Path_18900" data-name="Path 18900" d="M758.28,368.12l20.861,10.431a51.3,51.3,0,0,1,6.442-29.758l-18.1-2.761C767.239,353.3,763.561,360.683,758.28,368.12Z" transform="translate(-473.06 -189.913)" fill="#ffb9b9"/>
        <path id="Path_18901" data-name="Path 18901" d="M739.829,448.182l36.814,7.976,3.068-23.929c2-10.234,5.6-20.244-.708-28.286l-.925-8.271a26.707,26.707,0,0,0-12.387-19.68l-11.136-6.96C731.471,381.52,732.4,412.366,739.829,448.182Z" transform="translate(-464.733 -198.189)" fill="#e6e6e6"/>
        <path id="Path_18902" data-name="Path 18902" d="M424.278,550.693l.611,3.9,1.694,12.315,22.28-11.878.113-11.35.106-9.6Z" transform="translate(-152.656 -192.165)" opacity="0.2"/>
        <path id="Path_18903" data-name="Path 18903" d="M721.01,559.755l1.677,10.711.151.981a40.319,40.319,0,0,0,10.251,11.39l23.082,17.457.381-33.944Z" transform="translate(-459.65 -266.811)" opacity="0.2"/>
        <path id="Path_18904" data-name="Path 18904" d="M723.762,597.414l4.295,14.419,55.491-29.588a14.858,14.858,0,0,0,3.723-22.672l-30.377-34.559,13.5-30.371-38.654-10.124-4.295,9.2q-13.458,12.562-12.112,29.32A39.462,39.462,0,0,0,731,551.283l28.958,21.9Z" transform="translate(-457.563 -239.741)" fill="#2f2e41"/>
        <path id="Path_18905" data-name="Path 18905" d="M719.4,686.914h0a4.994,4.994,0,0,0,4.744-2.545l8.316-14.9-2.057-10.7-9.295-1.958a4.869,4.869,0,0,0-5.348,4.613L714.8,681.7a4.994,4.994,0,0,0,4.605,5.217Z" transform="translate(-457.412 -301.725)" fill="#2f2e41"/>
        <path id="Path_18906" data-name="Path 18906" d="M736.929,500.778l-.331,10.6a8.764,8.764,0,0,0,8.76,9.038h0a8.764,8.764,0,0,0,8.113-12.078l-3.964-9.7-5.215-43.563,10.737-33.746c-7.658-5.125-15.378-10.663-21.475-5.522l-3.068,38.961Z" transform="translate(-463.06 -214.278)" fill="#ffb9b9"/>
        <path id="Path_18907" data-name="Path 18907" d="M729.528,407.484c11.3-5.4,19.966-2.647,26.383,7.056l4.16-23.207a12.379,12.379,0,0,0-6.877-13.367h0a10.057,10.057,0,0,0-13.6,5.235Z" transform="translate(-462.715 -201.053)" fill="#e6e6e6"/>
        <path id="Path_18908" data-name="Path 18908" d="M758.634,305.644l4.62,14.7,39.944-.71a24.692,24.692,0,0,0-44.564-13.989Z" transform="translate(-473.187 -171.766)" fill="#2f2e41"/>
        <path id="Path_18909" data-name="Path 18909" d="M367.526,694.87H0v-1.4H367.779Z" transform="translate(0 -249.513)" fill="#21455e"/>
        <g id="Group_14904" data-name="Group 14904" transform="translate(-389.437 -62.121)" opacity="0.9">
          <rect id="OCIFEO0" width="165" height="158" transform="translate(460.437 196.121)" fill="url(#pattern)"/>
        </g>
      </g>
      <rect id="Rectangle_16885" data-name="Rectangle 16885" width="146" height="10" transform="translate(958 9798)" fill="#e1e9ef"/>
      <rect id="Rectangle_16886" data-name="Rectangle 16886" width="163" height="10" transform="translate(958 9818)" fill="#edf2f7"/>
      <rect id="Rectangle_16887" data-name="Rectangle 16887" width="162" height="10" transform="translate(958 10038)" fill="#edf2f7"/>
      <rect id="Rectangle_16888" data-name="Rectangle 16888" width="162" height="10" transform="translate(958 10062)" fill="#edf2f7"/>
      <rect id="Rectangle_16889" data-name="Rectangle 16889" width="103" height="10" transform="translate(958 10086)" fill="#edf2f7"/>
      <rect id="Rectangle_16915" data-name="Rectangle 16915" width="100" height="10" transform="translate(958 9839)" fill="#edf2f7"/>
    </g>
    <g id="Group_16920" data-name="Group 16920">
      <g id="Group_14906" data-name="Group 14906" transform="translate(23 -120)">
        <g transform="matrix(1, 0, 0, 1, 836, 9887)" filter="url(#Path_19024)">
          <path id="Path_19024-2" data-name="Path 19024" d="M15,0h96a15,15,0,0,1,15,15V115a15,15,0,0,1-15,15H15A15,15,0,0,1,0,115V15A15,15,0,0,1,15,0Z" transform="translate(9 6)" fill="#fff"/>
        </g>
      </g>
      <g id="Group_14953" data-name="Group 14953" transform="translate(752.155 9191.812) rotate(30)">
        <path id="Path_19374" data-name="Path 19374" d="M474.011,482.029,474,482a4.091,4.091,0,0,1,.411-3.111v0h0a4.1,4.1,0,0,1,5.6-1.5h0a4.094,4.094,0,0,1,1.912,2.492,51.762,51.762,0,0,1-3.147,35.518.682.682,0,0,1-1.235-.578,50.442,50.442,0,0,0,3.062-34.587,2.73,2.73,0,0,0-1.276-1.664h0a2.742,2.742,0,0,0-3.741,1h0a2.735,2.735,0,0,0-.277,2.053l.007.025a44.986,44.986,0,0,1-3.688,32.761.682.682,0,1,1-1.207-.636,43.621,43.621,0,0,0,3.581-31.748Zm34.355-9.231q.333,1.246.629,2.524.3,1.3.544,2.52a.684.684,0,1,1-1.341.267c-.17-.85-.348-1.679-.534-2.482s-.395-1.641-.618-2.476a30.1,30.1,0,0,0-58.372.846.684.684,0,1,1-1.331-.316,31.474,31.474,0,0,1,61.024-.883Zm-3.3.885q.9,3.356,1.481,6.721.592,3.41.869,6.807a.683.683,0,0,1-1.363.106q-.273-3.335-.853-6.683-.572-3.3-1.455-6.6a26.683,26.683,0,0,0-51.552,13.791l.007.021a21.346,21.346,0,0,1,.6,3.215,21.052,21.052,0,0,1,.1,3.255.682.682,0,1,1-1.362-.059,19.809,19.809,0,0,0-.654-6.034l-.007-.024a28.049,28.049,0,0,1,54.187-14.518Zm-3.3.886a72.443,72.443,0,0,1,2.455,20.766.682.682,0,0,1-1.363-.032,71.266,71.266,0,0,0-2.412-20.381A23.193,23.193,0,0,0,489.6,460.8h0a23.266,23.266,0,0,0-31.758,8.483l-.019.034a23.19,23.19,0,0,0-2.329,17.63l.006.021a24.535,24.535,0,0,1-.031,12.864.681.681,0,0,1-1.315-.358,23.124,23.124,0,0,0,.032-12.131l-.007-.022a24.554,24.554,0,0,1,2.462-18.688l.023-.037a24.62,24.62,0,0,1,33.616-8.976h0a24.553,24.553,0,0,1,11.475,14.953Zm-3.3.886a68.868,68.868,0,0,1,1.814,26.584.681.681,0,0,1-1.352-.172,67.556,67.556,0,0,0-1.783-26.06,19.778,19.778,0,0,0-9.211-12.03l-.034-.019a19.841,19.841,0,0,0-29.091,22.3l.007.022a27.937,27.937,0,0,1-.99,17.522.683.683,0,0,1-1.272-.5,26.542,26.542,0,0,0,.948-16.647l-.007-.024a21.207,21.207,0,0,1,31.089-23.854l.037.023a21.143,21.143,0,0,1,9.844,12.853Zm-3.3.886a65.464,65.464,0,0,1,.76,30.905.684.684,0,1,1-1.337-.288,63.975,63.975,0,0,0-.743-30.264,16.375,16.375,0,0,0-7.651-9.971h0a16.426,16.426,0,0,0-22.413,5.979l-.019.034a16.37,16.37,0,0,0-1.643,12.445l0,.015a31.32,31.32,0,0,1-1.89,21.466.681.681,0,0,1-1.235-.577,30,30,0,0,0,1.809-20.519l0-.017a17.729,17.729,0,0,1,1.778-13.5l.023-.038a17.778,17.778,0,0,1,24.27-6.471h0a17.734,17.734,0,0,1,8.287,10.8Zm-3.3.885a62,62,0,0,1-.437,33.787.682.682,0,1,1-1.31-.384,60.545,60.545,0,0,0,.426-33.049A12.956,12.956,0,0,0,484.5,469.7l-.034-.019a12.962,12.962,0,0,0-9.828-1.307c-.024.008-.048.014-.072.02a12.955,12.955,0,0,0-7.838,6.013l-.019.033a12.961,12.961,0,0,0-1.307,9.828c.007.022.013.043.018.066a34.8,34.8,0,0,1,.995,12.669l0,.024a34.883,34.883,0,0,1-3.644,12.2.681.681,0,0,1-1.213-.62,33.518,33.518,0,0,0,3.5-11.729l0-.017a33.439,33.439,0,0,0-.953-12.154.611.611,0,0,1-.025-.094,14.319,14.319,0,0,1,1.448-10.856l.023-.036a14.321,14.321,0,0,1,8.7-6.656l.011,0a14.319,14.319,0,0,1,10.891,1.439l.037.023a14.322,14.322,0,0,1,6.657,8.7Zm-3.3.885a58.585,58.585,0,0,1-1.555,35.38.682.682,0,0,1-1.283-.465,57.188,57.188,0,0,0,1.518-34.562,9.58,9.58,0,0,0-17.55-2.31h0a9.557,9.557,0,0,0-.961,7.246l.007.023a38.166,38.166,0,0,1-3.214,27.956.681.681,0,0,1-1.2-.641,36.823,36.823,0,0,0,3.1-26.937l-.008-.025a10.911,10.911,0,0,1,1.095-8.3v0h0a10.946,10.946,0,0,1,20.051,2.64Zm-3.3.886a55.17,55.17,0,0,1-2.475,35.889.682.682,0,1,1-1.256-.529,53.822,53.822,0,0,0,2.411-35.007,6.137,6.137,0,0,0-2.834-3.721l-.035-.019a6.163,6.163,0,0,0-8.395,2.22l-.019.035a6.142,6.142,0,0,0-.619,4.651l.007.022a41.582,41.582,0,0,1-3.568,30.581.682.682,0,1,1-1.2-.646,40.221,40.221,0,0,0,3.456-29.557l-.007-.025a7.5,7.5,0,0,1,.753-5.71l.023-.037a7.518,7.518,0,0,1,10.255-2.715l.037.023A7.5,7.5,0,0,1,485.237,479Zm-7.929,2.123a.683.683,0,0,1,1.32-.353A48.4,48.4,0,0,1,475.08,515.2a.682.682,0,0,1-1.219-.615,47.013,47.013,0,0,0,3.446-33.466Zm-7.459-53.611a.684.684,0,1,1-.2-1.353,55.093,55.093,0,0,1,23.033,1.359.682.682,0,1,1-.363,1.315,53.691,53.691,0,0,0-22.467-1.321Zm-6.958,5.108a.683.683,0,0,1-.406-1.3c.3-.091.628-.193,1.006-.3h0c.356-.1.7-.2,1.021-.287a51.773,51.773,0,0,1,34.754,2.793.683.683,0,0,1-.561,1.245,50.416,50.416,0,0,0-33.84-2.718q-.526.141-.988.277h0c-.287.084-.618.185-.981.3Zm-4.569,5.4a.682.682,0,0,1-.566-1.24q1.833-.835,3.767-1.533,1.915-.688,3.872-1.214a48.43,48.43,0,0,1,37.992,5.531.683.683,0,0,1-.711,1.165,47.071,47.071,0,0,0-36.929-5.377q-1.946.521-3.766,1.177-1.869.672-3.66,1.49Zm-3.418,5.7a.681.681,0,1,1-.716-1.159,45.128,45.128,0,0,1,52.126,3.248.682.682,0,1,1-.856,1.063,43.844,43.844,0,0,0-50.554-3.152Zm-2.623,6.081a.682.682,0,1,1-.866-1.053,41.435,41.435,0,0,1,7.425-4.9,41.743,41.743,0,0,1,49.55,8.527.683.683,0,0,1-.995.935,40.432,40.432,0,0,0-47.931-8.249,40.076,40.076,0,0,0-7.184,4.734Zm-1.963,6.642a.681.681,0,1,1-1.021-.9,38.324,38.324,0,0,1,60.44,3.987.683.683,0,0,1-1.133.764,36.93,36.93,0,0,0-58.286-3.848Zm-1.295,7.6a.684.684,0,1,1-1.181-.689,34.894,34.894,0,0,1,62.43,4.411.683.683,0,1,1-1.267.514,33.509,33.509,0,0,0-59.982-4.235Zm25.236,3.03a.685.685,0,0,1,.165-.02l-.165.02Z" fill="#38a2ff"/>
      </g>
    </g>
  </g>
</svg>
