<svg xmlns="http://www.w3.org/2000/svg" xmlns:xlink="http://www.w3.org/1999/xlink" width="720.406" height="629.718" viewBox="0 0 720.406 629.718"><defs><filter id="a" x="101.406" y="0" width="619" height="462" filterUnits="userSpaceOnUse"><feOffset dy="3" input="SourceAlpha"/><feGaussianBlur stdDeviation="3" result="b"/><feFlood flood-opacity="0.102"/><feComposite operator="in" in2="b"/><feComposite in="SourceGraphic"/></filter><pattern id="c" preserveAspectRatio="xMidYMid slice" width="100%" height="100%" viewBox="0 0 512 512"><image width="512" height="512" xlink:href="Group%2024449-image.jpg"/></pattern><filter id="d" x="323.14" y="42.553" width="19" height="407.846" filterUnits="userSpaceOnUse"><feOffset dy="3" input="SourceAlpha"/><feGaussianBlur stdDeviation="3" result="e"/><feFlood flood-opacity="0.161"/><feComposite operator="in" in2="e"/><feComposite in="SourceGraphic"/></filter><filter id="f" x="607" y="60" width="83" height="40" filterUnits="userSpaceOnUse"><feOffset dy="3" input="SourceAlpha"/><feGaussianBlur stdDeviation="3" result="g"/><feFlood flood-opacity="0.09"/><feComposite operator="in" in2="g"/><feComposite in="SourceGraphic"/></filter><pattern id="h" preserveAspectRatio="xMidYMid slice" width="100%" height="100%" viewBox="0 0 1024 1024"><image width="1024" height="1024" xlink:href="Group%2024449-image2.jpg"/></pattern><pattern id="i" preserveAspectRatio="none" width="100%" height="100%" viewBox="0 0 623 350"><image width="623" height="350" xlink:href="Group%2024449-image3.png"/></pattern><pattern id="j" width="1" height="1" patternTransform="matrix(-1, 0, 0, 1, 622, 0)" viewBox="0 7.667 311 192"><image preserveAspectRatio="xMidYMid slice" width="311" height="207.333" xlink:href="Group%2024449-image4.jpg"/></pattern><filter id="m" x="305" y="209" width="29" height="29" filterUnits="userSpaceOnUse"><feOffset dy="3" input="SourceAlpha"/><feGaussianBlur stdDeviation="3" result="n"/><feFlood flood-opacity="0.161"/><feComposite operator="in" in2="n"/><feComposite in="SourceGraphic"/></filter><filter id="o" x="305" y="329" width="29" height="29" filterUnits="userSpaceOnUse"><feOffset dy="3" input="SourceAlpha"/><feGaussianBlur stdDeviation="3" result="p"/><feFlood flood-opacity="0.161"/><feComposite operator="in" in2="p"/><feComposite in="SourceGraphic"/></filter></defs><g transform="translate(6 -10983)"><g transform="translate(-6 11227)"><path d="M875.653,187.68c101.853-22.434,166.905,21.863,257.309,12.008s198.7,96.347,157.317,187.212-121.39,36.634-239,83.018-186.293,66.176-276.752,8.889S773.8,210.114,875.653,187.68Z" transform="matrix(1, -0.017, 0.017, 1, -740.243, -158.549)" fill="#38a2ff" opacity="0.1"/></g><g transform="translate(303.425 10244.076) rotate(45)"><rect width="3.515" height="3.515" transform="translate(1064 667)" fill="#2a52c6"/><rect width="3.515" height="3.515" transform="translate(1079.231 667)" fill="#2a52c6"/><rect width="3.515" height="3.515" transform="translate(1094.462 667)" fill="#2a52c6"/><rect width="3.515" height="3.515" transform="translate(1109.693 667)" fill="#2a52c6"/><rect width="3.515" height="3.515" transform="translate(1124.924 667)" fill="#2a52c6"/><rect width="3.515" height="3.515" transform="translate(1140.155 667)" fill="#2a52c6"/><rect width="3.515" height="3.515" transform="translate(1155.386 667)" fill="#2a52c6"/><rect width="3.515" height="3.515" transform="translate(1064 682.231)" fill="#2a52c6"/><rect width="3.515" height="3.515" transform="translate(1079.231 682.231)" fill="#2a52c6"/><rect width="3.515" height="3.515" transform="translate(1094.462 682.231)" fill="#2a52c6"/><rect width="3.515" height="3.515" transform="translate(1109.693 682.231)" fill="#2a52c6"/><rect width="3.515" height="3.515" transform="translate(1124.924 682.231)" fill="#2a52c6"/><rect width="3.515" height="3.515" transform="translate(1140.155 682.231)" fill="#2a52c6"/><rect width="3.515" height="3.515" transform="translate(1155.386 682.231)" fill="#2a52c6"/><rect width="3.515" height="3.515" transform="translate(1064 697.462)" fill="#2a52c6"/><rect width="3.515" height="3.515" transform="translate(1079.231 697.462)" fill="#2a52c6"/><rect width="3.515" height="3.515" transform="translate(1094.462 697.462)" fill="#2a52c6"/><rect width="3.515" height="3.515" transform="translate(1109.693 697.462)" fill="#2a52c6"/><rect width="3.515" height="3.515" transform="translate(1124.924 697.462)" fill="#2a52c6"/><rect width="3.515" height="3.515" transform="translate(1140.155 697.462)" fill="#2a52c6"/><rect width="3.515" height="3.515" transform="translate(1155.386 697.462)" fill="#2a52c6"/><rect width="3.515" height="3.515" transform="translate(1064 712.693)" fill="#2a52c6"/><rect width="3.515" height="3.515" transform="translate(1079.231 712.693)" fill="#2a52c6"/><rect width="3.515" height="3.515" transform="translate(1094.462 712.693)" fill="#2a52c6"/><rect width="3.515" height="3.515" transform="translate(1109.693 712.693)" fill="#2a52c6"/><rect width="3.515" height="3.515" transform="translate(1124.924 712.693)" fill="#2a52c6"/><rect width="3.515" height="3.515" transform="translate(1140.155 712.693)" fill="#2a52c6"/><rect width="3.515" height="3.515" transform="translate(1155.386 712.693)" fill="#2a52c6"/><rect width="3.515" height="3.515" transform="translate(1064 727.924)" fill="#2a52c6"/><rect width="3.515" height="3.515" transform="translate(1079.231 727.924)" fill="#2a52c6"/><rect width="3.515" height="3.515" transform="translate(1094.462 727.924)" fill="#2a52c6"/><rect width="3.515" height="3.515" transform="translate(1109.693 727.924)" fill="#2a52c6"/><rect width="3.515" height="3.515" transform="translate(1124.924 727.924)" fill="#2a52c6"/><rect width="3.515" height="3.515" transform="translate(1140.155 727.924)" fill="#2a52c6"/><rect width="3.515" height="3.515" transform="translate(1155.386 727.924)" fill="#2a52c6"/><rect width="3.515" height="3.515" transform="translate(1064 741.983)" fill="#2a52c6"/><rect width="3.515" height="3.515" transform="translate(1079.231 741.983)" fill="#2a52c6"/><rect width="3.515" height="3.515" transform="translate(1094.462 741.983)" fill="#2a52c6"/><rect width="3.515" height="3.515" transform="translate(1109.693 741.983)" fill="#2a52c6"/><rect width="3.515" height="3.515" transform="translate(1124.924 741.983)" fill="#2a52c6"/><rect width="3.515" height="3.515" transform="translate(1140.155 741.983)" fill="#2a52c6"/><rect width="3.515" height="3.515" transform="translate(1155.386 741.983)" fill="#2a52c6"/><rect width="3.515" height="3.515" transform="translate(1064 757.214)" fill="#2a52c6"/><rect width="3.515" height="3.515" transform="translate(1079.231 757.214)" fill="#2a52c6"/><rect width="3.515" height="3.515" transform="translate(1094.462 757.214)" fill="#2a52c6"/><rect width="3.515" height="3.515" transform="translate(1109.693 757.214)" fill="#2a52c6"/><rect width="3.515" height="3.515" transform="translate(1124.924 757.214)" fill="#2a52c6"/><rect width="3.515" height="3.515" transform="translate(1140.155 757.214)" fill="#2a52c6"/><rect width="3.515" height="3.515" transform="translate(1155.386 757.214)" fill="#2a52c6"/></g><g transform="translate(296 11569)"><path d="M9.177,0l9.177,15.566H0Z" transform="matrix(0.891, 0.454, -0.454, 0.891, 159.205, 1.395)" fill="#2a52c6"/><circle cx="4.194" cy="4.194" r="4.194" transform="matrix(0.951, -0.309, 0.309, 0.951, 0, 35.739)" fill="#38a2ff"/><rect width="10.067" height="10.067" transform="matrix(0.951, -0.309, 0.309, 0.951, 35.266, 3.111)" fill="#f8ced7"/></g><g transform="translate(104 10989)"><g transform="matrix(1, 0, 0, 1, -110, -6)" filter="url(#a)"><g transform="translate(110.41 6)" fill="#fff"><path d="M 596 439 L 5 439 L 5 4.999984741210938 L 596 4.999984741210938 L 596 439 Z" stroke="none"/><path d="M 10 9.999969482421875 L 10 434 L 591 434 L 591 9.999969482421875 L 10 9.999969482421875 M 0 0 L 601 0 L 601 444 L 0 444 L 0 0 Z" stroke="none" fill="#edf2f7"/></g></g><g fill="#edf2f7"><path d="M 596.4063110351563 37.00253295898438 L 5.000041484832764 37.00253295898438 L 5.000041484832764 5.0000319480896 L 596.4063110351563 5.0000319480896 L 596.4063110351563 37.00253295898438 Z" stroke="none"/><path d="M 9.99993896484375 10.00003051757813 L 9.99993896484375 32.00253295898438 L 591.4061889648438 32.00253295898438 L 591.4061889648438 10.00003051757813 L 9.99993896484375 10.00003051757813 M -6.103515625e-05 3.0517578125e-05 L 601.4061889648438 3.0517578125e-05 L 601.4061889648438 42.00253295898438 L -6.103515625e-05 42.00253295898438 L -6.103515625e-05 3.0517578125e-05 Z" stroke="none" fill="#edf2f7"/></g><g transform="translate(14.473 16)"><circle cx="5.432" cy="5.432" r="5.432" transform="translate(0 0)" fill="#c8d8e3"/><circle cx="5.432" cy="5.432" r="5.432" transform="translate(19.298 0)" fill="#c8d8e3"/><circle cx="5.432" cy="5.432" r="5.432" transform="translate(37.952 0)" fill="#c8d8e3"/></g></g><g transform="translate(-3055 22223)"><g transform="translate(3170 -11192)"><path d="M0,0H570.268V389.846H0Z" transform="translate(0)" fill="#fff"/><g transform="translate(0)"><rect width="36" height="391" fill="#7dac80"/></g><circle cx="11" cy="11" r="11" transform="translate(9 10)" fill="url(#c)"/><rect width="233" height="49" transform="translate(337 341)" fill="#fff"/><g transform="translate(36)"><rect width="176" height="390" fill="#f5f6f8"/><line x2="138.146" transform="translate(17.601 138.916)" fill="none" stroke="#c8d8e3" stroke-width="1"/><path d="M9.816,8.6,7.878,6.667a.466.466,0,0,0-.33-.136H7.231a4.041,4.041,0,1,0-.7.7v.317a.466.466,0,0,0,.136.33L8.6,9.816a.465.465,0,0,0,.659,0l.55-.55a.469.469,0,0,0,0-.661ZM4.043,6.531A2.488,2.488,0,1,1,6.531,4.043,2.487,2.487,0,0,1,4.043,6.531Z" transform="translate(21.056 126.078)" fill="#c8d8e3"/><path d="M12.975,6.463,9.38,5.94,7.773,2.683,6.165,5.94l-3.594.522L5.172,9l-.614,3.58,3.215-1.69,3.215,1.69L10.374,9l2.6-2.536Z" transform="translate(15.583 46.069)" fill="#e8af13"/><path d="M12.975,6.463,9.38,5.94,7.773,2.683,6.165,5.94l-3.594.522L5.172,9l-.614,3.58,3.215-1.69,3.215,1.69L10.374,9l2.6-2.536Z" transform="translate(28.101 46.069)" fill="#e8af13"/><path d="M12.975,6.463,9.38,5.94,7.773,2.683,6.165,5.94l-3.594.522L5.172,9l-.614,3.58,3.215-1.69,3.215,1.69L10.374,9l2.6-2.536Z" transform="translate(39.726 46.069)" fill="#e8af13"/><path d="M12.975,6.463,9.38,5.94,7.773,2.683,6.165,5.94l-3.594.522L5.172,9l-.614,3.58,3.215-1.69,3.215,1.69L10.374,9l2.6-2.536Z" transform="translate(51.35 46.069)" fill="#e8af13"/><path d="M12.975,6.463,9.38,5.94,7.773,2.683,6.165,5.94l-3.594.522L5.172,9l-.614,3.58,3.215-1.69,3.215,1.69L10.374,9l2.6-2.536Z" transform="translate(62.08 46.069)" fill="#c8d8e3"/></g><g transform="matrix(1, 0, 0, 1, -121, -48)" filter="url(#d)"><line y1="389.846" transform="translate(332.64 48.55)" fill="none" stroke="#fff" stroke-width="1"/></g><g transform="matrix(1, 0, 0, 1, -121, -48)" filter="url(#f)"><path d="M2,0H63a2,2,0,0,1,2,2V20a2,2,0,0,1-2,2H2a2,2,0,0,1-2-2V2A2,2,0,0,1,2,0Z" transform="translate(616 66)" fill="#fd6969"/></g><rect width="130" height="12" transform="translate(53 22)" fill="#637c8e"/><rect width="97" height="7" transform="translate(86 82)" fill="#c8d8e3"/><rect width="79" height="7" transform="translate(86 96)" fill="#e1e9ef"/><rect width="129" height="7" transform="translate(54 161)" fill="#c8d8e3"/><rect width="55" height="6" transform="translate(54 176)" fill="#e1e9ef"/><rect width="129" height="6" transform="translate(54 278)" fill="#c8d8e3"/><rect width="55" height="7" transform="translate(54 292)" fill="#e1e9ef"/><rect width="129" height="7" transform="translate(54 336)" fill="#c8d8e3"/><rect width="55" height="6" transform="translate(54 351)" fill="#e1e9ef"/><rect width="130" height="13" transform="translate(258 46)" fill="#637c8e"/><rect width="38" height="7" transform="translate(259 66)" fill="#e1e9ef"/><rect width="38" height="7" transform="translate(312 66)" fill="#e1e9ef"/><circle cx="12.5" cy="12.5" r="12.5" transform="translate(53 80)" fill="url(#h)"/><rect width="74" height="42" transform="translate(245 2)" fill="url(#i)"/><path d="M0,0H36.471V32.05H0Z" transform="translate(0 57.469)" fill="#609663"/><path d="M8.629,2.25A8.629,8.629,0,0,0,1.17,15.217a.948.948,0,0,0,.822.455H15.265a.948.948,0,0,0,.822-.455A8.629,8.629,0,0,0,8.629,2.25Zm0,1.918a.946.946,0,0,1,.908.709,1.615,1.615,0,0,0-.1.2l-.276.829a.934.934,0,0,1-.529.18.959.959,0,0,1,0-1.918ZM2.876,12.8a.959.959,0,1,1,.959-.959A.959.959,0,0,1,2.876,12.8ZM4.314,8a.959.959,0,1,1,.959-.959A.959.959,0,0,1,4.314,8Zm7.394-2.17L9.871,11.346a1.882,1.882,0,0,1,.41,2.409h-3.3a1.9,1.9,0,0,1,1.529-2.864l1.838-5.513a.719.719,0,1,1,1.364.455Zm.439,1.714.465-1.395a.945.945,0,0,1,.331-.067.959.959,0,0,1,0,1.918.944.944,0,0,1-.8-.456Zm2.234,5.25a.959.959,0,1,1,.959-.959A.959.959,0,0,1,14.382,12.8Z" transform="translate(9.947 65.165)" fill="#fff"/><path d="M7.367,3a1.365,1.365,0,0,0-1.36,1.367L6,15.3a1.365,1.365,0,0,0,1.36,1.367h8.207A1.371,1.371,0,0,0,16.933,15.3V7.1L12.833,3ZM12.15,7.783V4.025l3.758,3.758Z" transform="translate(6.157 154.078)" fill="#fff" opacity="0.4"/><path d="M.372,4.435,7.351,7.6a.767.767,0,0,0,.638,0l6.979-3.166a.669.669,0,0,0,0-1.2L7.989.069a.767.767,0,0,0-.638,0L.372,3.235a.67.67,0,0,0,0,1.2Zm14.6,2.645-1.74-.789-4.843,2.2a1.727,1.727,0,0,1-1.43,0l-4.843-2.2L.372,7.08a.669.669,0,0,0,0,1.2l6.979,3.164a.769.769,0,0,0,.638,0l6.98-3.164a.669.669,0,0,0,0-1.2Zm0,3.829-1.734-.786-4.85,2.2a1.727,1.727,0,0,1-1.43,0l-4.849-2.2-1.734.786a.669.669,0,0,0,0,1.2l6.979,3.164a.769.769,0,0,0,.638,0l6.98-3.164A.669.669,0,0,0,14.968,10.909Z" transform="translate(9.581 111.671)" fill="#fff" opacity="0.4"/><path d="M18.26,12A1.93,1.93,0,0,1,19.5,10.2a7.65,7.65,0,0,0-.926-2.23,1.956,1.956,0,0,1-.785.168,1.926,1.926,0,0,1-1.761-2.711A7.627,7.627,0,0,0,13.8,4.5a1.928,1.928,0,0,1-3.6,0,7.65,7.65,0,0,0-2.23.926A1.926,1.926,0,0,1,6.207,8.136a1.892,1.892,0,0,1-.785-.168A7.819,7.819,0,0,0,4.5,10.2a1.929,1.929,0,0,1,0,3.6,7.65,7.65,0,0,0,.926,2.23,1.926,1.926,0,0,1,2.543,2.543,7.7,7.7,0,0,0,2.23.926,1.925,1.925,0,0,1,3.593,0,7.65,7.65,0,0,0,2.23-.926,1.928,1.928,0,0,1,2.543-2.543,7.7,7.7,0,0,0,.926-2.23A1.939,1.939,0,0,1,18.26,12ZM12.034,15.12A3.125,3.125,0,1,1,15.159,12,3.124,3.124,0,0,1,12.034,15.12Z" transform="translate(5.424 198.113)" fill="#fff" opacity="0.4"/><path d="M10.274,3.375a6.9,6.9,0,1,0,6.9,6.9A6.9,6.9,0,0,0,10.274,3.375Zm.7,11.044H9.577V13.026H10.97Zm-.007-2.089H9.584c0-2.222,2.07-2.063,2.07-3.443A1.386,1.386,0,0,0,10.274,7.5a1.4,1.4,0,0,0-1.38,1.376H7.514a2.759,2.759,0,0,1,5.519,0C13.033,10.609,10.963,10.8,10.963,12.33Z" transform="translate(8.066 291.283)" fill="#fff" opacity="0.4"/><path d="M7.67,8.629A4.315,4.315,0,1,0,3.356,4.315,4.316,4.316,0,0,0,7.67,8.629Zm3.835.959H9.854a5.216,5.216,0,0,1-4.368,0H3.835A3.835,3.835,0,0,0,0,13.423V13.9A1.439,1.439,0,0,0,1.438,15.34H13.9A1.439,1.439,0,0,0,15.34,13.9v-.479A3.835,3.835,0,0,0,11.505,9.588Z" transform="translate(10.336 248.118)" fill="#fff" opacity="0.4"/><g transform="translate(36.471 202.246)"><rect width="175" height="53" transform="translate(-0.471 -0.246)" fill="#fff"/><rect width="129" height="7" transform="translate(17.529 18.754)" fill="#c8d8e3"/><rect width="55" height="7" transform="translate(17.529 32.754)" fill="#e1e9ef"/><g transform="translate(156.934 22.103)"><path d="M18,3V5.431" transform="translate(-11.922 -3)" fill="none" stroke="#38a2ff" stroke-linecap="round" stroke-linejoin="round" stroke-width="1"/><path d="M18,27v2.431" transform="translate(-11.922 -17.274)" fill="none" stroke="#38a2ff" stroke-linecap="round" stroke-linejoin="round" stroke-width="1"/><path d="M7.4,7.4l1.72,1.72" transform="translate(-5.614 -5.614)" fill="none" stroke="#38a2ff" stroke-linecap="round" stroke-linejoin="round" stroke-width="1"/><path d="M24.36,24.36l1.72,1.72" transform="translate(-15.704 -15.704)" fill="none" stroke="#38a2ff" stroke-linecap="round" stroke-linejoin="round" stroke-width="1"/><path d="M3,18H5.431" transform="translate(-3 -11.922)" fill="none" stroke="#38a2ff" stroke-linecap="round" stroke-linejoin="round" stroke-width="1"/><path d="M27,18h2.431" transform="translate(-17.274 -11.922)" fill="none" stroke="#38a2ff" stroke-linecap="round" stroke-linejoin="round" stroke-width="1"/><path d="M7.4,26.08l1.72-1.72" transform="translate(-5.614 -15.704)" fill="none" stroke="#38a2ff" stroke-linecap="round" stroke-linejoin="round" stroke-width="1"/><path d="M24.36,9.115,26.08,7.4" transform="translate(-15.704 -5.614)" fill="none" stroke="#38a2ff" stroke-linecap="round" stroke-linejoin="round" stroke-width="1"/></g></g></g><rect width="311" height="192" transform="translate(3419 -11108)" fill="url(#j)"/><circle cx="11" cy="11" r="11" transform="translate(3429 -10894)" fill="url(#c)"/><g transform="translate(3455 -10898)" fill="#fff" stroke="#e1e9ef" stroke-width="1"><rect width="273" height="31" stroke="none"/><rect x="0.5" y="0.5" width="272" height="30" fill="none"/></g><circle cx="11" cy="11" r="11" transform="translate(3429 -10854)" fill="url(#c)"/><rect width="44" height="6" transform="translate(3461 -10849)" fill="#c8d8e3"/><rect width="267" height="6" transform="translate(3461 -10838)" fill="#edf2f7"/><rect width="226" height="6" transform="translate(3461 -10826)" fill="#edf2f7"/><g transform="matrix(1, 0, 0, 1, 3049, -11240)" filter="url(#m)"><circle cx="5.5" cy="5.5" r="5.5" transform="translate(314 215)" fill="#63bb67"/></g><g transform="matrix(1, 0, 0, 1, 3049, -11240)" filter="url(#o)"><circle cx="5.5" cy="5.5" r="5.5" transform="translate(314 335)" fill="#fd6969"/></g><g transform="translate(3418.237 -10933.054)"><g transform="translate(0 0.048)"><rect width="27.036" height="16.898" transform="translate(0 0)" fill="#00acdc"/><g transform="translate(10.31 5.095)"><path d="M6.368-36.324,0-40v7.353l6.368-3.676" transform="translate(0 40)" fill="#fff" fill-rule="evenodd"/></g></g><rect width="284.727" height="16.898" transform="translate(27.036 0.048)" fill="#00acdc" opacity="0.5"/><g transform="translate(227.275 0)"><g transform="translate(50.693 0.048)"><rect width="16.898" height="16.898" transform="translate(0 0)" fill="#00acdc"/><g transform="translate(4.858 3.802)"><g transform="translate(0 1.453)"><g transform="translate(0 0)"><path d="M22.77,26h-.555a.416.416,0,0,1-.415-.416v-.409a.209.209,0,0,0-.142-.2,2.6,2.6,0,0,1-.322-.134.208.208,0,0,0-.241.039l-.289.289a.414.414,0,0,1-.587,0l-.393-.393a.416.416,0,0,1,0-.588l.289-.289a.209.209,0,0,0,.039-.241,2.611,2.611,0,0,1-.134-.323.208.208,0,0,0-.2-.142h-.408A.416.416,0,0,1,19,22.776V22.22a.416.416,0,0,1,.415-.416h.408a.208.208,0,0,0,.2-.142,2.6,2.6,0,0,1,.134-.323.209.209,0,0,0-.039-.241l-.289-.289a.416.416,0,0,1,0-.588l.393-.393a.414.414,0,0,1,.587,0l.289.289a.209.209,0,0,0,.241.039,2.6,2.6,0,0,1,.323-.134.209.209,0,0,0,.142-.2v-.409A.416.416,0,0,1,22.214,19h.555a.416.416,0,0,1,.415.416v.409a.209.209,0,0,0,.142.2,2.6,2.6,0,0,1,.323.134.209.209,0,0,0,.241-.039l.289-.289a.414.414,0,0,1,.587,0l.393.393a.416.416,0,0,1,0,.588l-.289.289a.209.209,0,0,0-.039.241,2.605,2.605,0,0,1,.134.323.208.208,0,0,0,.2.142h.408a.416.416,0,0,1,.415.416v.556a.415.415,0,0,1-.415.416h-.408a.208.208,0,0,0-.2.142,2.609,2.609,0,0,1-.134.323.209.209,0,0,0,.039.241l.289.289a.416.416,0,0,1,0,.588l-.393.393a.414.414,0,0,1-.587,0l-.289-.289a.208.208,0,0,0-.241-.039,2.6,2.6,0,0,1-.323.134.209.209,0,0,0-.142.2v.409A.416.416,0,0,1,22.77,26Zm-1.528-1.385a.415.415,0,0,1,.185.043,2.39,2.39,0,0,0,.3.123.415.415,0,0,1,.282.394v.409a.209.209,0,0,0,.209.209h.555a.209.209,0,0,0,.209-.209v-.409a.415.415,0,0,1,.282-.394,2.391,2.391,0,0,0,.3-.123.414.414,0,0,1,.478.078l.289.289a.208.208,0,0,0,.295,0l.393-.393a.209.209,0,0,0,0-.3l-.289-.289a.416.416,0,0,1-.078-.479,2.4,2.4,0,0,0,.123-.3.415.415,0,0,1,.393-.283h.408a.209.209,0,0,0,.209-.209V22.22a.209.209,0,0,0-.209-.209h-.408a.415.415,0,0,1-.393-.283,2.4,2.4,0,0,0-.123-.3.416.416,0,0,1,.078-.479l.289-.289a.209.209,0,0,0,0-.3l-.393-.393a.208.208,0,0,0-.295,0l-.289.289a.414.414,0,0,1-.478.078,2.39,2.39,0,0,0-.3-.123.415.415,0,0,1-.282-.394v-.409a.209.209,0,0,0-.209-.209h-.555a.209.209,0,0,0-.209.209v.409a.415.415,0,0,1-.282.394,2.394,2.394,0,0,0-.3.123.414.414,0,0,1-.478-.078l-.289-.289a.208.208,0,0,0-.295,0l-.393.393a.209.209,0,0,0,0,.3l.289.289a.416.416,0,0,1,.078.479,2.4,2.4,0,0,0-.123.3.415.415,0,0,1-.393.283h-.408a.209.209,0,0,0-.209.209v.556a.209.209,0,0,0,.209.209h.408a.415.415,0,0,1,.393.283,2.4,2.4,0,0,0,.123.3.416.416,0,0,1-.078.479l-.289.289a.209.209,0,0,0,0,.3l.393.393a.208.208,0,0,0,.295,0l.289-.289A.414.414,0,0,1,21.242,24.611Z" transform="translate(-19 -19)" fill="#fff" stroke="#fff" stroke-width="0.5"/><g transform="translate(1.901 1.926)"><g transform="translate(0)" fill="none" stroke="#fff" stroke-width="0.5"><circle cx="1.479" cy="1.479" r="1.479" stroke="none"/><circle cx="1.479" cy="1.479" r="1.229" fill="none"/></g></g></g></g><g transform="translate(3.591)"><path d="M2.315,0H4.444A2.315,2.315,0,0,1,6.759,2.315v.017A2.315,2.315,0,0,1,4.444,4.647H2.315A2.315,2.315,0,0,1,0,2.332V2.315A2.315,2.315,0,0,1,2.315,0Z" fill="#011a22"/><text transform="translate(5.196 2.811)" fill="#fff" font-size="2" font-family="ArialMT, Arial"><tspan x="-2.889" y="0">HD</tspan></text></g></g></g><g transform="translate(67.591 0.048)"><rect width="16.898" height="16.898" transform="translate(0 0)" fill="#00acdc"/><g transform="translate(4.647 4.647)"><path d="M3.238-38.643H1v2.212" transform="translate(-1 38.643)" fill="none" stroke="#fff" stroke-linejoin="round" stroke-width="0.5"/><path d="M1-12.293v2.212H3.238" transform="translate(-1 17.454)" fill="none" stroke="#fff" stroke-linejoin="round" stroke-width="0.5"/><path d="M27.484-10.081H29.67v-2.212" transform="translate(-22.297 17.454)" fill="none" stroke="#fff" stroke-linejoin="round" stroke-width="0.5"/><path d="M29.67-36.431v-2.212H27.484" transform="translate(-22.297 38.643)" fill="none" stroke="#fff" stroke-linejoin="round" stroke-width="0.5"/></g></g><g transform="translate(0 0.048)"><rect width="16.898" height="16.898" transform="translate(0 0)" fill="#00acdc"/><g transform="translate(4.647 4.647)"><path d="M24.61-32.121A3.773,3.773,0,0,1,26.418-28.9a3.774,3.774,0,0,1-1.9,3.275" transform="translate(-19.232 32.585)" fill="none" stroke="#fff" stroke-linejoin="round" stroke-width="0.5"/><path d="M21.732-26.188a2.3,2.3,0,0,1,1.074,1.946,2.3,2.3,0,0,1-1.149,1.991" transform="translate(-16.987 27.931)" fill="none" stroke="#fff" stroke-linejoin="round" stroke-width="0.5"/><path d="M4.166-31.31a.756.756,0,0,1,.539.723.755.755,0,0,1-.539.723V-26.9l-2.52-2.229H0v-2.911H1.646l2.52-2.229Z" transform="translate(0 34.271)" fill="#fff" fill-rule="evenodd"/></g></g><g transform="translate(16.898 0.048)"><g transform="translate(0 0)"><rect width="16.898" height="16.898" fill="#00acdc"/></g><g transform="translate(5.069 4.647)"><path d="M418.285,559.57a1.285,1.285,0,1,1,1.285-1.285A1.285,1.285,0,0,1,418.285,559.57Z" transform="translate(-412.41 -552.227)" fill="#fff" fill-rule="evenodd"/><path d="M418.285,533.57a1.285,1.285,0,1,1,1.285-1.285A1.285,1.285,0,0,1,418.285,533.57Z" transform="translate(-412.41 -531)" fill="#fff" fill-rule="evenodd"/><path d="M393.285,546.57a1.285,1.285,0,1,1,1.285-1.285A1.285,1.285,0,0,1,393.285,546.57Z" transform="translate(-392 -541.613)" fill="#fff" fill-rule="evenodd"/><path d="M403.365,537.775l-4.627,2.424,4.627,2.514" transform="translate(-397.501 -536.531)" fill="none" stroke="#fff" stroke-width="0.5" opacity="0.3"/></g></g><g transform="translate(33.806 0)"><g transform="translate(0)"><rect width="16.988" height="16.988" fill="#00acdc" opacity="0.7"/></g><g transform="translate(4.123 5.116)"><path d="M392.845,545.69a.845.845,0,1,1,.845-.845A.845.845,0,0,1,392.845,545.69Z" transform="translate(-392 -544)" fill="#fff" fill-rule="evenodd"/><g transform="translate(0 2.388)"><path d="M392.845,545.69a.845.845,0,1,1,.845-.845A.845.845,0,0,1,392.845,545.69Z" transform="translate(-392 -544)" fill="#fff" fill-rule="evenodd"/></g><g transform="translate(0 4.923)"><path d="M392.845,545.69a.845.845,0,1,1,.845-.845A.845.845,0,0,1,392.845,545.69Z" transform="translate(-392 -544)" fill="#fff" fill-rule="evenodd"/></g><g transform="translate(2.746 0.738)"><line x2="5.492" transform="translate(0 2.608)" fill="none" stroke="#fff" stroke-linecap="round" stroke-width="0.5"/><line x2="5.492" transform="translate(0 5.217)" fill="none" stroke="#fff" stroke-linecap="round" stroke-width="0.5"/><line x2="5.492" transform="translate(0)" fill="none" stroke="#fff" stroke-linecap="round" stroke-width="0.5"/></g></g></g></g></g></g></g></svg>