<svg xmlns="http://www.w3.org/2000/svg" width="1286.221" height="1167.717" viewBox="0 0 1286.221 1167.717"><g transform="translate(57 -22535)"><g transform="translate(747 23659)"><path d="M9.177,0l9.177,15.566H0Z" transform="matrix(0.891, 0.454, -0.454, 0.891, 159.205, 1.395)" fill="#2a52c6"/><circle cx="4.194" cy="4.194" r="4.194" transform="matrix(0.951, -0.309, 0.309, 0.951, 0, 35.739)" fill="#38a2ff"/><rect width="10.067" height="10.067" transform="matrix(0.951, -0.309, 0.309, 0.951, 35.266, 3.111)" fill="#f8ced7"/></g><g transform="translate(923 22535)"><path d="M7.083,0l7.083,13.212H0Z" transform="translate(14.027 15.055) rotate(-172)" fill="#2a52c6"/><circle cx="9" cy="9" r="9" transform="translate(252.028 157.77)" fill="#38a2ff"/><rect width="9" height="9" transform="translate(84.028 26.77)" fill="#f8ced7"/><path d="M7.51,0l7.51,12.437H0Z" transform="translate(295.6 230.886) rotate(45)" fill="#f8ced7"/></g><g transform="translate(-57 22740)"><g transform="translate(-224.153 -1224.002) rotate(45)"><rect width="3" height="3" transform="translate(1064 667)" fill="#2a52c6"/><rect width="3" height="3" transform="translate(1077 667)" fill="#2a52c6"/><rect width="3" height="3" transform="translate(1090 667)" fill="#2a52c6"/><rect width="3" height="3" transform="translate(1103 667)" fill="#2a52c6"/><rect width="3" height="3" transform="translate(1116 667)" fill="#2a52c6"/><rect width="3" height="3" transform="translate(1129 667)" fill="#2a52c6"/><rect width="3" height="3" transform="translate(1142 667)" fill="#2a52c6"/><rect width="3" height="3" transform="translate(1064 680)" fill="#2a52c6"/><rect width="3" height="3" transform="translate(1077 680)" fill="#2a52c6"/><rect width="3" height="3" transform="translate(1090 680)" fill="#2a52c6"/><rect width="3" height="3" transform="translate(1103 680)" fill="#2a52c6"/><rect width="3" height="3" transform="translate(1116 680)" fill="#2a52c6"/><rect width="3" height="3" transform="translate(1129 680)" fill="#2a52c6"/><rect width="3" height="3" transform="translate(1142 680)" fill="#2a52c6"/><rect width="3" height="3" transform="translate(1064 693)" fill="#2a52c6"/><rect width="3" height="3" transform="translate(1077 693)" fill="#2a52c6"/><rect width="3" height="3" transform="translate(1090 693)" fill="#2a52c6"/><rect width="3" height="3" transform="translate(1103 693)" fill="#2a52c6"/><rect width="3" height="3" transform="translate(1116 693)" fill="#2a52c6"/><rect width="3" height="3" transform="translate(1129 693)" fill="#2a52c6"/><rect width="3" height="3" transform="translate(1142 693)" fill="#2a52c6"/><rect width="3" height="3" transform="translate(1064 706)" fill="#2a52c6"/><rect width="3" height="3" transform="translate(1077 706)" fill="#2a52c6"/><rect width="3" height="3" transform="translate(1090 706)" fill="#2a52c6"/><rect width="3" height="3" transform="translate(1103 706)" fill="#2a52c6"/><rect width="3" height="3" transform="translate(1116 706)" fill="#2a52c6"/><rect width="3" height="3" transform="translate(1129 706)" fill="#2a52c6"/><rect width="3" height="3" transform="translate(1142 706)" fill="#2a52c6"/><rect width="3" height="3" transform="translate(1064 719)" fill="#2a52c6"/><rect width="3" height="3" transform="translate(1077 719)" fill="#2a52c6"/><rect width="3" height="3" transform="translate(1090 719)" fill="#2a52c6"/><rect width="3" height="3" transform="translate(1103 719)" fill="#2a52c6"/><rect width="3" height="3" transform="translate(1116 719)" fill="#2a52c6"/><rect width="3" height="3" transform="translate(1129 719)" fill="#2a52c6"/><rect width="3" height="3" transform="translate(1142 719)" fill="#2a52c6"/><rect width="3" height="3" transform="translate(1064 731)" fill="#2a52c6"/><rect width="3" height="3" transform="translate(1077 731)" fill="#2a52c6"/><rect width="3" height="3" transform="translate(1090 731)" fill="#2a52c6"/><rect width="3" height="3" transform="translate(1103 731)" fill="#2a52c6"/><rect width="3" height="3" transform="translate(1116 731)" fill="#2a52c6"/><rect width="3" height="3" transform="translate(1129 731)" fill="#2a52c6"/><rect width="3" height="3" transform="translate(1142 731)" fill="#2a52c6"/><rect width="3" height="3" transform="translate(1064 744)" fill="#2a52c6"/><rect width="3" height="3" transform="translate(1077 744)" fill="#2a52c6"/><rect width="3" height="3" transform="translate(1090 744)" fill="#2a52c6"/><rect width="3" height="3" transform="translate(1103 744)" fill="#2a52c6"/><rect width="3" height="3" transform="translate(1116 744)" fill="#2a52c6"/><rect width="3" height="3" transform="translate(1129 744)" fill="#2a52c6"/><rect width="3" height="3" transform="translate(1142 744)" fill="#2a52c6"/></g></g></g></svg>