<svg xmlns="http://www.w3.org/2000/svg" width="745.559" height="479.777" viewBox="0 0 745.559 479.777">
  <g id="Group_24471" data-name="Group 24471" transform="translate(-71 -13665.94)">
    <g id="Group_23177" data-name="Group 23177" transform="translate(-202.789 13523.731)">
      <path id="Path_31232" data-name="Path 31232" d="M325.728,521.374S241.59,431.037,311.5,333.234C373.527,246.456,445.846,252.387,498.9,287.6c22.6,15,87.752,1.848,143.207-86.451,75.624-120.417,337.766-47.383,289.97,137.881-23.13,89.655,70.394,92.913,22.74,182.532Z" transform="translate(-7.166)" fill="#f5bfcb" opacity="0.3"/>
      <g id="Group_23154" data-name="Group 23154" transform="translate(698.484 424.985)">
        <path id="Path_31233" data-name="Path 31233" d="M1812.426,1154.844l6.454,1.061a2.752,2.752,0,0,1,1.327.6,2.3,2.3,0,0,1,.762,1.175,1.958,1.958,0,0,1,.038.81l-14.848,89.991a2.37,2.37,0,0,1-2.719,1.787l-.128-.018-6.454-1.061-.127-.024a2.367,2.367,0,0,1-2-2.563l14.848-89.991a1.9,1.9,0,0,1,.1-.377,1.877,1.877,0,0,1,.194-.377,2.308,2.308,0,0,1,1.1-.869A2.757,2.757,0,0,1,1812.426,1154.844Z" transform="translate(-1794.672 -1154.805)" fill="#ffb93e"/>
        <path id="Path_31234" data-name="Path 31234" d="M1813.99,1318.449l-7.955,48.212a2.273,2.273,0,0,1-2.68,1.553l-.128-.018-6.454-1.061-.127-.024a2.271,2.271,0,0,1-2.039-2.33l6.978-42.291C1805.061,1322.368,1809.973,1321.559,1813.99,1318.449Z" transform="translate(-1794.586 -1272.75)" fill="#ffa412"/>
        <g id="Group_23153" data-name="Group 23153" transform="translate(5.156 0.183)">
          <rect id="Rectangle_17628" data-name="Rectangle 17628" width="1.037" height="11.582" transform="translate(8.136 11.415) rotate(-80.616)" fill="#ffa412"/>
          <rect id="Rectangle_17629" data-name="Rectangle 17629" width="1.037" height="11.582" transform="translate(7.565 14.88) rotate(-80.643)" fill="#ffa412"/>
          <rect id="Rectangle_17630" data-name="Rectangle 17630" width="1.037" height="11.582" transform="translate(6.88 19.03) rotate(-80.627)" fill="#ffa412"/>
          <rect id="Rectangle_17631" data-name="Rectangle 17631" width="1.037" height="11.582" transform="translate(5.83 25.394) rotate(-80.631)" fill="#ffa412"/>
          <rect id="Rectangle_17632" data-name="Rectangle 17632" width="1.037" height="11.582" transform="translate(4.719 32.123) rotate(-80.629)" fill="#ffa412"/>
          <rect id="Rectangle_17633" data-name="Rectangle 17633" width="1.037" height="11.582" transform="translate(3.017 42.441) rotate(-80.642)" fill="#ffa412"/>
          <rect id="Rectangle_17634" data-name="Rectangle 17634" width="1.037" height="11.582" transform="translate(1.423 52.098) rotate(-80.615)" fill="#ffa412"/>
          <rect id="Rectangle_17635" data-name="Rectangle 17635" width="1.037" height="11.582" transform="translate(0 60.725) rotate(-80.631)" fill="#ffa412"/>
          <rect id="Rectangle_17636" data-name="Rectangle 17636" width="1.037" height="11.582" transform="translate(8.68 8.122) rotate(-80.642)" fill="#ffa412"/>
          <rect id="Rectangle_17637" data-name="Rectangle 17637" width="1.037" height="11.582" transform="translate(9.039 5.944) rotate(-80.629)" fill="#ffa412"/>
          <rect id="Rectangle_17638" data-name="Rectangle 17638" width="1.036" height="11.582" transform="translate(9.386 3.842) rotate(-80.642)" fill="#ffa412"/>
          <path id="Path_31235" data-name="Path 31235" d="M1847.592,1160.94l11.428,1.879.105-.639a1.92,1.92,0,0,0,.024-.391l-11.349-1.866a1.9,1.9,0,0,0-.1.377Z" transform="translate(-1837.946 -1158.677)" fill="#ffa412"/>
          <path id="Path_31236" data-name="Path 31236" d="M1849.031,1156.329l11.093,1.824a2.3,2.3,0,0,0-.762-1.175l-9.231-1.518A2.306,2.306,0,0,0,1849.031,1156.329Z" transform="translate(-1838.983 -1155.46)" fill="#ffa412"/>
        </g>
      </g>
      <g id="Group_23156" data-name="Group 23156" transform="translate(710.192 424.985)">
        <path id="Path_31237" data-name="Path 31237" d="M1854.352,1154.844l6.454,1.061a2.754,2.754,0,0,1,1.327.6,2.3,2.3,0,0,1,.762,1.175,1.98,1.98,0,0,1,.038.81l-14.848,89.991a2.37,2.37,0,0,1-2.718,1.787l-.128-.018-6.454-1.061-.127-.024a2.367,2.367,0,0,1-2-2.563l14.848-89.991a1.9,1.9,0,0,1,.1-.377,1.864,1.864,0,0,1,.194-.377,2.306,2.306,0,0,1,1.1-.869A2.757,2.757,0,0,1,1854.352,1154.844Z" transform="translate(-1836.598 -1154.805)" fill="#ffb93e"/>
        <path id="Path_31238" data-name="Path 31238" d="M1855.916,1318.449l-7.955,48.212a2.274,2.274,0,0,1-2.68,1.553l-.128-.018-6.454-1.061-.127-.024a2.271,2.271,0,0,1-2.039-2.33l6.978-42.291C1846.987,1322.368,1851.9,1321.559,1855.916,1318.449Z" transform="translate(-1836.512 -1272.75)" fill="#ffa412"/>
        <g id="Group_23155" data-name="Group 23155" transform="translate(5.156 0.183)">
          <rect id="Rectangle_17639" data-name="Rectangle 17639" width="1.037" height="11.582" transform="translate(8.136 11.415) rotate(-80.616)" fill="#ffa412"/>
          <rect id="Rectangle_17640" data-name="Rectangle 17640" width="1.037" height="11.582" transform="matrix(0.163, -0.987, 0.987, 0.163, 7.564, 14.88)" fill="#ffa412"/>
          <rect id="Rectangle_17641" data-name="Rectangle 17641" width="1.036" height="11.582" transform="translate(6.879 19.03) rotate(-80.627)" fill="#ffa412"/>
          <rect id="Rectangle_17642" data-name="Rectangle 17642" width="1.037" height="11.582" transform="translate(5.83 25.394) rotate(-80.629)" fill="#ffa412"/>
          <rect id="Rectangle_17643" data-name="Rectangle 17643" width="1.037" height="11.582" transform="translate(4.719 32.123) rotate(-80.629)" fill="#ffa412"/>
          <rect id="Rectangle_17644" data-name="Rectangle 17644" width="1.037" height="11.582" transform="translate(3.017 42.44) rotate(-80.627)" fill="#ffa412"/>
          <rect id="Rectangle_17645" data-name="Rectangle 17645" width="1.037" height="11.582" transform="translate(1.423 52.099) rotate(-80.629)" fill="#ffa412"/>
          <rect id="Rectangle_17646" data-name="Rectangle 17646" width="1.037" height="11.582" transform="translate(0 60.725) rotate(-80.629)" fill="#ffa412"/>
          <rect id="Rectangle_17647" data-name="Rectangle 17647" width="1.037" height="11.582" transform="translate(8.68 8.12) rotate(-80.627)" fill="#ffa412"/>
          <rect id="Rectangle_17648" data-name="Rectangle 17648" width="1.037" height="11.582" transform="matrix(0.163, -0.987, 0.987, 0.163, 9.039, 5.945)" fill="#ffa412"/>
          <rect id="Rectangle_17649" data-name="Rectangle 17649" width="1.036" height="11.582" transform="translate(9.385 3.842) rotate(-80.642)" fill="#ffa412"/>
          <path id="Path_31239" data-name="Path 31239" d="M1889.518,1160.94l11.428,1.879.105-.639a1.869,1.869,0,0,0,.023-.391l-11.348-1.866a1.9,1.9,0,0,0-.1.377Z" transform="translate(-1879.872 -1158.677)" fill="#ffa412"/>
          <path id="Path_31240" data-name="Path 31240" d="M1890.957,1156.329l11.093,1.824a2.3,2.3,0,0,0-.762-1.175l-9.231-1.518A2.306,2.306,0,0,0,1890.957,1156.329Z" transform="translate(-1880.909 -1155.46)" fill="#ffa412"/>
        </g>
      </g>
      <g id="Group_23162" data-name="Group 23162" transform="translate(579.765 393.808)">
        <g id="Group_23158" data-name="Group 23158" transform="translate(9.731 114.866)">
          <path id="Path_31241" data-name="Path 31241" d="M1499.941,1457.232l-.012,6.54a2.755,2.755,0,0,1-.381,1.407,2.3,2.3,0,0,1-1.037.941,1.871,1.871,0,0,1-.4.129,1.92,1.92,0,0,1-.389.039l-91.208-.217a2.37,2.37,0,0,1-2.2-2.4c0-.043,0-.087,0-.13l.012-6.541c0-.043,0-.086,0-.13a2.367,2.367,0,0,1,2.209-2.386l91.208.217a1.961,1.961,0,0,1,.793.172,2.3,2.3,0,0,1,1.034.946A2.749,2.749,0,0,1,1499.941,1457.232Z" transform="translate(-1404.308 -1454.489)" fill="#ffb93e"/>
          <path id="Path_31242" data-name="Path 31242" d="M1455.137,1466.186l-48.863-.116a2.274,2.274,0,0,1-1.964-2.4c0-.043,0-.086,0-.129l.012-6.541c0-.043,0-.086,0-.13a2.27,2.27,0,0,1,1.972-2.386l42.863.1C1449.835,1458,1451.423,1462.72,1455.137,1466.186Z" transform="translate(-1404.308 -1454.488)" fill="#ffa412"/>
          <g id="Group_23157" data-name="Group 23157" transform="translate(33.502 0.075)">
            <rect id="Rectangle_17650" data-name="Rectangle 17650" width="11.582" height="1.037" transform="translate(49.976 11.7) rotate(-89.864)" fill="#ffa412"/>
            <rect id="Rectangle_17651" data-name="Rectangle 17651" width="11.582" height="1.037" transform="translate(46.467 11.692) rotate(-89.864)" fill="#ffa412"/>
            <rect id="Rectangle_17652" data-name="Rectangle 17652" width="11.582" height="1.037" transform="translate(42.258 11.682) rotate(-89.849)" fill="#ffa412"/>
            <rect id="Rectangle_17653" data-name="Rectangle 17653" width="11.582" height="1.037" transform="matrix(0.002, -1, 1, 0.002, 35.81, 11.667)" fill="#ffa412"/>
            <rect id="Rectangle_17654" data-name="Rectangle 17654" width="11.582" height="1.036" transform="translate(28.989 11.651) rotate(-89.864)" fill="#ffa412"/>
            <rect id="Rectangle_17655" data-name="Rectangle 17655" width="11.582" height="1.037" transform="translate(18.533 11.626) rotate(-89.864)" fill="#ffa412"/>
            <rect id="Rectangle_17656" data-name="Rectangle 17656" width="11.582" height="1.037" transform="translate(8.743 11.603) rotate(-89.864)" fill="#ffa412"/>
            <rect id="Rectangle_17657" data-name="Rectangle 17657" width="11.582" height="1.037" transform="matrix(0.003, -1, 1, 0.003, 0, 11.582)" fill="#ffa412"/>
            <rect id="Rectangle_17658" data-name="Rectangle 17658" width="11.582" height="1.037" transform="translate(53.317 11.709) rotate(-89.864)" fill="#ffa412"/>
            <rect id="Rectangle_17659" data-name="Rectangle 17659" width="11.582" height="1.037" transform="translate(55.525 11.714) rotate(-89.88)" fill="#ffa412"/>
            <rect id="Rectangle_17660" data-name="Rectangle 17660" width="11.582" height="1.037" transform="translate(57.654 11.719) rotate(-89.864)" fill="#ffa412"/>
            <path id="Path_31243" data-name="Path 31243" d="M1736.5,1455.26l-.021,11.582.648,0a1.911,1.911,0,0,0,.389-.04l.021-11.5a1.9,1.9,0,0,0-.389-.041Z" transform="translate(-1677.221 -1455.12)" fill="#ffa412"/>
            <path id="Path_31244" data-name="Path 31244" d="M1741.662,1455.881l-.02,11.242a2.3,2.3,0,0,0,1.037-.941l.017-9.355A2.3,2.3,0,0,0,1741.662,1455.881Z" transform="translate(-1680.941 -1455.567)" fill="#ffa412"/>
          </g>
        </g>
        <g id="Group_23160" data-name="Group 23160" transform="translate(0 103.261)">
          <path id="Path_31245" data-name="Path 31245" d="M1465.1,1415.676l-.012,6.541a2.755,2.755,0,0,1-.38,1.407,2.3,2.3,0,0,1-1.037.941,1.979,1.979,0,0,1-.793.168l-91.208-.217a2.37,2.37,0,0,1-2.2-2.4c0-.043,0-.086,0-.13l.012-6.541c0-.043,0-.086,0-.129a2.367,2.367,0,0,1,2.209-2.386l91.208.217c.059,0,.117,0,.174.009a.621.621,0,0,1,.075.009c.027,0,.055.007.082.012l.059.011a1.887,1.887,0,0,1,.4.13l.057.027c.018.008.038.018.056.028l.111.062.063.041c.02.012.038.024.056.038.036.024.069.049.1.075s.077.063.113.1.057.052.085.079l0,.005.056.058a2.258,2.258,0,0,1,.16.188c.016.02.03.039.044.059s.028.04.042.061c.028.042.056.085.082.128A2.749,2.749,0,0,1,1465.1,1415.676Z" transform="translate(-1369.463 -1412.933)" fill="#ffb93e"/>
          <path id="Path_31246" data-name="Path 31246" d="M1420.292,1424.63l-48.864-.116a2.272,2.272,0,0,1-1.963-2.4c0-.043,0-.086,0-.13l.012-6.541c0-.043,0-.086,0-.129a2.27,2.27,0,0,1,1.972-2.387l42.862.1c.02.094.039.189.059.285A21.426,21.426,0,0,0,1420.292,1424.63Z" transform="translate(-1369.463 -1412.932)" fill="#ffa412"/>
          <g id="Group_23159" data-name="Group 23159" transform="translate(33.505 0.075)">
            <rect id="Rectangle_17661" data-name="Rectangle 17661" width="11.582" height="1.037" transform="translate(49.974 11.7) rotate(-89.866)" fill="#ffa412"/>
            <rect id="Rectangle_17662" data-name="Rectangle 17662" width="11.582" height="1.036" transform="matrix(0.002, -1, 1, 0.002, 46.465, 11.692)" fill="#ffa412"/>
            <rect id="Rectangle_17663" data-name="Rectangle 17663" width="11.582" height="1.037" transform="translate(42.257 11.682) rotate(-89.864)" fill="#ffa412"/>
            <rect id="Rectangle_17664" data-name="Rectangle 17664" width="11.582" height="1.036" transform="translate(35.807 11.666) rotate(-89.864)" fill="#ffa412"/>
            <rect id="Rectangle_17665" data-name="Rectangle 17665" width="11.581" height="1.037" transform="matrix(0.002, -1, 1, 0.002, 28.988, 11.65)" fill="#ffa412"/>
            <rect id="Rectangle_17666" data-name="Rectangle 17666" width="11.582" height="1.036" transform="translate(18.529 11.625) rotate(-89.85)" fill="#ffa412"/>
            <rect id="Rectangle_17667" data-name="Rectangle 17667" width="11.582" height="1.037" transform="translate(8.741 11.602) rotate(-89.864)" fill="#ffa412"/>
            <rect id="Rectangle_17668" data-name="Rectangle 17668" width="11.582" height="1.037" transform="matrix(0.002, -1, 1, 0.002, 0, 11.582)" fill="#ffa412"/>
            <rect id="Rectangle_17669" data-name="Rectangle 17669" width="11.582" height="1.037" transform="matrix(0.002, -1, 1, 0.002, 53.314, 11.708)" fill="#ffa412"/>
            <rect id="Rectangle_17670" data-name="Rectangle 17670" width="11.582" height="1.036" transform="translate(55.52 11.713) rotate(-89.864)" fill="#ffa412"/>
            <rect id="Rectangle_17671" data-name="Rectangle 17671" width="11.582" height="1.037" transform="translate(57.651 11.719) rotate(-89.864)" fill="#ffa412"/>
            <path id="Path_31247" data-name="Path 31247" d="M1701.657,1413.7l-.021,11.582h.648a1.889,1.889,0,0,0,.389-.04l.021-11.5a1.9,1.9,0,0,0-.389-.041Z" transform="translate(-1642.379 -1413.562)" fill="#ffa412"/>
            <path id="Path_31248" data-name="Path 31248" d="M1706.817,1414.324l-.021,11.241a2.3,2.3,0,0,0,1.037-.941l.017-9.355A2.3,2.3,0,0,0,1706.817,1414.324Z" transform="translate(-1646.098 -1414.01)" fill="#ffa412"/>
          </g>
        </g>
        <path id="Path_31249" data-name="Path 31249" d="M1482.045,1375.266l-.012,6.541a2.754,2.754,0,0,1-.38,1.406,2.3,2.3,0,0,1-1.037.941,1.881,1.881,0,0,1-.4.129,1.908,1.908,0,0,1-.39.039l-91.208-.217a1.971,1.971,0,0,1-1.017-.288,2.563,2.563,0,0,1-1.176-2c0-.037-.006-.075-.007-.113s0-.087,0-.13l.012-6.541c0-.043,0-.086,0-.13a2.367,2.367,0,0,1,2.208-2.386l91.207.216a1.95,1.95,0,0,1,.389.041,1.869,1.869,0,0,1,.4.131,2.3,2.3,0,0,1,1.034.946A2.752,2.752,0,0,1,1482.045,1375.266Z" transform="translate(-1381.679 -1280.547)" fill="#ffb93e"/>
        <path id="Path_31250" data-name="Path 31250" d="M1437.241,1384.22l-48.863-.116a1.621,1.621,0,0,1-.907-.288,2.621,2.621,0,0,1-1.049-2c0-.037-.006-.075-.007-.113s0-.087,0-.13l.012-6.541c0-.043,0-.086,0-.13a2.271,2.271,0,0,1,1.972-2.386l42.863.1a21.805,21.805,0,0,0,5.68,11.31C1437.04,1384.029,1437.14,1384.125,1437.241,1384.22Z" transform="translate(-1381.679 -1280.546)" fill="#ffa412"/>
        <path id="Path_31251" data-name="Path 31251" d="M1489.943,1333.811l-.012,6.541a2.749,2.749,0,0,1-.381,1.406,2.3,2.3,0,0,1-1.037.941,1.874,1.874,0,0,1-.4.129,1.9,1.9,0,0,1-.389.039l-91.208-.217a2.37,2.37,0,0,1-2.2-2.4c0-.043,0-.087,0-.13l.012-6.541c0-.043,0-.086,0-.13a2.414,2.414,0,0,1,1.948-2.368,1.805,1.805,0,0,1,.261-.018l91.207.217a1.913,1.913,0,0,1,.389.041,1.887,1.887,0,0,1,.4.131,2.3,2.3,0,0,1,1.034.946A2.755,2.755,0,0,1,1489.943,1333.811Z" transform="translate(-1387.371 -1250.668)" fill="#ffb93e"/>
        <path id="Path_31252" data-name="Path 31252" d="M1445.139,1342.763l-48.864-.116a2.274,2.274,0,0,1-1.963-2.4c0-.043,0-.087,0-.13l.012-6.541c0-.043,0-.086,0-.13a2.358,2.358,0,0,1,1.739-2.369,1.431,1.431,0,0,1,.233-.018l42.863.1c0,.005,0,.013,0,.018C1439.844,1334.593,1441.431,1339.3,1445.139,1342.763Z" transform="translate(-1387.371 -1250.666)" fill="#ffa412"/>
        <path id="Path_31253" data-name="Path 31253" d="M1466.007,1292.345l-.012,6.541a2.753,2.753,0,0,1-.381,1.406,2.3,2.3,0,0,1-1.038.941,1.882,1.882,0,0,1-.4.129c-.043.008-.085.016-.128.022l-.072.008c-.023,0-.048,0-.072.006s-.078,0-.117,0l-91.207-.217a2.37,2.37,0,0,1-2.2-2.4c0-.043,0-.087,0-.13l.012-6.541c0-.043,0-.087,0-.13s0-.071.006-.106a2.459,2.459,0,0,1,1.658-2.2l.067-.018a1.941,1.941,0,0,1,.477-.059l91.207.216c.067,0,.133,0,.2.01l.088.011h0l.1.02a1.864,1.864,0,0,1,.4.13,2.3,2.3,0,0,1,1.034.946A2.753,2.753,0,0,1,1466.007,1292.345Z" transform="translate(-1370.12 -1220.783)" fill="#ffb93e"/>
        <path id="Path_31254" data-name="Path 31254" d="M1421.2,1301.3l-48.864-.116a2.274,2.274,0,0,1-1.963-2.4c0-.043,0-.087,0-.13l.012-6.54c0-.043,0-.087,0-.13s0-.071.006-.106a2.411,2.411,0,0,1,1.532-2.219.717.717,0,0,1,.085-.022,1.534,1.534,0,0,1,.349-.039l42.863.1c0,.028.011.054.017.082a21.555,21.555,0,0,0,5.943,11.5Z" transform="translate(-1370.12 -1220.781)" fill="#ffa412"/>
        <path id="Path_31255" data-name="Path 31255" d="M1465.4,1251.164l-.012,6.54a2.749,2.749,0,0,1-.381,1.406,2.3,2.3,0,0,1-1.037.941,1.8,1.8,0,0,1-.315.108h0c-.03.008-.057.016-.087.021a1.87,1.87,0,0,1-.389.039l-91.208-.216a1.74,1.74,0,0,1-.285-.023.907.907,0,0,1-.108-.02,2.442,2.442,0,0,1-1.806-2.353c0-.044,0-.087,0-.13l.012-6.541c0-.044,0-.087,0-.13a2.367,2.367,0,0,1,2.209-2.386l91.208.216c.058,0,.117,0,.174.009l.074.009c.027,0,.055.007.082.013l.058.011a1.848,1.848,0,0,1,.4.13l.057.026.056.028c.038.02.074.04.111.062s.08.05.119.078.069.049.1.075.076.063.113.1.057.052.086.079a.018.018,0,0,1,0,.006l.056.057a2.386,2.386,0,0,1,.16.188c.016.019.03.039.044.059l.042.061c.028.042.056.085.082.128A2.752,2.752,0,0,1,1465.4,1251.164Z" transform="translate(-1369.679 -1191.102)" fill="#ffb93e"/>
        <path id="Path_31256" data-name="Path 31256" d="M1420.591,1260.118l-48.863-.116c-.039,0-.078,0-.116,0s-.084-.009-.126-.016a2.362,2.362,0,0,1-1.721-2.375c0-.044,0-.087,0-.13l.012-6.541c0-.043,0-.086,0-.13a2.27,2.27,0,0,1,1.972-2.386l42.862.1c.019.094.039.189.059.286a21.5,21.5,0,0,0,5.834,11.228Z" transform="translate(-1369.679 -1191.1)" fill="#ffa412"/>
        <path id="Path_31257" data-name="Path 31257" d="M1482.344,1210.754l-.012,6.541a2.755,2.755,0,0,1-.38,1.406,2.3,2.3,0,0,1-1.037.941,1.971,1.971,0,0,1-.793.168l-91.208-.217a1.975,1.975,0,0,1-1.017-.288,2.565,2.565,0,0,1-1.176-2c0-.037-.006-.075-.007-.113s0-.086,0-.129l.012-6.54c0-.043,0-.087,0-.13a2.367,2.367,0,0,1,2.209-2.386l91.207.216a1.889,1.889,0,0,1,.389.041,1.849,1.849,0,0,1,.4.13,2.3,2.3,0,0,1,1.034.946A2.757,2.757,0,0,1,1482.344,1210.754Z" transform="translate(-1381.894 -1161.977)" fill="#ffb93e"/>
        <path id="Path_31258" data-name="Path 31258" d="M1437.54,1219.707l-48.863-.116a1.621,1.621,0,0,1-.907-.288,2.621,2.621,0,0,1-1.049-1.995c0-.037-.006-.075-.007-.113s0-.086,0-.129l.012-6.54c0-.043,0-.087,0-.13a2.271,2.271,0,0,1,1.972-2.386l42.863.1a21.806,21.806,0,0,0,5.68,11.31Q1437.388,1219.565,1437.54,1219.707Z" transform="translate(-1381.894 -1161.975)" fill="#ffa412"/>
        <path id="Path_31259" data-name="Path 31259" d="M1509.11,1169.343l-.012,6.541a2.753,2.753,0,0,1-.381,1.406,2.3,2.3,0,0,1-1.037.941,1.966,1.966,0,0,1-.793.168l-91.208-.217a2.37,2.37,0,0,1-2.2-2.4c0-.043,0-.086,0-.13l.012-6.541c0-.043,0-.086,0-.129a2.415,2.415,0,0,1,1.948-2.368,1.831,1.831,0,0,1,.261-.018l91.208.217a1.972,1.972,0,0,1,.793.171,2.3,2.3,0,0,1,1.034.946A2.752,2.752,0,0,1,1509.11,1169.343Z" transform="translate(-1401.186 -1132.13)" fill="#ffb93e"/>
        <path id="Path_31260" data-name="Path 31260" d="M1464.306,1178.3l-48.863-.116a2.274,2.274,0,0,1-1.963-2.4c0-.043,0-.086,0-.13l.012-6.541c0-.043,0-.086,0-.129a2.359,2.359,0,0,1,1.739-2.369,1.411,1.411,0,0,1,.233-.017l42.863.1c0,.006,0,.013,0,.018C1459.01,1170.129,1460.6,1174.837,1464.306,1178.3Z" transform="translate(-1401.186 -1132.129)" fill="#ffa412"/>
        <path id="Path_31261" data-name="Path 31261" d="M1466.306,1127.833l-.012,6.54a2.75,2.75,0,0,1-.381,1.406,2.3,2.3,0,0,1-1.037.941,1.864,1.864,0,0,1-.4.129c-.043.008-.085.016-.128.022s-.069.008-.1.011l-.051,0-.108,0-91.208-.217a2.37,2.37,0,0,1-2.2-2.4c0-.043,0-.086,0-.13l.012-6.54c0-.043,0-.086,0-.13a2.367,2.367,0,0,1,2.209-2.386l91.207.216c.039,0,.078,0,.117,0a1.906,1.906,0,0,1,.272.037,1.981,1.981,0,0,1,.595.229c.039.022.077.045.114.07a.037.037,0,0,1,.012.008c.038.025.074.052.111.08a.115.115,0,0,1,.018.014,1.145,1.145,0,0,1,.1.083,1.973,1.973,0,0,1,.22.219c.022.024.043.049.062.074l.011.014a.562.562,0,0,1,.038.047l.007.01c.022.029.044.06.065.092s.06.089.087.136A2.75,2.75,0,0,1,1466.306,1127.833Z" transform="translate(-1370.335 -1102.212)" fill="#ffb93e"/>
        <path id="Path_31262" data-name="Path 31262" d="M1421.5,1136.786l-48.863-.116a2.274,2.274,0,0,1-1.963-2.4c0-.043,0-.086,0-.13l.012-6.541c0-.043,0-.086,0-.13a2.272,2.272,0,0,1,1.972-2.387l42.863.1c.017.088.035.177.056.268a21.443,21.443,0,0,0,5.9,11.31Z" transform="translate(-1370.335 -1102.21)" fill="#ffa412"/>
        <path id="Path_31263" data-name="Path 31263" d="M1490.392,1087.374l-.012,6.541a2.75,2.75,0,0,1-.381,1.406,2.3,2.3,0,0,1-1.037.941,1.851,1.851,0,0,1-.4.128,1.874,1.874,0,0,1-.389.04l-91.207-.217a1.964,1.964,0,0,1-.986-.27,2.555,2.555,0,0,1-1.209-2.023c0-.034,0-.069-.006-.1s0-.086,0-.13l.012-6.54c0-.044,0-.087,0-.13a2.414,2.414,0,0,1,1.948-2.369,1.736,1.736,0,0,1,.261-.018l91.208.217a1.972,1.972,0,0,1,.793.172,2.308,2.308,0,0,1,1.034.946A2.751,2.751,0,0,1,1490.392,1087.374Z" transform="translate(-1387.695 -1073.052)" fill="#ffb93e"/>
        <path id="Path_31264" data-name="Path 31264" d="M1445.588,1096.328l-48.863-.116a1.607,1.607,0,0,1-.879-.269,2.612,2.612,0,0,1-1.078-2.023c0-.034,0-.068-.006-.1s0-.086,0-.13l.012-6.54c0-.044,0-.087,0-.13a2.359,2.359,0,0,1,1.739-2.369,1.438,1.438,0,0,1,.233-.017l42.863.1,0,.018a21.774,21.774,0,0,0,5.7,11.31C1445.4,1096.15,1445.493,1096.24,1445.588,1096.328Z" transform="translate(-1387.695 -1073.05)" fill="#ffa412"/>
        <path id="Path_31265" data-name="Path 31265" d="M1466.455,1045.908l-.012,6.541a2.751,2.751,0,0,1-.381,1.406,2.3,2.3,0,0,1-1.037.941,1.86,1.86,0,0,1-.4.128c-.042.008-.085.016-.128.022l-.072.008c-.023,0-.047,0-.072.005s-.078,0-.117,0l-91.208-.217a2.37,2.37,0,0,1-2.2-2.4c0-.043,0-.086,0-.13l.012-6.541c0-.043,0-.087,0-.13a2.367,2.367,0,0,1,2.208-2.386l91.208.216a1.917,1.917,0,0,1,.389.042,1.862,1.862,0,0,1,.4.131,2.3,2.3,0,0,1,1.034.946A2.752,2.752,0,0,1,1466.455,1045.908Z" transform="translate(-1370.442 -1043.165)" fill="#ffb93e"/>
        <path id="Path_31266" data-name="Path 31266" d="M1421.651,1054.862l-48.864-.116a2.275,2.275,0,0,1-1.963-2.4c0-.043,0-.087,0-.13l.012-6.54c0-.043,0-.087,0-.13a2.271,2.271,0,0,1,1.972-2.386l42.863.1c.677,3.406,2.259,8.114,5.96,11.578Z" transform="translate(-1370.442 -1043.164)" fill="#ffa412"/>
        <g id="Group_23161" data-name="Group 23161" transform="translate(33.59 0.075)">
          <rect id="Rectangle_17672" data-name="Rectangle 17672" width="11.582" height="1.036" transform="translate(54.622 103.676) rotate(-89.864)" fill="#ffa412"/>
          <rect id="Rectangle_17673" data-name="Rectangle 17673" width="11.582" height="1.037" transform="translate(51.114 103.668) rotate(-89.88)" fill="#ffa412"/>
          <rect id="Rectangle_17674" data-name="Rectangle 17674" width="11.582" height="1.037" transform="matrix(0.002, -1, 1, 0.002, 46.906, 103.658)" fill="#ffa412"/>
          <rect id="Rectangle_17675" data-name="Rectangle 17675" width="11.582" height="1.036" transform="translate(40.455 103.642) rotate(-89.864)" fill="#ffa412"/>
          <rect id="Rectangle_17676" data-name="Rectangle 17676" width="11.582" height="1.037" transform="translate(33.634 103.626) rotate(-89.864)" fill="#ffa412"/>
          <rect id="Rectangle_17677" data-name="Rectangle 17677" width="11.582" height="1.036" transform="translate(23.178 103.601) rotate(-89.864)" fill="#ffa412"/>
          <rect id="Rectangle_17678" data-name="Rectangle 17678" width="11.582" height="1.037" transform="translate(13.39 103.578) rotate(-89.88)" fill="#ffa412"/>
          <rect id="Rectangle_17679" data-name="Rectangle 17679" width="11.582" height="1.036" transform="translate(4.647 103.557) rotate(-89.864)" fill="#ffa412"/>
          <rect id="Rectangle_17680" data-name="Rectangle 17680" width="11.582" height="1.037" transform="translate(57.962 103.684) rotate(-89.864)" fill="#ffa412"/>
          <rect id="Rectangle_17681" data-name="Rectangle 17681" width="11.582" height="1.036" transform="translate(60.17 103.689) rotate(-89.88)" fill="#ffa412"/>
          <rect id="Rectangle_17682" data-name="Rectangle 17682" width="11.582" height="1.037" transform="translate(62.299 103.694) rotate(-89.864)" fill="#ffa412"/>
          <path id="Path_31267" data-name="Path 31267" d="M1718.607,1373.292l-.021,11.582.648,0a1.913,1.913,0,0,0,.389-.04l.021-11.5a1.931,1.931,0,0,0-.389-.041Z" transform="translate(-1654.68 -1281.176)" fill="#ffa412"/>
          <path id="Path_31268" data-name="Path 31268" d="M1723.766,1373.913l-.02,11.242a2.3,2.3,0,0,0,1.038-.941l.017-9.355A2.3,2.3,0,0,0,1723.766,1373.913Z" transform="translate(-1658.399 -1281.624)" fill="#ffa412"/>
          <rect id="Rectangle_17683" data-name="Rectangle 17683" width="11.582" height="1.037" transform="translate(25.384 92.024) rotate(-89.864)" fill="#ffa412"/>
          <rect id="Rectangle_17684" data-name="Rectangle 17684" width="11.582" height="1.037" transform="matrix(0.002, -1, 1, 0.002, 15.594, 92.001)" fill="#ffa412"/>
          <rect id="Rectangle_17685" data-name="Rectangle 17685" width="11.582" height="1.037" transform="translate(6.852 91.98) rotate(-89.864)" fill="#ffa412"/>
          <path id="Path_31269" data-name="Path 31269" d="M1703.887,1254.694l.021-11.582-.909,0c.048-.006.1-.012.144-.022l.021-11.5q-.1-.02-.192-.031l.021-11.223h.4l-.021,11.126a2.3,2.3,0,0,0,1.037-.941l.017-9.355a2.35,2.35,0,0,0-.821-.829h.362l.021-11.582-1.037,0-.02,11.327a1.886,1.886,0,0,0-.331-.032l-.648,0-.021,11.582h.192l-.021,11.5.647,0c.04,0,.079,0,.118-.006l-.021,11.57Z" transform="translate(-1642.679 -1162.584)" fill="#ffa412"/>
          <rect id="Rectangle_17686" data-name="Rectangle 17686" width="11.582" height="1.037" transform="translate(62.374 92.112) rotate(-89.864)" fill="#ffa412"/>
          <rect id="Rectangle_17687" data-name="Rectangle 17687" width="11.582" height="1.037" transform="translate(64.503 92.117) rotate(-89.85)" fill="#ffa412"/>
          <path id="Path_31270" data-name="Path 31270" d="M1726.505,1331.836l-.021,11.582h.648a1.888,1.888,0,0,0,.389-.04l.021-11.5a1.887,1.887,0,0,0-.389-.042Z" transform="translate(-1660.373 -1251.297)" fill="#ffa412"/>
          <path id="Path_31271" data-name="Path 31271" d="M1731.664,1332.457l-.02,11.242a2.3,2.3,0,0,0,1.037-.941l.017-9.355A2.3,2.3,0,0,0,1731.664,1332.457Z" transform="translate(-1664.092 -1251.745)" fill="#ffa412"/>
          <path id="Path_31272" data-name="Path 31272" d="M1667.687,1272.2l.021-11.582h-.191l.021-11.5-1.037,0-.021,11.582h.192l-.021,11.481-1.011,0-.021,11.582,1.037,0,.021-11.564Z" transform="translate(-1616.504 -1191.676)" fill="#ffa412"/>
          <path id="Path_31273" data-name="Path 31273" d="M1642.3,1260.551h-.192l.021-11.5-1.036,0-.021,11.582h.192l-.021,11.5h.256l-.021,11.564,1.037,0,.021-11.582h-.256Z" transform="translate(-1598.812 -1191.629)" fill="#ffa412"/>
          <path id="Path_31274" data-name="Path 31274" d="M1707.727,1290.991l-.02,11.242a2.3,2.3,0,0,0,1.037-.941l.017-9.355A2.3,2.3,0,0,0,1707.727,1290.991Z" transform="translate(-1646.84 -1221.859)" fill="#ffa412"/>
          <path id="Path_31275" data-name="Path 31275" d="M1619.031,1249l-1.037,0-.021,11.582h.192l-.021,11.481h-.115l-.021,11.582,1.036,0,.021-11.564h.115l.021-11.582h-.192Z" transform="translate(-1582.165 -1191.589)" fill="#ffa412"/>
          <path id="Path_31276" data-name="Path 31276" d="M1594.608,1248.938l-1.037,0-.021,11.582h.192l-.021,11.5,1.037,0,.021-11.582h-.192Z" transform="translate(-1564.562 -1191.547)" fill="#ffa412"/>
          <path id="Path_31277" data-name="Path 31277" d="M1557.165,1248.85l-1.037,0-.021,11.582h.192l-.021,11.5,1.036,0,.021-11.582h-.192Z" transform="translate(-1537.575 -1191.484)" fill="#ffa412"/>
          <path id="Path_31278" data-name="Path 31278" d="M1522.108,1248.766l-1.036,0-.021,11.582h.192l-.021,11.5,1.037,0,.021-11.582h-.192Z" transform="translate(-1512.309 -1191.423)" fill="#ffa412"/>
          <path id="Path_31279" data-name="Path 31279" d="M1490.8,1248.692l-1.037,0-.021,11.582h.192l-.021,11.5,1.036,0,.021-11.581h-.192Z" transform="translate(-1489.746 -1191.37)" fill="#ffa412"/>
          <path id="Path_31280" data-name="Path 31280" d="M1681.722,1249.146l-1.037,0-.021,11.582h.192l-.021,11.481h-.144l-.021,11.582,1.037,0,.021-11.564h.144l.021-11.582h-.192Z" transform="translate(-1627.349 -1191.697)" fill="#ffa412"/>
          <path id="Path_31281" data-name="Path 31281" d="M1687.523,1220l-.834,0,.021-11.3-1.037,0-.021,11.582.834,0-.021,11.3h.192l-.021,11.5,1.036,0,.021-11.582h-.192Z" transform="translate(-1630.944 -1162.551)" fill="#ffa412"/>
          <rect id="Rectangle_17688" data-name="Rectangle 17688" width="11.582" height="1.036" transform="translate(51.196 57.727) rotate(-89.864)" fill="#ffa412"/>
          <path id="Path_31282" data-name="Path 31282" d="M1656.664,1219.935h-.5l-.021,11.582h.191l-.021,11.5,1.037,0,.021-11.582h-.192l.021-11.213h.5l.021-11.582-1.036,0Z" transform="translate(-1609.672 -1162.504)" fill="#ffa412"/>
          <rect id="Rectangle_17689" data-name="Rectangle 17689" width="11.582" height="1.037" transform="translate(40.537 57.701) rotate(-89.849)" fill="#ffa412"/>
          <rect id="Rectangle_17690" data-name="Rectangle 17690" width="11.582" height="1.037" transform="translate(33.718 57.685) rotate(-89.864)" fill="#ffa412"/>
          <rect id="Rectangle_17691" data-name="Rectangle 17691" width="11.582" height="1.036" transform="translate(23.262 57.66) rotate(-89.866)" fill="#ffa412"/>
          <rect id="Rectangle_17692" data-name="Rectangle 17692" width="11.582" height="1.037" transform="matrix(0.002, -1, 1, 0.002, 13.473, 57.637)" fill="#ffa412"/>
          <rect id="Rectangle_17693" data-name="Rectangle 17693" width="11.582" height="1.037" transform="translate(4.73 57.616) rotate(-89.864)" fill="#ffa412"/>
          <path id="Path_31283" data-name="Path 31283" d="M1694.47,1220.029h-.375l-.021,11.581h.192l-.021,11.481-.972,0-.021,11.582,1.037,0,.021-11.564.972,0,.021-11.582h-.192l.02-11.214h.375l.021-11.582-1.037,0Z" transform="translate(-1636.421 -1162.571)" fill="#ffa412"/>
          <rect id="Rectangle_17694" data-name="Rectangle 17694" width="11.582" height="1.037" transform="translate(62.383 57.753) rotate(-89.864)" fill="#ffa412"/>
          <path id="Path_31284" data-name="Path 31284" d="M1719.922,1220.325l.021-11.5a1.926,1.926,0,0,0-.389-.041l-.648,0-.021,11.582.648,0A1.885,1.885,0,0,0,1719.922,1220.325Z" transform="translate(-1654.896 -1162.606)" fill="#ffa412"/>
          <path id="Path_31285" data-name="Path 31285" d="M1725.083,1219.7l.017-9.355a2.3,2.3,0,0,0-1.034-.946l-.02,11.242A2.3,2.3,0,0,0,1725.083,1219.7Z" transform="translate(-1658.615 -1163.054)" fill="#ffa412"/>
          <rect id="Rectangle_17695" data-name="Rectangle 17695" width="11.582" height="1.036" transform="translate(62.18 46.171) rotate(-89.864)" fill="#ffa412"/>
          <rect id="Rectangle_17696" data-name="Rectangle 17696" width="11.582" height="1.036" transform="translate(48.014 46.137) rotate(-89.864)" fill="#ffa412"/>
          <rect id="Rectangle_17697" data-name="Rectangle 17697" width="11.582" height="1.037" transform="translate(41.193 46.121) rotate(-89.864)" fill="#ffa412"/>
          <rect id="Rectangle_17698" data-name="Rectangle 17698" width="11.582" height="1.036" transform="translate(30.737 46.096) rotate(-89.864)" fill="#ffa412"/>
          <rect id="Rectangle_17699" data-name="Rectangle 17699" width="11.582" height="1.037" transform="translate(20.947 46.073) rotate(-89.864)" fill="#ffa412"/>
          <rect id="Rectangle_17700" data-name="Rectangle 17700" width="11.582" height="1.037" transform="translate(12.207 46.052) rotate(-89.88)" fill="#ffa412"/>
          <rect id="Rectangle_17701" data-name="Rectangle 17701" width="11.582" height="1.037" transform="translate(65.52 46.179) rotate(-89.864)" fill="#ffa412"/>
          <rect id="Rectangle_17702" data-name="Rectangle 17702" width="11.582" height="1.036" transform="translate(67.727 46.184) rotate(-89.864)" fill="#ffa412"/>
          <rect id="Rectangle_17703" data-name="Rectangle 17703" width="11.582" height="1.036" transform="matrix(0.002, -1, 1, 0.002, 69.858, 46.189)" fill="#ffa412"/>
          <path id="Path_31286" data-name="Path 31286" d="M1745.673,1167.371l-.021,11.582.648,0a1.886,1.886,0,0,0,.389-.04l.021-11.5a1.94,1.94,0,0,0-.389-.041Z" transform="translate(-1674.188 -1132.76)" fill="#ffa412"/>
          <path id="Path_31287" data-name="Path 31287" d="M1750.833,1167.991l-.02,11.242a2.3,2.3,0,0,0,1.037-.941l.017-9.355A2.305,2.305,0,0,0,1750.833,1167.991Z" transform="translate(-1677.908 -1133.207)" fill="#ffa412"/>
          <path id="Path_31288" data-name="Path 31288" d="M1667.058,1078.318l1.037,0,.021-11.582-1.011,0,.02-11.3,1.011,0,.021-11.582-1.036,0-.021,11.563-1.011,0-.021,11.582,1.011,0Z" transform="translate(-1616.828 -1043.74)" fill="#ffa412"/>
          <rect id="Rectangle_17704" data-name="Rectangle 17704" width="11.581" height="1.037" transform="translate(46.716 34.57) rotate(-89.849)" fill="#ffa412"/>
          <rect id="Rectangle_17705" data-name="Rectangle 17705" width="11.582" height="1.037" transform="translate(29.239 34.529) rotate(-89.864)" fill="#ffa412"/>
          <rect id="Rectangle_17706" data-name="Rectangle 17706" width="11.582" height="1.036" transform="matrix(0.002, -1, 1, 0.002, 18.783, 34.504)" fill="#ffa412"/>
          <rect id="Rectangle_17707" data-name="Rectangle 17707" width="11.582" height="1.037" transform="translate(8.993 34.481) rotate(-89.864)" fill="#ffa412"/>
          <rect id="Rectangle_17708" data-name="Rectangle 17708" width="11.582" height="1.037" transform="translate(0.251 34.46) rotate(-89.866)" fill="#ffa412"/>
          <path id="Path_31289" data-name="Path 31289" d="M1681.258,1078.347l.918,0-.021,11.564,1.037,0,.021-11.582-.918,0,.021-11.564h-.144l.02-11.3h.144l.021-11.582-1.037,0-.021,11.563h-.143l-.021,11.582h.143Z" transform="translate(-1627.688 -1043.76)" fill="#ffa412"/>
          <rect id="Rectangle_17709" data-name="Rectangle 17709" width="11.582" height="1.036" transform="translate(55.776 34.592) rotate(-89.895)" fill="#ffa412"/>
          <path id="Path_31290" data-name="Path 31290" d="M1697.894,1067.076h.183l.021-11.582-.909,0c.048-.006.1-.012.144-.022l.021-11.5a1.88,1.88,0,0,0-.389-.041l-.648,0-.021,11.582h.648c.04,0,.079,0,.118-.005l-.021,11.309c-.039,0-.078-.006-.117-.007h-.648l-.021,11.564h-.567l.021-11.564-.972,0,.02-11.3.972,0,.021-11.582-1.037,0-.021,11.564-.972,0-.021,11.582.972,0-.021,11.314.788,0-.021,11.563,1.037,0,.021-11.564h.426a1.9,1.9,0,0,0,.389-.04l.021-11.274h.4l-.02,11.145a2.3,2.3,0,0,0,1.037-.941l.017-9.355A2.34,2.34,0,0,0,1697.894,1067.076Z" transform="translate(-1636.744 -1043.786)" fill="#ffa412"/>
          <rect id="Rectangle_17710" data-name="Rectangle 17710" width="11.582" height="1.036" transform="translate(25.511 23.205) rotate(-89.88)" fill="#ffa412"/>
          <rect id="Rectangle_17711" data-name="Rectangle 17711" width="11.582" height="1.037" transform="translate(15.719 23.182) rotate(-89.864)" fill="#ffa412"/>
          <rect id="Rectangle_17712" data-name="Rectangle 17712" width="11.582" height="1.037" transform="translate(6.977 23.161) rotate(-89.864)" fill="#ffa412"/>
          <rect id="Rectangle_17713" data-name="Rectangle 17713" width="11.582" height="1.036" transform="matrix(0.002, -1, 1, 0.002, 62.5, 23.293)" fill="#ffa412"/>
          <rect id="Rectangle_17714" data-name="Rectangle 17714" width="11.582" height="1.036" transform="translate(64.63 23.298) rotate(-89.864)" fill="#ffa412"/>
          <path id="Path_31291" data-name="Path 31291" d="M1726.954,1085.4l-.021,11.582h.648a1.908,1.908,0,0,0,.389-.04l.021-11.5a1.886,1.886,0,0,0-.389-.042Z" transform="translate(-1660.696 -1073.68)" fill="#ffa412"/>
          <path id="Path_31292" data-name="Path 31292" d="M1733.13,1096.323l.017-9.355a2.306,2.306,0,0,0-1.034-.945l-.02,11.242A2.3,2.3,0,0,0,1733.13,1096.323Z" transform="translate(-1664.416 -1074.129)" fill="#ffa412"/>
          <rect id="Rectangle_17715" data-name="Rectangle 17715" width="11.582" height="1.037" transform="translate(46.759 11.692) rotate(-89.864)" fill="#ffa412"/>
          <path id="Path_31293" data-name="Path 31293" d="M1643.081,1043.8l-1.037,0-.021,11.582h.255l-.02,11.3H1642l-.021,11.582,1.036,0,.021-11.315h.256l.021-11.582h-.256Z" transform="translate(-1599.468 -1043.692)" fill="#ffa412"/>
          <path id="Path_31294" data-name="Path 31294" d="M1618.683,1055.3h-.115l-.021,11.582h.115l-.021,11.315,1.037,0,.021-11.582h-.115l.021-11.3h.115l.021-11.582-1.036,0Z" transform="translate(-1582.578 -1043.652)" fill="#ffa412"/>
          <rect id="Rectangle_17716" data-name="Rectangle 17716" width="11.582" height="1.037" transform="translate(29.281 11.651) rotate(-89.864)" fill="#ffa412"/>
          <rect id="Rectangle_17717" data-name="Rectangle 17717" width="11.582" height="1.037" transform="translate(18.825 11.626) rotate(-89.864)" fill="#ffa412"/>
          <rect id="Rectangle_17718" data-name="Rectangle 17718" width="11.582" height="1.037" transform="translate(9.033 11.602) rotate(-89.85)" fill="#ffa412"/>
          <rect id="Rectangle_17719" data-name="Rectangle 17719" width="11.582" height="1.037" transform="matrix(0.002, -1, 1, 0.002, 0.294, 11.582)" fill="#ffa412"/>
          <rect id="Rectangle_17720" data-name="Rectangle 17720" width="11.582" height="1.037" transform="translate(55.813 11.713) rotate(-89.849)" fill="#ffa412"/>
          <path id="Path_31295" data-name="Path 31295" d="M1708.176,1044.557l-.02,11.242a2.3,2.3,0,0,0,1.037-.941l.017-9.355A2.3,2.3,0,0,0,1708.176,1044.557Z" transform="translate(-1647.163 -1044.243)" fill="#ffa412"/>
        </g>
      </g>
      <g id="Group_23164" data-name="Group 23164" transform="translate(685.825 425.03)">
        <path id="Path_31296" data-name="Path 31296" d="M1768.277,1155.013l6.44,1.144a2.751,2.751,0,0,1,1.319.619,2.3,2.3,0,0,1,.748,1.184,1.879,1.879,0,0,1,.056.42,1.918,1.918,0,0,1-.028.39l-16,89.794a2.37,2.37,0,0,1-2.741,1.752l-.128-.02-6.44-1.144-.127-.025a2.368,2.368,0,0,1-1.968-2.588l16-89.794c.01-.058.023-.115.039-.17a.738.738,0,0,1,.021-.072c.008-.026.017-.053.027-.078s.014-.037.021-.056a1.886,1.886,0,0,1,.2-.375c.011-.018.023-.034.036-.052s.025-.034.037-.05c.026-.033.053-.066.08-.1s.033-.038.051-.056.03-.033.047-.049c.03-.031.06-.06.092-.089s.075-.065.115-.094.061-.047.093-.07c0,0,0,0,.007,0l.066-.045a2.2,2.2,0,0,1,.213-.125c.022-.012.043-.023.065-.033l.068-.031c.046-.02.093-.04.14-.058A2.754,2.754,0,0,1,1768.277,1155.013Z" transform="translate(-1749.344 -1154.968)" fill="#ffb93e"/>
        <path id="Path_31297" data-name="Path 31297" d="M1769.252,1318.7l-8.571,48.106a2.273,2.273,0,0,1-2.7,1.519l-.128-.02-6.44-1.144-.127-.024a2.271,2.271,0,0,1-2.009-2.356l7.518-42.2.292-.009A21.419,21.419,0,0,0,1769.252,1318.7Z" transform="translate(-1749.253 -1272.974)" fill="#ffa412"/>
        <g id="Group_23163" data-name="Group 23163" transform="translate(5.557 0.171)">
          <rect id="Rectangle_17721" data-name="Rectangle 17721" width="1.036" height="11.582" transform="translate(8.766 11.375) rotate(-79.879)" fill="#ffa412"/>
          <rect id="Rectangle_17722" data-name="Rectangle 17722" width="1.037" height="11.582" transform="matrix(0.175, -0.985, 0.985, 0.175, 8.15, 14.832)" fill="#ffa412"/>
          <rect id="Rectangle_17723" data-name="Rectangle 17723" width="1.037" height="11.582" transform="translate(7.412 18.974) rotate(-79.896)" fill="#ffa412"/>
          <rect id="Rectangle_17724" data-name="Rectangle 17724" width="1.037" height="11.582" transform="translate(6.281 25.324) rotate(-79.896)" fill="#ffa412"/>
          <rect id="Rectangle_17725" data-name="Rectangle 17725" width="1.037" height="11.582" transform="matrix(0.175, -0.985, 0.985, 0.175, 5.085, 32.04)" fill="#ffa412"/>
          <rect id="Rectangle_17726" data-name="Rectangle 17726" width="1.037" height="11.582" transform="translate(3.251 42.332) rotate(-79.894)" fill="#ffa412"/>
          <rect id="Rectangle_17727" data-name="Rectangle 17727" width="1.037" height="11.582" transform="matrix(0.175, -0.985, 0.985, 0.175, 1.533, 51.972)" fill="#ffa412"/>
          <rect id="Rectangle_17728" data-name="Rectangle 17728" width="1.037" height="11.582" transform="translate(0 60.576) rotate(-79.882)" fill="#ffa412"/>
          <rect id="Rectangle_17729" data-name="Rectangle 17729" width="1.037" height="11.582" transform="translate(9.352 8.088) rotate(-79.896)" fill="#ffa412"/>
          <rect id="Rectangle_17730" data-name="Rectangle 17730" width="1.037" height="11.582" transform="translate(9.739 5.916) rotate(-79.894)" fill="#ffa412"/>
          <rect id="Rectangle_17731" data-name="Rectangle 17731" width="1.037" height="11.582" transform="translate(10.113 3.818) rotate(-79.896)" fill="#ffa412"/>
          <path id="Path_31298" data-name="Path 31298" d="M1806.369,1161l11.4,2.025.114-.638a1.92,1.92,0,0,0,.029-.39l-11.324-2.011a1.91,1.91,0,0,0-.108.376Z" transform="translate(-1795.976 -1158.753)" fill="#ffa412"/>
          <path id="Path_31299" data-name="Path 31299" d="M1807.873,1156.435l11.069,1.966a2.3,2.3,0,0,0-.747-1.185l-9.211-1.636A2.306,2.306,0,0,0,1807.873,1156.435Z" transform="translate(-1797.06 -1155.58)" fill="#ffa412"/>
        </g>
      </g>
      <path id="Path_31300" data-name="Path 31300" d="M2492.69,1384.076H2453.5c-2.1-1.781,1.453-5.828,5.167-6.1a22.881,22.881,0,0,1,5.982.708c.539-7.163,3.62-39.369,15.228-38.074,13.052,1.449,0,14.182-3.69,21.721a179.384,179.384,0,0,0-6.934,17.37c1.06.23,2.157.455,3.277.661,1.73-5.312,8.167-23.179,16.353-22.138,9.611,1.219,5.748,8.383-1.064,12.635-5,3.127-11.135,7.572-14.051,9.719a41.647,41.647,0,0,0,7.665.614C2488.143,1381.034,2491.42,1383.012,2492.69,1384.076Z" transform="translate(-1570.555 -863.711)" fill="#82b378"/>
      <path id="Path_31301" data-name="Path 31301" d="M725.613,1417.449c-1.557-2.445-6.242-8.792-12.481-7.952-6.8.915,7.508,5.4,11.889,7.971a7.268,7.268,0,0,1-2.423-.283c-2.928-1.044-7.943.958-9.547,1.66h27.878a4.417,4.417,0,0,0-1.994-2.549,4.979,4.979,0,0,0-2.565-.229c1.658-1.954,2.808-8.2-1.806-6.59-3.371,1.174-3.362,4.988-3.031,7.244-.717.112-1.445.226-2.163.329-1.388-7.074-6.3-27.806-16.248-28.359-10.087-.56,8.554,21.5,14.761,28.557C727.087,1417.344,726.321,1417.416,725.613,1417.449Z" transform="translate(-314.529 -898.385)" fill="#82b378"/>
      <g id="Group_23167" data-name="Group 23167" transform="translate(602.355 257.82)">
        <circle id="Ellipse_4774" data-name="Ellipse 4774" cx="40.146" cy="40.146" r="40.146" transform="translate(0 56.775) rotate(-45)" fill="#e2810e"/>
        <circle id="Ellipse_4775" data-name="Ellipse 4775" cx="40.146" cy="40.146" r="40.146" transform="translate(4.681 87.097) rotate(-75.284)" fill="#ffb93e"/>
        <g id="Group_23165" data-name="Group 23165" transform="translate(17.343 22.287)">
          <path id="Path_31302" data-name="Path 31302" d="M1549.115,709.176a36.568,36.568,0,1,1,17.6-4.538A36.606,36.606,0,0,1,1549.115,709.176ZM1549,638.193a34.5,34.5,0,1,0,9.608,1.371A34.558,34.558,0,0,0,1549,638.193Z" transform="translate(-1512.459 -636.01)" fill="#ffa412"/>
        </g>
        <g id="Group_23166" data-name="Group 23166" transform="translate(37.08 32.482)">
          <path id="Path_31303" data-name="Path 31303" d="M1609.529,705.783a6.031,6.031,0,0,0-1.1-1.819,4.411,4.411,0,0,0-1.638-1.111,8.343,8.343,0,0,0-2.338-.521,21.978,21.978,0,0,0-3.189-.021,57.746,57.746,0,0,1-5.864.008,18.2,18.2,0,0,1-4.875-.884,10.714,10.714,0,0,1-3.828-2.242,12.085,12.085,0,0,1-3.557-8.477,10.163,10.163,0,0,1,.962-4.126,12.679,12.679,0,0,1,2.621-3.652,16.921,16.921,0,0,1,4.155-2.958l-2.283-5.625,4.527-1.838,2.316,5.7a15.185,15.185,0,0,1,4.937-.5,11.472,11.472,0,0,1,8.018,3.956,15.271,15.271,0,0,1,2.676,4.44l-8.178,3.32a7.434,7.434,0,0,0-3.317-4.15,5.166,5.166,0,0,0-4.384-.042,6.567,6.567,0,0,0-2.049,1.246,4.447,4.447,0,0,0-1.119,1.587,4.151,4.151,0,0,0-.285,1.815,6.1,6.1,0,0,0,.454,1.929,5.59,5.59,0,0,0,1,1.646,4.132,4.132,0,0,0,1.569,1.063,8.335,8.335,0,0,0,2.351.515,28.09,28.09,0,0,0,3.341.068q3.16-.089,5.848.075a18.419,18.419,0,0,1,4.871.916,10.343,10.343,0,0,1,6.518,6.31,11.047,11.047,0,0,1,.88,4.48,10.043,10.043,0,0,1-.987,4.106,12.253,12.253,0,0,1-2.676,3.6,18.292,18.292,0,0,1-4.2,2.93l2.124,5.23-4.5,1.827-2.114-5.2a20.485,20.485,0,0,1-4.957.819,13,13,0,0,1-4.814-.694,11.625,11.625,0,0,1-4.237-2.643,14.145,14.145,0,0,1-3.217-5l8.178-3.32a8.723,8.723,0,0,0,1.788,2.9,5.641,5.641,0,0,0,2.212,1.429,5.472,5.472,0,0,0,2.422.241,9.372,9.372,0,0,0,2.4-.623,7.829,7.829,0,0,0,2.2-1.29,5.216,5.216,0,0,0,1.3-1.63,4.156,4.156,0,0,0,.437-1.846A5.06,5.06,0,0,0,1609.529,705.783Z" transform="translate(-1583.137 -672.517)" fill="#ffa412"/>
        </g>
      </g>
      <g id="Group_23170" data-name="Group 23170" transform="translate(677.518 184.548)">
        <path id="Path_31304" data-name="Path 31304" d="M1738,673.632c-1.679-1.186-5.488-3.795-5.686-3.214a2.557,2.557,0,0,0,.517,1.868c-2.3-.86-4.643-1.425-10.175-.362a4.143,4.143,0,0,0-2.721,1.792,1.828,1.828,0,0,0,.637,2.853c2.823,1.755,2,.7,5.928,3.26s8.726,3.208,11.6,1.415l3.851-.642.478-6.334S1740.232,674,1738,673.632Z" transform="translate(-1719.507 -565.19)" fill="#ffb27d"/>
        <path id="Path_31305" data-name="Path 31305" d="M2086.685,439.573s-9.079,10.771-20.641,6.265c0,0-2.488-6.016-2.522-10.45,0-.546-.011-1.075-.019-1.578-.062-4.994-.23-7.8-.23-7.8l.012,0c.526-.219,17.674-7.26,17.66-6.675C2080.651,432.843,2086.685,439.573,2086.685,439.573Z" transform="translate(-1967.273 -384.261)" fill="#ffb27d"/>
        <path id="Path_31306" data-name="Path 31306" d="M2079.223,430.632c-1.654,3.065-7.328,9.062-15.72,11.253-.062-4.994-.23-7.8-.23-7.8l.012,0C2063.759,433.959,2079.715,429.728,2079.223,430.632Z" transform="translate(-1967.273 -392.335)" fill="#ed975d"/>
        <path id="Path_31307" data-name="Path 31307" d="M2042.67,359.447s19.285,4.534,21.924-7.52,6.9-19.585-5.3-22.99-15.608.669-17.468,4.478S2037.721,357.957,2042.67,359.447Z" transform="translate(-1950.262 -318.212)" fill="#ffb27d"/>
        <path id="Path_31308" data-name="Path 31308" d="M2047.281,330.821c.263.168,4.413,1.443,12.271-14.212a13.634,13.634,0,0,0-.8-12.471c-2.876-4.7-13.072-8.391-21.544-10s-10.505,3.16-12.5,7.95c-2.094,5.029-8.143,9.169-8.143,9.169,7.305,4.081,16.1-1.756,19.152-.8s4.125,5.764,4.353,7.3.581,2.82,4.414,1.444,1.733,5.432,1.119,6.733C2045.6,325.944,2045.083,329.412,2047.281,330.821Z" transform="translate(-1933.609 -293.821)" fill="#a9453d"/>
        <g id="Group_23168" data-name="Group 23168" transform="translate(82.058 148.061)">
          <path id="Path_31309" data-name="Path 31309" d="M2303.5,1428.233h11.677c2.448,0,5.167-2.451,5.849-6.938s5.713-6.938,6.8-10.612-4.49-8.845-4.49-8.845l-.934-1.2-.97-1.249-9.25,2.175s-.229,2.2-.371,5.008a63.964,63.964,0,0,0-.038,6.421c.272,4.9-1.372,10.173-5.723,11.126S2303.5,1428.233,2303.5,1428.233Z" transform="translate(-2222.209 -1238.712)" fill="#2c3a64"/>
          <path id="Path_31310" data-name="Path 31310" d="M2013.35,1459.179H2044.3a2.787,2.787,0,0,0,.657-.191c2.067-1.035,1.419-8.947,1.171-11.391-.047-.453-.082-.718-.082-.718s-10.884-8.706-12.382-2.04c-.048.208-.1.413-.16.613v0c-1.89,6.237-10.336,9.07-15.215,9.86C2014.565,1455.921,2013.6,1458.093,2013.35,1459.179Z" transform="translate(-2013.35 -1269.658)" fill="#2c3a64"/>
          <path id="Path_31311" data-name="Path 31311" d="M2035.691,856.1s1.653,20.624,3.6,45.415c2.641,33.677,5.816,75.044,6.131,82.88.543,13.608,2.723,35.375,2.723,35.375s5.167,5.171,15.51,2.992c0,0,9.216-31.073,11.849-63.95.041-.539.082-1.082.122-1.625,2.449-33.469,6.257-103.944,6.257-103.944Z" transform="translate(-2029.452 -845.084)" fill="#2b478b"/>
          <path id="Path_31312" data-name="Path 31312" d="M2035.691,856.1s1.653,20.624,3.6,45.415l36.212,57.3c.041-.539.082-1.082.122-1.625,2.449-33.469,6.257-103.944,6.257-103.944Z" transform="translate(-2029.452 -845.084)" fill="#233862"/>
          <path id="Path_31313" data-name="Path 31313" d="M2062.723,837.485s29.795,74.692,49.387,109.794,25.713,44.9,25.713,44.9,11.225-4.49,12.245-7.551c0,0-7.492-67.765-20.612-84.284-7.413-9.335-16.122-37.346-16.53-47.142s-2.653-29.183-2.653-29.183Z" transform="translate(-2048.935 -824.016)" fill="#2b478b"/>
        </g>
        <g id="Group_23169" data-name="Group 23169" transform="translate(111.678 56.505)">
          <path id="Path_31314" data-name="Path 31314" d="M2305.437,819.115l.315,4.8a10.351,10.351,0,0,0,5.709,12.911s3.8,1.533,3.954-1.426-.332-1.845-.023-6.011-1.329-8.1-4.084-9.428l-2.261-2.609Z" transform="translate(-2253.319 -727.66)" fill="#ffb27d"/>
          <path id="Path_31315" data-name="Path 31315" d="M2175,591.112c-3.3,1.059-3.826.819-3.826.819s-16.052-29.224-17.678-31.9-34.081-32.771-34.081-32.771l8.34-31.1s36.914,47.8,40.9,54.66c6.587,11.335,10.447,37.659,10.447,37.659A9.656,9.656,0,0,1,2175,591.112Z" transform="translate(-2119.415 -496.16)" fill="#1e3d70"/>
        </g>
        <path id="Path_31316" data-name="Path 31316" d="M2013.068,521.523c.115,6.387.487,13.567.987,20.859q.047.649.092,1.3c.32,4.517.668,9.046,1.066,13.461.16,1.77.33,3.52.507,5.239l.027.232c.013.643.092,1.341.163,1.978,1.627,16.539,3.333,29.606,3.65,29.807a1.857,1.857,0,0,0,1.27.323c4.337-.545,17.278.439,27.873-1.866,8.94-1.886,16.638-5.461,24.8-10.282,1.082-.64,3.551-2.336,3.35-3.6-.2-1.393-.562-3.4-1.025-5.934A321.035,321.035,0,0,1,2070.5,531.4q-.275-4.948-.8-9.761a148.166,148.166,0,0,0-4.32-23.311c-3.633-13.08-8.971-23.1-15.667-27.015-.875-.49-5.583,2.506-9.907,5.28a19.09,19.09,0,0,1-12.287,2.911l-3.6,3.98c-4.358,5.066-9,11.81-10.264,21.4q-.143,1.062-.245,2.26A140.624,140.624,0,0,0,2013.068,521.523Z" transform="translate(-1931.061 -421.706)" fill="#2a4e96"/>
        <path id="Path_31317" data-name="Path 31317" d="M2013.068,595.18c.115,6.387.487,13.567.987,20.859q.047.649.092,1.3c24.775-15.508,28.592-43.885,28.592-43.885-12.188.534-21.871,3.337-29.333,7.343A140.624,140.624,0,0,0,2013.068,595.18Z" transform="translate(-1931.061 -495.363)" fill="#1e3d70"/>
        <path id="Path_31318" data-name="Path 31318" d="M1788.95,563.84c-.255-3.675,1.647-4.286,1.647-4.286s37.354-6.769,40.53-7.768,30.328-29.245,30.328-29.245,10.407-11.738,18.93-9.145c7.405,2.252,10.3,8.029,11.286,13.532a16.21,16.21,0,0,1-7.527,16.64c-12.748,7.819-38.268,23.224-44.278,24.986-13.377,3.922-49.319.314-49.319.314A11.6,11.6,0,0,1,1788.95,563.84Z" transform="translate(-1769.54 -451.808)" fill="#2a4e96"/>
      </g>
      <path id="Path_31319" data-name="Path 31319" d="M1501.193,846.51V985.357a14.77,14.77,0,0,1-14.724,14.727H1343.746a14.989,14.989,0,0,1-10.135-3.947,15.165,15.165,0,0,1-3.225-4.189c-.044-.085-.087-.169-.129-.255a14.839,14.839,0,0,1-1.527-5.625c-.026-.342-.038-.687-.038-1.036V847.4a22.786,22.786,0,0,1,10.589-19.183l.017-.009a19.732,19.732,0,0,0,8.183-22.54H1482.4a19.728,19.728,0,0,0,7.515,22.092s0,0,0,0c.34.237.687.465,1.041.678l0,0A21.175,21.175,0,0,1,1501.193,846.51Z" transform="translate(-760.313 -478.183)" fill="#ed9f4a" opacity="0.2"/>
      <path id="Path_31320" data-name="Path 31320" d="M1707.353,846.51V985.357a14.775,14.775,0,0,1-13.685,14.69c-.343.026-.69.037-1.039.037h-62.844a15.1,15.1,0,0,1-15.053-15.053V847.4a22.787,22.787,0,0,1,10.589-19.183,19.726,19.726,0,0,0,8.2-22.549h55.041a19.73,19.73,0,0,0,8.563,22.774A21.175,21.175,0,0,1,1707.353,846.51Z" transform="translate(-966.474 -478.183)" fill="#ed9f4a" opacity="0.2"/>
      <path id="Path_31321" data-name="Path 31321" d="M1517.292,827.76c-4.407-2.639-23.5-11.992-72.05-11.6-55.61.455-77.887,11.695-78.57,12.044a19.732,19.732,0,0,0,8.183-22.54h134.921a19.728,19.728,0,0,0,7.515,22.092Z" transform="translate(-787.687 -478.183)" fill="#ed9f4a" opacity="0.6"/>
      <path id="Path_31322" data-name="Path 31322" d="M1526.065,799.279v6.3a1.129,1.129,0,0,1-1.126,1.128H1386.16a1.13,1.13,0,0,1-1.128-1.128v-6.3a1.132,1.132,0,0,1,1.128-1.128h138.78A1.131,1.131,0,0,1,1526.065,799.279Z" transform="translate(-800.919 -472.765)" fill="#2b478b"/>
      <path id="Path_31323" data-name="Path 31323" d="M1748.667,799.279v6.3a1.129,1.129,0,0,1-1.126,1.128H1695.01a1.132,1.132,0,0,1-1.128-1.128v-6.3a1.133,1.133,0,0,1,1.128-1.128h52.531A1.131,1.131,0,0,1,1748.667,799.279Z" transform="translate(-1023.52 -472.765)" fill="#233862"/>
      <g id="Group_23171" data-name="Group 23171" transform="translate(585.922 350.878)">
        <path id="Path_31324" data-name="Path 31324" d="M1515.131,896.254s-3.577,5.036-6.857,5.106-8.268-2.335-8.268-2.335-3.011-6.71-.969-9.336a4.383,4.383,0,0,1,4.189.689,6.412,6.412,0,0,1,1.109,1.062,3.518,3.518,0,0,0,1.721,1.167c2.34.712,5.118-.963,6.156.654a10.99,10.99,0,0,0,1.809,2.141A8.263,8.263,0,0,0,1515.131,896.254Z" transform="translate(-1468.498 -889.436)" fill="#f9ddbf"/>
        <path id="Path_31325" data-name="Path 31325" d="M1391.512,963.353s12.643-30.634,35.4-31.218c0,0,21.006,2.334,22.173,31.218Z" transform="translate(-1391.512 -920.211)" fill="#f9ddbf"/>
        <path id="Path_31326" data-name="Path 31326" d="M1495.836,925.251s9.122,2.028,11.936.836c0,0,.425-3.814-3.416-3.279a8.058,8.058,0,0,1-5.349-1.41C1497.582,920.672,1495.458,923.655,1495.836,925.251Z" transform="translate(-1466.671 -912.392)" fill="#f1a34f"/>
        <path id="Path_31327" data-name="Path 31327" d="M1518.248,898.978c-.584.438-2.375-6.168-2.375-6.168a6.412,6.412,0,0,1,1.109,1.062,3.519,3.519,0,0,0,1.721,1.167C1518.709,895.231,1518.814,898.551,1518.248,898.978Z" transform="translate(-1481.144 -891.868)" fill="#e5c1a1"/>
        <path id="Path_31328" data-name="Path 31328" d="M1541.672,905.273c-.128.076-4.347,2.6-4.919,2.6s3.11-4.744,3.11-4.744A11,11,0,0,0,1541.672,905.273Z" transform="translate(-1496.149 -899.307)" fill="#e5c1a1"/>
        <path id="Path_31329" data-name="Path 31329" d="M1435.729,978.131c-.234-.2,8.947-13.518,11.476-13.615s8.21,2.917,12.323,3.306,8.1-.778,8.878,1.653,2.918,11.051,1.6,12.431S1440.777,982.444,1435.729,978.131Z" transform="translate(-1423.378 -943.548)" fill="#e5c1a1"/>
      </g>
      <g id="Group_23176" data-name="Group 23176" transform="translate(352.014 252.403)">
        <path id="Path_31330" data-name="Path 31330" d="M1348.364,1202.237c-.732.385-1.468.748-2.21,1.1-.706.408-1.424.809-2.156,1.191a58.828,58.828,0,0,1-10.387,4.253,15.165,15.165,0,0,1-3.225-4.189c-.563.3-1.126.589-1.693.87V1100.7a59.65,59.65,0,0,1,7.7,1.548,56.54,56.54,0,0,1,34.422,26.074C1386.037,1154.639,1375.986,1187.73,1348.364,1202.237Z" transform="translate(-1112.328 -943.23)" fill="#e2810e" opacity="0.5"/>
        <g id="Group_23174" data-name="Group 23174" transform="translate(134.102 151.416)">
          <path id="Path_31331" data-name="Path 31331" d="M1156.882,1108.567a57.113,57.113,0,1,0-22.445,77.589A57.113,57.113,0,0,0,1156.882,1108.567Z" transform="translate(-1045.377 -1079.015)" fill="#e2810e"/>
          <path id="Path_31332" data-name="Path 31332" d="M1120.956,1193.523q-1.056.643-2.146,1.245c-.246.136-.492.27-.739.4-.563.3-1.126.589-1.693.87a57.114,57.114,0,0,1-52.712-101.3q1.1-.605,2.212-1.156c.72-.359,1.447-.7,2.177-1.025a57.037,57.037,0,0,1,17.143-4.609,57.123,57.123,0,0,1,35.759,105.58Z" transform="translate(-1034.114 -1085.222)" fill="#ffb93e"/>
          <g id="Group_23172" data-name="Group 23172" transform="translate(5.39 8.06)">
            <path id="Path_31333" data-name="Path 31333" d="M1105.55,1212a52.248,52.248,0,0,1-14.535-2.073A51.721,51.721,0,1,1,1105.55,1212Zm-42.927-28.438a48.931,48.931,0,1,0-4.152-37.22A48.61,48.61,0,0,0,1062.623,1183.56Z" transform="translate(-1053.415 -1107.877)" fill="#ffa412"/>
          </g>
          <g id="Group_23173" data-name="Group 23173" transform="translate(33.469 22.564)">
            <path id="Path_31334" data-name="Path 31334" d="M1203.112,1202.341c-.113-.281-.232-.553-.354-.821a14.988,14.988,0,0,0-3.464-4.949,15.477,15.477,0,0,0-5.453-3.209,26.112,26.112,0,0,0-6.929-1.3q-3.825-.235-8.321-.108a40.13,40.13,0,0,1-4.752-.1,11.917,11.917,0,0,1-3.345-.732,5.867,5.867,0,0,1-2.233-1.513,7.964,7.964,0,0,1-1.419-2.341,8.688,8.688,0,0,1-.645-2.745,5.888,5.888,0,0,1,.406-2.582,6.315,6.315,0,0,1,1.592-2.256,9.305,9.305,0,0,1,2.913-1.773,7.35,7.35,0,0,1,6.239.059q2.9,1.418,4.717,5.9l11.636-4.724a21.752,21.752,0,0,0-3.809-6.316,16.323,16.323,0,0,0-11.406-5.627,21.558,21.558,0,0,0-7.022.718l-3.3-8.115-6.441,2.615,3.248,8a24.147,24.147,0,0,0-5.913,4.208,18.062,18.062,0,0,0-3.727,5.2,14.475,14.475,0,0,0-1.37,5.87,17.194,17.194,0,0,0,5.061,12.058,15.233,15.233,0,0,0,5.446,3.19,25.779,25.779,0,0,0,6.933,1.257,82.019,82.019,0,0,0,8.343-.009,30.836,30.836,0,0,1,4.538.03,11.844,11.844,0,0,1,3.326.739,6.292,6.292,0,0,1,2.329,1.581,8.565,8.565,0,0,1,1.567,2.587,7.176,7.176,0,0,1,.556,2.758,5.884,5.884,0,0,1-.622,2.627,7.418,7.418,0,0,1-1.848,2.32,11.16,11.16,0,0,1-3.124,1.834,13.44,13.44,0,0,1-3.415.886,7.8,7.8,0,0,1-3.445-.345,8.016,8.016,0,0,1-3.145-2.033,12.362,12.362,0,0,1-2.545-4.128l-11.633,4.724a20.086,20.086,0,0,0,4.576,7.113,16.514,16.514,0,0,0,6.028,3.76,18.44,18.44,0,0,0,6.849.987,29.053,29.053,0,0,0,7.055-1.166l3,7.4,6.4-2.6-3.021-7.44a26,26,0,0,0,5.974-4.17,17.629,17.629,0,0,0,3.6-4.707c.07-.136.138-.272.2-.411a14.308,14.308,0,0,0,1.4-5.84A15.722,15.722,0,0,0,1203.112,1202.341Z" transform="translate(-1153.962 -1159.814)" fill="#ffa412"/>
          </g>
        </g>
        <g id="Group_23175" data-name="Group 23175" transform="translate(0 0)">
          <path id="Path_31335" data-name="Path 31335" d="M1033.1,571.691c.174-.7-15.213,6.954-15.993,7.819-7.216,8-5.158,18.45-1.029,18.551,2.648.064,2.135,4.467,2.135,4.467l29.5-12.48S1044.167,569.334,1033.1,571.691Z" transform="translate(-884.315 -561.814)" fill="#2c3a64"/>
          <path id="Path_31336" data-name="Path 31336" d="M993.5,548.3s1.054-11.492-11.786-11.492c0,0,3.891,1.055,5.9,3.167,0,0-8.19-4.809-17.1,2.58s-3.375,25.917-6.085,29.435-13.265,4.222-11.975,15.6,33.5,25.623,31.429,35.034c0,0,12.621-18.554,3.6-27.021,0,0,4.4,4.144,4.847,9.069,0,0,1.194-9.616-4.926-12.692-5.415-2.722-9.851-12.677-9.382-14.456S993.5,548.3,993.5,548.3Z" transform="translate(-841.081 -536.806)" fill="#2c3a64"/>
          <path id="Path_31337" data-name="Path 31337" d="M1000.414,747.931c-1.98-9.535-14.343-12.491-20.193-4.705a10.328,10.328,0,0,0-2.033,5.009c-1.335,10.823,15.97,54.907,18.448,58.9,4.512,7.267,31.08,32.178,31.08,32.178l4.9-2.967s-18.844-31.9-21.762-34.888C1007.475,798,1004.173,766.035,1000.414,747.931Z" transform="translate(-859.651 -682.37)" fill="#ed985f"/>
          <path id="Path_31338" data-name="Path 31338" d="M1149.061,1076.856s7.146-4.692,9.852-4.39,10.535,2.555,10.63,3.706-8.724,1.869-9.316,2.5-6.581,4.627-8.752,3.374S1149.061,1076.856,1149.061,1076.856Z" transform="translate(-982.859 -922.868)" fill="#ed985f"/>
          <path id="Path_31339" data-name="Path 31339" d="M782.9,1052l-6.385-.938S755.047,1034,751.851,1002.17a56.894,56.894,0,0,1-.152-9.842,1.724,1.724,0,0,0-.223-1.086s0,0-.007-.01c-.687-1.053-2.4-3.692-4.712-7.444-2.282-3.7-6.187-10.686-10.484-18.529-7.74-14.124-16.751-31.016-19.842-36.4-9.849-17.148-5.1-28.678-5.1-28.678s27.474-2.716,35-9.3l2.712,4.18s5.952,26.353,5.671,26.475q.439,1.344.893,2.737c4.7,14.5,10.1,32.623,13.048,47.383,1.656,8.3,2.533,15.541,2.062,20.471a35.889,35.889,0,0,0,.485,7.5C773.863,1018.541,782.9,1052,782.9,1052Z" transform="translate(-666.543 -792.004)" fill="#2b478b"/>
          <path id="Path_31340" data-name="Path 31340" d="M949.4,1458.489H922.761a14.622,14.622,0,0,1,.753-7.139c1.333-2.955,3.233-3.049.243-7.682,1.693,1.743,7.133,2.463,10.984,1.946.472.765,3.042,5.9,4.618,7.029C941.1,1453.893,948.86,1453.448,949.4,1458.489Z" transform="translate(-819.65 -1190.419)" fill="#233862"/>
          <path id="Path_31341" data-name="Path 31341" d="M755.608,924.275c-2.327,12.832-7.822,34.187-19.336,40.984-7.74-14.124-16.751-31.016-19.842-36.4-9.849-17.148-5.1-28.678-5.1-28.678s27.474-2.716,35-9.3l2.712,4.18s5.952,26.353,5.671,26.475Q755.154,922.882,755.608,924.275Z" transform="translate(-666.543 -792.004)" fill="#233862"/>
          <path id="Path_31342" data-name="Path 31342" d="M1010.182,750.391a28.51,28.51,0,0,1,5.486,8.607s-6.007,17.251-20.047,19.415C995.62,778.413,1006.728,750.384,1010.182,750.391Z" transform="translate(-872.268 -690.746)" fill="#ed7d2b"/>
          <path id="Path_31343" data-name="Path 31343" d="M633.4,887.821l.091-4.982c-9.925,1.252-34.222-11.86-34.222-11.86s-10.384,6.906-11.8,26.629c-.694,9.627-5.083,50.338-5.568,62.495-.177,4.406-.236,7.551-.256,8.807a.032.032,0,0,1,0,.013,1.732,1.732,0,0,1-.422,1.025,56.853,56.853,0,0,0-5.378,8.244c-15.145,28.178-7.225,66.466-7.225,66.466l3.517-.894s12.805-39.692,21.175-56.861a35.979,35.979,0,0,1,3.791-6.489c3.147-3.822,6.465-10.313,9.736-18.125,6.183-14.769,12.185-34.257,16.466-49.346C623.607,913,633.4,887.821,633.4,887.821Z" transform="translate(-563.02 -777.658)" fill="#2b478b"/>
          <path id="Path_31344" data-name="Path 31344" d="M990.592,713.546c-16.225-3.724-5.86-26.524-4.919-26.122,2.248-.458,7.186-4.406,11.6-12.115l.6.517,9.965,8.737s-2.3,3.4-4.242,6.726c-1.514,2.606-2.8,5.173-2.6,6.055C1001.8,697.976,994.92,714.541,990.592,713.546Z" transform="translate(-862.126 -636.631)" fill="#ffb27d"/>
          <path id="Path_31345" data-name="Path 31345" d="M1049.49,685.907s-2.3,3.394-4.242,6.726c-6.2-3.819-6.2-11.49-5.725-15.464Z" transform="translate(-903.778 -637.972)" fill="#ed985f"/>
          <path id="Path_31346" data-name="Path 31346" d="M1048.7,644.31s-15.044-8.371-9.687-17.659,7.024-16.625,16.856-11.672,9.637,9.563,8.6,13.1S1052.751,646.248,1048.7,644.31Z" transform="translate(-902.711 -591.999)" fill="#ffb27d"/>
          <path id="Path_31347" data-name="Path 31347" d="M1062.931,619.412c-.689-4.124-2.784-4.518-4.245-4.242a12.032,12.032,0,0,0-14.633-5.6,20.484,20.484,0,0,1-11.857,7.122s1.746,3.248,8.939,5.259a12.289,12.289,0,0,0,7.1-.568,40.163,40.163,0,0,1-10.209,3.849c9.479.867,18.5-7.8,19.433-8.725.437,1.343,1.2,4.154.745,6.21-.624,2.793-3.1,7.853-1.59,8.507C1056.61,631.221,1063.964,625.6,1062.931,619.412Z" transform="translate(-898.63 -588.752)" fill="#2c3a64"/>
          <path id="Path_31348" data-name="Path 31348" d="M580.688,1457.992H554.053a14.622,14.622,0,0,1,.753-7.139c1.333-2.955,3.421-4.3,2.921-7.874a9.592,9.592,0,0,0,8.3,3.176c.472.765,3.046,4.858,4.622,5.99C572.391,1453.4,580.152,1452.951,580.688,1457.992Z" transform="translate(-553.907 -1189.923)" fill="#233862"/>
          <path id="Path_31349" data-name="Path 31349" d="M777.849,751.53c-3.427,1.2-8.238,1.85-13.158,2.385-7,.765-14.234,1.288-18.022,2.8-1.381.551-2.306,1.231-2.594,2.1-1.642,4.937-8.877,12.555-8.877,12.555-46.379-2.111-51.47-21.51-51.47-21.51,31.2-36.284,84.037-46.787,84.037-46.787s3.774-1.6,13.277,5.953c6.342,5.042,5.508,6.978,5.508,6.978S787.934,748.011,777.849,751.53Z" transform="translate(-647.473 -656.539)" fill="#f99746"/>
          <path id="Path_31350" data-name="Path 31350" d="M926.749,788.119c-7,.765-14.234,1.288-18.022,2.8a73.856,73.856,0,0,1,9.368-40.529S925.216,779.366,926.749,788.119Z" transform="translate(-809.532 -690.743)" fill="#ed7d2b"/>
          <path id="Path_31351" data-name="Path 31351" d="M950.331,734.362s-17.553,1.734-18.96,13.14,16.829,57.86,19.44,62.067c4.754,7.658,32.751,33.908,32.751,33.908l5.16-3.127s-19.858-33.618-22.933-36.764C960.962,798.646,956.274,738.313,950.331,734.362Z" transform="translate(-825.905 -679.193)" fill="#ffb27d"/>
          <path id="Path_31352" data-name="Path 31352" d="M923.883,747.309c.046.259,16.2,5.277,26.594,0,0,0,2.225-23.985-10.186-22.683s-19.76,5.21-20.073,11.152S923.883,747.309,923.883,747.309Z" transform="translate(-817.911 -672.139)" fill="#f99746"/>
          <path id="Path_31353" data-name="Path 31353" d="M1112.749,1097.839s6.3-5.783,9.015-5.92,10.809.824,11.089,1.945-8.309,3.25-8.792,3.967-5.749,5.627-8.094,4.74S1112.749,1097.839,1112.749,1097.839Z" transform="translate(-956.688 -936.89)" fill="#ffb27d"/>
        </g>
      </g>
      <path id="Rectangle_17732" data-name="Rectangle 17732" d="M.959,0H722.117a.959.959,0,0,1,.959.959v0a.959.959,0,0,1-.959.959H.959A.959.959,0,0,1,0,.959v0A.959.959,0,0,1,.959,0Z" transform="translate(273.789 520.365)" fill="#2e3552"/>
    </g>
    <g id="small_particles" data-name="small particles" transform="translate(641 14102)">
      <path id="Polygon_8" data-name="Polygon 8" d="M9.177,0l9.177,15.566H0Z" transform="matrix(0.891, 0.454, -0.454, 0.891, 159.205, 1.395)" fill="#2a52c6"/>
      <circle id="Ellipse_9" data-name="Ellipse 9" cx="4.194" cy="4.194" r="4.194" transform="matrix(0.951, -0.309, 0.309, 0.951, 0, 35.739)" fill="#38a2ff"/>
      <rect id="Rectangle_2846" data-name="Rectangle 2846" width="10.067" height="10.067" transform="matrix(0.951, -0.309, 0.309, 0.951, 35.266, 3.111)" fill="#f8ced7"/>
    </g>
  </g>
</svg>
