<svg xmlns="http://www.w3.org/2000/svg" xmlns:xlink="http://www.w3.org/1999/xlink" width="860.335" height="845.199" viewBox="0 0 860.335 845.199"><defs><linearGradient id="a" x1="1" y1="0.5" x2="0" y2="0.5" gradientUnits="objectBoundingBox"><stop offset="0" stop-color="#f84e49"/><stop offset="1" stop-color="#ef3598"/></linearGradient><clipPath id="g"><path d="M377.732,244.537l-33.28-31.646h66.561l-33.28,31.646" transform="translate(-344.452 -212.89)" fill="none"/></clipPath></defs><g transform="translate(-29.957 -5982.97)"><g transform="translate(30.02 5982.97)"><path d="M342.6,707.083c163.249-.043,408.241-446.652,326.656-595.478s-571.33-148.7-652.994.174S179.354,707.127,342.6,707.083Z" transform="matrix(-0.259, -0.966, 0.966, -0.259, 177.29, 845.199)" fill="#2a52c6" opacity="0.1"/></g><g transform="translate(-236 5813.544)"><g transform="translate(289.19 351.238)"><path d="M315.411,336.664c0,5.737,50.481,10.386,112.751,10.386s112.749-4.649,112.749-10.386-50.479-10.383-112.749-10.383S315.411,330.93,315.411,336.664Z" transform="translate(239.325 109.468)" fill="#d9e8ff" opacity="0.55" style="mix-blend-mode:multiply;isolation:isolate"/><path d="M404.538,344.531c0,5.736,92.563,10.386,206.743,10.386s206.746-4.649,206.746-10.386-92.563-10.383-206.746-10.383S404.538,338.8,404.538,344.531Z" transform="translate(-235.578 119.059)" fill="#d9e8ff" opacity="0.55" style="mix-blend-mode:multiply;isolation:isolate"/><path d="M548.606,363.207c0,5.734,58.817,10.383,131.37,10.383s131.37-4.649,131.37-10.383-58.817-10.383-131.37-10.383S548.606,357.473,548.606,363.207Z" transform="translate(-548.606 141.828)" fill="#d9e8ff" opacity="0.55" style="mix-blend-mode:multiply;isolation:isolate"/><path d="M524.922,355.89c0,3.034,11.766,5.492,26.279,5.492s26.279-2.459,26.279-5.492-11.766-5.495-26.279-5.495S524.922,352.854,524.922,355.89Z" transform="translate(-262.183 138.866)" fill="#d9e8ff" opacity="0.55" style="mix-blend-mode:multiply;isolation:isolate"/><path d="M520.808,247.848a49.8,49.8,0,0,1,1.92-21.12l12.807,3.078a36.413,36.413,0,0,1,5.213-9.924l-9.806-8.788a50.086,50.086,0,0,1,16.291-13.575l6.875,11.227a36.453,36.453,0,0,1,10.7-3.338l-.721-13.151a49.8,49.8,0,0,1,21.122,1.92l-3.078,12.8a36.5,36.5,0,0,1,9.924,5.213l8.786-9.8a50.046,50.046,0,0,1,13.577,16.291l-11.229,6.875a36.441,36.441,0,0,1,3.34,10.7l13.151-.719a49.8,49.8,0,0,1-1.92,21.12l-12.8-3.078a36.433,36.433,0,0,1-5.213,9.924l9.8,8.788a50.092,50.092,0,0,1-16.291,13.577l-6.875-11.229a36.439,36.439,0,0,1-10.7,3.34l.721,13.148a49.8,49.8,0,0,1-21.122-1.92l3.078-12.8a36.5,36.5,0,0,1-9.924-5.213l-8.786,9.8a50.036,50.036,0,0,1-13.577-16.289l11.229-6.877a36.42,36.42,0,0,1-3.34-10.7Zm47.6,14.1a20.339,20.339,0,1,0-18.417-22.1A20.339,20.339,0,0,0,568.4,261.948Z" transform="translate(-294.789 -54.393)" fill="#b3c9ff" opacity="0.5"/><path d="M501.968,197.6a29.536,29.536,0,0,1,1.138-12.538l7.6,1.829A21.65,21.65,0,0,1,513.8,181l-5.821-5.215a29.723,29.723,0,0,1,9.671-8.06l4.081,6.666a21.574,21.574,0,0,1,6.351-1.982l-.426-7.807a29.626,29.626,0,0,1,12.536,1.138l-1.826,7.6a21.674,21.674,0,0,1,5.892,3.094l5.215-5.821a29.712,29.712,0,0,1,8.058,9.671l-6.664,4.081a21.569,21.569,0,0,1,1.982,6.353l7.807-.428a29.595,29.595,0,0,1-1.141,12.538l-7.6-1.829a21.64,21.64,0,0,1-3.094,5.892l5.819,5.215a29.717,29.717,0,0,1-9.669,8.06l-4.081-6.666a21.6,21.6,0,0,1-6.353,1.982l.428,7.807a29.584,29.584,0,0,1-12.538-1.141l1.828-7.6a21.642,21.642,0,0,1-5.892-3.093l-5.215,5.819a29.717,29.717,0,0,1-8.06-9.669l6.664-4.081a21.726,21.726,0,0,1-1.982-6.353Zm28.252,8.371a12.074,12.074,0,1,0-10.932-13.117A12.073,12.073,0,0,0,530.22,205.97Z" transform="translate(-194.142 -87.923)" fill="#b3c9ff" opacity="0.5"/><g transform="translate(76.803 222.451)"><path d="M682.081,371.2c-6.225-7.8-12.643-16-14.662-25.771-1.873-9.056-4.545-18.983-4.225-28.225a74.882,74.882,0,0,0-4.443-27.222c-9.58-27.382-21.026-22.884-25.065-20.232-3.972,2.608-5.417,7.456-4.749,14.911.537,5.994,8.118,33.432-1.491,30.411-11.122-3.5-14.365-32.719-17.221-42.235-4.27-14.238-12.143-29.04-24.517-37.77-6.1-4.3-14.618-6.955-20.865-2.869-3.739,2.446-5.8,6.824-6.715,11.2-2.743,13.175,3.267,25.773,9.682,36.9,2.681,4.654,22.371,25.263,8.16,24.786-3.393-.115-33.856-18.421-33.776,4.454.029,8.058,9.915,15.1,25.272,23.532,9.589,5.268,44.214,17.831,43.664,26.814s-20.339-2.8-16.173,13.282c2.334,9.01,15.179,14.112,23.767,16.555,4.085,1.163,8.391,1.507,12.392,2.934,4.745,1.691,10.885,6.449,8.135,12.17-1.2,2.5-3.939,4.012-5.057,6.551-1.136,2.576-.286,5.7,1.482,7.889a18.3,18.3,0,0,0,6.877,4.771c16.431,7.472,35.75,6.615,52.889.948s32.437-15.78,46.917-26.557" transform="translate(-542.194 -230.164)" fill="#acc9f9"/><g transform="translate(14.562 16.234)" opacity="0.25"><path d="M574.243,237.48s30.351,93.391,95.83,145.83" transform="translate(-555.591 -237.48)" fill="none" stroke="#fff" stroke-linecap="round" stroke-linejoin="round" stroke-width="1"/><path d="M597.572,267.387s35.58,21.284,62.711,21.612" transform="translate(-597.572 -201.019)" fill="none" stroke="#fff" stroke-linecap="round" stroke-linejoin="round" stroke-width="1"/><path d="M587.6,253.1c3.571,14.833,10.119,56.662-1.6,78.694" transform="translate(-504.284 -218.433)" fill="none" stroke="#fff" stroke-linecap="round" stroke-linejoin="round" stroke-width="1"/><path d="M578.679,295.345s14.109,9.431,54.085,9" transform="translate(-528.127 -166.933)" fill="none" stroke="#fff" stroke-linecap="round" stroke-linejoin="round" stroke-width="1"/><path d="M570.369,319.082s20.8,1.052,37.579-11.841" transform="translate(-484.869 -152.43)" fill="none" stroke="#fff" stroke-linecap="round" stroke-linejoin="round" stroke-width="1"/></g></g><g transform="translate(10.6 326.516)"><path d="M657,373.171c7.228-24.892,1.857-51.733-6.678-76.206-2.051-5.883-4.4-11.888-8.8-16.3-2.246-2.259-5.357-4.11-8.479-3.477-4.583.93-6.511,6.389-7.028,11.036-3.26,29.342,16.073,56.233,20.967,85.349" transform="translate(-579.213 -277.058)" fill="#bdd0ff"/><path d="M611.225,336.22c1.411-7.388,3.384-14.746,6.893-21.4s8.657-12.607,15.312-16.113c2.956-1.558,6.9-2.492,9.394-.277,2.743,2.437,1.86,6.924.24,10.215-8.881,18.022-31.572,26.1-40.2,44.241" transform="translate(-512.856 -252.605)" fill="#bdd0ff"/><path d="M702.969,362.276c5.63-10.51,11.065-21.244,14.174-32.755s3.768-23.967-.118-35.24c-1.2-3.477-4.181-7.456-7.658-6.258a6.968,6.968,0,0,0-3.047,2.6c-6.476,8.526-8.961,19.415-10.133,30.056s-1.207,21.448-3.544,31.9a8.993,8.993,0,0,1-1.882,4.334c-1.1,1.161-3.051,1.662-4.305.675a4.542,4.542,0,0,1-1.323-2.29c-1.487-4.654-24.573-52.587-45.488-55.956a15.94,15.94,0,0,0-5.12-.18c-26.226,4.361,32.859,59.165,33.3,67.325-21.379-18.326-25.909-21.7-35.64-23.457-7.5-1.351-20.567,5.3-16.267,14.467,2.974,6.342,10.393,9.176,17.263,10.548,7.5,1.5,15.217,1.977,22.578,4.068s14.6,6.118,18.346,12.789" transform="translate(-615.074 -263.957)" fill="#bdd0ff"/></g><g transform="translate(445.309 244.279)"><path d="M481.215,308.64c21.113-11.109,8.67-31.63,11.795-45.011,5.148-22.032,10.987-26.452,23.053-22.149,5.9,2.106,9.189,10.685,10.5,16.224,2.082,8.81.5,17.964-.695,26.776-1.032,7.618-5.577,24.1,3.52,27s10.49-9.147,21.517-17.9c4.955-3.932,18.328-5.579,21.291,4.181,5.264,17.334-2.909,25.583-43.922,48.546-6.99,3.915-22.105,8.027-21.228,11.952.87,3.888,11.546-.783,19.431,1.906,12.742,4.349,6.995,12.367,2.514,14.957-35.657,20.6-64.633,11.535-78.563,17.982-6.065,2.807-10.086,8.61-14.831,13.317-10.494,10.406-14.458,8.57-29.231,8.191-8.635-.222-17.494-2.667-23.94-8.413-2.632-2.346-4.947-5.887-3.773-9.212.746-2.11,2.705-3.52,4.607-4.7,13.3-8.226,28.991-11.8,42.6-19.5a80.608,80.608,0,0,0,39.272-56.251" transform="translate(-378.339 -240.001)" fill="#acc9f9"/><g transform="translate(42.506 16.292)" opacity="0.25"><path d="M496.961,247.342c.08,5.792-1.238,11.5-2.548,17.143-4.449,19.16-8.972,38.529-17.809,56.1-11.568,23-29.936,41.776-48.562,59.549-6.558,6.256-13.366,12.56-21.695,16.133" transform="translate(-406.349 -247.342)" fill="none" stroke="#fff" stroke-linecap="round" stroke-linejoin="round" stroke-width="1"/><path d="M462.692,270.942c-20.889,20.6-50.137,30.272-78.875,36.179" transform="translate(-322.072 -218.57)" fill="none" stroke="#fff" stroke-linecap="round" stroke-linejoin="round" stroke-width="1"/><path d="M466.73,298.967c-16.085,3.255-48.147,10.545-62.192,7.763" transform="translate(-372.096 -184.403)" fill="none" stroke="#fff" stroke-linecap="round" stroke-linejoin="round" stroke-width="1"/></g></g><path d="M587.263,193.417l-10.455-7.787a64.849,64.849,0,0,1,19.955-19.952l7.785,10.454A51.149,51.149,0,0,1,619.1,170.1l-1.891-12.913a63.253,63.253,0,0,1,28.225,0L643.55,170.1a51.16,51.16,0,0,1,14.553,6.034l7.785-10.454a64.823,64.823,0,0,1,19.955,19.952l-10.454,7.787a51.226,51.226,0,0,1,6.034,14.553l12.913-1.891a63.3,63.3,0,0,1,0,28.226l-12.913-1.889a51.226,51.226,0,0,1-6.034,14.553l10.454,7.785a64.805,64.805,0,0,1-19.955,19.955L658.1,264.255a51.225,51.225,0,0,1-14.553,6.034l1.889,12.913a63.3,63.3,0,0,1-28.225,0l1.891-12.913a51.213,51.213,0,0,1-14.555-6.034l-7.785,10.454a64.831,64.831,0,0,1-19.955-19.955l10.455-7.785a51.219,51.219,0,0,1-6.034-14.553L568.316,234.3a63.305,63.305,0,0,1,0-28.226l12.913,1.891A51.219,51.219,0,0,1,587.263,193.417Zm44.064,61.065a34.289,34.289,0,1,0-34.29-34.288A34.289,34.289,0,0,0,631.327,254.481Z" transform="translate(-473.394 -98.633)" fill="#b3c9ff"/><path d="M423.482,212.684l-4.385-6.307a38.242,38.242,0,0,1,14.879-7.416l2.394,7.3a30.236,30.236,0,0,1,9.26-.648l1.36-7.57a37.271,37.271,0,0,1,15.769,5.279l-3.471,6.862a30.2,30.2,0,0,1,7,6.094l6.3-4.385a38.181,38.181,0,0,1,7.416,14.879l-7.3,2.395a30.238,30.238,0,0,1,.65,9.261l7.567,1.36a37.269,37.269,0,0,1-5.279,15.769l-6.862-3.471a30.179,30.179,0,0,1-6.092,7l4.385,6.307a38.236,38.236,0,0,1-14.882,7.416l-2.394-7.3a30.165,30.165,0,0,1-9.261.648l-1.358,7.57a37.244,37.244,0,0,1-15.769-5.279l3.469-6.862a30.189,30.189,0,0,1-7-6.094l-6.3,4.385A38.217,38.217,0,0,1,406.168,245l7.3-2.394a30.162,30.162,0,0,1-.65-9.261l-7.57-1.358a37.351,37.351,0,0,1,5.279-15.772l6.862,3.471A30.187,30.187,0,0,1,423.482,212.684Zm13.464,41.565a19.366,19.366,0,1,0-12.219-24.513A19.368,19.368,0,0,0,436.946,254.249Z" transform="translate(99.94 -46.878)" fill="#b3c9ff"/><g transform="translate(204.992 178.763)"><path d="M9.04,0h329.7a9.04,9.04,0,0,1,9.04,9.04V284.853a0,0,0,0,1,0,0H0a0,0,0,0,1,0,0V9.04A9.04,9.04,0,0,1,9.04,0Z" transform="translate(0.001)" fill="#fff"/><rect width="115.942" height="57.588" rx="2.075" transform="translate(206.592 205.752)" fill="#dbe0fe" opacity="0.55"/><rect width="207.317" height="10.311" rx="1.174" transform="translate(115.216 43.689)" fill="#dbe0fe" opacity="0.55"/><rect width="207.317" height="10.31" rx="1.174" transform="translate(115.216 64.996)" fill="#dbe0fe" opacity="0.55"/><rect width="207.317" height="10.311" rx="1.174" transform="translate(115.216 86.303)" fill="#dbe0fe" opacity="0.55"/><rect width="207.317" height="10.31" rx="1.174" transform="translate(115.216 107.611)" fill="#dbe0fe" opacity="0.55"/><rect width="207.317" height="10.31" rx="1.174" transform="translate(115.216 128.918)" fill="#dbe0fe" opacity="0.55"/><rect width="207.317" height="10.311" rx="1.174" transform="translate(115.216 150.225)" fill="#dbe0fe" opacity="0.55"/><g transform="translate(25.342 250.634)"><path d="M526.962,323.419,524.9,327.6l-4.616.671,3.34,3.256-.789,4.6,4.128-2.171,4.129,2.171-.788-4.6,3.34-3.256-4.616-.671Z" transform="translate(-438.384 -323.419)" fill="#dbe0fe"/><path d="M536.189,323.419l-2.065,4.183-4.616.671,3.34,3.256-.788,4.6,4.129-2.171,4.128,2.171-.788-4.6,3.34-3.256-4.616-.671Z" transform="translate(-468.084 -323.419)" fill="#dbe0fe"/><path d="M545.415,323.419l-2.064,4.183-4.616.671,3.34,3.256-.789,4.6,4.129-2.171,4.129,2.171-.789-4.6,3.34-3.256-4.616-.671Z" transform="translate(-497.786 -323.419)" fill="#dbe0fe"/><path d="M554.641,323.419l-2.064,4.183-4.616.671,3.34,3.256-.788,4.6,4.128-2.171,4.129,2.171-.789-4.6,3.34-3.256-4.616-.671Z" transform="translate(-527.486 -323.419)" fill="#dbe0fe"/><path d="M563.868,323.419,561.8,327.6l-4.616.671,3.34,3.256-.789,4.6,4.129-2.171L568,336.125l-.789-4.6,3.34-3.256-4.616-.671Z" transform="translate(-557.188 -323.419)" fill="#dbe0fe"/></g><g transform="translate(87.686 64.254)"><path d="M505.521,262.671c24.57-8.16,37.834-23.239,37.834-23.239s13.264,15.079,37.832,23.239c22,7.305,45.595,6.427,45.595,6.427s0,80-27.433,112.236c-25.762,30.269-55.994,35.6-55.994,35.6s-30.232-5.333-55.994-35.6C459.926,349.1,459.926,269.1,459.926,269.1S483.522,269.976,505.521,262.671Z" transform="translate(-459.926 -239.432)" fill="url(#a)"/><path d="M535.092,395.011c6.817-1.873,28.048-9.152,46.554-30.9,16.963-19.932,22.737-65.783,24.118-92.111a150.17,150.17,0,0,1-36.743-6.746,111.524,111.524,0,0,1-33.929-18.3,111.447,111.447,0,0,1-33.922,18.3,150.219,150.219,0,0,1-36.747,6.746c1.378,26.326,7.15,72.176,24.12,92.111C507.049,385.859,528.277,393.138,535.092,395.011Z" transform="translate(-448.887 -230.252)" fill="#d62984" opacity="0.75"/><path d="M532.786,388.118c7.246-2.086,26.341-9.176,43.524-29.366,15.547-18.266,21.313-59.686,22.968-85.864a150.3,150.3,0,0,1-33.818-6.644,115.417,115.417,0,0,1-32.675-17,115.384,115.384,0,0,1-32.67,17,150.435,150.435,0,0,1-33.807,6.644c1.673,26.2,7.454,67.651,22.955,85.864C506.449,378.942,525.543,386.032,532.786,388.118Z" transform="translate(-446.587 -227.465)" fill="url(#a)"/><g transform="translate(72.196 60.405)"><path d="M489.955,280.662a14.011,14.011,0,1,0,14.009-14.01A14.012,14.012,0,0,0,489.955,280.662Z" transform="translate(-489.955 -266.652)" fill="#fff"/><path d="M499.51,316.826h0a5.9,5.9,0,0,0,5.9-5.9v-32.3a5.9,5.9,0,0,0-5.9-5.9h0a5.9,5.9,0,0,0-5.9,5.9v32.3A5.9,5.9,0,0,0,499.51,316.826Z" transform="translate(-485.5 -259.246)" fill="#fff"/></g><path d="M541.864,262.671c24.568-8.16,37.832-23.239,37.832-23.239v177.5s-30.232-5.333-55.994-35.6C496.269,349.1,496.269,269.1,496.269,269.1S519.863,269.976,541.864,262.671Z" transform="translate(-493.491 -239.432)" fill="#5890f4" opacity="0.25" style="mix-blend-mode:multiply;isolation:isolate"/></g><path d="M437.973,210.478H745.631a20.06,20.06,0,0,1,20.061,20.061v9.553H417.91v-9.553A20.062,20.062,0,0,1,437.973,210.478Z" transform="translate(-417.91 -210.477)" fill="url(#a)"/><g transform="translate(19.673 11.594)"><path d="M548.476,218.915a3.213,3.213,0,1,0,3.213-3.213A3.214,3.214,0,0,0,548.476,218.915Z" transform="translate(-516.54 -215.702)" fill="#fff"/><path d="M555.671,218.915a3.214,3.214,0,1,0,3.216-3.213A3.216,3.216,0,0,0,555.671,218.915Z" transform="translate(-539.704 -215.702)" fill="#fff"/><path d="M562.867,218.915a3.213,3.213,0,1,0,3.213-3.213A3.214,3.214,0,0,0,562.867,218.915Z" transform="translate(-562.867 -215.702)" fill="#fff"/></g></g><path d="M334.343,385.984h81.734c15.947,0,13.359-18.912-31.008-10.5,10.885-4.978,10.949-11.639,10.026-13.417-.85-1.631-3.957-2.683-5.79-2.525-5.643.486-9.928,3.946-14.873,6.706a31.746,31.746,0,0,0,14.143-27.16c-.1-2.931-.732-6.076-2.887-8.064-2.423-2.237-6.382-3.726-9.618-3.085-5.987,1.189-16.992,11.184-21.379,15.43,22.356-20.565,30.866-52.967,16.555-60.359-24.093-12.443-42.295,58.049-42.295,58.049s11.983-52.969-8.118-53.28-3.757,61.535-3.757,61.535" transform="translate(365.435 54.922)" fill="#acc9f9"/><path d="M589.858,353.931a35.675,35.675,0,0,1,11.427,1.9,55.441,55.441,0,0,1,110.858,1.631c0,1.4-.071,2.787-.173,4.161a30.678,30.678,0,0,1,56.307,22.6,22.02,22.02,0,1,1,10.694,41.267H589.858a35.781,35.781,0,1,1,0-71.561Z" transform="translate(-550.392 79.879)" fill="#fff"/><path d="M476.63,330.154a23.441,23.441,0,0,0-7.512,1.247,36.452,36.452,0,0,0-72.888,1.074c0,.921.047,1.831.113,2.736a20.169,20.169,0,0,0-37.02,14.859,14.478,14.478,0,1,0-7.03,27.134H476.63a23.525,23.525,0,1,0,0-47.051Z" transform="translate(230.367 72.573)" fill="#fff"/><path d="M549.378,274.267l-8.2-2.94a43.337,43.337,0,0,1,8.868-16.644l7.015,5.164a34.223,34.223,0,0,1,8.129-6.693l-3.726-7.887a42.356,42.356,0,0,1,18.044-5.5l1.309,8.624a34.288,34.288,0,0,1,10.479,1.021l2.94-8.2a43.33,43.33,0,0,1,16.646,8.868l-5.166,7.015a34.251,34.251,0,0,1,6.693,8.126l7.887-3.724a42.243,42.243,0,0,1,5.5,18.044l-8.624,1.309a34.3,34.3,0,0,1-1.021,10.479l8.2,2.938a43.314,43.314,0,0,1-8.868,16.646l-7.013-5.166a34.207,34.207,0,0,1-8.129,6.693l3.724,7.887a42.249,42.249,0,0,1-18.044,5.5l-1.307-8.621a34.231,34.231,0,0,1-10.481-1.023l-2.938,8.2a43.344,43.344,0,0,1-16.646-8.868l5.166-7.015a34.17,34.17,0,0,1-6.693-8.129l-7.889,3.726a42.311,42.311,0,0,1-5.5-18.044l8.624-1.309A34.16,34.16,0,0,1,549.378,274.267Zm38.957,26.8a19.1,19.1,0,1,0-23.845-12.7A19.1,19.1,0,0,0,588.336,301.07Z" transform="translate(-343.367 3.992)" fill="#dbe0fe"/><g transform="translate(180.881 262.255)"><g transform="translate(2.259 267.837)"><path d="M545.23,374.446c0,3.12,19.5,5.652,43.547,5.652s43.544-2.532,43.544-5.652-19.5-5.652-43.544-5.652S545.23,371.326,545.23,374.446Z" transform="translate(-545.23 -368.794)" fill="#acc9f9"/></g><g transform="translate(16.15 258.947)"><path d="M581.458,364.788s-.553,6.014-.77,7.543-5.117,1.311-5.632.477-.326-7.9-.326-7.9" transform="translate(-573.648 -364.788)" fill="#ffccb0"/><path d="M569.323,370.7a32.551,32.551,0,0,0,.162,4.239l5.637.379.342-.923a8.9,8.9,0,0,0,3.2,1.161l4.758.32c3.482.233,5.49-.078,5.619-.684.539-2.536-3.628-2.7-4.711-2.774-3.111-.209-6.382-1.891-7.01-3.52-.455-1.181-.2-1.456-.859-1.285a1.613,1.613,0,0,0-1.021.77,2.862,2.862,0,0,1-3.047,1.4,3.4,3.4,0,0,1-1.844-1.045A2.057,2.057,0,0,0,569.323,370.7Z" transform="translate(-569.297 -361.406)" fill="#7c3327"/></g><g transform="translate(54.931 258.929)"><path d="M563.477,366.748a46.091,46.091,0,0,1-.262,5.781c-.3,1.514-5.182,1.025-5.65.162s.115-7.911.115-7.911" transform="translate(-556.029 -364.78)" fill="#ffccb0"/><path d="M551.642,370.647c-.133,1.6-.124,4.618-.124,4.618l5,1.207.637-.85a8.759,8.759,0,0,0,2.938,1.6,19.722,19.722,0,0,0,4.718.455c4.132-.277,6.984-1.567,7.126-2.17.593-2.528-4.9-2.21-6.016-2.3a7.24,7.24,0,0,1-6-4.21c-.455-1.192-.186-1.46-.87-1.3a1.652,1.652,0,0,0-1.065.75,2.979,2.979,0,0,1-3.167,1.347,3.565,3.565,0,0,1-1.888-1.081A2.059,2.059,0,0,0,551.642,370.647Z" transform="translate(-551.518 -361.277)" fill="#7c3327"/></g><path d="M603.256,313.514c-.488-.575-.788,6.2-7.621,9.638-6.879,3.464-17.9,1.582-21.426.18-5.537-2.206-3.717-37.921,2.763-49.421,1.516-2.687,7.405-4.012,11.014-4.767,1.025,9.689-2.7,33.352-8.186,43.322C580.11,314.295,603.256,313.514,603.256,313.514Z" transform="translate(-570.923 -222.446)" fill="#f4713d"/><path d="M574.343,306.83c-1.616-2.219.808-27.08.664-30.909l7.625,13.874c-1.363,5.69,4.321,15.676,11.129,15.607l.981,1.376C590.727,307.713,575.96,309.046,574.343,306.83Z" transform="translate(-568.759 -214.184)" fill="#e25833"/><path d="M593.722,367.886c-.446,8.73-1.194,17.747-2.423,24.02-1.041,5.33-13.1,2.124-12.8-2.6.428-6.709-2.541-18.956-5.2-50.834-.386-4.822-2.554-5.379-3.992-15.3-1.422-9.942,4.083-20.294,4.083-20.294l20.6-1.325.3,28.951.089,9.791S594.423,353.727,593.722,367.886Z" transform="translate(-557.921 -182.932)" fill="#30334c"/><path d="M574.776,343.961s-3.895,7.325-4.467,14.3c-.837,10.2.2,43.784.2,43.784s5.268,1.143,8.08.313c0,0,9.529-56.04,9.984-62.447S574.776,343.961,574.776,343.961Z" transform="translate(-554.16 -138.705)" fill="#30334c"/><path d="M586.7,362.965c-1.469-4.709-4.363-13.706-6.753-18.792-3.335-7.108-5.286-11.371-5.286-11.371-11.793-12.374-1.269-27.211-1.269-27.211s5.887,7.956,6.558,8.781c.635.768,4.474,7.525,7.31,11.213l.089,9.791S587.4,348.807,586.7,362.965Z" transform="translate(-550.897 -178.012)" fill="#262a3f"/><path d="M560.191,359.39c.475-7.494-4.951-16.677-4.951-16.677s15.716-12.048,15.962-14.842c0,0,2.239,17.642,3.04,23.084,1.4,9.451-3.32,63.366-3.32,63.366a19.418,19.418,0,0,1-7.965.111s-.85-20.825-4.254-34.932C557.088,372.811,559.627,361.243,560.191,359.39Z" transform="translate(-507.364 -150.849)" fill="#30334c"/><path d="M585.667,303.644c6.136,13.694,12.8,57.882,14.4,73.135.679,6.469-4.709,16.269-10.98,10.419-7.49-6.981-18.024-41.185-21.788-46.831s-17.849-10.821-8.229-39.468" transform="translate(-534.154 -183.732)" fill="#30334c"/><path d="M565.4,287.767s1.673-5.668.941-9.849-3.242-11.711-2.3-17.356,8.051-10.35,15.578-9.618,9.724,7.945,10.978,12.128,1.045,10.559.732,14.01-2.2,6.167-3.451,6.9-5.974-.233-6.8.668-1.456,6.234-1.456,6.234" transform="translate(-543.507 -244.726)" fill="#ffccb0"/><path d="M567.414,273.081s.144-3.322,1.212-4.574,8.748-1.813,11.076-1.667,8.22,2.607,9.014,3.16-.455,3.828-.455,3.828Z" transform="translate(-548.863 -225.282)" fill="#e25833"/><path d="M569.689,284.011s10.283.28,12.443,0c2.963-.386,6.573-2.7,6.835-6.258-2.517-.064-2.714-5.3-1.356-7.29s3.094-.777,3.3,1.105.013,1.289.506,1.54c.666.337,1.6.288,1.342-3.342a13.679,13.679,0,0,0-1.378-6.038c-.941-2.09-1.451-1.973-2.3-2.352.914-.446,1.9-.5,3.71-3.32,2.093-3.267,1.824-6.733-2.093-9.955-.06.934-1.185,2.581-3.52,3.222-4.538,1.245-12.776.2-16.777,2.545-1.7,1-3.22,3.22-2.39,4.944,0,0-3.3-.519-3.5,6.012-.4,13.233,4.077,14.429,4.392,16.468S568.644,283.541,569.689,284.011Z" transform="translate(-547.48 -248.101)" fill="#7c3327"/><g transform="translate(5.579 46.097)"><path d="M607.444,342.688c-.979.357-1.842.939-2.854,1.241-2.417.723-4.956.315-7.414.1-2.548-.226-5.093-.462-7.643-.659-13.293-.566-17.853,2.63-20.01-.6a3.723,3.723,0,0,1-.457-2.725c.457-2.925,1.42-3.93,1.036-6.875-.331-2.468-.788-5.412-1.427-8.777-2.195-11.648-6.542-29.439-7.132-40.14-.843-15.312,14.715-15.177,14.715-15.177,22.857-1.427,31.372,5.155,32.617,14.977.091.695.146,1.445.2,2.23.586,10.13-2.29,31.075-3.753,43.289C604.919,332.928,609.4,341.974,607.444,342.688Z" transform="translate(-561.51 -268.873)" fill="#f4713d"/><path d="M569.058,334.817c-.959.832-3.779,1.056-7.692.728,3.528.255,7.183-1.948,6.4-3.759-.786-1.829-2.974-5.736-3.224-9.081-.928-12.31-.688-47.2-1.167-46.629.548,1.1,2.121,2.634,6.546,3.657.093,10.186-1.789,28.217-2.492,39.632C566.728,330.68,572.689,331.668,569.058,334.817Z" transform="translate(-522.279 -260.101)" fill="#e25833"/></g><path d="M550.533,264.464c-.06-.592-.828-.311-1.028.178a3.851,3.851,0,0,0-.111.422c.078-.976.127-1.773.107-1.968-.058-.564-.766-.357-1.01.082.018-.393.027-.69.016-.817-.06-.723-.832-.428-1.032.166a8.5,8.5,0,0,0-.182,1,4.825,4.825,0,0,0,.009-.546c-.06-.595-.743-.446-.943.042a7.328,7.328,0,0,0-.213,1.149c-.1.595-.268,1.232-.353,1.831-.075.544-.745,3.1-2.022,3.353-1.955.393-.672-2.983-2.037-3.762-.428-.246-.923,2.379-.974,3.866a16.6,16.6,0,0,0,.055,3.109,20.649,20.649,0,0,1,.5,2.652,12.856,12.856,0,0,1-.677,1.94l4.5,1.864s.6-2.687,1.207-3.309a12.423,12.423,0,0,0,3.595-5.259,21.869,21.869,0,0,0,.615-3.979S550.553,264.659,550.533,264.464Z" transform="translate(-451.026 -231.236)" fill="#ffccb0"/><path d="M606.6,270.087s-1.518,8.8-3.018,15.836a68.487,68.487,0,0,1-5.248,16.22c-.018.038-.018.091-.036.129-1.48,3.218-5.151,7.98-6.9,8.786-8.568,3.95-28.052-19.02-32.56-17.574-9.238,2.468-16.109-23.938-16.109-23.938s10.907.16,17.436,1.547c7,1.487,25.66,24.826,26.6,24.881s2.5-3.442,4.58-7.41c4.667-8.9,9.837-20.123,9.837-20.123s4.243,1.263,4.316,1.3Z" transform="translate(-511.699 -223.305)" fill="#f4713d"/><path d="M563.34,257.71s3.255,4.878,2.865,5.921-3.52.979-3.52.979" transform="translate(-515.624 -236.386)" fill="#ffccb0"/></g><g transform="translate(549.055 270.616)"><path d="M424.935,288.959c-4.172,4.991-7.576,16.772-11.837,21.688-2.095,2.417-17.15,15.468-27.276,21.049-.468-3.034-6.884-1.145-4.6-3.2,7.092-6.387,19.355-12.9,23.528-24.606,2.745-7.707,12.913-24.828,12.913-24.828" transform="translate(-338.705 -218.715)" fill="#db856e"/><g transform="translate(0 51.861)"><path d="M385.711,327.67h75.174V281.751a6.513,6.513,0,0,0-6.511-6.513H426.038a3.041,3.041,0,0,0-1.957.715l-6.882,5.805a3.225,3.225,0,0,1-2.079.759H392.224a6.513,6.513,0,0,0-6.513,6.511Z" transform="translate(-385.711 -275.238)" fill="#37f"/><rect width="66.448" height="36.233" rx="1.738" transform="translate(3.878 9.771)" fill="#fff"/><rect width="75.174" height="47.574" rx="3.273" transform="translate(0 17.11)" fill="#6490ff"/><g transform="translate(24.906 21.535)"><path d="M398.76,297.449h1.471v-3.122a9.384,9.384,0,1,1,18.767,0v3.122h1.471a1.826,1.826,0,0,1,1.826,1.826v14.651a5.435,5.435,0,0,1-5.435,5.435H402.371a5.435,5.435,0,0,1-5.437-5.435V299.276A1.828,1.828,0,0,1,398.76,297.449Zm16.8-3.122a5.942,5.942,0,0,0-11.884,0v3.122h11.884Z" transform="translate(-396.934 -284.942)" fill="#2660ef"/><path d="M401.165,295.758a3.292,3.292,0,1,1,4.678,2.963v5.89a1.386,1.386,0,1,1-2.772,0v-5.89A3.278,3.278,0,0,1,401.165,295.758Z" transform="translate(-391.776 -275.768)" fill="#fff"/></g></g><g transform="translate(45.47 251.598)"><path d="M452.022,371.5c0,3.453-21.566,6.251-48.171,6.251s-48.167-2.8-48.167-6.251,21.566-6.251,48.167-6.251S452.022,368.045,452.022,371.5Z" transform="translate(-355.684 -365.244)" fill="#acc9f9"/></g><g transform="translate(93.639 97.353)"><path d="M366.759,311.4l19.091-15.663s8.619,12.035,5.153,23.479c-1.7,5.63-3.786,8.4-4.709,11.071-.863,2.494-7.033,37.874-6.644,40.473s3.34,9.893,4.4,17.538c1.274,9.192.624,39.079,1.6,47.022s-6.362,9.181-6.728,6.493c-3.125-22.966-11.717-58.8-12.831-70.278S365.78,339.087,366.759,311.4Z" transform="translate(-365.551 -295.738)" fill="#ed9c80"/><path d="M374.272,312.987l7.947,18.945a42.206,42.206,0,0,0-6,19.66c-.189,3.633.082,7.277-.069,10.909a3.589,3.589,0,0,1-.12.79c-1.027-5.4-1.786-9.853-2.066-12.751-.788-8.107-.615-20.971-.1-37.579A3.578,3.578,0,0,1,374.272,312.987Z" transform="translate(-373.428 -274.742)" fill="#db856e"/><path d="M376.022,359.134s1.642,8.34,1.156,9.394-2.23,4.11-3.986,5.2c-1.844,1.143-5.91,2.477-6.24,2.978a1.256,1.256,0,0,0,.211,1.7,8.383,8.383,0,0,0,5.748,1.542c5.5-.83,6.1-3.249,9.3-3.593.553-.06,1.565.77,3.1.011a3.629,3.629,0,0,0,2.186-3.491c-.2-2.295-1.456-4.2-2.348-5.907s-1.431-9.467-1.431-9.467" transform="translate(-363.821 -220.437)" fill="#ed9c80"/><path d="M366.7,372.857c-.391-.69-.477-1.727-.1-1.975a31.988,31.988,0,0,1,3.444-2.008c1.07-.475,2.763-.883,2.166-.57s.477,1.529,1.474,1.48c3.442-.162,6.009-2.412,7.976-2.876,2.836-.668,4.065-3.988,4.2-4.527.528.346,1.735,3.049,1.975,3.9a6.748,6.748,0,0,1,.379,2.96,6.883,6.883,0,0,0-.353,2.814,5.362,5.362,0,0,1-2.042.706,8.05,8.05,0,0,1-2.188,0l-.22-1.78a8.083,8.083,0,0,0-1.751.149,9.553,9.553,0,0,0-2.69,1.21c-.4.464-.723,1.314-1.247,1.569a10.976,10.976,0,0,1-4.525,1.063C369.5,375.136,367.366,374.035,366.7,372.857Z" transform="translate(-363.791 -214.491)" fill="#222b70"/></g><g transform="translate(67.885 94.147)"><path d="M368.978,454.379c.406-.448,4.778-1.161,6.828-2.017a11.78,11.78,0,0,0,4.782-4.554c.459-1.114.355-6.757.3-9.125-.408-16.32-3.424-56.2-3.861-65.751-.759-16.6,1.4-33.736,7.783-60.386l23.783-18.253s6.662,12.383,4.432,24.222c-1.294,6.868-6.99,7.925-7.956,10.594s-15.352,45.71-15.352,45.71a80.958,80.958,0,0,1,2.963,19.5c.14,8.7-3.808,34.952-4.54,44.953-.084,1.953-.422,6.631.153,8.12.706,1.826,2.505,3.97,2.414,6.271A3.541,3.541,0,0,1,388,456.8c-1.684.522-2.625-.451-3.2-.475-3.353-.14-4.283,2.166-10.071,2.164a9.165,9.165,0,0,1-5.748-2.388A1.227,1.227,0,0,1,368.978,454.379Z" transform="translate(-368.273 -294.293)" fill="#ed9c80"/><path d="M378.8,371.478c-.315-.743-.275-1.782.144-1.973a33.5,33.5,0,0,1,3.815-1.474c1.167-.311,2.969-.462,2.312-.24s.3,1.584,1.336,1.689c3.577.353,6.518-1.491,8.608-1.656,3.018-.235,4.125-3.342,4.33-3.857a13.835,13.835,0,0,1,2.135,4.159,6.52,6.52,0,0,1,.013,2.991,6.565,6.565,0,0,0-.721,2.736,5.743,5.743,0,0,1-2.2.393,8.74,8.74,0,0,1-2.261-.328v-1.8a8.75,8.75,0,0,0-1.829-.115,6.061,6.061,0,0,0-2.949,1.043c-.493.371-1.01.994-1.589,1.141a12.186,12.186,0,0,1-4.7.355C381.413,374.156,379.343,372.745,378.8,371.478Z" transform="translate(-378.596 -209.348)" fill="#222b70"/></g><path d="M401.294,296.637c6.1,6.256,10,15.263,7.8,25.221-.581,2.636-3.9,9.729-4.547,12.359-1.467,5.981-4.176,14.735-4.658,21.657-9.4,5.654-27.313,3.548-35.032-1.942-.184-8.431.555-15.059,2.193-26.583,2.47-17.387,5.384-21.3,7.967-28.261.3-1.223.306-3.7.59-5.14" transform="translate(-288.205 -200.568)" fill="#30334c"/><path d="M380.444,269.505c-1.493.495-.934,4.052-2.428,4.547-1.081.36-3.2-.118-4.192.442-5.259,2.965-3.91,8.885-4.547,16.22-2.226,5.63-2.818,10.73-1.043,13.874,2.2,3.9,4.531,5,7.234,8.235,2.022,2.417,2.685,7.388,3.1,12.731.071.919-.695,2.53-.473,3.426.426,1.715,3.034,2.248,5.943,2.3,6.691.126,16.837-2.306,19.821-2.2,2.812.1,5.464-1.258,5.188-2.918-.191-1.158-1.351-1.635-1.811-3.875-1.01-4.935-1.784-17.276-2.572-21.457-2.013-10.714-3.486-18.679-7.878-28.554" transform="translate(-292.8 -230.367)" fill="#f4713d"/><path d="M381.63,285.447A50.085,50.085,0,0,1,387.7,277.5l5.717,2.572c-2.69,5.157-3.178,11.229-4.412,16.866a13.363,13.363,0,0,1-3.3-.324c-.557-.908-.348-.455-1.087-1.764A23.124,23.124,0,0,1,381.63,285.447Z" transform="translate(-309.186 -220.625)" fill="#e25833"/><path d="M376.421,274.813a28.62,28.62,0,0,1-.974-7.4c.166-4.25.7-10.406,7.767-12.933s14.853-1.012,17.165,4.081,1.775,12.8,2.113,16.926,3.362,9.056,3.362,9.056l-15.208,6.547s-2.485-5.4-3.508-6.047-1.378,1.924-4.767,1.64c-1.438-.122-2.974-2.705-4.134-5.881-.036-.1-.076-.213-.111-.313a15.931,15.931,0,0,1-1.809-.155c-1.05-.313-.965-.777-.73-1.442A17.3,17.3,0,0,0,376.421,274.813Z" transform="translate(-307.881 -250.144)" fill="#ed9c80"/><path d="M412.765,304.539c0,1.238-2.381,4.6-4.2,5.115a2.717,2.717,0,0,1-1.784-.044c-.826.371-3.451.659-2.472-.885-1.669,1.4-3.562,1.327-5.674,1.225-.708-.035-.686-.861.861-1.283a7.774,7.774,0,0,0,4.827-4.059c-.322-.246-.581.2-1.456.344-.97.153-1.487-.282-1.518-.706-.024-.32,1.141-.692,1.4-.859l2.9-1.92a5.536,5.536,0,0,1,3.054-1.118c.213-.016,2.3.109,1.782.868" transform="translate(-365.268 -192.764)" fill="#ed9c80"/><path d="M421.2,284.324c-2.519,5.208-9.139,22.473-10.166,24.464-4.046,7.84-24.779,24.852-24.779,24.852a4.21,4.21,0,0,1-3.517-4.094c5.936-4.119,17.079-21.8,19.389-23.916,1.5-1.371,8.224-28.663,8.224-28.663" transform="translate(-339.422 -221.27)" fill="#ed9c80"/><path d="M387.137,275.267c5.779-2.208,11.3-2.221,15.732-6.646,4.492,3.455-5.424,23.432-7.874,23.969-2.505.548-5.77,11.575-6.384,13.075-8-.213-10.927-4.576-10.927-4.576C380.95,291.05,381.536,277.407,387.137,275.267Z" transform="translate(-311.033 -231.445)" fill="#f4713d"/><path d="M382.615,296.235c.4-1.5,1.534-2.7,1.789-4.232a6.9,6.9,0,0,0-.852-4.554,8.341,8.341,0,0,0-1.979-1.866c-3.18-2.508-4.287-4.58-3.22-8.331a10.207,10.207,0,0,0,.541-3.764c-.115-1.147-.351-2.348-1.584-2.494-.861-.1-1.414.109-1.715.834-.213.508.2,4.143-1,2.084-1.154-1.973-2.181-2.121-2.126-6.666.007-.539.191-2.734-.142-3.056-2.11,1.54-2.723,4.183-2.971,6.112-1.587-.67-2.035-2.956-2.035-3.828a10.117,10.117,0,0,1,.837-4.554c2.761-5.925,5.69-7.013,8.162-8.062,2.4-1.019,4.893-2.055,7.494-1.986s5.825.843,6.578,2.794c3.606-.93,5.666,2.219,6.518,3.353a18.327,18.327,0,0,1,2.783,5.366c.921,2.847,1.136,5.879,1.864,8.783a12.774,12.774,0,0,0,3.433,6.464c1.755,1.589,4.225,1.735,6.132,3.191a9.6,9.6,0,0,1,3.646,7.978c-.133,3.051-1.7,6.34.14,9.138.6.91,1.44,1.638,2.031,2.554a6.946,6.946,0,0,1-.138,7.166c-1.3,2.148-3.835,4.6-6.214,5.308a18.237,18.237,0,0,1-6.72.925c-4.381-.242-8.067.009-12.7-3.952-2.625-2.241-.945-3.524-3.464-5.9-1.411-1.334-3.418-2.044-4.452-3.777a6.737,6.737,0,0,1-.672-4.849C382.584,296.353,382.6,296.295,382.615,296.235Z" transform="translate(-301.875 -251.869)" fill="#7c3327"/></g><path d="M552.411,420.282h3.695" transform="translate(-301.81 224.07)" fill="none" stroke="#fff" stroke-miterlimit="10" stroke-width="1"/><g transform="translate(105.121 100.898)"><path d="M621.591,176.274c18.43,0,30.5,18.674,30.5,18.674s-12.07,18.672-30.5,18.672-30.5-18.672-30.5-18.672S603.161,176.274,621.591,176.274Z" transform="translate(-588.754 -174.312)" fill="#fff"/><path d="M622.875,216.662c19.278,0,31.634-18.772,32.149-19.571l.688-1.065-.688-1.067c-.515-.8-12.871-19.569-32.149-19.569s-31.632,18.77-32.149,19.569l-.688,1.067.688,1.065C591.243,197.89,603.6,216.662,622.875,216.662Zm28.1-20.636c-2.84,3.839-13.457,16.708-28.1,16.708s-25.256-12.869-28.1-16.708c2.84-3.841,13.459-16.71,28.1-16.71S648.131,192.185,650.971,196.026Z" transform="translate(-590.038 -175.39)" fill="url(#a)"/><path d="M599.574,191.1a11.675,11.675,0,1,0,11.675-11.677A11.675,11.675,0,0,0,599.574,191.1Z" transform="translate(-578.412 -170.468)" fill="url(#a)"/><path d="M600.978,185.672a4.683,4.683,0,1,0,4.685-4.682A4.684,4.684,0,0,0,600.978,185.672Z" transform="translate(-568.949 -168.563)" fill="#fff"/></g><g transform="translate(649.23 183.996)"><path d="M349.789,212.836h51.788a3.654,3.654,0,0,1,3.657,3.655v33.747a3.654,3.654,0,0,1-3.657,3.655h-4.711L385.125,261.6l1.494-7.709H349.789a3.656,3.656,0,0,1-3.657-3.655V216.491A3.656,3.656,0,0,1,349.789,212.836Z" transform="translate(-342.403 -212.836)" fill="url(#a)"/><g transform="translate(0 0.121)"><path d="M357.5,229.528a4.328,4.328,0,1,0,4.33-4.327A4.329,4.329,0,0,0,357.5,229.528Z" transform="translate(-328.546 -197.882)" fill="#fff"/><g clip-path="url(#g)"><g transform="translate(8.804 7.169)"><g transform="translate(9.731 9.733)"><path d="M367.55,250A14.744,14.744,0,1,0,352.8,235.251,14.759,14.759,0,0,0,367.55,250Zm0-25.385a10.641,10.641,0,1,1-10.643,10.641A10.653,10.653,0,0,1,367.55,224.61Z" transform="translate(-352.804 -220.507)" fill="#fff"/></g><path d="M372.9,265.076A24.477,24.477,0,1,0,348.418,240.6,24.5,24.5,0,0,0,372.9,265.076Zm0-44.851A20.374,20.374,0,1,1,352.521,240.6,20.4,20.4,0,0,1,372.9,220.224Z" transform="translate(-348.418 -216.121)" fill="#fff"/></g></g></g></g><g transform="translate(411.855 79.711)"><path d="M2,0H69.686a2,2,0,0,1,2,2V47.8a2,2,0,0,1-2,2H2a2,2,0,0,1-2-2V2A2,2,0,0,1,2,0Z" fill="#bdd5ff"/><path d="M484.37,187.768,486.4,198.26,470.42,187.768" transform="translate(-462.012 -139.113)" fill="#bdd5ff"/><g transform="translate(18.637 9.11)"><path d="M474.631,202.687a16.37,16.37,0,1,0-16.371-16.371A16.386,16.386,0,0,0,474.631,202.687Zm0-31.075a14.705,14.705,0,1,1-14.706,14.7A14.721,14.721,0,0,1,474.631,171.612Z" transform="translate(-458.26 -169.948)" fill="#fff"/><g transform="translate(9.047)"><path d="M469.658,202.687c4.108,0,7.325-7.19,7.325-16.371s-3.218-16.368-7.325-16.368-7.323,7.19-7.323,16.368S465.553,202.687,469.658,202.687Zm0-31.075c2.676,0,5.661,6.038,5.661,14.7s-2.985,14.706-5.661,14.706S464,194.985,464,186.317,466.982,171.612,469.658,171.612Z" transform="translate(-462.335 -169.948)" fill="#fff"/></g><g transform="translate(0.833 15.537)"><rect width="31.075" height="1.664" fill="#fff"/></g><g transform="translate(4.054 5.821)"><path d="M472.4,177.034c9.014,0,12.185-3.162,12.316-3.3l-1.2-1.158.6.579-.593-.586c-.029.029-2.911,2.8-11.127,2.8s-11.1-2.77-11.127-2.8l-1.19,1.165C460.217,173.871,463.39,177.034,472.4,177.034Z" transform="translate(-460.086 -172.571)" fill="#fff"/><g transform="translate(0 16.635)"><path d="M483.529,184.53l1.189-1.165c-.131-.135-3.3-3.3-12.316-3.3s-12.185,3.162-12.316,3.3l1.2,1.158c.02-.022,2.9-2.792,11.12-2.792S483.5,184.5,483.529,184.53Z" transform="translate(-460.086 -180.067)" fill="#fff"/></g></g></g></g><g transform="translate(179.992)"><g transform="translate(0)"><rect width="114.349" height="79.437" rx="3.188" fill="url(#a)"/><path d="M590.614,164.9l3.241,16.737L568.362,164.9" transform="translate(-554.948 -87.285)" fill="url(#a)"/></g><g transform="translate(18.61 17.91)"><g transform="translate(0)"><path d="M579.519,178.671a20.339,20.339,0,1,0-20.343-20.339A20.362,20.362,0,0,0,579.519,178.671Zm0-31.958a11.62,11.62,0,1,1-11.626,11.619A11.633,11.633,0,0,1,579.519,146.713Z" transform="translate(-559.176 -137.994)" fill="#fff"/></g><g transform="translate(36.321 15.979)"><path d="M574.84,163.021h8.719V145.195H542.753v8.719H574.84Z" transform="translate(-542.753 -145.195)" fill="#fff"/></g><g transform="translate(54.888 20.339)"><rect width="8.719" height="10.163" transform="translate(0)" fill="#fff"/></g></g></g></g></g><g transform="translate(395 6020)"><path d="M7.083,0l7.083,13.212H0Z" transform="translate(14.027 15.055) rotate(-172)" fill="#2a52c6"/><circle cx="9" cy="9" r="9" transform="translate(252.028 157.77)" fill="#38a2ff"/><rect width="9" height="9" transform="translate(84.028 26.77)" fill="#f8ced7"/><path d="M7.51,0l7.51,12.437H0Z" transform="translate(295.6 230.886) rotate(45)" fill="#f8ced7"/></g></g></svg>