<svg xmlns="http://www.w3.org/2000/svg" xmlns:xlink="http://www.w3.org/1999/xlink" width="1352.307" height="742.422" viewBox="0 0 1352.307 742.422"><defs><radialGradient id="a" cx="0.5" cy="0.5" r="2.381" gradientTransform="translate(0.395 3.438) scale(0.21)" gradientUnits="objectBoundingBox"><stop offset="0" stop-color="#292929"/><stop offset="1" stop-color="#d1d1d1" stop-opacity="0"/></radialGradient></defs><g transform="translate(20.578 -481)"><g transform="translate(59.922 1062.422) rotate(45)"><g transform="translate(-224.153 -1224.002) rotate(45)"><rect width="3" height="3" transform="translate(1064 667)" fill="#2a52c6"/><rect width="3" height="3" transform="translate(1077 667)" fill="#2a52c6"/><rect width="3" height="3" transform="translate(1090 667)" fill="#2a52c6"/><rect width="3" height="3" transform="translate(1103 667)" fill="#2a52c6"/><rect width="3" height="3" transform="translate(1116 667)" fill="#2a52c6"/><rect width="3" height="3" transform="translate(1129 667)" fill="#2a52c6"/><rect width="3" height="3" transform="translate(1142 667)" fill="#2a52c6"/><rect width="3" height="3" transform="translate(1064 680)" fill="#2a52c6"/><rect width="3" height="3" transform="translate(1077 680)" fill="#2a52c6"/><rect width="3" height="3" transform="translate(1090 680)" fill="#2a52c6"/><rect width="3" height="3" transform="translate(1103 680)" fill="#2a52c6"/><rect width="3" height="3" transform="translate(1116 680)" fill="#2a52c6"/><rect width="3" height="3" transform="translate(1129 680)" fill="#2a52c6"/><rect width="3" height="3" transform="translate(1142 680)" fill="#2a52c6"/><rect width="3" height="3" transform="translate(1064 693)" fill="#2a52c6"/><rect width="3" height="3" transform="translate(1077 693)" fill="#2a52c6"/><rect width="3" height="3" transform="translate(1090 693)" fill="#2a52c6"/><rect width="3" height="3" transform="translate(1103 693)" fill="#2a52c6"/><rect width="3" height="3" transform="translate(1116 693)" fill="#2a52c6"/><rect width="3" height="3" transform="translate(1129 693)" fill="#2a52c6"/><rect width="3" height="3" transform="translate(1142 693)" fill="#2a52c6"/><rect width="3" height="3" transform="translate(1064 706)" fill="#2a52c6"/><rect width="3" height="3" transform="translate(1077 706)" fill="#2a52c6"/><rect width="3" height="3" transform="translate(1090 706)" fill="#2a52c6"/><rect width="3" height="3" transform="translate(1103 706)" fill="#2a52c6"/><rect width="3" height="3" transform="translate(1116 706)" fill="#2a52c6"/><rect width="3" height="3" transform="translate(1129 706)" fill="#2a52c6"/><rect width="3" height="3" transform="translate(1142 706)" fill="#2a52c6"/><rect width="3" height="3" transform="translate(1064 719)" fill="#2a52c6"/><rect width="3" height="3" transform="translate(1077 719)" fill="#2a52c6"/><rect width="3" height="3" transform="translate(1090 719)" fill="#2a52c6"/><rect width="3" height="3" transform="translate(1103 719)" fill="#2a52c6"/><rect width="3" height="3" transform="translate(1116 719)" fill="#2a52c6"/><rect width="3" height="3" transform="translate(1129 719)" fill="#2a52c6"/><rect width="3" height="3" transform="translate(1142 719)" fill="#2a52c6"/><rect width="3" height="3" transform="translate(1064 731)" fill="#2a52c6"/><rect width="3" height="3" transform="translate(1077 731)" fill="#2a52c6"/><rect width="3" height="3" transform="translate(1090 731)" fill="#2a52c6"/><rect width="3" height="3" transform="translate(1103 731)" fill="#2a52c6"/><rect width="3" height="3" transform="translate(1116 731)" fill="#2a52c6"/><rect width="3" height="3" transform="translate(1129 731)" fill="#2a52c6"/><rect width="3" height="3" transform="translate(1142 731)" fill="#2a52c6"/><rect width="3" height="3" transform="translate(1064 744)" fill="#2a52c6"/><rect width="3" height="3" transform="translate(1077 744)" fill="#2a52c6"/><rect width="3" height="3" transform="translate(1090 744)" fill="#2a52c6"/><rect width="3" height="3" transform="translate(1103 744)" fill="#2a52c6"/><rect width="3" height="3" transform="translate(1116 744)" fill="#2a52c6"/><rect width="3" height="3" transform="translate(1129 744)" fill="#2a52c6"/><rect width="3" height="3" transform="translate(1142 744)" fill="#2a52c6"/></g></g><g transform="translate(1238 481)"><g transform="translate(760.729 -1064) rotate(90)"><rect width="3.515" height="3.515" transform="translate(1064 667)" fill="#38a2ff"/><rect width="3.515" height="3.515" transform="translate(1079.231 667)" fill="#38a2ff"/><rect width="3.515" height="3.515" transform="translate(1094.462 667)" fill="#38a2ff"/><rect width="3.515" height="3.515" transform="translate(1109.693 667)" fill="#38a2ff"/><rect width="3.515" height="3.515" transform="translate(1124.924 667)" fill="#38a2ff"/><rect width="3.515" height="3.515" transform="translate(1140.155 667)" fill="#38a2ff"/><rect width="3.515" height="3.515" transform="translate(1155.386 667)" fill="#38a2ff"/><rect width="3.515" height="3.515" transform="translate(1064 682.231)" fill="#38a2ff"/><rect width="3.515" height="3.515" transform="translate(1079.231 682.231)" fill="#38a2ff"/><rect width="3.515" height="3.515" transform="translate(1094.462 682.231)" fill="#38a2ff"/><rect width="3.515" height="3.515" transform="translate(1109.693 682.231)" fill="#38a2ff"/><rect width="3.515" height="3.515" transform="translate(1124.924 682.231)" fill="#38a2ff"/><rect width="3.515" height="3.515" transform="translate(1140.155 682.231)" fill="#38a2ff"/><rect width="3.515" height="3.515" transform="translate(1155.386 682.231)" fill="#38a2ff"/><rect width="3.515" height="3.515" transform="translate(1064 697.462)" fill="#38a2ff"/><rect width="3.515" height="3.515" transform="translate(1079.231 697.462)" fill="#38a2ff"/><rect width="3.515" height="3.515" transform="translate(1094.462 697.462)" fill="#38a2ff"/><rect width="3.515" height="3.515" transform="translate(1109.693 697.462)" fill="#38a2ff"/><rect width="3.515" height="3.515" transform="translate(1124.924 697.462)" fill="#38a2ff"/><rect width="3.515" height="3.515" transform="translate(1140.155 697.462)" fill="#38a2ff"/><rect width="3.515" height="3.515" transform="translate(1155.386 697.462)" fill="#38a2ff"/><rect width="3.515" height="3.515" transform="translate(1064 712.693)" fill="#38a2ff"/><rect width="3.515" height="3.515" transform="translate(1079.231 712.693)" fill="#38a2ff"/><rect width="3.515" height="3.515" transform="translate(1094.462 712.693)" fill="#38a2ff"/><rect width="3.515" height="3.515" transform="translate(1109.693 712.693)" fill="#38a2ff"/><rect width="3.515" height="3.515" transform="translate(1124.924 712.693)" fill="#38a2ff"/><rect width="3.515" height="3.515" transform="translate(1140.155 712.693)" fill="#38a2ff"/><rect width="3.515" height="3.515" transform="translate(1155.386 712.693)" fill="#38a2ff"/><rect width="3.515" height="3.515" transform="translate(1064 727.924)" fill="#38a2ff"/><rect width="3.515" height="3.515" transform="translate(1079.231 727.924)" fill="#38a2ff"/><rect width="3.515" height="3.515" transform="translate(1094.462 727.924)" fill="#38a2ff"/><rect width="3.515" height="3.515" transform="translate(1109.693 727.924)" fill="#38a2ff"/><rect width="3.515" height="3.515" transform="translate(1124.924 727.924)" fill="#38a2ff"/><rect width="3.515" height="3.515" transform="translate(1140.155 727.924)" fill="#38a2ff"/><rect width="3.515" height="3.515" transform="translate(1155.386 727.924)" fill="#38a2ff"/><rect width="3.515" height="3.515" transform="translate(1064 741.983)" fill="#38a2ff"/><rect width="3.515" height="3.515" transform="translate(1079.231 741.983)" fill="#38a2ff"/><rect width="3.515" height="3.515" transform="translate(1094.462 741.983)" fill="#38a2ff"/><rect width="3.515" height="3.515" transform="translate(1109.693 741.983)" fill="#38a2ff"/><rect width="3.515" height="3.515" transform="translate(1124.924 741.983)" fill="#38a2ff"/><rect width="3.515" height="3.515" transform="translate(1140.155 741.983)" fill="#38a2ff"/><rect width="3.515" height="3.515" transform="translate(1155.386 741.983)" fill="#38a2ff"/><rect width="3.515" height="3.515" transform="translate(1064 757.214)" fill="#38a2ff"/><rect width="3.515" height="3.515" transform="translate(1079.231 757.214)" fill="#38a2ff"/><rect width="3.515" height="3.515" transform="translate(1094.462 757.214)" fill="#38a2ff"/><rect width="3.515" height="3.515" transform="translate(1109.693 757.214)" fill="#38a2ff"/><rect width="3.515" height="3.515" transform="translate(1124.924 757.214)" fill="#38a2ff"/><rect width="3.515" height="3.515" transform="translate(1140.155 757.214)" fill="#38a2ff"/><rect width="3.515" height="3.515" transform="translate(1155.386 757.214)" fill="#38a2ff"/></g></g><path d="M481.957,0C748.134,0,963.913,9.534,963.913,21.294S748.134,42.588,481.957,42.588,0,33.054,0,21.294,215.779,0,481.957,0Z" transform="translate(201.227 1175.571)" opacity="0.135" fill="url(#a)"/></g></svg>