<svg xmlns="http://www.w3.org/2000/svg" xmlns:xlink="http://www.w3.org/1999/xlink" width="1660.999" height="1144.172" viewBox="0 0 1660.999 1144.172">
  <defs>
    <linearGradient id="linear-gradient" x1="0.412" y1="0.408" x2="0.845" y2="2.241" gradientUnits="objectBoundingBox">
      <stop offset="0" stop-color="#fffae1"/>
      <stop offset="1" stop-color="#27b206" stop-opacity="0.039"/>
    </linearGradient>
  </defs>
  <g id="Group_24471" data-name="Group 24471" transform="translate(151.778)">
    <g id="Group_24470" data-name="Group 24470">
      <g id="Component_23_1" data-name="Component 23 – 1" transform="translate(-151.778)">
        <path id="Path_21005" data-name="Path 21005" d="M0,0H1366V1029.755s-1024.5,257.439-1366,0S0,0,0,0Z" transform="translate(151.778)" fill="url(#linear-gradient)"/>
      </g>
    </g>
    <g id="Dots_Pattern_1" data-name="Dots Pattern 1" transform="translate(-57 213)">
      <g id="Group_41" data-name="Group 41" transform="translate(-224.153 -1224.002) rotate(45)">
        <rect id="Rectangle_2784" data-name="Rectangle 2784" width="3" height="3" transform="translate(1064 667)" fill="#2a52c6"/>
        <rect id="Rectangle_2785" data-name="Rectangle 2785" width="3" height="3" transform="translate(1077 667)" fill="#2a52c6"/>
        <rect id="Rectangle_2786" data-name="Rectangle 2786" width="3" height="3" transform="translate(1090 667)" fill="#2a52c6"/>
        <rect id="Rectangle_2787" data-name="Rectangle 2787" width="3" height="3" transform="translate(1103 667)" fill="#2a52c6"/>
        <rect id="Rectangle_2788" data-name="Rectangle 2788" width="3" height="3" transform="translate(1116 667)" fill="#2a52c6"/>
        <rect id="Rectangle_2789" data-name="Rectangle 2789" width="3" height="3" transform="translate(1129 667)" fill="#2a52c6"/>
        <rect id="Rectangle_2790" data-name="Rectangle 2790" width="3" height="3" transform="translate(1142 667)" fill="#2a52c6"/>
        <rect id="Rectangle_2791" data-name="Rectangle 2791" width="3" height="3" transform="translate(1064 680)" fill="#2a52c6"/>
        <rect id="Rectangle_2792" data-name="Rectangle 2792" width="3" height="3" transform="translate(1077 680)" fill="#2a52c6"/>
        <rect id="Rectangle_2793" data-name="Rectangle 2793" width="3" height="3" transform="translate(1090 680)" fill="#2a52c6"/>
        <rect id="Rectangle_2794" data-name="Rectangle 2794" width="3" height="3" transform="translate(1103 680)" fill="#2a52c6"/>
        <rect id="Rectangle_2795" data-name="Rectangle 2795" width="3" height="3" transform="translate(1116 680)" fill="#2a52c6"/>
        <rect id="Rectangle_2796" data-name="Rectangle 2796" width="3" height="3" transform="translate(1129 680)" fill="#2a52c6"/>
        <rect id="Rectangle_2797" data-name="Rectangle 2797" width="3" height="3" transform="translate(1142 680)" fill="#2a52c6"/>
        <rect id="Rectangle_2798" data-name="Rectangle 2798" width="3" height="3" transform="translate(1064 693)" fill="#2a52c6"/>
        <rect id="Rectangle_2799" data-name="Rectangle 2799" width="3" height="3" transform="translate(1077 693)" fill="#2a52c6"/>
        <rect id="Rectangle_2800" data-name="Rectangle 2800" width="3" height="3" transform="translate(1090 693)" fill="#2a52c6"/>
        <rect id="Rectangle_2801" data-name="Rectangle 2801" width="3" height="3" transform="translate(1103 693)" fill="#2a52c6"/>
        <rect id="Rectangle_2802" data-name="Rectangle 2802" width="3" height="3" transform="translate(1116 693)" fill="#2a52c6"/>
        <rect id="Rectangle_2803" data-name="Rectangle 2803" width="3" height="3" transform="translate(1129 693)" fill="#2a52c6"/>
        <rect id="Rectangle_2804" data-name="Rectangle 2804" width="3" height="3" transform="translate(1142 693)" fill="#2a52c6"/>
        <rect id="Rectangle_2805" data-name="Rectangle 2805" width="3" height="3" transform="translate(1064 706)" fill="#2a52c6"/>
        <rect id="Rectangle_2806" data-name="Rectangle 2806" width="3" height="3" transform="translate(1077 706)" fill="#2a52c6"/>
        <rect id="Rectangle_2807" data-name="Rectangle 2807" width="3" height="3" transform="translate(1090 706)" fill="#2a52c6"/>
        <rect id="Rectangle_2808" data-name="Rectangle 2808" width="3" height="3" transform="translate(1103 706)" fill="#2a52c6"/>
        <rect id="Rectangle_2809" data-name="Rectangle 2809" width="3" height="3" transform="translate(1116 706)" fill="#2a52c6"/>
        <rect id="Rectangle_2810" data-name="Rectangle 2810" width="3" height="3" transform="translate(1129 706)" fill="#2a52c6"/>
        <rect id="Rectangle_2811" data-name="Rectangle 2811" width="3" height="3" transform="translate(1142 706)" fill="#2a52c6"/>
        <rect id="Rectangle_2812" data-name="Rectangle 2812" width="3" height="3" transform="translate(1064 719)" fill="#2a52c6"/>
        <rect id="Rectangle_2813" data-name="Rectangle 2813" width="3" height="3" transform="translate(1077 719)" fill="#2a52c6"/>
        <rect id="Rectangle_2814" data-name="Rectangle 2814" width="3" height="3" transform="translate(1090 719)" fill="#2a52c6"/>
        <rect id="Rectangle_2815" data-name="Rectangle 2815" width="3" height="3" transform="translate(1103 719)" fill="#2a52c6"/>
        <rect id="Rectangle_2816" data-name="Rectangle 2816" width="3" height="3" transform="translate(1116 719)" fill="#2a52c6"/>
        <rect id="Rectangle_2817" data-name="Rectangle 2817" width="3" height="3" transform="translate(1129 719)" fill="#2a52c6"/>
        <rect id="Rectangle_2818" data-name="Rectangle 2818" width="3" height="3" transform="translate(1142 719)" fill="#2a52c6"/>
        <rect id="Rectangle_2819" data-name="Rectangle 2819" width="3" height="3" transform="translate(1064 731)" fill="#2a52c6"/>
        <rect id="Rectangle_2820" data-name="Rectangle 2820" width="3" height="3" transform="translate(1077 731)" fill="#2a52c6"/>
        <rect id="Rectangle_2821" data-name="Rectangle 2821" width="3" height="3" transform="translate(1090 731)" fill="#2a52c6"/>
        <rect id="Rectangle_2822" data-name="Rectangle 2822" width="3" height="3" transform="translate(1103 731)" fill="#2a52c6"/>
        <rect id="Rectangle_2823" data-name="Rectangle 2823" width="3" height="3" transform="translate(1116 731)" fill="#2a52c6"/>
        <rect id="Rectangle_2824" data-name="Rectangle 2824" width="3" height="3" transform="translate(1129 731)" fill="#2a52c6"/>
        <rect id="Rectangle_2825" data-name="Rectangle 2825" width="3" height="3" transform="translate(1142 731)" fill="#2a52c6"/>
        <rect id="Rectangle_2826" data-name="Rectangle 2826" width="3" height="3" transform="translate(1064 744)" fill="#2a52c6"/>
        <rect id="Rectangle_2827" data-name="Rectangle 2827" width="3" height="3" transform="translate(1077 744)" fill="#2a52c6"/>
        <rect id="Rectangle_2828" data-name="Rectangle 2828" width="3" height="3" transform="translate(1090 744)" fill="#2a52c6"/>
        <rect id="Rectangle_2829" data-name="Rectangle 2829" width="3" height="3" transform="translate(1103 744)" fill="#2a52c6"/>
        <rect id="Rectangle_2830" data-name="Rectangle 2830" width="3" height="3" transform="translate(1116 744)" fill="#2a52c6"/>
        <rect id="Rectangle_2831" data-name="Rectangle 2831" width="3" height="3" transform="translate(1129 744)" fill="#2a52c6"/>
        <rect id="Rectangle_2832" data-name="Rectangle 2832" width="3" height="3" transform="translate(1142 744)" fill="#2a52c6"/>
      </g>
    </g>
    <g id="Component_12_3" data-name="Component 12 – 3" transform="translate(1203 197)">
      <path id="Polygon_6" data-name="Polygon 6" d="M7.083,0l7.083,13.212H0Z" transform="translate(14.027 15.055) rotate(-172)" fill="#2a52c6"/>
      <circle id="Ellipse_2" data-name="Ellipse 2" cx="9" cy="9" r="9" transform="translate(252.028 157.77)" fill="#38a2ff"/>
      <rect id="Rectangle_2783" data-name="Rectangle 2783" width="9" height="9" transform="translate(84.028 26.77)" fill="#f8ced7"/>
      <path id="Polygon_7" data-name="Polygon 7" d="M7.51,0l7.51,12.437H0Z" transform="translate(295.6 230.886) rotate(45)" fill="#f8ced7"/>
    </g>
  </g>
</svg>
