<svg xmlns="http://www.w3.org/2000/svg" xmlns:xlink="http://www.w3.org/1999/xlink" width="746" height="585.888" viewBox="0 0 746 585.888">
  <defs>
    <radialGradient id="radial-gradient" cx="0.5" cy="0.5" r="2.381" gradientTransform="translate(0.395 3.438) scale(0.21)" gradientUnits="objectBoundingBox">
      <stop offset="0" stop-color="#292929"/>
      <stop offset="1" stop-color="#d1d1d1" stop-opacity="0"/>
    </radialGradient>
    <pattern id="pattern" width="1" height="1" viewBox="0 22.157 327.053 191.72">
      <image preserveAspectRatio="xMidYMid slice" width="327.052" height="218.035" xlink:href="Group%2024471-image.jpg"/>
    </pattern>
    <filter id="Path_9682" x="325" y="277.461" width="105.75" height="69.404" filterUnits="userSpaceOnUse">
      <feOffset dy="3" input="SourceAlpha"/>
      <feGaussianBlur stdDeviation="3" result="blur"/>
      <feFlood flood-opacity="0.161"/>
      <feComposite operator="in" in2="blur"/>
      <feComposite in="SourceGraphic"/>
    </filter>
    <filter id="Path_9682-2" x="325" y="277.461" width="105.75" height="69.404" filterUnits="userSpaceOnUse">
      <feOffset dy="3" input="SourceAlpha"/>
      <feGaussianBlur stdDeviation="3" result="blur-2"/>
      <feFlood flood-opacity="0.161"/>
      <feComposite operator="in" in2="blur-2"/>
      <feComposite in="SourceGraphic"/>
    </filter>
  </defs>
  <g id="Group_24471" data-name="Group 24471" transform="translate(-620 -195.973)">
    <path id="Path_18635" data-name="Path 18635" d="M358.184,0C556,0,716.368,5.214,716.368,11.645S556,23.29,358.184,23.29,0,18.076,0,11.645,160.364,0,358.184,0Z" transform="translate(635.085 758.571)" opacity="0.274" fill="url(#radial-gradient)"/>
    <g id="Group_23359" data-name="Group 23359">
      <g id="Group_23355" data-name="Group 23355" transform="translate(-990 -283.111)">
        <path id="Path_32023" data-name="Path 32023" d="M373,0C579,0,746,11.032,746,24.64S579,49.28,373,49.28,0,38.248,0,24.64,167,0,373,0Z" transform="translate(1610 975.763)" opacity="0.15"/>
        <g id="Group_23340" data-name="Group 23340" transform="translate(1768.467 576.757)">
          <g id="Group_23338" data-name="Group 23338" transform="translate(25.185 17.869)">
            <path id="Path_31914" data-name="Path 31914" d="M2143.9,817.454a1.644,1.644,0,0,1,2.306-2.335c16.465,14.375,34.22,16.292,51.392,18.146l2.352.255c25.745,2.822,43.77,16.337,49.623,27.7a39.166,39.166,0,0,1,3.493,9.362,22.843,22.843,0,0,1,17.639,7.512l.036.041c8.569,9.536,6.439,22.519-.46,29.094a1.644,1.644,0,0,1-2.324-.056,1.626,1.626,0,0,1,.056-2.324c5.786-5.514,7.532-16.448.283-24.516l-.031-.035a19.315,19.315,0,0,0-14.657-6.436c.777,7.362-1.715,12.771-4.962,15.688a8.53,8.53,0,0,1-11.2-.042c-2.477-2.261-3.731-6.529.159-11.759,2.592-3.486,7.1-5.984,12.169-6.846a36.537,36.537,0,0,0-3.123-8.176c-5.633-10.941-23.61-23.365-47.058-25.934l-2.346-.254c-16.854-1.82-35.957-3.882-53.2-18.939A1.7,1.7,0,0,1,2143.9,817.454Zm106.443,56.681c-4.255.711-8,2.744-10.1,5.572-2.224,2.992-2.424,5.671-.584,7.367a5.243,5.243,0,0,0,6.789.027C2249.061,884.75,2251.02,880.31,2250.34,874.135Z" transform="translate(-2143.477 -814.713)" fill="#738598"/>
          </g>
          <g id="Group_23339" data-name="Group 23339" transform="translate(0)">
            <path id="Path_31915" data-name="Path 31915" d="M2070.318,762.805l20.956,37.327,7.974-16.621,13.161-12.908Z" transform="translate(-2070.318 -762.805)" fill="#3c415e"/>
            <path id="Path_31916" data-name="Path 31916" d="M2070.318,762.805l28.93,20.706,13.161-12.908Z" transform="translate(-2070.318 -762.805)" fill="#0f0a3c" opacity="0.2"/>
          </g>
        </g>
        <rect id="Rectangle_17847" data-name="Rectangle 17847" width="351.326" height="248.109" rx="15" transform="translate(1813.414 680.958)" fill="#3c415e"/>
        <path id="Path_31917" data-name="Path 31917" d="M2651.781,1939.8H2516.449A22.556,22.556,0,0,1,2539,1917.244h90.221a22.555,22.555,0,0,1,22.556,22.555" transform="translate(-594.4 -943.066)" fill="#1cb3c8"/>
        <path id="Path_31918" data-name="Path 31918" d="M2677.292,1831.314h-78.943l11.278-45.11h56.388Z" transform="translate(-648.105 -857.138)" fill="#738598"/>
        <path id="_15646" data-name="15646" d="M2565.044,1289.971H2237.992V1109.1a10.85,10.85,0,0,1,10.85-10.85h305.353a10.85,10.85,0,0,1,10.85,10.85v180.87Z" transform="translate(-411.803 -406.016)" fill="url(#pattern)"/>
        <g id="Group_23343" data-name="Group 23343" transform="translate(1957.115 920.453)">
          <path id="Path_31930" data-name="Path 31930" d="M2631.47,1843.066s-21.7-33.789-9.372-81.883c0,0,35.515,7.892,47.354,81.883Z" transform="translate(-2618.308 -1761.183)" fill="#00bb5f"/>
          <path id="Path_31931" data-name="Path 31931" d="M2676.01,1897.563s-9.272-44.394-14.452-53.273c0,0,15.584,28.116,17.9,53.273Z" transform="translate(-2646.669 -1815.68)" fill="#00663e"/>
        </g>
        <g id="Group_23344" data-name="Group 23344" transform="translate(1992.299 921.093)">
          <path id="Path_31932" data-name="Path 31932" d="M2758.493,1844.925s21.7-33.789,9.372-81.883c0,0-35.515,7.892-47.354,81.883Z" transform="translate(-2720.511 -1763.042)" fill="#00bb5f"/>
          <path id="Path_31933" data-name="Path 31933" d="M2777.271,1899.421s9.272-44.394,14.451-53.273c0,0-15.584,28.116-17.9,53.273Z" transform="translate(-2755.467 -1817.538)" fill="#00663e"/>
        </g>
        <g id="Group_23345" data-name="Group 23345" transform="translate(2022.365 897.423)">
          <path id="Path_31934" data-name="Path 31934" d="M2856.81,1799.839s27.978-43.556,12.081-105.552c0,0-45.781,10.174-61.042,105.552Z" transform="translate(-2807.849 -1694.287)" fill="#99e673"/>
          <path id="Path_31935" data-name="Path 31935" d="M2881.016,1870.088s11.952-57.227,18.629-68.672c0,0-20.089,36.243-23.08,68.672Z" transform="translate(-2852.909 -1764.536)" fill="#00663e"/>
        </g>
        <g id="Group_23346" data-name="Group 23346" transform="translate(1903.948 897.423)">
          <path id="Path_31936" data-name="Path 31936" d="M2480.836,1799.839s-27.978-43.556-12.081-105.552c0,0,45.782,10.174,61.042,105.552Z" transform="translate(-2463.868 -1694.287)" fill="#99e673"/>
          <path id="Path_31937" data-name="Path 31937" d="M2538.25,1870.088s-11.953-57.227-18.629-68.672c0,0,20.089,36.243,23.079,68.672Z" transform="translate(-2500.428 -1764.536)" fill="#00663e"/>
        </g>
        <g id="Group_23347" data-name="Group 23347" transform="translate(2094.891 855.129)">
          <path id="Path_31938" data-name="Path 31938" d="M3091.474,1719.393h-64.263a8.688,8.688,0,0,1-8.687-8.687V1580.115a8.688,8.688,0,0,1,8.687-8.687h64.26a8.689,8.689,0,0,1,8.689,8.687V1710.7A8.689,8.689,0,0,1,3091.474,1719.393Z" transform="translate(-3018.525 -1571.428)" fill="#738598"/>
          <rect id="Rectangle_17848" data-name="Rectangle 17848" width="81.636" height="102.045" transform="translate(0 15.307)" fill="#faf9f9"/>
          <path id="Path_31939" data-name="Path 31939" d="M3127.618,1591.351h-10.2a2.551,2.551,0,1,1,0-5.1h10.2a2.551,2.551,0,1,1,0,5.1Z" transform="translate(-3081.697 -1581.147)" fill="#3c415e"/>
        </g>
        <g id="Group_23349" data-name="Group 23349" transform="translate(1686.139 721.885)">
          <path id="Path_31940" data-name="Path 31940" d="M1852.944,1303.758l-20.41,18.633a2.262,2.262,0,0,0-.147,3.222l20.669,22.639a2.262,2.262,0,0,0,3.222.147l20.41-18.634a2.262,2.262,0,0,0,.147-3.222l-20.623-22.59A2.319,2.319,0,0,0,1852.944,1303.758Z" transform="translate(-1831.572 -1262.279)" fill="#3c415e"/>
          <path id="Path_31941" data-name="Path 31941" d="M1832.2,1382.418a3.149,3.149,0,0,0-.2,4.454l9.543,10.453a3.149,3.149,0,0,0,4.454.2l3.269-2.985-13.794-15.109Z" transform="translate(-1831.169 -1312.284)" fill="#738598"/>
          <path id="Path_31942" data-name="Path 31942" d="M1961.823,1244.773l-37.963,14.131-19.674-21.549,17.475-36.572Z" transform="translate(-1879.05 -1195.135)" fill="#ffb032"/>
          <path id="Path_31943" data-name="Path 31943" d="M1952.528,1185.175a3.149,3.149,0,0,0-.2,4.453l40.93,44.832a3.152,3.152,0,1,0,4.656-4.251l-40.975-44.882A3.226,3.226,0,0,0,1952.528,1185.175Z" transform="translate(-1910.075 -1184.378)" fill="#3c415e"/>
          <path id="Path_31944" data-name="Path 31944" d="M1951.782,1407.675l-9.957,9.09-33-14.559,15.654-14.292Z" transform="translate(-1882.091 -1317.846)" fill="#738598"/>
          <g id="Group_23348" data-name="Group 23348" transform="translate(9.053 49.703)">
            <path id="Path_31945" data-name="Path 31945" d="M1869.633,1329.12l-11.691,10.673a1.749,1.749,0,0,0,.077,2.473,1.792,1.792,0,0,0,2.455.3l11.691-10.674a1.749,1.749,0,0,0-.078-2.472A1.792,1.792,0,0,0,1869.633,1329.12Z" transform="translate(-1857.467 -1328.757)" fill="#afb9ca"/>
            <path id="Path_31946" data-name="Path 31946" d="M1888.288,1349.554l-11.691,10.674a1.748,1.748,0,0,0,.078,2.472,1.792,1.792,0,0,0,2.455.3l11.691-10.673a1.749,1.749,0,0,0-.077-2.473A1.792,1.792,0,0,0,1888.288,1349.554Z" transform="translate(-1869.7 -1342.157)" fill="#afb9ca"/>
            <path id="Path_31947" data-name="Path 31947" d="M1907.074,1370.1l-11.691,10.673a1.749,1.749,0,0,0,.077,2.473,1.792,1.792,0,0,0,2.455.3l11.691-10.674a1.9,1.9,0,0,0-2.533-2.774Z" transform="translate(-1882.019 -1355.622)" fill="#afb9ca"/>
          </g>
          <path id="Path_31948" data-name="Path 31948" d="M2003.087,1221.476l13.8,15.115a10.235,10.235,0,0,0-13.8-15.115Z" transform="translate(-1943.903 -1207.029)" fill="#738598"/>
        </g>
        <g id="Group_23350" data-name="Group 23350" transform="translate(1676.661 805.683)">
          <path id="Path_31949" data-name="Path 31949" d="M2022.277,1602.933l-2.887-4.331v-12.993H2029.5v15.88l-2.887,5.775Z" transform="translate(-1945.117 -1531.281)" fill="#a67c52"/>
          <path id="Path_31950" data-name="Path 31950" d="M1989.151,1446.94l-3.889,31.111-8.555,17.889c-2.344,1.288-8.885,1.947-11.789.585a4.55,4.55,0,0,1-1.861-1.336l-12.017-18.693-7-31.889-5.444,1.556,3.338,31.374a24.61,24.61,0,0,0,3.155,9.7l9.063,15.709c-7,18.667-11.667,52.111-11.667,52.111l33.444-1.555c6.483-23.772,11.386-40.327,10.318-50.356l6.509-16.358c1.724-3.188,1.166-6.719,1.367-10.338l1.25-36.5Z" transform="translate(-1892.136 -1435.759)" fill="#ffb032"/>
          <path id="Path_31951" data-name="Path 31951" d="M1864.358,1771.355l-9.1,21.709a36.224,36.224,0,0,1-3.341,7.069l-32.459,24.889,3.889,9.333,36.054-23.328a26.811,26.811,0,0,1,4.452-3.9,13.2,13.2,0,0,0,2.357-2.18l15.263-18.038,23.81,6.3a8.171,8.171,0,0,1,4.323,2.836l21.645,27.417,6.222-5.445-18.613-32.929a13.169,13.169,0,0,0-4.366-4.613L1897.8,1769.8Z" transform="translate(-1814.011 -1652.064)" fill="#3c415e"/>
          <path id="Path_31952" data-name="Path 31952" d="M1810.64,1927.416l-4.278,1.9a4.584,4.584,0,0,0-2.722,4.189v16.577a1.6,1.6,0,0,0,2.986.779l7.9-14.113Z" transform="translate(-1803.64 -1755.42)" fill="#333"/>
          <path id="Path_31953" data-name="Path 31953" d="M2144.193,1906.257l4.9,4.9a3.986,3.986,0,0,0,5.694-.058l11.5-11.983a1.807,1.807,0,0,0-1.742-3.005l-15.69,3.922Z" transform="translate(-2026.956 -1734.854)" fill="#333"/>
          <path id="Path_31954" data-name="Path 31954" d="M2020.928,1542.751a7.282,7.282,0,0,1-5.753,1.672c-4.295-.605-11.371-2.522-13.105-8.593-2.535-8.872,5.069-16.476,8.872-17.743s12.674,0,13.941,10.139C2025.971,1536.937,2025.189,1539.1,2020.928,1542.751Z" transform="translate(-1933.427 -1486.738)" fill="#c69c6d"/>
          <path id="Path_31955" data-name="Path 31955" d="M2009.3,1511.487s11.406-3.219,12.674-12.876c0,0-7.6,4.865-12.674,2.433s-13.941-2.433-16.476,4.006c0,0-3.8,0-5.07,4.828s1.806,11.814,5.973,15.564c0,0-1.537-7.135,1-10.354s3.8,3.8,3.8,3.8S1997.9,1513.1,2009.3,1511.487Z" transform="translate(-1924.186 -1474.233)" fill="#333"/>
          <path id="Path_31956" data-name="Path 31956" d="M1937.675,1438.7l-.191-4.623.241-5.174a1.288,1.288,0,0,1,1.888-.974,8.882,8.882,0,0,1,4.659,4.3c1.65,3.819-.13,6.335-.13,6.335Z" transform="translate(-1891.407 -1427.796)" fill="#c69c6d"/>
          <path id="Path_31957" data-name="Path 31957" d="M2084.531,1438.7l-.191-4.623.241-5.174a1.288,1.288,0,0,1,1.888-.974,8.886,8.886,0,0,1,4.659,4.3c1.65,3.819-.13,6.335-.13,6.335Z" transform="translate(-1987.708 -1427.796)" fill="#c69c6d"/>
        </g>
        <g id="Group_23352" data-name="Group 23352" transform="translate(2224.585 795.566)">
          <path id="Path_31958" data-name="Path 31958" d="M3518.267,1528.762c-.333.152-1.4-6.986-1.4-6.986h-9.636v7.138Z" transform="translate(-3468.683 -1479.306)" fill="#a67c52"/>
          <path id="Path_31959" data-name="Path 31959" d="M3401.33,1398.408s-5,3.569-6.067,11.778C3395.263,1410.186,3403.115,1411.97,3401.33,1398.408Z" transform="translate(-3395.263 -1398.408)" fill="#00663e"/>
          <path id="Path_31960" data-name="Path 31960" d="M3480.053,1700.089l-4.283,37.474,19.272,56.388h-9.636l-22.319-48.019a13.269,13.269,0,0,1-1.236-5.592l-1.785-14.555-3.926,16.417,2.142,51.749h-8.565l-10.349-56.417a15.213,15.213,0,0,1,.562-7.649l10.143-29.8Z" transform="translate(-3424.021 -1596.234)" fill="#3c415e"/>
          <path id="Path_31961" data-name="Path 31961" d="M3479.014,1588.6h-36.045l3.926-39.258-15.346-6.781,9.636-12.491,24.571,3.406a13.758,13.758,0,0,1,11.861,13.169Z" transform="translate(-3419.057 -1484.745)" fill="#ff666a"/>
          <path id="Path_31962" data-name="Path 31962" d="M3501.813,1483.982s-5-2.5-6.781-4.639,2.5-12.491,6.781-14.989,11.42-2.855,11.42,1.427,3.569,11.421,0,13.2S3508.594,1484.339,3501.813,1483.982Z" transform="translate(-3460.413 -1440.441)" fill="#c69c6d"/>
          <path id="Path_31963" data-name="Path 31963" d="M3516.463,1446.9s-5.71-7.138-2.142-14.276a8.615,8.615,0,0,0,6.067,4.64c4.64,1.071,9.944,2.1,11.778,7.138,2.855,7.851,3.025,16.8-12.491,18.915,0,0,6.424-5.71,5-9.636S3518.961,1449.037,3516.463,1446.9Z" transform="translate(-3472.566 -1420.842)" fill="#333"/>
          <path id="Path_31964" data-name="Path 31964" d="M3435.948,1422.32l-34.618-23.912s-1.785,9.636-6.067,11.778Z" transform="translate(-3395.263 -1398.408)" fill="#00bb5f"/>
          <g id="Group_23351" data-name="Group 23351" transform="translate(4.225 7.138)">
            <path id="Path_31965" data-name="Path 31965" d="M3407.547,1460.069l2.776-33.658-.013-.006c.008-.054.018-.1.027-.157l.018-.221.018.007c.974-5.624,3.31-6.892,4.357-6.892,1.071,0,2.855,1.428,3.212,3.569.334,2-2,5.469-2.3,5.9l.16,26.93,9.636,1.785-8.565,11.064-4.777-1.593A6.668,6.668,0,0,1,3407.547,1460.069Z" transform="translate(-3407.535 -1419.142)" fill="#c69c6d"/>
            <path id="Path_31966" data-name="Path 31966" d="M3466.319,1454.146l1.6,26.5-8.381-1.162,1.317-26.556Z" transform="translate(-3441.636 -1441.298)" fill="#c69c6d"/>
          </g>
          <path id="Path_31967" data-name="Path 31967" d="M3563.866,1972.742h-9.636l-9.537,7.475a1.609,1.609,0,0,0,.992,2.875h16.572a1.609,1.609,0,0,0,1.609-1.609Z" transform="translate(-3492.845 -1775.025)" fill="#333"/>
          <path id="Path_31968" data-name="Path 31968" d="M3457.167,1972.742H3448.6l-10.5,7.428a1.609,1.609,0,0,0,.929,2.922h16.528a1.609,1.609,0,0,0,1.609-1.609Z" transform="translate(-3422.906 -1775.025)" fill="#333"/>
        </g>
        <g id="Group_23353" data-name="Group 23353" transform="translate(1954.916 479.084)">
          <path id="Path_31969" data-name="Path 31969" d="M2678.5,799.818s-4.283,34.618-2.855,52.106,2.855,33.548,2.855,33.548h7.138l2.677-45.146,6.246-14.811,1.872,14.508a13.319,13.319,0,0,0,8.071,10.584l32.17,13.453,3.212-5.711-27.354-19.014a4.8,4.8,0,0,1-2.052-3.653l-2-33.008Z" transform="translate(-2653.514 -689.404)" fill="#3c415e"/>
          <path id="Path_31970" data-name="Path 31970" d="M2627.99,596.309l5.353-6.424s19.986,10.707,23.2,13.2,22.841,5.354,27.124,15.347,10.35,23.912,10.35,23.912l-8.209,5-9.1-14.1.713,31.763s-15.7,9.993-29.979-2.855l-.714-43.9Z" transform="translate(-2622.458 -551.741)" fill="#4c78ff"/>
          <path id="Path_31971" data-name="Path 31971" d="M2617.274,523.474l-5.353-6.424,7.494-27.481s-.357-6.067,2.142-8.208,3.925-2.855,5.71-1.785-3.926,3.569-2.141,6.781c0,0,2.141-1.071,2.5-2.141s2.5-.357,1.427,1.428a44.4,44.4,0,0,1-4.639,5.354l-4.64,22.127,2.855,3.926Z" transform="translate(-2611.921 -479.084)" fill="#c69c6d"/>
          <path id="Path_31972" data-name="Path 31972" d="M2795.417,746.759l16.417,22.841a5.141,5.141,0,0,0,3.926,2.855c2.855.357,3.926,2.5,4.64,4.283s2.855,2.855,2.141-2.5a8.29,8.29,0,0,0-6.781-7.495l-12.135-24.982Z" transform="translate(-2732.248 -651.334)" fill="#c69c6d"/>
          <path id="Path_31973" data-name="Path 31973" d="M2677.021,605.511a6.063,6.063,0,0,1-5.947.307c-3.638-1.742-8.362-4.51-8.362-7.144,0-4.283-.357-8.565,6.067-11.777s12.134-9.636,13.919-16.774,3.212-12.491,7.851-13.2,13.2.714,13.562,8.208-1.785,26.41-5.353,32.834-5.353,15.346-11.42,13.562-3.569-4.64-5-5.711A4.751,4.751,0,0,0,2677.021,605.511Z" transform="translate(-2645.224 -530.016)" fill="#333"/>
          <path id="Path_31974" data-name="Path 31974" d="M2677.343,1048.627l-3.493,3.742a.958.958,0,0,0,.7,1.611h8.972a.958.958,0,0,0,.958-.958v-4.4Z" transform="translate(-2652.361 -852.559)" fill="#333"/>
          <path id="Path_31975" data-name="Path 31975" d="M2853.473,975.547v4.407a.958.958,0,0,0,1.706.6l6.053-7.566a.958.958,0,0,0-.392-1.488l-4.155-1.662Z" transform="translate(-2770.317 -800.893)" fill="#333"/>
        </g>
        <g id="Group_23354" data-name="Group 23354" transform="translate(2159.135 609.043)">
          <path id="Path_31976" data-name="Path 31976" d="M3439.894,972.554a3.3,3.3,0,1,1-4.64-.471A3.3,3.3,0,0,1,3439.894,972.554Z" transform="translate(-3355.24 -931.838)" fill="#fb7668"/>
          <path id="Path_31977" data-name="Path 31977" d="M3249.933,911.636a2.78,2.78,0,1,1-3.911-.4A2.779,2.779,0,0,1,3249.933,911.636Z" transform="translate(-3231.278 -892.016)" fill="#fb7668"/>
          <path id="Path_31978" data-name="Path 31978" d="M3446.945,874.225l-3.682-6.144,2.973-6.516a1.05,1.05,0,0,0-1.19-1.459l-6.981,1.6-5.279-4.842a1.051,1.051,0,0,0-1.755.681l-.632,7.135-6.236,3.524a1.05,1.05,0,0,0,.105,1.88l6.59,2.806c1.552,7.647,1.415,7.2,1.64,7.474a1.05,1.05,0,0,0,1.605.026l4.705-5.4,7.116.814A1.051,1.051,0,0,0,3446.945,874.225Z" transform="translate(-3348.414 -856.591)" fill="#fb7668"/>
          <path id="Path_31979" data-name="Path 31979" d="M3463.545,1023.3l.583-5.981,5.258-2.91a.882.882,0,0,0-.074-1.578l-5.508-2.4-1.143-5.9a.882.882,0,0,0-1.524-.417l-3.987,4.5-5.965-.736a.882.882,0,0,0-.867,1.32l3.044,5.182-2.543,5.445a.881.881,0,0,0,.988,1.233l5.868-1.293,4.393,4.1A.881.881,0,0,0,3463.545,1023.3Z" transform="translate(-3365.834 -953.134)" fill="#fb7668"/>
          <path id="Path_31980" data-name="Path 31980" d="M3233.623,954.185s20.275-21.037,26.561-39.106a4.4,4.4,0,0,0-2.7-5.88h0c-3.107-1.309-4.529,1.959-4.529,1.959h0C3251.434,918.33,3246.718,935.365,3233.623,954.185Z" transform="translate(-3223.818 -890.885)" fill="#fea670"/>
          <path id="Path_31981" data-name="Path 31981" d="M3299.931,1109.179h0q.582.205,1.116.4c1.484.4,4.036.579,5.011-2.448,1.144-3.55-2.75-4.909-3.387-5.106-21.646-5.834-46.239,1.219-46.239,1.219a112.524,112.524,0,0,1,43.5,5.932Z" transform="translate(-3238.775 -1016.02)" fill="#fea670"/>
          <path id="Path_31982" data-name="Path 31982" d="M3213.535,938.493c-.045-.77-.436-4.616-3.63-4.2-1.972.256-2.771,1.652-2.484,3.645v0h0a89.352,89.352,0,0,1-2.281,35.165S3214.14,955.883,3213.535,938.493Z" transform="translate(-3205.141 -907.522)" fill="#fea670"/>
          <path id="Path_31983" data-name="Path 31983" d="M3340.895,883.173c.407-.154.315-.214.684-4,3.365-1.862,3.421-1.786,3.4-2.217s-.105-.365-3.595-1.887c-.731-3.773-.641-3.806-1.058-3.92s-.38-.012-2.905,2.835l-3.552-.438a.525.525,0,0,0-.517.787l1.813,3.086c-1.626,3.483-1.719,3.454-1.448,3.793s.3.233,4.017-.586l2.616,2.442A.525.525,0,0,0,3340.895,883.173Z" transform="translate(-3289.168 -866.118)" fill="#fb7668"/>
          <path id="Path_31984" data-name="Path 31984" d="M3315.439,921.9v0c-.91-4.485-1.321-5.171-5.761-7.062h0c-3.82-1.627-5.891.145-6.4.673-8.827,9.938-26.965,29.894-45.621,47.642,21.063-14.66,44.171-28.377,55.719-35.052C3314.692,927.337,3316.339,926.337,3315.439,921.9Z" transform="translate(-3239.579 -894.345)" fill="#fea670"/>
          <path id="Path_31985" data-name="Path 31985" d="M3319.77,1031.888a2.7,2.7,0,0,0,2.424-1.3l1.035-2.216a2.5,2.5,0,0,0-.011-2.245l-.1-.167h0l-1.02-1.735a3.1,3.1,0,0,0-3.072-1.386c-23.661,3.964-53.972,20.613-53.972,20.613,24.049-9.1,43.878-11.2,54.709-11.568Z" transform="translate(-3244.43 -965.593)" fill="#fea670"/>
        </g>
        <g id="Group_23358" data-name="Group 23358" transform="translate(-295.497 -271.156)">
          <g id="Group_23357" data-name="Group 23357" transform="translate(2403.952 1174.968)">
            <path id="Path_31986" data-name="Path 31986" d="M2403.952,1424.334h7.568v-6.307h-7.568Z" transform="translate(-2403.952 -1396.415)" fill="#4c78ff"/>
            <path id="Path_31987" data-name="Path 31987" d="M2531.632,1372.633h7.569V1361.28h-7.569Z" transform="translate(-2520.28 -1344.714)" fill="#4c78ff"/>
            <path id="Path_31988" data-name="Path 31988" d="M2659.313,1295.08h7.568v-18.922h-7.568Z" transform="translate(-2636.607 -1267.161)" fill="#4c78ff"/>
            <path id="Path_31989" data-name="Path 31989" d="M2787,1239.138h7.569v-24.381H2787Z" transform="translate(-2752.937 -1211.219)" fill="#4c78ff"/>
            <path id="Path_31990" data-name="Path 31990" d="M2914.676,1202.887h7.568v-27.919h-7.568Z" transform="translate(-2869.265 -1174.968)" fill="#4c78ff"/>
          </g>
          <path id="Path_31991" data-name="Path 31991" d="M2403.952,1495.268h7.568v-6.307h-7.568Z" transform="translate(0 -286.074)" fill="#3459b7"/>
          <path id="Path_31992" data-name="Path 31992" d="M2531.632,1462.955h7.569v-9.461h-7.569Z" transform="translate(-116.328 -253.761)" fill="#3459b7"/>
          <path id="Path_31993" data-name="Path 31993" d="M2659.313,1430.641h7.568v-12.614h-7.568Z" transform="translate(-232.656 -221.447)" fill="#3459b7"/>
          <path id="Path_31994" data-name="Path 31994" d="M2787,1462.955h7.569v-9.461H2787Z" transform="translate(-348.985 -253.761)" fill="#3459b7"/>
          <path id="Path_31995" data-name="Path 31995" d="M2914.676,1378.94h7.568v-17.66h-7.568Z" transform="translate(-465.313 -169.746)" fill="#3459b7"/>
        </g>
      </g>
      <g id="Group_23356" data-name="Group 23356" transform="translate(954 479.434)">
        <g id="Group_56" data-name="Group 56" transform="translate(0)">
          <g transform="matrix(1, 0, 0, 1, -334, -283.46)" filter="url(#Path_9682)">
            <path id="Path_9682-3" data-name="Path 9682" d="M-11441.689,7627.56a116.211,116.211,0,0,1-2.754-23.305,116.213,116.213,0,0,1,2.754-23.306,408.772,408.772,0,0,1,41.062-2.379,408.746,408.746,0,0,1,41.062,2.379,111.667,111.667,0,0,1,2.873,23.306,111.666,111.666,0,0,1-2.873,23.305,402.957,402.957,0,0,1-41.062,2.414A402.982,402.982,0,0,1-11441.689,7627.56Z" transform="translate(11778.44 -7295.11)" fill="#00acdc" opacity="0.9"/>
          </g>
        </g>
        <g id="Group_57" data-name="Group 57" transform="translate(0)">
          <g transform="matrix(1, 0, 0, 1, -334, -283.46)" filter="url(#Path_9682-2)">
            <path id="Path_9682-4" data-name="Path 9682" d="M-11441.689,7627.56a116.211,116.211,0,0,1-2.754-23.305,116.213,116.213,0,0,1,2.754-23.306,408.772,408.772,0,0,1,41.062-2.379,408.746,408.746,0,0,1,41.062,2.379,111.667,111.667,0,0,1,2.873,23.306,111.666,111.666,0,0,1-2.873,23.305,402.957,402.957,0,0,1-41.062,2.414A402.982,402.982,0,0,1-11441.689,7627.56Z" transform="translate(11778.44 -7295.11)" fill="#00acdc" opacity="0.7"/>
          </g>
          <path id="Path_9822" data-name="Path 9822" d="M21.695-27.475,0-40v25.051L21.695-27.475" transform="translate(32.972 53.19)" fill="#fff" fill-rule="evenodd"/>
        </g>
      </g>
    </g>
  </g>
</svg>
