<svg xmlns="http://www.w3.org/2000/svg" xmlns:xlink="http://www.w3.org/1999/xlink" width="1669.556" height="1793.655" viewBox="0 0 1669.556 1793.655"><defs><pattern id="a" width="1" height="1" viewBox="250.086 0 1669.556 1793.656"><image preserveAspectRatio="xMidYMid slice" width="2695.683" height="1793.656" xlink:href="Group%2024472-image.png"/></pattern></defs><g transform="translate(151 -8820.46)"><path d="M1366,27.06S341.5-339.824,0,27.06,0,1494.6,0,1494.6s1024.5,366.884,1366,0S1366,27.06,1366,27.06Z" transform="translate(0.778 8956.46)" fill="url(#a)"/><g transform="translate(683 10444)"><path d="M9.177,0l9.177,15.566H0Z" transform="matrix(0.891, 0.454, -0.454, 0.891, 159.205, 1.395)" fill="#2a52c6"/><circle cx="4.194" cy="4.194" r="4.194" transform="matrix(0.951, -0.309, 0.309, 0.951, 0, 35.739)" fill="#38a2ff"/><rect width="10.067" height="10.067" transform="matrix(0.951, -0.309, 0.309, 0.951, 35.266, 3.111)" fill="#fff"/></g><g transform="translate(1309 9053)"><g transform="translate(-224.153 -1224.002) rotate(45)"><rect width="3" height="3" transform="translate(1064 667)" fill="#2a52c6"/><rect width="3" height="3" transform="translate(1077 667)" fill="#2a52c6"/><rect width="3" height="3" transform="translate(1090 667)" fill="#2a52c6"/><rect width="3" height="3" transform="translate(1103 667)" fill="#2a52c6"/><rect width="3" height="3" transform="translate(1116 667)" fill="#2a52c6"/><rect width="3" height="3" transform="translate(1129 667)" fill="#2a52c6"/><rect width="3" height="3" transform="translate(1142 667)" fill="#2a52c6"/><rect width="3" height="3" transform="translate(1064 680)" fill="#2a52c6"/><rect width="3" height="3" transform="translate(1077 680)" fill="#2a52c6"/><rect width="3" height="3" transform="translate(1090 680)" fill="#2a52c6"/><rect width="3" height="3" transform="translate(1103 680)" fill="#2a52c6"/><rect width="3" height="3" transform="translate(1116 680)" fill="#2a52c6"/><rect width="3" height="3" transform="translate(1129 680)" fill="#2a52c6"/><rect width="3" height="3" transform="translate(1142 680)" fill="#2a52c6"/><rect width="3" height="3" transform="translate(1064 693)" fill="#2a52c6"/><rect width="3" height="3" transform="translate(1077 693)" fill="#2a52c6"/><rect width="3" height="3" transform="translate(1090 693)" fill="#2a52c6"/><rect width="3" height="3" transform="translate(1103 693)" fill="#2a52c6"/><rect width="3" height="3" transform="translate(1116 693)" fill="#2a52c6"/><rect width="3" height="3" transform="translate(1129 693)" fill="#2a52c6"/><rect width="3" height="3" transform="translate(1142 693)" fill="#2a52c6"/><rect width="3" height="3" transform="translate(1064 706)" fill="#2a52c6"/><rect width="3" height="3" transform="translate(1077 706)" fill="#2a52c6"/><rect width="3" height="3" transform="translate(1090 706)" fill="#2a52c6"/><rect width="3" height="3" transform="translate(1103 706)" fill="#2a52c6"/><rect width="3" height="3" transform="translate(1116 706)" fill="#2a52c6"/><rect width="3" height="3" transform="translate(1129 706)" fill="#2a52c6"/><rect width="3" height="3" transform="translate(1142 706)" fill="#2a52c6"/><rect width="3" height="3" transform="translate(1064 719)" fill="#2a52c6"/><rect width="3" height="3" transform="translate(1077 719)" fill="#2a52c6"/><rect width="3" height="3" transform="translate(1090 719)" fill="#2a52c6"/><rect width="3" height="3" transform="translate(1103 719)" fill="#2a52c6"/><rect width="3" height="3" transform="translate(1116 719)" fill="#2a52c6"/><rect width="3" height="3" transform="translate(1129 719)" fill="#2a52c6"/><rect width="3" height="3" transform="translate(1142 719)" fill="#2a52c6"/><rect width="3" height="3" transform="translate(1064 731)" fill="#2a52c6"/><rect width="3" height="3" transform="translate(1077 731)" fill="#2a52c6"/><rect width="3" height="3" transform="translate(1090 731)" fill="#2a52c6"/><rect width="3" height="3" transform="translate(1103 731)" fill="#2a52c6"/><rect width="3" height="3" transform="translate(1116 731)" fill="#2a52c6"/><rect width="3" height="3" transform="translate(1129 731)" fill="#2a52c6"/><rect width="3" height="3" transform="translate(1142 731)" fill="#2a52c6"/><rect width="3" height="3" transform="translate(1064 744)" fill="#2a52c6"/><rect width="3" height="3" transform="translate(1077 744)" fill="#2a52c6"/><rect width="3" height="3" transform="translate(1090 744)" fill="#2a52c6"/><rect width="3" height="3" transform="translate(1103 744)" fill="#2a52c6"/><rect width="3" height="3" transform="translate(1116 744)" fill="#2a52c6"/><rect width="3" height="3" transform="translate(1129 744)" fill="#2a52c6"/><rect width="3" height="3" transform="translate(1142 744)" fill="#2a52c6"/></g></g><g transform="translate(955 10266)"><g transform="translate(760.729 -1064) rotate(90)"><rect width="3.515" height="3.515" transform="translate(1064 667)" fill="#fff"/><rect width="3.515" height="3.515" transform="translate(1079.231 667)" fill="#fff"/><rect width="3.515" height="3.515" transform="translate(1094.462 667)" fill="#fff"/><rect width="3.515" height="3.515" transform="translate(1109.693 667)" fill="#fff"/><rect width="3.515" height="3.515" transform="translate(1124.924 667)" fill="#fff"/><rect width="3.515" height="3.515" transform="translate(1140.155 667)" fill="#fff"/><rect width="3.515" height="3.515" transform="translate(1155.386 667)" fill="#fff"/><rect width="3.515" height="3.515" transform="translate(1064 682.231)" fill="#fff"/><rect width="3.515" height="3.515" transform="translate(1079.231 682.231)" fill="#fff"/><rect width="3.515" height="3.515" transform="translate(1094.462 682.231)" fill="#fff"/><rect width="3.515" height="3.515" transform="translate(1109.693 682.231)" fill="#fff"/><rect width="3.515" height="3.515" transform="translate(1124.924 682.231)" fill="#fff"/><rect width="3.515" height="3.515" transform="translate(1140.155 682.231)" fill="#fff"/><rect width="3.515" height="3.515" transform="translate(1155.386 682.231)" fill="#fff"/><rect width="3.515" height="3.515" transform="translate(1064 697.462)" fill="#fff"/><rect width="3.515" height="3.515" transform="translate(1079.231 697.462)" fill="#fff"/><rect width="3.515" height="3.515" transform="translate(1094.462 697.462)" fill="#fff"/><rect width="3.515" height="3.515" transform="translate(1109.693 697.462)" fill="#fff"/><rect width="3.515" height="3.515" transform="translate(1124.924 697.462)" fill="#fff"/><rect width="3.515" height="3.515" transform="translate(1140.155 697.462)" fill="#fff"/><rect width="3.515" height="3.515" transform="translate(1155.386 697.462)" fill="#fff"/><rect width="3.515" height="3.515" transform="translate(1064 712.693)" fill="#fff"/><rect width="3.515" height="3.515" transform="translate(1079.231 712.693)" fill="#fff"/><rect width="3.515" height="3.515" transform="translate(1094.462 712.693)" fill="#fff"/><rect width="3.515" height="3.515" transform="translate(1109.693 712.693)" fill="#fff"/><rect width="3.515" height="3.515" transform="translate(1124.924 712.693)" fill="#fff"/><rect width="3.515" height="3.515" transform="translate(1140.155 712.693)" fill="#fff"/><rect width="3.515" height="3.515" transform="translate(1155.386 712.693)" fill="#fff"/><rect width="3.515" height="3.515" transform="translate(1064 727.924)" fill="#fff"/><rect width="3.515" height="3.515" transform="translate(1079.231 727.924)" fill="#fff"/><rect width="3.515" height="3.515" transform="translate(1094.462 727.924)" fill="#fff"/><rect width="3.515" height="3.515" transform="translate(1109.693 727.924)" fill="#fff"/><rect width="3.515" height="3.515" transform="translate(1124.924 727.924)" fill="#fff"/><rect width="3.515" height="3.515" transform="translate(1140.155 727.924)" fill="#fff"/><rect width="3.515" height="3.515" transform="translate(1155.386 727.924)" fill="#fff"/><rect width="3.515" height="3.515" transform="translate(1064 741.983)" fill="#fff"/><rect width="3.515" height="3.515" transform="translate(1079.231 741.983)" fill="#fff"/><rect width="3.515" height="3.515" transform="translate(1094.462 741.983)" fill="#fff"/><rect width="3.515" height="3.515" transform="translate(1109.693 741.983)" fill="#fff"/><rect width="3.515" height="3.515" transform="translate(1124.924 741.983)" fill="#fff"/><rect width="3.515" height="3.515" transform="translate(1140.155 741.983)" fill="#fff"/><rect width="3.515" height="3.515" transform="translate(1155.386 741.983)" fill="#fff"/><rect width="3.515" height="3.515" transform="translate(1064 757.214)" fill="#fff"/><rect width="3.515" height="3.515" transform="translate(1079.231 757.214)" fill="#fff"/><rect width="3.515" height="3.515" transform="translate(1094.462 757.214)" fill="#fff"/><rect width="3.515" height="3.515" transform="translate(1109.693 757.214)" fill="#fff"/><rect width="3.515" height="3.515" transform="translate(1124.924 757.214)" fill="#fff"/><rect width="3.515" height="3.515" transform="translate(1140.155 757.214)" fill="#fff"/><rect width="3.515" height="3.515" transform="translate(1155.386 757.214)" fill="#fff"/></g></g></g></svg>