<svg xmlns="http://www.w3.org/2000/svg" width="787" height="364.228" viewBox="0 0 787 364.228">
  <g id="Group_23293" data-name="Group 23293" transform="translate(-403.556 -10721.285)">
    <ellipse id="Ellipse_4773" data-name="Ellipse 4773" cx="393.5" cy="29.086" rx="393.5" ry="29.086" transform="translate(403.556 11027.342)" fill="#f5bfcb" opacity="0.3"/>
    <g id="Group_23151" data-name="Group 23151" transform="translate(592.84 10721.285)">
      <path id="Path_31217" data-name="Path 31217" d="M0,16.281H8.14V4.07A4.07,4.07,0,0,0,4.07,0h0A4.07,4.07,0,0,0,0,4.07v12.21Z" transform="translate(139.101 169.651) rotate(155.164)" fill="#ffb9b9"/>
      <path id="Path_31218" data-name="Path 31218" d="M302.871,171.829h0a29.654,29.654,0,0,0-29.654,29.654v33.143h59.308V201.483a29.654,29.654,0,0,0-29.654-29.654Z" transform="translate(-242.983 -171.829)" fill="#2f2e41"/>
      <path id="Path_31219" data-name="Path 31219" d="M269.252,689.584l6.4-1.163,4.652-25.584-13.083.286Z" transform="translate(-187.268 -377.339)" fill="#ffb9b9"/>
      <path id="Path_31220" data-name="Path 31220" d="M378.437,713.4,385,716.433,395.462,686.2l-11.21-1.868Z" transform="translate(-367.1 -386.334)" fill="#ffb9b9"/>
      <path id="Path_31221" data-name="Path 31221" d="M363.5,632.87l17.153.877,46.807-113.1L428.738,622.5l16.458-2.128c11.6-63.384,21.2-119.691,6.105-154.962l-51.168,4.07Z" transform="translate(-349.257 -333.131)" fill="#2f2e41"/>
      <path id="Path_31222" data-name="Path 31222" d="M391.909,790.53l6.656-.36a1.721,1.721,0,0,0,1.406-2.563l-10.131-17.974-8.9.741-1.373,6.408a6.5,6.5,0,0,0,2.346,6.475l4.363,3.418A5.606,5.606,0,0,0,391.909,790.53Z" transform="translate(-299.644 -460.462)" fill="#2f2e41"/>
      <path id="Path_31223" data-name="Path 31223" d="M516.454,816.326,522.2,818.3a2.335,2.335,0,0,0,2.269-.427l10.007-8.484a6.2,6.2,0,0,0,1.915-6.549l-1.257-4.084-9.527-1.844-10.355,15.932a2.335,2.335,0,0,0,1.2,3.481Z" transform="translate(-514.878 -471.88)" fill="#2f2e41"/>
      <circle id="Ellipse_4770" data-name="Ellipse 4770" cx="19.769" cy="19.769" r="19.769" transform="translate(44.189 6.978)" fill="#ffb9b9"/>
      <path id="Path_31224" data-name="Path 31224" d="M307.717,256.191l23.258,4.07,2.326-18.606-18.025-2.326Z" transform="translate(-263.818 -200.081)" fill="#ffb9b9"/>
      <path id="Path_31225" data-name="Path 31225" d="M376.183,418.118l59.89-5.815c-2.937-31.953-12.779-60.134-33.143-82.566l-29.073-2.326Z" transform="translate(-332.284 -275.371)" fill="#3f3d56"/>
      <path id="Path_31226" data-name="Path 31226" d="M246.42,371.449l12.211-4.07-21.072-42.6-31.55-51.308-12.792-8.14,28.3,63.427Z" transform="translate(-122.572 -210.963)" fill="#3f3d56"/>
      <path id="Path_31227" data-name="Path 31227" d="M285.194,195.528l36.05,6.977-5.815-18.025L294.5,179.829l-16.281,5.815Z" transform="translate(-234.609 -175.177)" fill="#2f2e41"/>
      <path id="Path_31231" data-name="Path 31231" d="M54.477,0A54.477,54.477,0,1,1,0,54.477,54.477,54.477,0,0,1,54.477,0Z" transform="translate(70.612 57.764)" fill="#38a2ff"/>
      <path id="Path_31228" data-name="Path 31228" d="M207.059,424.613l32.958-8.619,32.959-8.619-23.944-24.233-23.944-24.234-9.015,32.853Z" transform="translate(-144.966 -250.13)" fill="#38a2ff"/>
      <circle id="Ellipse_4772" data-name="Ellipse 4772" cx="19.545" cy="19.545" r="19.545" transform="translate(105.477 92.144)" fill="#fff"/>
      <path id="Path_31229" data-name="Path 31229" d="M0,16.281H8.14V4.07A4.07,4.07,0,0,0,4.07,0h0A4.07,4.07,0,0,0,0,4.07Z" transform="translate(73.978 183.024) rotate(155.164)" fill="#ffb9b9"/>
      <path id="Path_31230" data-name="Path 31230" d="M466.337,453.068l10.466-6.4-5.488-37.357-22.712-76.9-4.314,1.649A18.556,18.556,0,0,0,432.941,356l14.719,57.434Z" transform="translate(-407.029 -277.464)" fill="#3f3d56"/>
    </g>
    <g id="Group_23152" data-name="Group 23152" transform="translate(330.451 4316.338)">
      <g id="Group_18027" data-name="Group 18027" transform="translate(555.107 6594.663)">
        <path id="Path_20276" data-name="Path 20276" d="M673.13,393c-3.843-14.938-20.921-33.807-37.905-26.729-8.574,3.573-6.387,19.173-3.4,25.513,5.765,12.253,20.132,18.412,32.564,20.9,2.187.44,6.564,4.133,9.72,4.133C675.514,416.814,677.077,408.337,673.13,393Z" transform="translate(-629.177 -322.802)" fill="#c2d0a3" fill-rule="evenodd"/>
        <path id="Path_20277" data-name="Path 20277" d="M671.766,395.178c5.443-10.647,21.184-22.385,32.969-14.353,5.947,4.057,1.843,15.559-1.416,19.906-6.3,8.4-18.173,10.819-27.995,10.759-1.73-.01-5.634,2.108-8.028,1.613C666.225,412.882,666.655,405.173,671.766,395.178Z" transform="translate(-612.72 -316.93)" fill="#c2d0a3" fill-rule="evenodd"/>
        <path id="Path_20278" data-name="Path 20278" d="M662.338,407.46c-3.81-19.066-2.412-44.9,11.132-60.374,6.732-7.7,17.682-15.667,28.028-9.084,5.929,3.773,5.993,11.782,5.993,17.976,0,16.362-14.6,31.637-22.422,45.041-3.666,6.278-8.028,14.212-13.147,19.327-1.262,1.266-3.511,3.729-5.731.538S662.338,407.46,662.338,407.46Z" transform="translate(-615.482 -335.558)" fill="#c2d0a3" fill-rule="evenodd"/>
        <path id="Path_20279" data-name="Path 20279" d="M705.467,381.177c-12.622,6.022-37.752,29.136-39.445,38.009" transform="translate(-613.069 -315.614)" fill="none" stroke="#8ea06a" stroke-linecap="round" stroke-linejoin="round" stroke-width="1"/>
        <path id="Path_20280" data-name="Path 20280" d="M696.927,337.147c-3.955,5.513-21.875,31.932-26.957,57.477-1.712,8.612-4.138,22.95-4.507,31.348-.112,2.6-.579,12.146-.579,12.146" transform="translate(-613.566 -334.863)" fill="none" stroke="#8ea06a" stroke-linecap="round" stroke-linejoin="round" stroke-width="1"/>
        <path id="Path_20281" data-name="Path 20281" d="M677.539,425.393c0-4.843-6.05-12.038-8.331-15.839-1.552-2.59-21.39-36.527-36.78-42.456" transform="translate(-627.755 -321.769)" fill="none" stroke="#8ea06a" stroke-linecap="round" stroke-linejoin="round" stroke-width="1"/>
        <path id="Path_20282" data-name="Path 20282" d="M685.693,406.369h-31.24a2.37,2.37,0,0,0-2.37,2.37s4.961,41.356,6.269,41.356l23.218.019c1.309,0,6.489-41.375,6.489-41.375A2.369,2.369,0,0,0,685.693,406.369Z" transform="translate(-619.162 -304.601)" fill="#dcdddf" fill-rule="evenodd"/>
        <path id="Path_20283" data-name="Path 20283" d="M687.189,406.291H653.612a2.366,2.366,0,0,0-2.366,2.37v5.489a2.366,2.366,0,0,0,2.366,2.366h33.577a2.371,2.371,0,0,0,2.371-2.366v-5.489A2.371,2.371,0,0,0,687.189,406.291Z" transform="translate(-619.528 -304.635)" fill="#b9bfcd" fill-rule="evenodd"/>
      </g>
    </g>
  </g>
</svg>
