<svg xmlns="http://www.w3.org/2000/svg" width="254.922" height="347.489" viewBox="0 0 254.922 347.489">
  <g id="Group_23035" data-name="Group 23035" transform="translate(-2187.35 7558.069)">
    <path id="Path_30965" data-name="Path 30965" d="M306.422,786.391c0,11.807-56.727,21.373-126.824,21.435h-.637c-34.216,0-65.286-2.268-88.181-5.948-.98-.168-1.946-.327-2.892-.494-3.892-.662-7.531-1.377-10.882-2.118C60.991,795.674,51.5,791.218,51.5,786.391c0-3.909,6.209-7.563,17.056-10.722a183.807,183.807,0,0,1,20.832-4.527q2.231-.384,4.578-.724c22.552-3.4,52.341-5.462,84.995-5.462,6.346,0,12.589.079,18.687.229C259.179,766.7,306.422,775.616,306.422,786.391Z" transform="translate(2135.85 -8018.407)" fill="rgba(245,191,203,0.3)"/>
    <path id="Path_30966" data-name="Path 30966" d="M201.429,571.35l2.529,19.723s1.011,6.574,2.023,10.114c0,0-1.011,18.712,7.08,31.86l5.057,9.609,1.011,14.16,12.643,1.517-2.529-21.24s-1.011-10.114,0-14.16-5.057-22.757-5.057-22.757,8.092-26.3,2.023-32.872S201.429,571.35,201.429,571.35Z" transform="translate(2093.691 -7920.71)" fill="#a0616a"/>
    <path id="Path_30967" data-name="Path 30967" d="M228.071,726.354s-5.563,0-6.069,1.517-8.6,15.172-8.6,15.172-7.08,11.126,3.034,11.632,13.149-4.046,13.149-4.046,9.1-14.666,9.609-17.195-3.8-7.948-3.8-7.948S229.588,729.388,228.071,726.354Z" transform="translate(2089.3 -7994.292)" fill="#2f2e41"/>
    <circle id="Ellipse_4766" data-name="Ellipse 4766" cx="17.194" cy="17.194" r="17.194" transform="translate(2307.257 -7550.131)" fill="#a0616a"/>
    <path id="Path_30968" data-name="Path 30968" d="M223.029,247.124s0,18.712-6.574,20.229,9.1,18.712,17.7,16.689,12.137-15.677,12.137-15.677-7.586-9.609-4.552-14.666S223.029,247.124,223.029,247.124Z" transform="translate(2087.515 -7774.75)" fill="#a0616a"/>
    <path id="Path_30969" data-name="Path 30969" d="M207.027,288.754a15.14,15.14,0,0,1-12.132-6.748s-7.085,1.185-8.1,1.691-18.712,6.069-22.757,17.7l16.183,20.735s-3.54,29.332,0,42.48a37.264,37.264,0,0,1-1.517,23.769s-1.517.506,1.011,1.517,60.686-10.62,61.7-13.654-1.011-3.034.506-4.551,5.563-10.62,1.517-13.654-6.574-36.412-6.574-36.412l10.62-26.8s-19.41-15.512-26.394-13.572C221.091,281.251,219.67,288.754,207.027,288.754Z" transform="translate(2110.85 -7790.335)" fill="#d0cde1"/>
    <path id="Path_30970" data-name="Path 30970" d="M255.426,556.575s-1.011,22.252,1.011,30.849,2.023,12.137,2.023,12.137-3.034,14.666-1.517,28.32-1.77,35.664-1.77,35.664l12.39,3.782,7.586-38.435s6.069-23.769,2.529-34.895c0,0,2.023-33.883,3.54-37.423S255.426,556.575,255.426,556.575Z" transform="translate(2069.025 -7916.049)" fill="#a0616a"/>
    <path id="Path_30971" data-name="Path 30971" d="M223.075,219.053c.228-1.613.71-3.372,2.085-4.245,1.428-.906,3.271-.534,4.957-.411s3.753-.3,4.307-1.9c.346-1-.028-2.187.511-3.093.858-1.442,3.478-1.277,3.93-2.893a12.761,12.761,0,0,1,.211-1.573,2.328,2.328,0,0,1,1.76-1.086,28.146,28.146,0,0,1,7.8-.687,1.036,1.036,0,0,0,.74-.146.9.9,0,0,0,.239-.416,5.678,5.678,0,0,0-1.213-5.228,12.781,12.781,0,0,0-4.52-3.23,33.1,33.1,0,0,0-12.2-3.241c-3.226-.2-6.612.149-9.36,1.851a13.248,13.248,0,0,0-2.254,1.8,19.784,19.784,0,0,0-5.56,11.061A24.918,24.918,0,0,0,215.866,218a12.913,12.913,0,0,0,4.38,6.294c1.142.785,2.126,1.509,2.6.177C223.35,223.061,222.854,220.619,223.075,219.053Z" transform="translate(2087.806 -7748.927)" fill="#2f2e41"/>
    <path id="Path_30972" data-name="Path 30972" d="M190.5,464.453s-7.586,10.114-6.069,17.194,7.08,18.712,7.08,18.712-3.034,22.757,2.023,22.757,26.8-1.011,27.309-3.54-1.517-27.815-1.517-27.815,2.529,22.252,4.046,22.252,27.815,2.529,28.826,1.011,3.034-40.458,3.034-40.458,2.758-18.365-5.954-20.814S190.5,464.453,190.5,464.453Z" transform="translate(2101.583 -7869.442)" fill="#2f2e41"/>
    <path id="Path_30973" data-name="Path 30973" d="M256.218,752.941s-9.1-5.057-9.609-1.011-6.069,18.712-6.069,18.712-5.563,11.632,6.574,12.137,15.172-5.057,15.172-7.586-1.36-19.876-1.36-19.876Z" transform="translate(2076.324 -8005.708)" fill="#2f2e41"/>
    <path id="Path_30974" data-name="Path 30974" d="M314.985,356.951l2.529,22.252s3.034,12.137,1.011,17.194-9.609,28.32-9.609,28.32-2.023-12.643-7.08-14.16l3.034-28.826s-7.24-17.988-5.643-20.373S314.985,356.951,314.985,356.951Z" transform="translate(2048.912 -7825.154)" fill="#a0616a"/>
    <path id="Path_30975" data-name="Path 30975" d="M162.171,359.755l1.011,20.229a73.189,73.189,0,0,0,3.54,36.412l1.011,8.092,6.574,12.643s1.517-12.137,4.551-12.137c0,0-3.034-8.092-2.023-12.643s-.506-28.826-.506-28.826l2.529-19.637Z" transform="translate(2111.708 -7826.441)" fill="#a0616a"/>
    <path id="Path_30976" data-name="Path 30976" d="M301.1,305.542h5.563s13.149,30.343,8.092,30.849-21.24,4.551-21.746,2.529S301.1,305.542,301.1,305.542Z" transform="translate(2051.67 -7801.561)" fill="#d0cde1"/>
    <path id="Path_30977" data-name="Path 30977" d="M165.87,310.216l-4.551,4.552s-6.069,22.757-1.517,25.286,21.746,5.563,22.757,3.54S165.87,310.216,165.87,310.216Z" transform="translate(2113.573 -7803.706)" fill="#d0cde1"/>
  </g>
</svg>
